<svg xmlns="http://www.w3.org/2000/svg" xmlns:xlink="http://www.w3.org/1999/xlink" width="72" zoomAndPan="magnify" viewBox="0 0 54 54" height="72" preserveAspectRatio="xMidYMid meet" version="1.0"><defs><clipPath id="048fec2a36"><path d="M 5.792969 5.300781 L 48.5 5.300781 L 48.5 48.011719 L 5.792969 48.011719 Z M 5.792969 5.300781 " clip-rule="nonzero"/></clipPath><clipPath id="7e46c7002f"><path d="M 11.78125 11.292969 L 41.972656 11.292969 L 41.972656 41.480469 L 11.78125 41.480469 Z M 11.78125 11.292969 " clip-rule="nonzero"/></clipPath><clipPath id="6afa175781"><path d="M 16.847656 15.90625 L 37.464844 15.90625 L 37.464844 37.261719 L 16.847656 37.261719 Z M 16.847656 15.90625 " clip-rule="nonzero"/></clipPath></defs><path fill="#0032a0" d="M 38.554688 34.097656 L 15.738281 34.097656 C 15.121094 34.097656 14.621094 33.5625 14.621094 32.90625 L 14.621094 20.40625 C 14.621094 19.75 15.121094 19.214844 15.738281 19.214844 L 38.554688 19.214844 C 39.171875 19.214844 39.675781 19.75 39.675781 20.40625 L 39.675781 32.90625 C 39.675781 33.5625 39.171875 34.097656 38.554688 34.097656 Z M 15.738281 19.785156 C 15.433594 19.785156 15.1875 20.0625 15.1875 20.40625 L 15.1875 32.90625 C 15.1875 33.25 15.433594 33.527344 15.738281 33.527344 L 38.554688 33.527344 C 38.859375 33.527344 39.105469 33.25 39.105469 32.90625 L 39.105469 20.40625 C 39.105469 20.0625 38.859375 19.785156 38.554688 19.785156 Z M 15.738281 19.785156 " fill-opacity="1" fill-rule="nonzero"/><path fill="#0032a0" d="M 23.734375 29.5625 L 16.429688 29.5625 C 16.269531 29.5625 16.144531 29.433594 16.144531 29.277344 C 16.144531 29.117188 16.269531 28.992188 16.429688 28.992188 L 23.734375 28.992188 C 23.890625 28.992188 24.019531 29.117188 24.019531 29.277344 C 24.019531 29.433594 23.890625 29.5625 23.734375 29.5625 Z M 23.734375 29.5625 " fill-opacity="1" fill-rule="nonzero"/><path fill="#0032a0" d="M 23.734375 30.882812 L 16.429688 30.882812 C 16.269531 30.882812 16.144531 30.753906 16.144531 30.597656 C 16.144531 30.441406 16.269531 30.3125 16.429688 30.3125 L 23.734375 30.3125 C 23.890625 30.3125 24.019531 30.441406 24.019531 30.597656 C 24.019531 30.753906 23.890625 30.882812 23.734375 30.882812 Z M 23.734375 30.882812 " fill-opacity="1" fill-rule="nonzero"/><path fill="#0032a0" d="M 23.734375 32.207031 L 16.429688 32.207031 C 16.269531 32.207031 16.144531 32.078125 16.144531 31.921875 C 16.144531 31.761719 16.269531 31.636719 16.429688 31.636719 L 23.734375 31.636719 C 23.890625 31.636719 24.019531 31.761719 24.019531 31.921875 C 24.019531 32.078125 23.890625 32.207031 23.734375 32.207031 Z M 23.734375 32.207031 " fill-opacity="1" fill-rule="nonzero"/><path fill="#0032a0" d="M 23.6875 27.503906 L 16.476562 27.503906 C 16.320312 27.503906 16.191406 27.375 16.191406 27.21875 L 16.191406 21.1875 C 16.191406 21.03125 16.316406 20.902344 16.476562 20.902344 L 23.6875 20.902344 C 23.84375 20.902344 23.972656 21.03125 23.972656 21.1875 L 23.972656 27.21875 C 23.972656 27.375 23.84375 27.503906 23.6875 27.503906 Z M 16.761719 26.933594 L 23.402344 26.933594 L 23.402344 21.472656 L 16.761719 21.472656 Z M 16.761719 26.933594 " fill-opacity="1" fill-rule="nonzero"/><path fill="#0032a0" d="M 20.082031 25.765625 C 19.019531 25.765625 18.152344 24.902344 18.152344 23.839844 C 18.152344 22.777344 19.019531 21.914062 20.082031 21.914062 C 21.144531 21.914062 22.007812 22.777344 22.007812 23.839844 C 22.007812 24.902344 21.144531 25.765625 20.082031 25.765625 Z M 20.082031 22.480469 C 19.332031 22.480469 18.722656 23.089844 18.722656 23.839844 C 18.722656 24.589844 19.332031 25.199219 20.082031 25.199219 C 20.828125 25.199219 21.4375 24.589844 21.4375 23.839844 C 21.4375 23.089844 20.828125 22.480469 20.082031 22.480469 Z M 20.082031 22.480469 " fill-opacity="1" fill-rule="nonzero"/><path fill="#0032a0" d="M 22.757812 27.503906 C 22.621094 27.503906 22.5 27.402344 22.476562 27.257812 C 22.355469 26.429688 21.308594 25.773438 20.097656 25.765625 L 20.066406 25.765625 C 18.855469 25.773438 17.808594 26.429688 17.6875 27.257812 C 17.664062 27.414062 17.519531 27.523438 17.363281 27.5 C 17.207031 27.476562 17.097656 27.332031 17.121094 27.175781 C 17.289062 26.054688 18.550781 25.203125 20.0625 25.195312 L 20.097656 25.195312 C 21.609375 25.203125 22.875 26.054688 23.039062 27.175781 C 23.0625 27.332031 22.957031 27.476562 22.800781 27.5 C 22.785156 27.5 22.773438 27.503906 22.757812 27.503906 Z M 22.757812 27.503906 " fill-opacity="1" fill-rule="nonzero"/><path fill="#0032a0" d="M 37.867188 27.503906 L 26.222656 27.503906 C 26.066406 27.503906 25.9375 27.375 25.9375 27.21875 C 25.9375 27.058594 26.066406 26.933594 26.222656 26.933594 L 37.867188 26.933594 C 38.023438 26.933594 38.152344 27.058594 38.152344 27.21875 C 38.152344 27.375 38.023438 27.503906 37.867188 27.503906 Z M 37.867188 27.503906 " fill-opacity="1" fill-rule="nonzero"/><path fill="#0032a0" d="M 37.867188 25.765625 L 26.222656 25.765625 C 26.066406 25.765625 25.9375 25.640625 25.9375 25.480469 C 25.9375 25.324219 26.066406 25.195312 26.222656 25.195312 L 37.867188 25.195312 C 38.023438 25.195312 38.152344 25.324219 38.152344 25.480469 C 38.152344 25.640625 38.023438 25.765625 37.867188 25.765625 Z M 37.867188 25.765625 " fill-opacity="1" fill-rule="nonzero"/><path fill="#0032a0" d="M 37.867188 24.113281 L 26.222656 24.113281 C 26.066406 24.113281 25.9375 23.988281 25.9375 23.828125 L 25.9375 21.1875 C 25.9375 21.03125 26.066406 20.902344 26.222656 20.902344 L 37.867188 20.902344 C 38.023438 20.902344 38.152344 21.03125 38.152344 21.1875 L 38.152344 23.828125 C 38.152344 23.988281 38.023438 24.113281 37.867188 24.113281 Z M 26.507812 23.542969 L 37.582031 23.542969 L 37.582031 21.472656 L 26.507812 21.472656 Z M 26.507812 23.542969 " fill-opacity="1" fill-rule="nonzero"/><path fill="#0032a0" d="M 28.128906 31.132812 C 28.082031 31.253906 28.039062 31.375 28.003906 31.496094 C 27.964844 31.363281 27.921875 31.238281 27.878906 31.132812 L 26.996094 28.667969 L 26.398438 28.667969 L 27.738281 32.125 L 28.265625 32.125 L 29.621094 28.667969 L 29.046875 28.667969 Z M 28.128906 31.132812 " fill-opacity="1" fill-rule="nonzero"/><path fill="#0032a0" d="M 30.109375 28.667969 L 30.667969 28.667969 L 30.667969 32.125 L 30.109375 32.125 Z M 30.109375 28.667969 " fill-opacity="1" fill-rule="nonzero"/><path fill="#0032a0" d="M 33.460938 30.230469 C 33.285156 30.164062 33.054688 30.101562 32.777344 30.039062 C 32.472656 29.972656 32.269531 29.902344 32.164062 29.835938 C 32.070312 29.777344 32.023438 29.6875 32.023438 29.5625 C 32.023438 29.421875 32.085938 29.316406 32.210938 29.242188 C 32.34375 29.160156 32.519531 29.121094 32.738281 29.121094 C 32.976562 29.121094 33.160156 29.171875 33.285156 29.269531 C 33.40625 29.367188 33.476562 29.511719 33.492188 29.710938 L 33.496094 29.765625 L 34.03125 29.722656 L 34.03125 29.667969 C 34.015625 29.332031 33.886719 29.066406 33.648438 28.882812 C 33.414062 28.703125 33.101562 28.609375 32.71875 28.609375 C 32.34375 28.609375 32.042969 28.703125 31.824219 28.886719 C 31.605469 29.070312 31.492188 29.308594 31.492188 29.59375 C 31.492188 29.84375 31.582031 30.050781 31.757812 30.210938 C 31.929688 30.363281 32.214844 30.484375 32.597656 30.566406 C 32.96875 30.648438 33.230469 30.726562 33.386719 30.808594 C 33.527344 30.882812 33.597656 30.996094 33.597656 31.15625 C 33.597656 31.3125 33.527344 31.433594 33.390625 31.523438 C 33.25 31.621094 33.058594 31.667969 32.824219 31.667969 C 32.570312 31.667969 32.355469 31.609375 32.175781 31.492188 C 32.003906 31.378906 31.910156 31.203125 31.894531 30.953125 L 31.890625 30.894531 L 31.359375 30.941406 L 31.359375 30.996094 C 31.375 31.34375 31.507812 31.632812 31.75 31.851562 C 31.992188 32.070312 32.359375 32.179688 32.84375 32.179688 C 33.222656 32.179688 33.535156 32.082031 33.773438 31.882812 C 34.015625 31.683594 34.136719 31.425781 34.136719 31.121094 C 34.136719 30.882812 34.070312 30.6875 33.933594 30.542969 C 33.804688 30.402344 33.644531 30.296875 33.460938 30.230469 Z M 33.460938 30.230469 " fill-opacity="1" fill-rule="nonzero"/><path fill="#0032a0" d="M 36.285156 28.667969 L 35.730469 28.667969 L 34.402344 32.125 L 34.992188 32.125 L 35.363281 31.105469 L 36.679688 31.105469 L 37.070312 32.125 L 37.695312 32.125 Z M 36.003906 29.289062 C 36.027344 29.367188 36.046875 29.429688 36.066406 29.484375 C 36.101562 29.582031 36.242188 29.960938 36.5 30.640625 L 35.53125 30.640625 L 35.875 29.71875 C 35.925781 29.585938 35.96875 29.441406 36.003906 29.289062 Z M 36.003906 29.289062 " fill-opacity="1" fill-rule="nonzero"/><g clip-path="url(#048fec2a36)"><path fill="#0032a0" d="M 27.148438 48.011719 C 24.265625 48.011719 21.46875 47.445312 18.835938 46.332031 C 16.292969 45.257812 14.007812 43.71875 12.046875 41.757812 C 10.085938 39.796875 8.546875 37.511719 7.46875 34.96875 C 6.359375 32.335938 5.792969 29.539062 5.792969 26.65625 C 5.792969 23.773438 6.359375 20.976562 7.46875 18.34375 C 8.546875 15.800781 10.085938 13.515625 12.046875 11.554688 C 14.007812 9.59375 16.292969 8.054688 18.835938 6.980469 C 21.46875 5.867188 24.265625 5.300781 27.148438 5.300781 C 30.03125 5.300781 32.828125 5.867188 35.460938 6.980469 C 38.003906 8.054688 40.285156 9.59375 42.246094 11.554688 C 44.210938 13.515625 45.75 15.800781 46.824219 18.34375 C 47.9375 20.976562 48.5 23.773438 48.5 26.65625 C 48.5 29.539062 47.9375 32.335938 46.824219 34.96875 C 45.75 37.511719 44.210938 39.796875 42.246094 41.757812 C 40.285156 43.71875 38.003906 45.257812 35.460938 46.332031 C 32.828125 47.445312 30.03125 48.011719 27.148438 48.011719 Z M 27.148438 5.863281 C 15.683594 5.863281 6.355469 15.191406 6.355469 26.65625 C 6.355469 38.121094 15.683594 47.449219 27.148438 47.449219 C 38.613281 47.449219 47.941406 38.121094 47.941406 26.65625 C 47.941406 15.191406 38.613281 5.863281 27.148438 5.863281 Z M 27.148438 5.863281 " fill-opacity="1" fill-rule="nonzero"/></g><g clip-path="url(#7e46c7002f)"><path fill="#ffffff" d="M 26.878906 11.292969 C 18.539062 11.292969 11.78125 18.050781 11.78125 26.386719 C 11.78125 34.722656 18.539062 41.480469 26.878906 41.480469 C 35.214844 41.480469 41.972656 34.722656 41.972656 26.386719 C 41.972656 18.050781 35.214844 11.292969 26.878906 11.292969 " fill-opacity="1" fill-rule="nonzero"/></g><g clip-path="url(#6afa175781)"><path fill="#0032a0" d="M 29.546875 20.851562 C 29.546875 19.542969 28.476562 18.480469 27.15625 18.480469 C 25.835938 18.480469 24.765625 19.542969 24.765625 20.851562 C 24.765625 22.15625 25.835938 23.222656 27.15625 23.222656 C 28.476562 23.222656 29.546875 22.15625 29.546875 20.851562 Z M 25.457031 20.851562 C 25.457031 19.921875 26.21875 19.167969 27.15625 19.167969 C 28.09375 19.167969 28.851562 19.921875 28.851562 20.851562 C 28.851562 21.777344 28.09375 22.53125 27.15625 22.53125 C 26.21875 22.53125 25.457031 21.777344 25.457031 20.851562 Z M 19.546875 33.855469 C 18.898438 33.855469 18.371094 34.378906 18.371094 35.023438 C 18.371094 35.667969 18.898438 36.1875 19.546875 36.1875 C 20.195312 36.1875 20.722656 35.667969 20.722656 35.023438 C 20.722656 34.378906 20.195312 33.855469 19.546875 33.855469 Z M 19.546875 35.5 C 19.28125 35.5 19.0625 35.285156 19.0625 35.023438 C 19.0625 34.757812 19.28125 34.542969 19.546875 34.542969 C 19.8125 34.542969 20.03125 34.757812 20.03125 35.023438 C 20.03125 35.285156 19.8125 35.5 19.546875 35.5 Z M 18.035156 30.566406 C 18.035156 30.375 18.191406 30.222656 18.382812 30.222656 L 20.710938 30.222656 C 20.902344 30.222656 21.058594 30.375 21.058594 30.566406 C 21.058594 30.753906 20.902344 30.910156 20.710938 30.910156 L 18.382812 30.910156 C 18.191406 30.910156 18.035156 30.753906 18.035156 30.566406 Z M 18.035156 32.226562 C 18.035156 32.035156 18.191406 31.878906 18.382812 31.878906 L 20.710938 31.878906 C 20.902344 31.878906 21.058594 32.035156 21.058594 32.226562 C 21.058594 32.414062 20.902344 32.570312 20.710938 32.570312 L 18.382812 32.570312 C 18.191406 32.570312 18.035156 32.414062 18.035156 32.226562 Z M 27.15625 33.855469 C 26.507812 33.855469 25.980469 34.378906 25.980469 35.023438 C 25.980469 35.667969 26.507812 36.1875 27.15625 36.1875 C 27.804688 36.1875 28.332031 35.667969 28.332031 35.023438 C 28.332031 34.378906 27.804688 33.855469 27.15625 33.855469 Z M 27.15625 35.5 C 26.890625 35.5 26.671875 35.285156 26.671875 35.023438 C 26.671875 34.757812 26.890625 34.542969 27.15625 34.542969 C 27.421875 34.542969 27.640625 34.757812 27.640625 35.023438 C 27.640625 35.285156 27.421875 35.5 27.15625 35.5 Z M 25.644531 30.566406 C 25.644531 30.375 25.800781 30.222656 25.992188 30.222656 L 28.320312 30.222656 C 28.511719 30.222656 28.667969 30.375 28.667969 30.566406 C 28.667969 30.753906 28.511719 30.910156 28.320312 30.910156 L 25.992188 30.910156 C 25.800781 30.910156 25.644531 30.753906 25.644531 30.566406 Z M 25.644531 32.226562 C 25.644531 32.035156 25.800781 31.878906 25.992188 31.878906 L 28.320312 31.878906 C 28.511719 31.878906 28.667969 32.035156 28.667969 32.226562 C 28.667969 32.414062 28.511719 32.570312 28.320312 32.570312 L 25.992188 32.570312 C 25.800781 32.570312 25.644531 32.414062 25.644531 32.226562 Z M 37.117188 28.414062 L 35.113281 28.414062 L 35.113281 27.097656 C 35.113281 26.910156 34.957031 26.753906 34.765625 26.753906 L 27.503906 26.753906 L 27.503906 25.785156 L 27.617188 25.785156 C 27.761719 25.785156 27.890625 25.699219 27.941406 25.566406 L 28.175781 24.96875 C 28.597656 24.867188 29 24.699219 29.371094 24.476562 L 29.960938 24.734375 C 30.09375 24.792969 30.246094 24.765625 30.347656 24.664062 L 31.003906 24.015625 C 31.105469 23.914062 31.132812 23.761719 31.074219 23.632812 L 30.8125 23.046875 C 31.039062 22.675781 31.207031 22.28125 31.308594 21.859375 L 31.910156 21.628906 C 32.046875 21.578125 32.132812 21.453125 32.132812 21.308594 L 32.132812 20.390625 C 32.132812 20.25 32.046875 20.121094 31.910156 20.070312 L 31.308594 19.839844 C 31.207031 19.421875 31.039062 19.023438 30.8125 18.652344 L 31.074219 18.070312 C 31.132812 17.9375 31.105469 17.785156 31.003906 17.683594 L 30.347656 17.035156 C 30.246094 16.9375 30.09375 16.90625 29.960938 16.964844 L 29.371094 17.226562 C 29 17 28.597656 16.835938 28.175781 16.734375 L 27.941406 16.136719 C 27.890625 16.003906 27.761719 15.914062 27.617188 15.914062 L 26.691406 15.914062 C 26.550781 15.914062 26.421875 16.003906 26.371094 16.136719 L 26.136719 16.734375 C 25.714844 16.835938 25.3125 17 24.9375 17.226562 L 24.351562 16.964844 C 24.21875 16.90625 24.066406 16.9375 23.964844 17.035156 L 23.308594 17.683594 C 23.207031 17.785156 23.179688 17.9375 23.238281 18.070312 L 23.5 18.652344 C 23.273438 19.023438 23.105469 19.421875 23.003906 19.839844 L 22.402344 20.070312 C 22.265625 20.121094 22.179688 20.25 22.179688 20.390625 L 22.179688 21.308594 C 22.179688 21.453125 22.265625 21.578125 22.402344 21.628906 L 23.003906 21.859375 C 23.105469 22.28125 23.273438 22.679688 23.5 23.046875 L 23.238281 23.632812 C 23.179688 23.761719 23.207031 23.914062 23.308594 24.015625 L 23.964844 24.664062 C 24.066406 24.765625 24.21875 24.792969 24.351562 24.734375 L 24.9375 24.476562 C 25.3125 24.699219 25.714844 24.867188 26.136719 24.96875 L 26.371094 25.566406 C 26.421875 25.699219 26.550781 25.785156 26.691406 25.785156 L 26.808594 25.785156 L 26.808594 26.753906 L 19.546875 26.753906 C 19.355469 26.753906 19.199219 26.910156 19.199219 27.097656 L 19.199219 28.414062 L 17.195312 28.414062 C 17.003906 28.414062 16.847656 28.566406 16.847656 28.757812 L 16.847656 36.90625 C 16.847656 37.09375 17.003906 37.25 17.195312 37.25 L 21.898438 37.25 C 22.089844 37.25 22.246094 37.09375 22.246094 36.90625 L 22.246094 28.757812 C 22.246094 28.566406 22.089844 28.414062 21.898438 28.414062 L 19.894531 28.414062 L 19.894531 27.441406 L 26.808594 27.441406 L 26.808594 28.414062 L 24.804688 28.414062 C 24.613281 28.414062 24.457031 28.566406 24.457031 28.757812 L 24.457031 36.90625 C 24.457031 37.09375 24.613281 37.25 24.804688 37.25 L 29.507812 37.25 C 29.699219 37.25 29.855469 37.09375 29.855469 36.90625 L 29.855469 28.757812 C 29.855469 28.566406 29.699219 28.414062 29.507812 28.414062 L 27.503906 28.414062 L 27.503906 27.441406 L 34.417969 27.441406 L 34.417969 28.414062 L 32.414062 28.414062 C 32.222656 28.414062 32.066406 28.566406 32.066406 28.757812 L 32.066406 36.90625 C 32.066406 37.09375 32.222656 37.25 32.414062 37.25 L 37.117188 37.25 C 37.308594 37.25 37.464844 37.09375 37.464844 36.90625 L 37.464844 28.757812 C 37.464844 28.566406 37.308594 28.414062 37.117188 28.414062 Z M 26.460938 24.335938 C 25.996094 24.242188 25.558594 24.0625 25.164062 23.800781 C 25.0625 23.734375 24.9375 23.722656 24.828125 23.773438 L 24.285156 24.011719 L 23.96875 23.695312 L 24.210938 23.160156 C 24.257812 23.050781 24.246094 22.925781 24.179688 22.828125 C 23.914062 22.433594 23.734375 22 23.640625 21.539062 C 23.617188 21.421875 23.535156 21.328125 23.425781 21.285156 L 22.871094 21.074219 L 22.871094 20.628906 L 23.425781 20.417969 C 23.539062 20.375 23.617188 20.277344 23.640625 20.160156 C 23.734375 19.699219 23.914062 19.265625 24.179688 18.875 C 24.246094 18.777344 24.257812 18.652344 24.210938 18.542969 L 23.96875 18.003906 L 24.285156 17.691406 L 24.828125 17.929688 C 24.9375 17.976562 25.0625 17.964844 25.164062 17.902344 C 25.558594 17.636719 25.996094 17.457031 26.460938 17.367188 C 26.578125 17.34375 26.675781 17.261719 26.71875 17.152344 L 26.929688 16.605469 L 27.378906 16.605469 L 27.59375 17.152344 C 27.636719 17.261719 27.734375 17.34375 27.851562 17.367188 C 28.316406 17.457031 28.753906 17.636719 29.148438 17.902344 C 29.25 17.964844 29.375 17.976562 29.484375 17.929688 L 30.027344 17.691406 L 30.34375 18.003906 L 30.101562 18.542969 C 30.054688 18.652344 30.066406 18.777344 30.132812 18.875 C 30.398438 19.265625 30.578125 19.699219 30.671875 20.160156 C 30.695312 20.277344 30.773438 20.375 30.886719 20.417969 L 31.441406 20.628906 L 31.441406 21.074219 L 30.886719 21.285156 C 30.773438 21.328125 30.695312 21.421875 30.671875 21.539062 C 30.578125 22 30.398438 22.433594 30.132812 22.828125 C 30.066406 22.925781 30.054688 23.050781 30.101562 23.15625 L 30.34375 23.695312 L 30.027344 24.011719 L 29.484375 23.773438 C 29.375 23.722656 29.25 23.734375 29.148438 23.800781 C 28.753906 24.0625 28.316406 24.242188 27.851562 24.335938 C 27.734375 24.355469 27.636719 24.4375 27.59375 24.546875 L 27.378906 25.097656 L 26.933594 25.097656 L 26.71875 24.546875 C 26.675781 24.4375 26.578125 24.355469 26.460938 24.335938 Z M 21.550781 36.5625 L 17.542969 36.5625 L 17.542969 29.101562 L 21.550781 29.101562 Z M 29.160156 36.5625 L 25.152344 36.5625 L 25.152344 29.101562 L 29.160156 29.101562 Z M 36.769531 36.5625 L 32.761719 36.5625 L 32.761719 29.101562 L 36.769531 29.101562 Z M 34.765625 33.855469 C 34.117188 33.855469 33.589844 34.378906 33.589844 35.023438 C 33.589844 35.667969 34.117188 36.1875 34.765625 36.1875 C 35.414062 36.1875 35.941406 35.667969 35.941406 35.023438 C 35.941406 34.378906 35.414062 33.855469 34.765625 33.855469 Z M 34.765625 35.5 C 34.5 35.5 34.28125 35.285156 34.28125 35.023438 C 34.28125 34.757812 34.5 34.542969 34.765625 34.542969 C 35.03125 34.542969 35.246094 34.757812 35.246094 35.023438 C 35.246094 35.285156 35.03125 35.5 34.765625 35.5 Z M 33.253906 30.566406 C 33.253906 30.375 33.410156 30.222656 33.601562 30.222656 L 35.929688 30.222656 C 36.121094 30.222656 36.277344 30.375 36.277344 30.566406 C 36.277344 30.753906 36.121094 30.910156 35.929688 30.910156 L 33.601562 30.910156 C 33.410156 30.910156 33.253906 30.753906 33.253906 30.566406 Z M 33.253906 32.226562 C 33.253906 32.035156 33.410156 31.878906 33.601562 31.878906 L 35.929688 31.878906 C 36.121094 31.878906 36.277344 32.035156 36.277344 32.226562 C 36.277344 32.414062 36.121094 32.570312 35.929688 32.570312 L 33.601562 32.570312 C 33.410156 32.570312 33.253906 32.414062 33.253906 32.226562 Z M 33.253906 32.226562 " fill-opacity="1" fill-rule="nonzero"/></g></svg>