<svg xmlns="http://www.w3.org/2000/svg" xmlns:xlink="http://www.w3.org/1999/xlink" width="60" zoomAndPan="magnify" viewBox="0 0 45 44.999999" height="60" preserveAspectRatio="xMidYMid meet" version="1.0"><defs><clipPath id="id1"><path d="M 19 8.351562 L 35.90625 8.351562 L 35.90625 43.601562 L 19 43.601562 Z M 19 8.351562 " clip-rule="nonzero"/></clipPath><clipPath id="id2"><path d="M 4.5 16 L 21 16 L 21 43.601562 L 4.5 43.601562 Z M 4.5 16 " clip-rule="nonzero"/></clipPath></defs><rect x="-4.5" width="54" fill="#ffffff" y="-4.5" height="53.999999" fill-opacity="1"/><rect x="-4.5" width="54" fill="#ffffff" y="-4.5" height="53.999999" fill-opacity="1"/><rect x="-4.5" width="54" fill="#ffffff" y="-4.5" height="53.999999" fill-opacity="1"/><g clip-path="url(#id1)"><path fill="#0032a0" d="M 35.324219 8.382812 L 20.03125 13.332031 C 19.851562 13.390625 19.738281 13.554688 19.742188 13.734375 L 19.742188 43.1875 C 19.742188 43.417969 19.929688 43.601562 20.160156 43.601562 L 35.480469 43.601562 C 35.710938 43.601562 35.898438 43.417969 35.898438 43.1875 L 35.898438 8.765625 C 35.898438 8.535156 35.710938 8.351562 35.480469 8.351562 C 35.421875 8.351562 35.371094 8.363281 35.324219 8.382812 Z M 20.578125 14.023438 L 35.058594 9.332031 L 35.058594 42.773438 L 20.578125 42.773438 Z M 20.578125 14.023438 " fill-opacity="1" fill-rule="nonzero"/></g><g clip-path="url(#id2)"><path fill="#0032a0" d="M 20.03125 16.6875 L 4.742188 20.441406 L 4.738281 20.441406 C 4.546875 20.488281 4.417969 20.660156 4.421875 20.851562 L 4.421875 43.1875 C 4.421875 43.417969 4.609375 43.601562 4.839844 43.601562 L 20.160156 43.601562 C 20.390625 43.601562 20.578125 43.417969 20.578125 43.1875 L 20.578125 17.078125 C 20.578125 16.851562 20.390625 16.667969 20.160156 16.667969 C 20.113281 16.667969 20.070312 16.671875 20.03125 16.6875 Z M 5.257812 21.164062 L 19.742188 17.605469 L 19.742188 42.773438 L 5.257812 42.773438 Z M 5.257812 21.164062 " fill-opacity="1" fill-rule="nonzero"/></g><path fill="#0032a0" d="M 32.914062 12.40625 L 29.96875 12.40625 C 29.640625 12.40625 29.34375 12.539062 29.125 12.75 C 28.910156 12.964844 28.777344 13.257812 28.777344 13.582031 L 28.777344 14.613281 C 28.777344 14.9375 28.910156 15.230469 29.125 15.445312 C 29.34375 15.65625 29.640625 15.789062 29.96875 15.789062 L 32.914062 15.789062 C 33.238281 15.789062 33.539062 15.65625 33.753906 15.445312 C 33.96875 15.230469 34.101562 14.9375 34.101562 14.613281 L 34.101562 13.582031 C 34.101562 13.257812 33.96875 12.964844 33.753906 12.75 C 33.539062 12.539062 33.238281 12.40625 32.914062 12.40625 Z M 29.96875 13.234375 L 32.914062 13.234375 C 33.007812 13.234375 33.097656 13.273438 33.160156 13.335938 C 33.226562 13.398438 33.265625 13.484375 33.265625 13.582031 L 33.265625 14.613281 C 33.265625 14.710938 33.226562 14.796875 33.160156 14.859375 C 33.097656 14.921875 33.007812 14.960938 32.914062 14.960938 L 29.96875 14.960938 C 29.871094 14.960938 29.78125 14.921875 29.71875 14.859375 C 29.65625 14.796875 29.613281 14.710938 29.613281 14.613281 L 29.613281 13.582031 C 29.613281 13.484375 29.65625 13.398438 29.71875 13.335938 C 29.78125 13.273438 29.871094 13.234375 29.96875 13.234375 Z M 29.96875 13.234375 " fill-opacity="1" fill-rule="nonzero"/><path fill="#0032a0" d="M 32.914062 17.160156 L 29.96875 17.160156 C 29.640625 17.160156 29.34375 17.289062 29.125 17.503906 C 28.910156 17.714844 28.777344 18.007812 28.777344 18.332031 L 28.777344 19.367188 C 28.777344 19.6875 28.910156 19.984375 29.125 20.195312 C 29.34375 20.40625 29.640625 20.539062 29.96875 20.539062 L 32.914062 20.539062 C 33.238281 20.539062 33.539062 20.40625 33.753906 20.195312 C 33.96875 19.984375 34.101562 19.6875 34.101562 19.367188 L 34.101562 18.332031 C 34.101562 18.007812 33.96875 17.714844 33.753906 17.503906 C 33.539062 17.289062 33.238281 17.160156 32.914062 17.160156 Z M 29.96875 17.984375 L 32.914062 17.984375 C 33.007812 17.984375 33.097656 18.023438 33.160156 18.085938 C 33.226562 18.148438 33.265625 18.238281 33.265625 18.332031 L 33.265625 19.367188 C 33.265625 19.460938 33.226562 19.546875 33.160156 19.609375 C 33.097656 19.675781 33.007812 19.714844 32.914062 19.714844 L 29.96875 19.714844 C 29.871094 19.714844 29.78125 19.675781 29.71875 19.609375 C 29.65625 19.546875 29.613281 19.460938 29.613281 19.367188 L 29.613281 18.332031 C 29.613281 18.238281 29.65625 18.148438 29.71875 18.085938 C 29.78125 18.023438 29.871094 17.984375 29.96875 17.984375 Z M 29.96875 17.984375 " fill-opacity="1" fill-rule="nonzero"/><path fill="#0032a0" d="M 32.914062 21.910156 L 29.96875 21.910156 C 29.640625 21.910156 29.34375 22.042969 29.125 22.253906 C 28.910156 22.46875 28.777344 22.761719 28.777344 23.085938 L 28.777344 24.117188 C 28.777344 24.441406 28.910156 24.734375 29.125 24.945312 C 29.34375 25.160156 29.640625 25.292969 29.96875 25.292969 L 32.914062 25.292969 C 33.238281 25.292969 33.539062 25.160156 33.753906 24.945312 C 33.96875 24.734375 34.101562 24.441406 34.101562 24.117188 L 34.101562 23.085938 C 34.101562 22.761719 33.96875 22.46875 33.753906 22.253906 C 33.539062 22.042969 33.238281 21.910156 32.914062 21.910156 Z M 29.96875 22.734375 L 32.914062 22.734375 C 33.007812 22.734375 33.097656 22.773438 33.160156 22.839844 C 33.226562 22.902344 33.265625 22.988281 33.265625 23.085938 L 33.265625 24.117188 C 33.265625 24.210938 33.226562 24.300781 33.160156 24.363281 C 33.097656 24.425781 33.007812 24.464844 32.914062 24.464844 L 29.96875 24.464844 C 29.871094 24.464844 29.78125 24.425781 29.71875 24.363281 C 29.65625 24.300781 29.613281 24.210938 29.613281 24.117188 L 29.613281 23.085938 C 29.613281 22.988281 29.65625 22.902344 29.71875 22.839844 C 29.78125 22.773438 29.871094 22.734375 29.96875 22.734375 Z M 29.96875 22.734375 " fill-opacity="1" fill-rule="nonzero"/><path fill="#0032a0" d="M 32.914062 26.660156 L 29.96875 26.660156 C 29.640625 26.660156 29.34375 26.792969 29.125 27.003906 C 28.910156 27.21875 28.777344 27.511719 28.777344 27.835938 L 28.777344 28.867188 C 28.777344 29.191406 28.910156 29.484375 29.125 29.699219 C 29.136719 29.707031 29.144531 29.714844 29.15625 29.722656 C 29.371094 29.921875 29.65625 30.042969 29.96875 30.042969 L 32.914062 30.042969 C 33.238281 30.042969 33.539062 29.910156 33.753906 29.699219 C 33.96875 29.484375 34.101562 29.191406 34.101562 28.867188 L 34.101562 27.835938 C 34.101562 27.191406 33.566406 26.660156 32.914062 26.660156 Z M 29.96875 27.488281 L 32.914062 27.488281 C 33.007812 27.488281 33.097656 27.527344 33.160156 27.589844 C 33.226562 27.652344 33.265625 27.738281 33.265625 27.835938 L 33.265625 28.867188 C 33.265625 28.964844 33.226562 29.050781 33.160156 29.113281 C 33.097656 29.175781 33.007812 29.214844 32.914062 29.214844 L 29.96875 29.214844 C 29.875 29.214844 29.792969 29.183594 29.734375 29.128906 L 29.71875 29.113281 C 29.65625 29.050781 29.613281 28.964844 29.613281 28.867188 L 29.613281 27.835938 C 29.613281 27.738281 29.65625 27.652344 29.71875 27.589844 C 29.78125 27.527344 29.871094 27.488281 29.96875 27.488281 Z M 29.96875 27.488281 " fill-opacity="1" fill-rule="nonzero"/><path fill="#0032a0" d="M 32.914062 31.414062 L 29.96875 31.414062 C 29.3125 31.414062 28.777344 31.941406 28.777344 32.585938 L 28.777344 33.621094 C 28.777344 33.945312 28.910156 34.238281 29.125 34.449219 C 29.136719 34.460938 29.144531 34.46875 29.15625 34.476562 C 29.371094 34.671875 29.65625 34.792969 29.96875 34.792969 L 32.914062 34.792969 C 33.238281 34.792969 33.539062 34.664062 33.753906 34.449219 C 33.96875 34.238281 34.101562 33.945312 34.101562 33.621094 L 34.101562 32.585938 C 34.101562 31.941406 33.566406 31.414062 32.914062 31.414062 Z M 29.96875 32.238281 L 32.914062 32.238281 C 33.105469 32.238281 33.265625 32.394531 33.265625 32.585938 L 33.265625 33.621094 C 33.265625 33.714844 33.226562 33.800781 33.160156 33.867188 C 33.097656 33.929688 33.007812 33.96875 32.914062 33.96875 L 29.96875 33.96875 C 29.875 33.96875 29.792969 33.933594 29.734375 33.882812 L 29.71875 33.867188 C 29.65625 33.800781 29.613281 33.714844 29.613281 33.621094 L 29.613281 32.585938 C 29.613281 32.398438 29.773438 32.238281 29.96875 32.238281 Z M 29.96875 32.238281 " fill-opacity="1" fill-rule="nonzero"/><path fill="#0032a0" d="M 32.914062 36.164062 L 29.96875 36.164062 C 29.640625 36.164062 29.34375 36.296875 29.125 36.507812 C 28.910156 36.722656 28.777344 37.015625 28.777344 37.339844 L 28.777344 38.371094 C 28.777344 38.695312 28.910156 38.988281 29.125 39.203125 C 29.136719 39.210938 29.144531 39.21875 29.15625 39.226562 C 29.371094 39.425781 29.65625 39.546875 29.96875 39.546875 L 32.914062 39.546875 C 33.238281 39.546875 33.539062 39.414062 33.753906 39.203125 C 33.96875 38.988281 34.101562 38.695312 34.101562 38.371094 L 34.101562 37.339844 C 34.101562 36.691406 33.566406 36.164062 32.914062 36.164062 Z M 29.96875 36.992188 L 32.914062 36.992188 C 33.105469 36.992188 33.265625 37.148438 33.265625 37.339844 L 33.265625 38.371094 C 33.265625 38.46875 33.226562 38.554688 33.160156 38.617188 C 33.097656 38.679688 33.007812 38.71875 32.914062 38.71875 L 29.96875 38.71875 C 29.875 38.71875 29.792969 38.6875 29.734375 38.632812 L 29.71875 38.617188 C 29.65625 38.554688 29.613281 38.46875 29.613281 38.371094 L 29.613281 37.339844 C 29.613281 37.242188 29.65625 37.15625 29.71875 37.09375 C 29.78125 37.03125 29.871094 36.992188 29.96875 36.992188 Z M 29.96875 36.992188 " fill-opacity="1" fill-rule="nonzero"/><path fill="#0032a0" d="M 25.671875 17.160156 L 22.726562 17.160156 C 22.398438 17.160156 22.101562 17.289062 21.886719 17.503906 C 21.671875 17.714844 21.535156 18.007812 21.535156 18.332031 L 21.535156 19.367188 C 21.535156 19.6875 21.671875 19.984375 21.886719 20.195312 C 22.101562 20.40625 22.398438 20.539062 22.726562 20.539062 L 25.671875 20.539062 C 26 20.539062 26.296875 20.40625 26.511719 20.195312 C 26.726562 19.984375 26.859375 19.6875 26.859375 19.367188 L 26.859375 18.332031 C 26.859375 18.007812 26.726562 17.714844 26.511719 17.503906 C 26.296875 17.289062 26 17.160156 25.671875 17.160156 Z M 22.726562 17.984375 L 25.671875 17.984375 C 25.769531 17.984375 25.855469 18.023438 25.921875 18.085938 C 25.984375 18.148438 26.023438 18.238281 26.023438 18.332031 L 26.023438 19.367188 C 26.023438 19.460938 25.984375 19.546875 25.921875 19.609375 C 25.855469 19.675781 25.769531 19.714844 25.671875 19.714844 L 22.726562 19.714844 C 22.628906 19.714844 22.542969 19.675781 22.476562 19.609375 C 22.414062 19.546875 22.375 19.460938 22.375 19.367188 L 22.375 18.332031 C 22.375 18.238281 22.414062 18.148438 22.476562 18.085938 C 22.542969 18.023438 22.628906 17.984375 22.726562 17.984375 Z M 22.726562 17.984375 " fill-opacity="1" fill-rule="nonzero"/><path fill="#0032a0" d="M 25.671875 21.910156 L 22.726562 21.910156 C 22.398438 21.910156 22.101562 22.042969 21.886719 22.253906 C 21.671875 22.46875 21.535156 22.761719 21.535156 23.085938 L 21.535156 24.117188 C 21.535156 24.441406 21.671875 24.734375 21.886719 24.945312 C 22.101562 25.160156 22.398438 25.292969 22.726562 25.292969 L 25.671875 25.292969 C 26 25.292969 26.296875 25.160156 26.511719 24.945312 C 26.726562 24.734375 26.859375 24.441406 26.859375 24.117188 L 26.859375 23.085938 C 26.859375 22.761719 26.726562 22.46875 26.511719 22.253906 C 26.296875 22.042969 26 21.910156 25.671875 21.910156 Z M 22.726562 22.734375 L 25.671875 22.734375 C 25.769531 22.734375 25.855469 22.773438 25.921875 22.839844 C 25.984375 22.902344 26.023438 22.988281 26.023438 23.085938 L 26.023438 24.117188 C 26.023438 24.210938 25.984375 24.300781 25.921875 24.363281 C 25.855469 24.425781 25.769531 24.464844 25.671875 24.464844 L 22.726562 24.464844 C 22.628906 24.464844 22.542969 24.425781 22.476562 24.363281 C 22.414062 24.300781 22.375 24.210938 22.375 24.117188 L 22.375 23.085938 C 22.375 22.988281 22.414062 22.902344 22.476562 22.839844 C 22.542969 22.773438 22.628906 22.734375 22.726562 22.734375 Z M 22.726562 22.734375 " fill-opacity="1" fill-rule="nonzero"/><path fill="#0032a0" d="M 25.671875 26.660156 L 22.726562 26.660156 C 22.398438 26.660156 22.101562 26.792969 21.886719 27.003906 C 21.671875 27.21875 21.535156 27.511719 21.535156 27.835938 L 21.535156 28.867188 C 21.535156 29.191406 21.671875 29.484375 21.886719 29.699219 C 21.894531 29.707031 21.90625 29.714844 21.914062 29.722656 C 22.128906 29.921875 22.414062 30.042969 22.726562 30.042969 L 25.671875 30.042969 C 26 30.042969 26.296875 29.910156 26.511719 29.699219 C 26.726562 29.484375 26.859375 29.191406 26.859375 28.867188 L 26.859375 27.835938 C 26.859375 27.191406 26.324219 26.660156 25.671875 26.660156 Z M 22.726562 27.488281 L 25.671875 27.488281 C 25.867188 27.488281 26.023438 27.644531 26.023438 27.835938 L 26.023438 28.867188 C 26.023438 28.964844 25.984375 29.050781 25.921875 29.113281 C 25.855469 29.175781 25.769531 29.214844 25.671875 29.214844 L 22.726562 29.214844 C 22.636719 29.214844 22.554688 29.183594 22.492188 29.128906 L 22.476562 29.113281 C 22.414062 29.050781 22.375 28.964844 22.375 28.867188 L 22.375 27.835938 C 22.375 27.738281 22.414062 27.652344 22.476562 27.589844 C 22.542969 27.527344 22.628906 27.488281 22.726562 27.488281 Z M 22.726562 27.488281 " fill-opacity="1" fill-rule="nonzero"/><path fill="#0032a0" d="M 25.671875 31.414062 L 22.726562 31.414062 C 22.398438 31.414062 22.101562 31.546875 21.886719 31.757812 C 21.671875 31.96875 21.535156 32.265625 21.535156 32.585938 L 21.535156 33.621094 C 21.535156 33.945312 21.671875 34.238281 21.886719 34.449219 C 21.894531 34.460938 21.90625 34.46875 21.914062 34.476562 C 22.128906 34.671875 22.414062 34.792969 22.726562 34.792969 L 25.671875 34.792969 C 26 34.792969 26.296875 34.664062 26.511719 34.449219 C 26.726562 34.238281 26.859375 33.945312 26.859375 33.621094 L 26.859375 32.585938 C 26.859375 31.941406 26.324219 31.414062 25.671875 31.414062 Z M 22.726562 32.238281 L 25.671875 32.238281 C 25.769531 32.238281 25.855469 32.277344 25.921875 32.339844 C 25.984375 32.402344 26.023438 32.492188 26.023438 32.585938 L 26.023438 33.621094 C 26.023438 33.714844 25.984375 33.800781 25.921875 33.867188 C 25.855469 33.929688 25.769531 33.96875 25.671875 33.96875 L 22.726562 33.96875 C 22.636719 33.96875 22.554688 33.933594 22.492188 33.882812 L 22.476562 33.867188 C 22.414062 33.800781 22.375 33.714844 22.375 33.621094 L 22.375 32.585938 C 22.375 32.492188 22.414062 32.40625 22.476562 32.339844 C 22.542969 32.277344 22.628906 32.238281 22.726562 32.238281 Z M 22.726562 32.238281 " fill-opacity="1" fill-rule="nonzero"/><path fill="#0032a0" d="M 25.671875 36.164062 L 22.726562 36.164062 C 22.398438 36.164062 22.101562 36.296875 21.886719 36.507812 C 21.671875 36.722656 21.535156 37.015625 21.535156 37.339844 L 21.535156 38.371094 C 21.535156 38.695312 21.671875 38.988281 21.886719 39.203125 C 21.894531 39.210938 21.90625 39.21875 21.914062 39.226562 C 22.128906 39.425781 22.414062 39.546875 22.726562 39.546875 L 25.671875 39.546875 C 26.328125 39.546875 26.859375 39.019531 26.859375 38.371094 L 26.859375 37.339844 C 26.859375 36.691406 26.324219 36.164062 25.671875 36.164062 Z M 22.726562 36.992188 L 25.671875 36.992188 C 25.867188 36.992188 26.023438 37.148438 26.023438 37.339844 L 26.023438 38.371094 C 26.023438 38.5625 25.863281 38.71875 25.671875 38.71875 L 22.726562 38.71875 C 22.636719 38.71875 22.554688 38.6875 22.492188 38.632812 L 22.476562 38.617188 C 22.414062 38.554688 22.375 38.46875 22.375 38.371094 L 22.375 37.339844 C 22.375 37.242188 22.414062 37.15625 22.476562 37.09375 C 22.542969 37.03125 22.628906 36.992188 22.726562 36.992188 Z M 22.726562 36.992188 " fill-opacity="1" fill-rule="nonzero"/><path fill="#0032a0" d="M 17.460938 21.910156 L 14.515625 21.910156 C 14.1875 21.910156 13.890625 22.042969 13.675781 22.253906 C 13.460938 22.46875 13.328125 22.761719 13.328125 23.085938 L 13.328125 24.117188 C 13.328125 24.761719 13.863281 25.292969 14.515625 25.292969 L 17.460938 25.292969 C 18.117188 25.292969 18.648438 24.765625 18.648438 24.117188 L 18.648438 23.085938 C 18.648438 22.4375 18.113281 21.910156 17.460938 21.910156 Z M 14.515625 22.734375 L 17.460938 22.734375 C 17.65625 22.734375 17.8125 22.890625 17.8125 23.085938 L 17.8125 24.117188 C 17.8125 24.308594 17.652344 24.464844 17.460938 24.464844 L 14.515625 24.464844 C 14.320312 24.464844 14.164062 24.308594 14.164062 24.117188 L 14.164062 23.085938 C 14.164062 22.988281 14.203125 22.902344 14.265625 22.839844 C 14.332031 22.773438 14.417969 22.734375 14.515625 22.734375 Z M 14.515625 22.734375 " fill-opacity="1" fill-rule="nonzero"/><path fill="#0032a0" d="M 17.460938 26.660156 L 14.515625 26.660156 C 14.1875 26.660156 13.890625 26.792969 13.675781 27.003906 C 13.460938 27.21875 13.328125 27.511719 13.328125 27.835938 L 13.328125 28.867188 C 13.328125 29.515625 13.863281 30.042969 14.515625 30.042969 L 17.460938 30.042969 C 17.789062 30.042969 18.085938 29.910156 18.300781 29.699219 C 18.515625 29.484375 18.648438 29.191406 18.648438 28.867188 L 18.648438 27.835938 C 18.648438 27.191406 18.113281 26.660156 17.460938 26.660156 Z M 14.515625 27.488281 L 17.460938 27.488281 C 17.65625 27.488281 17.8125 27.644531 17.8125 27.835938 L 17.8125 28.867188 C 17.8125 28.964844 17.773438 29.050781 17.710938 29.113281 C 17.644531 29.175781 17.558594 29.214844 17.460938 29.214844 L 14.515625 29.214844 C 14.320312 29.214844 14.164062 29.0625 14.164062 28.867188 L 14.164062 27.835938 C 14.164062 27.738281 14.203125 27.652344 14.265625 27.589844 C 14.332031 27.527344 14.417969 27.488281 14.515625 27.488281 Z M 14.515625 27.488281 " fill-opacity="1" fill-rule="nonzero"/><path fill="#0032a0" d="M 17.460938 31.414062 L 14.515625 31.414062 C 14.1875 31.414062 13.890625 31.546875 13.675781 31.757812 C 13.460938 31.96875 13.328125 32.265625 13.328125 32.585938 L 13.328125 33.621094 C 13.328125 34.265625 13.863281 34.792969 14.515625 34.792969 L 17.460938 34.792969 C 17.789062 34.792969 18.085938 34.664062 18.300781 34.449219 C 18.515625 34.238281 18.648438 33.945312 18.648438 33.621094 L 18.648438 32.585938 C 18.648438 31.941406 18.113281 31.414062 17.460938 31.414062 Z M 14.515625 32.238281 L 17.460938 32.238281 C 17.65625 32.238281 17.8125 32.394531 17.8125 32.585938 L 17.8125 33.621094 C 17.8125 33.714844 17.773438 33.800781 17.710938 33.867188 C 17.644531 33.929688 17.558594 33.96875 17.460938 33.96875 L 14.515625 33.96875 C 14.320312 33.96875 14.164062 33.8125 14.164062 33.621094 L 14.164062 32.585938 C 14.164062 32.492188 14.203125 32.40625 14.265625 32.339844 C 14.332031 32.277344 14.417969 32.238281 14.515625 32.238281 Z M 14.515625 32.238281 " fill-opacity="1" fill-rule="nonzero"/><path fill="#0032a0" d="M 17.460938 36.164062 L 14.515625 36.164062 C 14.1875 36.164062 13.890625 36.296875 13.675781 36.507812 C 13.460938 36.722656 13.328125 37.015625 13.328125 37.339844 L 13.328125 38.371094 C 13.328125 39.015625 13.863281 39.546875 14.515625 39.546875 L 17.460938 39.546875 C 17.789062 39.546875 18.085938 39.414062 18.300781 39.203125 C 18.515625 38.988281 18.648438 38.695312 18.648438 38.371094 L 18.648438 37.339844 C 18.648438 36.691406 18.113281 36.164062 17.460938 36.164062 Z M 14.515625 36.992188 L 17.460938 36.992188 C 17.65625 36.992188 17.8125 37.148438 17.8125 37.339844 L 17.8125 38.371094 C 17.8125 38.46875 17.773438 38.554688 17.710938 38.617188 C 17.644531 38.679688 17.558594 38.71875 17.460938 38.71875 L 14.515625 38.71875 C 14.320312 38.71875 14.164062 38.5625 14.164062 38.371094 L 14.164062 37.339844 C 14.164062 37.242188 14.203125 37.15625 14.265625 37.09375 C 14.332031 37.03125 14.417969 36.992188 14.515625 36.992188 Z M 14.515625 36.992188 " fill-opacity="1" fill-rule="nonzero"/><path fill="#0032a0" d="M 10.21875 26.660156 L 7.273438 26.660156 C 6.945312 26.660156 6.648438 26.792969 6.433594 27.003906 C 6.21875 27.21875 6.085938 27.511719 6.085938 27.835938 L 6.085938 28.867188 C 6.085938 29.515625 6.621094 30.042969 7.273438 30.042969 L 10.21875 30.042969 C 10.546875 30.042969 10.84375 29.910156 11.058594 29.699219 C 11.277344 29.484375 11.410156 29.191406 11.410156 28.867188 L 11.410156 27.835938 C 11.410156 27.191406 10.875 26.660156 10.21875 26.660156 Z M 7.273438 27.488281 L 10.21875 27.488281 C 10.414062 27.488281 10.574219 27.644531 10.574219 27.835938 L 10.574219 28.867188 C 10.574219 28.964844 10.53125 29.050781 10.46875 29.113281 C 10.40625 29.175781 10.316406 29.214844 10.21875 29.214844 L 7.273438 29.214844 C 7.082031 29.214844 6.921875 29.0625 6.921875 28.867188 L 6.921875 27.835938 C 6.921875 27.738281 6.960938 27.652344 7.027344 27.589844 C 7.089844 27.527344 7.179688 27.488281 7.273438 27.488281 Z M 7.273438 27.488281 " fill-opacity="1" fill-rule="nonzero"/><path fill="#0032a0" d="M 10.21875 31.414062 L 7.273438 31.414062 C 6.945312 31.414062 6.648438 31.546875 6.433594 31.757812 C 6.21875 31.96875 6.085938 32.265625 6.085938 32.585938 L 6.085938 33.621094 C 6.085938 34.265625 6.621094 34.792969 7.273438 34.792969 L 10.21875 34.792969 C 10.546875 34.792969 10.84375 34.664062 11.058594 34.449219 C 11.277344 34.238281 11.410156 33.945312 11.410156 33.621094 L 11.410156 32.585938 C 11.410156 31.941406 10.875 31.414062 10.21875 31.414062 Z M 7.273438 32.238281 L 10.21875 32.238281 C 10.414062 32.238281 10.574219 32.394531 10.574219 32.585938 L 10.574219 33.621094 C 10.574219 33.714844 10.53125 33.800781 10.46875 33.867188 C 10.40625 33.929688 10.316406 33.96875 10.21875 33.96875 L 7.273438 33.96875 C 7.082031 33.96875 6.921875 33.8125 6.921875 33.621094 L 6.921875 32.585938 C 6.921875 32.492188 6.960938 32.40625 7.027344 32.339844 C 7.089844 32.277344 7.179688 32.238281 7.273438 32.238281 Z M 7.273438 32.238281 " fill-opacity="1" fill-rule="nonzero"/><path fill="#0032a0" d="M 10.21875 36.164062 L 7.273438 36.164062 C 6.945312 36.164062 6.648438 36.296875 6.433594 36.507812 C 6.21875 36.722656 6.085938 37.015625 6.085938 37.339844 L 6.085938 38.371094 C 6.085938 39.015625 6.621094 39.546875 7.273438 39.546875 L 10.21875 39.546875 C 10.546875 39.546875 10.84375 39.414062 11.058594 39.203125 C 11.277344 38.988281 11.410156 38.695312 11.410156 38.371094 L 11.410156 37.339844 C 11.410156 36.691406 10.875 36.164062 10.21875 36.164062 Z M 7.273438 36.992188 L 10.21875 36.992188 C 10.414062 36.992188 10.574219 37.148438 10.574219 37.339844 L 10.574219 38.371094 C 10.574219 38.46875 10.53125 38.554688 10.46875 38.617188 C 10.40625 38.679688 10.316406 38.71875 10.21875 38.71875 L 7.273438 38.71875 C 7.082031 38.71875 6.921875 38.5625 6.921875 38.371094 L 6.921875 37.339844 C 6.921875 37.242188 6.960938 37.15625 7.027344 37.09375 C 7.089844 37.03125 7.179688 36.992188 7.273438 36.992188 Z M 7.273438 36.992188 " fill-opacity="1" fill-rule="nonzero"/><path stroke-linecap="round" transform="matrix(0.698074, -0.296012, 0.292794, 0.690486, 4.499991, 16.256454)" fill="none" stroke-linejoin="miter" d="M 0.497858 0.000423993 L 44.748433 0.00192283 " stroke="#0032a0" stroke-width="1" stroke-opacity="1" stroke-miterlimit="4"/><path stroke-linecap="round" transform="matrix(0.698074, -0.296012, 0.292794, 0.690486, 36.26259, 2.787825)" fill="none" stroke-linejoin="round" d="M -2.500139 -1.499968 L -0.50024 0.00231492 L -2.498913 1.498897 " stroke="#0032a0" stroke-width="1" stroke-opacity="1" stroke-miterlimit="4"/></svg>