<svg xmlns="http://www.w3.org/2000/svg" xmlns:xlink="http://www.w3.org/1999/xlink" width="60" zoomAndPan="magnify" viewBox="0 0 45 44.999999" height="60" preserveAspectRatio="xMidYMid meet" version="1.0"><defs><clipPath id="id1"><path d="M 2.152344 1.101562 L 24 1.101562 L 24 43.851562 L 2.152344 43.851562 Z M 2.152344 1.101562 " clip-rule="nonzero"/></clipPath><clipPath id="id2"><path d="M 25 1.101562 L 42.652344 1.101562 L 42.652344 37 L 25 37 Z M 25 1.101562 " clip-rule="nonzero"/></clipPath><clipPath id="id3"><path d="M 25 42 L 31 42 L 31 43.851562 L 25 43.851562 Z M 25 42 " clip-rule="nonzero"/></clipPath></defs><rect x="-4.5" width="54" fill="#ffffff" y="-4.5" height="53.999999" fill-opacity="1"/><rect x="-4.5" width="54" fill="#ffffff" y="-4.5" height="53.999999" fill-opacity="1"/><rect x="-4.5" width="54" fill="#ffffff" y="-4.5" height="53.999999" fill-opacity="1"/><g clip-path="url(#id1)"><path fill="#0032a0" d="M 21.917969 2.402344 C 21.917969 3.578125 21.085938 4.597656 19.9375 4.824219 C 18.789062 5.054688 17.625 4.433594 17.175781 3.34375 L 16.707031 2.203125 C 15.75 2.523438 14.8125 2.914062 13.910156 3.367188 L 14.390625 4.53125 C 14.832031 5.605469 14.453125 6.855469 13.492188 7.5 C 12.507812 8.164062 11.1875 8.03125 10.351562 7.195312 L 9.492188 6.332031 C 8.730469 6.996094 8.015625 7.71875 7.351562 8.480469 L 8.222656 9.355469 C 9.050781 10.1875 9.179688 11.5 8.527344 12.476562 C 7.875 13.453125 6.617188 13.835938 5.535156 13.386719 L 4.398438 12.914062 C 3.945312 13.816406 3.554688 14.761719 3.238281 15.71875 L 4.375 16.195312 C 5.460938 16.644531 6.082031 17.808594 5.851562 18.964844 C 5.621094 20.117188 4.605469 20.953125 3.433594 20.953125 L 2.207031 20.953125 C 2.171875 21.457031 2.152344 21.964844 2.152344 22.472656 C 2.152344 22.976562 2.171875 23.484375 2.207031 23.992188 L 3.433594 23.992188 C 4.605469 23.992188 5.621094 24.828125 5.851562 25.980469 C 6.078125 27.136719 5.460938 28.300781 4.378906 28.75 L 3.238281 29.222656 C 3.554688 30.183594 3.945312 31.125 4.398438 32.03125 L 5.539062 31.558594 C 6.617188 31.105469 7.875 31.488281 8.527344 32.464844 C 9.179688 33.441406 9.050781 34.757812 8.222656 35.589844 L 7.351562 36.460938 C 8.011719 37.226562 8.730469 37.949219 9.492188 38.609375 L 10.363281 37.738281 C 11.191406 36.90625 12.503906 36.777344 13.476562 37.433594 C 14.449219 38.085938 14.828125 39.347656 14.378906 40.433594 L 13.910156 41.578125 C 14.8125 42.03125 15.75 42.421875 16.703125 42.742188 L 17.199219 41.542969 C 17.632812 40.488281 18.761719 39.882812 19.878906 40.105469 L 19.992188 40.128906 C 21.105469 40.351562 21.917969 41.34375 21.917969 42.484375 L 21.917969 43.777344 C 22.300781 43.804688 22.691406 43.820312 23.082031 43.828125 L 23.082031 31.5 C 18.277344 31.316406 14.425781 27.335938 14.425781 22.472656 C 14.425781 17.605469 18.277344 13.625 23.082031 13.441406 L 23.082031 1.117188 C 22.691406 1.125 22.300781 1.140625 21.917969 1.167969 Z M 21.917969 2.402344 " fill-opacity="1" fill-rule="nonzero"/></g><path fill="#0032a0" d="M 29 21.539062 C 29 21.75 28.972656 21.953125 28.917969 22.144531 C 28.863281 22.339844 28.785156 22.511719 28.683594 22.660156 C 28.585938 22.808594 28.46875 22.921875 28.335938 23.003906 C 28.203125 23.085938 28.066406 23.125 27.921875 23.125 C 27.78125 23.125 27.644531 23.085938 27.511719 23.003906 C 27.378906 22.921875 27.261719 22.808594 27.160156 22.660156 C 27.058594 22.511719 26.980469 22.339844 26.925781 22.144531 C 26.871094 21.953125 26.84375 21.75 26.84375 21.539062 C 26.84375 21.332031 26.871094 21.128906 26.925781 20.933594 C 26.980469 20.742188 27.058594 20.570312 27.160156 20.421875 C 27.261719 20.273438 27.378906 20.15625 27.511719 20.078125 C 27.644531 19.996094 27.78125 19.957031 27.921875 19.957031 C 28.066406 19.957031 28.203125 19.996094 28.335938 20.078125 C 28.46875 20.15625 28.585938 20.273438 28.683594 20.421875 C 28.785156 20.570312 28.863281 20.742188 28.917969 20.933594 C 28.972656 21.128906 29 21.332031 29 21.539062 Z M 29 21.539062 " fill-opacity="1" fill-rule="nonzero"/><path fill="#0032a0" d="M 29.671875 35.363281 C 29.671875 35.015625 29.359375 34.730469 28.972656 34.730469 L 25.359375 34.730469 L 25.359375 36.683594 L 29.671875 36.683594 Z M 29.671875 35.363281 " fill-opacity="1" fill-rule="nonzero"/><path fill="#0032a0" d="M 25.359375 37.386719 L 30.808594 37.386719 L 30.808594 39.003906 L 25.359375 39.003906 Z M 25.359375 37.386719 " fill-opacity="1" fill-rule="nonzero"/><path fill="#0032a0" d="M 28.257812 30.976562 C 28.257812 29.488281 29.066406 28.078125 30.367188 27.296875 C 31.507812 26.617188 32.972656 25.480469 33.496094 23.949219 C 34.046875 22.332031 33.90625 20.65625 33.136719 19.574219 C 32.585938 18.804688 31.769531 18.398438 30.769531 18.398438 C 29.453125 18.398438 28.78125 18.972656 28.472656 19.371094 C 29.183594 19.667969 29.699219 20.527344 29.699219 21.539062 C 29.699219 22.800781 28.902344 23.824219 27.921875 23.824219 C 26.945312 23.824219 26.148438 22.800781 26.148438 21.539062 C 26.148438 20.589844 26.605469 19.769531 27.25 19.429688 C 26.714844 18.929688 26.109375 18.523438 25.359375 18.425781 L 25.359375 34.03125 L 28.257812 34.03125 Z M 28.257812 30.976562 " fill-opacity="1" fill-rule="nonzero"/><g clip-path="url(#id2)"><path fill="#0032a0" d="M 25.359375 1.117188 L 25.359375 17.71875 C 26.398438 17.828125 27.199219 18.398438 27.851562 19.035156 C 28.226562 18.503906 29.078125 17.695312 30.769531 17.695312 C 31.984375 17.695312 33.027344 18.21875 33.703125 19.167969 C 34.601562 20.429688 34.777344 22.347656 34.15625 24.175781 C 33.566406 25.910156 31.964844 27.15625 30.722656 27.898438 C 29.632812 28.554688 28.953125 29.730469 28.953125 30.976562 L 28.953125 34.03125 L 28.972656 34.03125 C 29.742188 34.03125 30.371094 34.628906 30.371094 35.363281 L 30.371094 36.683594 L 30.839844 36.683594 C 30.957031 35.976562 31.429688 35.359375 32.105469 35.0625 C 38.515625 32.230469 42.660156 25.863281 42.660156 18.832031 C 42.660156 9.179688 34.929688 1.304688 25.359375 1.117188 Z M 25.359375 1.117188 " fill-opacity="1" fill-rule="nonzero"/></g><path fill="#0032a0" d="M 25.359375 39.703125 L 30.808594 39.703125 L 30.808594 41.320312 L 25.359375 41.320312 Z M 25.359375 39.703125 " fill-opacity="1" fill-rule="nonzero"/><g clip-path="url(#id3)"><path fill="#0032a0" d="M 25.359375 43.828125 L 28.65625 43.828125 C 29.726562 43.828125 30.609375 43.042969 30.777344 42.019531 L 25.359375 42.019531 Z M 25.359375 43.828125 " fill-opacity="1" fill-rule="nonzero"/></g></svg>