<svg xmlns="http://www.w3.org/2000/svg" xmlns:xlink="http://www.w3.org/1999/xlink" width="72" zoomAndPan="magnify" viewBox="0 0 54 54" height="72" preserveAspectRatio="xMidYMid meet" version="1.0"><defs><clipPath id="d5a4aced35"><path d="M 5.792969 5.300781 L 48.5 5.300781 L 48.5 48.011719 L 5.792969 48.011719 Z M 5.792969 5.300781 " clip-rule="nonzero"/></clipPath><clipPath id="2e08957139"><path d="M 11.78125 11.292969 L 41.972656 11.292969 L 41.972656 41.480469 L 11.78125 41.480469 Z M 11.78125 11.292969 " clip-rule="nonzero"/></clipPath><clipPath id="1c999e2b3a"><path d="M 13.214844 19.828125 L 40.460938 19.828125 L 40.460938 36.761719 L 13.214844 36.761719 Z M 13.214844 19.828125 " clip-rule="nonzero"/></clipPath></defs><path fill="#0032a0" d="M 38.554688 34.097656 L 15.738281 34.097656 C 15.121094 34.097656 14.621094 33.5625 14.621094 32.90625 L 14.621094 20.40625 C 14.621094 19.75 15.121094 19.214844 15.738281 19.214844 L 38.554688 19.214844 C 39.171875 19.214844 39.675781 19.75 39.675781 20.40625 L 39.675781 32.90625 C 39.675781 33.5625 39.171875 34.097656 38.554688 34.097656 Z M 15.738281 19.785156 C 15.433594 19.785156 15.1875 20.0625 15.1875 20.40625 L 15.1875 32.90625 C 15.1875 33.25 15.433594 33.527344 15.738281 33.527344 L 38.554688 33.527344 C 38.859375 33.527344 39.105469 33.25 39.105469 32.90625 L 39.105469 20.40625 C 39.105469 20.0625 38.859375 19.785156 38.554688 19.785156 Z M 15.738281 19.785156 " fill-opacity="1" fill-rule="nonzero"/><path fill="#0032a0" d="M 23.734375 29.5625 L 16.429688 29.5625 C 16.269531 29.5625 16.144531 29.433594 16.144531 29.277344 C 16.144531 29.117188 16.269531 28.992188 16.429688 28.992188 L 23.734375 28.992188 C 23.890625 28.992188 24.019531 29.117188 24.019531 29.277344 C 24.019531 29.433594 23.890625 29.5625 23.734375 29.5625 Z M 23.734375 29.5625 " fill-opacity="1" fill-rule="nonzero"/><path fill="#0032a0" d="M 23.734375 30.882812 L 16.429688 30.882812 C 16.269531 30.882812 16.144531 30.753906 16.144531 30.597656 C 16.144531 30.441406 16.269531 30.3125 16.429688 30.3125 L 23.734375 30.3125 C 23.890625 30.3125 24.019531 30.441406 24.019531 30.597656 C 24.019531 30.753906 23.890625 30.882812 23.734375 30.882812 Z M 23.734375 30.882812 " fill-opacity="1" fill-rule="nonzero"/><path fill="#0032a0" d="M 23.734375 32.207031 L 16.429688 32.207031 C 16.269531 32.207031 16.144531 32.078125 16.144531 31.921875 C 16.144531 31.761719 16.269531 31.636719 16.429688 31.636719 L 23.734375 31.636719 C 23.890625 31.636719 24.019531 31.761719 24.019531 31.921875 C 24.019531 32.078125 23.890625 32.207031 23.734375 32.207031 Z M 23.734375 32.207031 " fill-opacity="1" fill-rule="nonzero"/><path fill="#0032a0" d="M 23.6875 27.503906 L 16.476562 27.503906 C 16.320312 27.503906 16.191406 27.375 16.191406 27.21875 L 16.191406 21.1875 C 16.191406 21.03125 16.316406 20.902344 16.476562 20.902344 L 23.6875 20.902344 C 23.84375 20.902344 23.972656 21.03125 23.972656 21.1875 L 23.972656 27.21875 C 23.972656 27.375 23.84375 27.503906 23.6875 27.503906 Z M 16.761719 26.933594 L 23.402344 26.933594 L 23.402344 21.472656 L 16.761719 21.472656 Z M 16.761719 26.933594 " fill-opacity="1" fill-rule="nonzero"/><path fill="#0032a0" d="M 20.082031 25.765625 C 19.019531 25.765625 18.152344 24.902344 18.152344 23.839844 C 18.152344 22.777344 19.019531 21.914062 20.082031 21.914062 C 21.144531 21.914062 22.007812 22.777344 22.007812 23.839844 C 22.007812 24.902344 21.144531 25.765625 20.082031 25.765625 Z M 20.082031 22.480469 C 19.332031 22.480469 18.722656 23.089844 18.722656 23.839844 C 18.722656 24.589844 19.332031 25.199219 20.082031 25.199219 C 20.828125 25.199219 21.4375 24.589844 21.4375 23.839844 C 21.4375 23.089844 20.828125 22.480469 20.082031 22.480469 Z M 20.082031 22.480469 " fill-opacity="1" fill-rule="nonzero"/><path fill="#0032a0" d="M 22.757812 27.503906 C 22.621094 27.503906 22.5 27.402344 22.476562 27.257812 C 22.355469 26.429688 21.308594 25.773438 20.097656 25.765625 L 20.066406 25.765625 C 18.855469 25.773438 17.808594 26.429688 17.6875 27.257812 C 17.664062 27.414062 17.519531 27.523438 17.363281 27.5 C 17.207031 27.476562 17.097656 27.332031 17.121094 27.175781 C 17.289062 26.054688 18.550781 25.203125 20.0625 25.195312 L 20.097656 25.195312 C 21.609375 25.203125 22.875 26.054688 23.039062 27.175781 C 23.0625 27.332031 22.957031 27.476562 22.800781 27.5 C 22.785156 27.5 22.773438 27.503906 22.757812 27.503906 Z M 22.757812 27.503906 " fill-opacity="1" fill-rule="nonzero"/><path fill="#0032a0" d="M 37.867188 27.503906 L 26.222656 27.503906 C 26.066406 27.503906 25.9375 27.375 25.9375 27.21875 C 25.9375 27.058594 26.066406 26.933594 26.222656 26.933594 L 37.867188 26.933594 C 38.023438 26.933594 38.152344 27.058594 38.152344 27.21875 C 38.152344 27.375 38.023438 27.503906 37.867188 27.503906 Z M 37.867188 27.503906 " fill-opacity="1" fill-rule="nonzero"/><path fill="#0032a0" d="M 37.867188 25.765625 L 26.222656 25.765625 C 26.066406 25.765625 25.9375 25.640625 25.9375 25.480469 C 25.9375 25.324219 26.066406 25.195312 26.222656 25.195312 L 37.867188 25.195312 C 38.023438 25.195312 38.152344 25.324219 38.152344 25.480469 C 38.152344 25.640625 38.023438 25.765625 37.867188 25.765625 Z M 37.867188 25.765625 " fill-opacity="1" fill-rule="nonzero"/><path fill="#0032a0" d="M 37.867188 24.113281 L 26.222656 24.113281 C 26.066406 24.113281 25.9375 23.988281 25.9375 23.828125 L 25.9375 21.1875 C 25.9375 21.03125 26.066406 20.902344 26.222656 20.902344 L 37.867188 20.902344 C 38.023438 20.902344 38.152344 21.03125 38.152344 21.1875 L 38.152344 23.828125 C 38.152344 23.988281 38.023438 24.113281 37.867188 24.113281 Z M 26.507812 23.542969 L 37.582031 23.542969 L 37.582031 21.472656 L 26.507812 21.472656 Z M 26.507812 23.542969 " fill-opacity="1" fill-rule="nonzero"/><path fill="#0032a0" d="M 28.128906 31.132812 C 28.082031 31.253906 28.039062 31.375 28.003906 31.496094 C 27.964844 31.363281 27.921875 31.238281 27.878906 31.132812 L 26.996094 28.667969 L 26.398438 28.667969 L 27.738281 32.125 L 28.265625 32.125 L 29.621094 28.667969 L 29.046875 28.667969 Z M 28.128906 31.132812 " fill-opacity="1" fill-rule="nonzero"/><path fill="#0032a0" d="M 30.109375 28.667969 L 30.667969 28.667969 L 30.667969 32.125 L 30.109375 32.125 Z M 30.109375 28.667969 " fill-opacity="1" fill-rule="nonzero"/><path fill="#0032a0" d="M 33.460938 30.230469 C 33.285156 30.164062 33.054688 30.101562 32.777344 30.039062 C 32.472656 29.972656 32.269531 29.902344 32.164062 29.835938 C 32.070312 29.777344 32.023438 29.6875 32.023438 29.5625 C 32.023438 29.421875 32.085938 29.316406 32.210938 29.242188 C 32.34375 29.160156 32.519531 29.121094 32.738281 29.121094 C 32.976562 29.121094 33.160156 29.171875 33.285156 29.269531 C 33.40625 29.367188 33.476562 29.511719 33.492188 29.710938 L 33.496094 29.765625 L 34.03125 29.722656 L 34.03125 29.667969 C 34.015625 29.332031 33.886719 29.066406 33.648438 28.882812 C 33.414062 28.703125 33.101562 28.609375 32.71875 28.609375 C 32.34375 28.609375 32.042969 28.703125 31.824219 28.886719 C 31.605469 29.070312 31.492188 29.308594 31.492188 29.59375 C 31.492188 29.84375 31.582031 30.050781 31.757812 30.210938 C 31.929688 30.363281 32.214844 30.484375 32.597656 30.566406 C 32.96875 30.648438 33.230469 30.726562 33.386719 30.808594 C 33.527344 30.882812 33.597656 30.996094 33.597656 31.15625 C 33.597656 31.3125 33.527344 31.433594 33.390625 31.523438 C 33.25 31.621094 33.058594 31.667969 32.824219 31.667969 C 32.570312 31.667969 32.355469 31.609375 32.175781 31.492188 C 32.003906 31.378906 31.910156 31.203125 31.894531 30.953125 L 31.890625 30.894531 L 31.359375 30.941406 L 31.359375 30.996094 C 31.375 31.34375 31.507812 31.632812 31.75 31.851562 C 31.992188 32.070312 32.359375 32.179688 32.84375 32.179688 C 33.222656 32.179688 33.535156 32.082031 33.773438 31.882812 C 34.015625 31.683594 34.136719 31.425781 34.136719 31.121094 C 34.136719 30.882812 34.070312 30.6875 33.933594 30.542969 C 33.804688 30.402344 33.644531 30.296875 33.460938 30.230469 Z M 33.460938 30.230469 " fill-opacity="1" fill-rule="nonzero"/><path fill="#0032a0" d="M 36.285156 28.667969 L 35.730469 28.667969 L 34.402344 32.125 L 34.992188 32.125 L 35.363281 31.105469 L 36.679688 31.105469 L 37.070312 32.125 L 37.695312 32.125 Z M 36.003906 29.289062 C 36.027344 29.367188 36.046875 29.429688 36.066406 29.484375 C 36.101562 29.582031 36.242188 29.960938 36.5 30.640625 L 35.53125 30.640625 L 35.875 29.71875 C 35.925781 29.585938 35.96875 29.441406 36.003906 29.289062 Z M 36.003906 29.289062 " fill-opacity="1" fill-rule="nonzero"/><g clip-path="url(#d5a4aced35)"><path fill="#0032a0" d="M 27.148438 48.011719 C 24.265625 48.011719 21.46875 47.445312 18.835938 46.332031 C 16.292969 45.257812 14.007812 43.71875 12.046875 41.757812 C 10.085938 39.796875 8.546875 37.511719 7.46875 34.96875 C 6.359375 32.335938 5.792969 29.539062 5.792969 26.65625 C 5.792969 23.773438 6.359375 20.976562 7.46875 18.34375 C 8.546875 15.800781 10.085938 13.515625 12.046875 11.554688 C 14.007812 9.59375 16.292969 8.054688 18.835938 6.980469 C 21.46875 5.867188 24.265625 5.300781 27.148438 5.300781 C 30.03125 5.300781 32.828125 5.867188 35.460938 6.980469 C 38.003906 8.054688 40.285156 9.59375 42.246094 11.554688 C 44.210938 13.515625 45.75 15.800781 46.824219 18.34375 C 47.9375 20.976562 48.5 23.773438 48.5 26.65625 C 48.5 29.539062 47.9375 32.335938 46.824219 34.96875 C 45.75 37.511719 44.210938 39.796875 42.246094 41.757812 C 40.285156 43.71875 38.003906 45.257812 35.460938 46.332031 C 32.828125 47.445312 30.03125 48.011719 27.148438 48.011719 Z M 27.148438 5.863281 C 15.683594 5.863281 6.355469 15.191406 6.355469 26.65625 C 6.355469 38.121094 15.683594 47.449219 27.148438 47.449219 C 38.613281 47.449219 47.941406 38.121094 47.941406 26.65625 C 47.941406 15.191406 38.613281 5.863281 27.148438 5.863281 Z M 27.148438 5.863281 " fill-opacity="1" fill-rule="nonzero"/></g><g clip-path="url(#2e08957139)"><path fill="#ffffff" d="M 26.878906 11.292969 C 18.539062 11.292969 11.78125 18.050781 11.78125 26.386719 C 11.78125 34.722656 18.539062 41.480469 26.878906 41.480469 C 35.214844 41.480469 41.972656 34.722656 41.972656 26.386719 C 41.972656 18.050781 35.214844 11.292969 26.878906 11.292969 " fill-opacity="1" fill-rule="nonzero"/></g><g clip-path="url(#1c999e2b3a)"><path fill="#0032a0" d="M 36.347656 24.289062 L 36.226562 21.96875 L 39.257812 24.289062 Z M 36.230469 24.898438 L 39.359375 24.898438 L 32.511719 31 Z M 17.449219 24.898438 L 21.167969 30.996094 L 14.320312 24.898438 Z M 17.332031 24.289062 L 14.421875 24.289062 L 17.453125 21.96875 Z M 23.011719 21.585938 L 20.671875 20.4375 L 25.464844 20.4375 Z M 30.667969 21.585938 L 28.214844 20.4375 L 33.007812 20.4375 Z M 32.027344 24.898438 L 35.347656 24.898438 L 29.195312 31.324219 Z M 26.839844 26.417969 L 27.90625 32.75 L 26.839844 35.59375 L 25.773438 32.75 Z M 21.652344 24.898438 L 24.488281 31.324219 L 18.332031 24.898438 Z M 21.652344 24.289062 L 18.921875 24.289062 L 22.398438 22.5625 Z M 25.871094 24.289062 L 22.3125 24.289062 L 23.140625 22.382812 Z M 26.839844 24.222656 L 23.617188 21.972656 L 26.839844 20.46875 L 30.0625 21.972656 Z M 30.539062 22.382812 L 31.367188 24.289062 L 27.808594 24.289062 Z M 25.328125 31.730469 L 22.316406 24.898438 L 26.480469 24.898438 Z M 27.199219 24.898438 L 31.363281 24.898438 L 28.351562 31.730469 Z M 32.027344 24.289062 L 31.28125 22.5625 L 34.757812 24.289062 Z M 35.59375 21.484375 L 35.730469 24.089844 L 31.359375 21.921875 L 34.289062 20.488281 Z M 19.390625 20.488281 L 22.320312 21.921875 L 17.949219 24.089844 L 18.085938 21.484375 Z M 22.722656 32.382812 L 19.335938 26.824219 L 25.195312 32.945312 L 26.125 35.414062 Z M 27.554688 35.414062 L 28.480469 32.945312 L 34.347656 26.824219 L 30.953125 32.386719 Z M 40.433594 24.71875 C 40.4375 24.714844 40.4375 24.714844 40.4375 24.710938 C 40.453125 24.675781 40.464844 24.636719 40.464844 24.59375 C 40.464844 24.589844 40.460938 24.589844 40.460938 24.585938 C 40.460938 24.585938 40.460938 24.582031 40.460938 24.582031 C 40.460938 24.570312 40.457031 24.558594 40.453125 24.550781 C 40.449219 24.519531 40.445312 24.488281 40.429688 24.464844 C 40.425781 24.449219 40.414062 24.4375 40.40625 24.425781 C 40.390625 24.402344 40.375 24.382812 40.355469 24.363281 C 40.351562 24.359375 40.347656 24.355469 40.34375 24.351562 L 34.507812 19.890625 C 34.484375 19.871094 34.460938 19.859375 34.433594 19.847656 C 34.429688 19.847656 34.425781 19.84375 34.421875 19.84375 C 34.390625 19.832031 34.355469 19.828125 34.324219 19.828125 L 19.355469 19.828125 C 19.324219 19.828125 19.289062 19.832031 19.257812 19.84375 C 19.253906 19.84375 19.253906 19.847656 19.25 19.847656 C 19.222656 19.859375 19.195312 19.871094 19.171875 19.890625 L 13.335938 24.351562 C 13.332031 24.355469 13.328125 24.359375 13.324219 24.363281 C 13.304688 24.382812 13.289062 24.402344 13.273438 24.425781 C 13.265625 24.4375 13.253906 24.449219 13.25 24.464844 C 13.234375 24.488281 13.230469 24.519531 13.226562 24.546875 C 13.222656 24.558594 13.21875 24.570312 13.21875 24.582031 C 13.21875 24.582031 13.21875 24.585938 13.21875 24.585938 C 13.21875 24.589844 13.21875 24.589844 13.21875 24.59375 C 13.21875 24.636719 13.226562 24.675781 13.242188 24.710938 C 13.242188 24.714844 13.246094 24.714844 13.246094 24.71875 C 13.261719 24.753906 13.285156 24.789062 13.3125 24.8125 C 13.316406 24.816406 13.316406 24.820312 13.320312 24.820312 L 22.28125 32.804688 L 26.640625 36.6875 C 26.644531 36.691406 26.648438 36.691406 26.652344 36.695312 C 26.671875 36.710938 26.691406 36.722656 26.714844 36.734375 C 26.71875 36.734375 26.71875 36.738281 26.722656 36.738281 C 26.726562 36.738281 26.730469 36.742188 26.734375 36.746094 C 26.738281 36.746094 26.738281 36.746094 26.742188 36.746094 C 26.773438 36.757812 26.804688 36.765625 26.839844 36.765625 C 26.875 36.765625 26.90625 36.757812 26.9375 36.746094 C 26.941406 36.746094 26.945312 36.746094 26.945312 36.746094 C 26.949219 36.742188 26.953125 36.738281 26.957031 36.738281 C 26.960938 36.738281 26.960938 36.734375 26.964844 36.734375 C 26.988281 36.722656 27.007812 36.710938 27.027344 36.695312 C 27.03125 36.691406 27.039062 36.691406 27.042969 36.6875 L 40.359375 24.820312 C 40.363281 24.820312 40.363281 24.816406 40.367188 24.8125 C 40.394531 24.785156 40.417969 24.753906 40.433594 24.71875 " fill-opacity="1" fill-rule="nonzero"/></g></svg>