<svg xmlns="http://www.w3.org/2000/svg" xmlns:xlink="http://www.w3.org/1999/xlink" width="60" zoomAndPan="magnify" viewBox="0 0 45 44.999999" height="60" preserveAspectRatio="xMidYMid meet" version="1.0"><defs><clipPath id="id1"><path d="M 0.898438 1.328125 L 43.648438 1.328125 L 43.648438 42.578125 L 0.898438 42.578125 Z M 0.898438 1.328125 " clip-rule="nonzero"/></clipPath></defs><rect x="-4.5" width="54" fill="#ffffff" y="-4.5" height="53.999999" fill-opacity="1"/><rect x="-4.5" width="54" fill="#ffffff" y="-4.5" height="53.999999" fill-opacity="1"/><rect x="-4.5" width="54" fill="#ffffff" y="-4.5" height="53.999999" fill-opacity="1"/><path fill="#0032a0" d="M 7.28125 16.894531 C 7.28125 17.054688 7.25 17.210938 7.1875 17.359375 C 7.128906 17.507812 7.039062 17.640625 6.929688 17.753906 C 6.816406 17.871094 6.683594 17.957031 6.539062 18.019531 C 6.390625 18.082031 6.238281 18.113281 6.078125 18.113281 C 5.917969 18.113281 5.765625 18.082031 5.617188 18.019531 C 5.46875 17.957031 5.339844 17.871094 5.226562 17.753906 C 5.113281 17.640625 5.027344 17.507812 4.96875 17.359375 C 4.90625 17.210938 4.875 17.054688 4.875 16.894531 C 4.875 16.730469 4.90625 16.578125 4.96875 16.425781 C 5.027344 16.277344 5.113281 16.144531 5.226562 16.03125 C 5.339844 15.917969 5.46875 15.828125 5.617188 15.769531 C 5.765625 15.707031 5.917969 15.675781 6.078125 15.675781 C 6.238281 15.675781 6.390625 15.707031 6.539062 15.769531 C 6.683594 15.828125 6.816406 15.917969 6.929688 16.03125 C 7.039062 16.144531 7.128906 16.277344 7.1875 16.425781 C 7.25 16.578125 7.28125 16.730469 7.28125 16.894531 Z M 7.28125 16.894531 " fill-opacity="1" fill-rule="nonzero"/><path fill="#0032a0" d="M 6.179688 18.753906 L 5.945312 18.753906 C 5.007812 18.753906 4.207031 19.226562 3.738281 19.9375 C 4.273438 20.71875 5.140625 21.226562 6.179688 21.226562 C 7.113281 21.226562 7.980469 20.75 8.515625 20.074219 C 8.015625 19.296875 7.179688 18.753906 6.179688 18.753906 Z M 6.179688 18.753906 " fill-opacity="1" fill-rule="nonzero"/><path fill="#0032a0" d="M 39.707031 16.894531 C 39.707031 17.054688 39.675781 17.210938 39.617188 17.359375 C 39.554688 17.507812 39.46875 17.640625 39.355469 17.753906 C 39.242188 17.871094 39.113281 17.957031 38.964844 18.019531 C 38.820312 18.082031 38.664062 18.113281 38.503906 18.113281 C 38.347656 18.113281 38.191406 18.082031 38.046875 18.019531 C 37.898438 17.957031 37.769531 17.871094 37.65625 17.753906 C 37.542969 17.640625 37.457031 17.507812 37.394531 17.359375 C 37.332031 17.210938 37.304688 17.054688 37.304688 16.894531 C 37.304688 16.730469 37.332031 16.578125 37.394531 16.425781 C 37.457031 16.277344 37.542969 16.144531 37.65625 16.03125 C 37.769531 15.917969 37.898438 15.828125 38.046875 15.769531 C 38.191406 15.707031 38.347656 15.675781 38.503906 15.675781 C 38.664062 15.675781 38.820312 15.707031 38.964844 15.769531 C 39.113281 15.828125 39.242188 15.917969 39.355469 16.03125 C 39.46875 16.144531 39.554688 16.277344 39.617188 16.425781 C 39.675781 16.578125 39.707031 16.730469 39.707031 16.894531 Z M 39.707031 16.894531 " fill-opacity="1" fill-rule="nonzero"/><path fill="#0032a0" d="M 38.605469 18.753906 L 38.371094 18.753906 C 37.4375 18.753906 36.636719 19.226562 36.167969 19.9375 C 36.703125 20.71875 37.570312 21.226562 38.605469 21.226562 C 39.542969 21.226562 40.410156 20.75 40.945312 20.074219 C 40.476562 19.296875 39.609375 18.753906 38.605469 18.753906 Z M 38.605469 18.753906 " fill-opacity="1" fill-rule="nonzero"/><g clip-path="url(#id1)"><path fill="#0032a0" d="M 38.503906 13.171875 C 35.667969 13.171875 33.363281 15.507812 33.363281 18.382812 C 33.363281 18.722656 33.394531 19.027344 33.460938 19.363281 L 26.949219 21.496094 C 26.25 19.835938 24.746094 18.652344 22.941406 18.382812 L 22.941406 11.714844 C 25.382812 11.308594 27.285156 9.144531 27.285156 6.539062 C 27.285156 3.664062 24.980469 1.328125 22.140625 1.328125 C 19.300781 1.328125 17 3.664062 17 6.539062 C 17 9.210938 19.035156 11.445312 21.640625 11.714844 L 21.640625 18.316406 C 19.769531 18.519531 18.199219 19.734375 17.464844 21.429688 L 11.152344 19.363281 C 11.222656 19.058594 11.253906 18.722656 11.253906 18.382812 C 11.222656 15.507812 8.917969 13.171875 6.042969 13.171875 C 3.207031 13.171875 0.902344 15.507812 0.902344 18.417969 C 0.902344 21.292969 3.207031 23.628906 6.042969 23.628906 C 8.082031 23.628906 9.851562 22.410156 10.6875 20.683594 L 17.066406 22.78125 C 17.03125 23.019531 17 23.289062 17 23.558594 C 17 25.117188 17.667969 26.539062 18.769531 27.484375 L 14.929688 32.832031 C 14.191406 32.425781 13.324219 32.15625 12.421875 32.15625 C 9.585938 32.15625 7.28125 34.488281 7.28125 37.367188 C 7.28125 40.242188 9.585938 42.578125 12.421875 42.578125 C 15.261719 42.578125 17.566406 40.242188 17.566406 37.367188 C 17.566406 35.910156 16.964844 34.558594 15.996094 33.609375 L 19.902344 28.195312 C 20.605469 28.535156 21.375 28.738281 22.175781 28.738281 C 23.042969 28.738281 23.878906 28.5 24.578125 28.128906 L 28.519531 33.609375 C 27.550781 34.558594 26.949219 35.878906 26.949219 37.332031 C 26.949219 40.207031 29.253906 42.542969 32.09375 42.542969 C 34.933594 42.542969 37.238281 40.207031 37.238281 37.332031 C 37.238281 34.457031 34.933594 32.121094 32.09375 32.121094 C 31.191406 32.121094 30.324219 32.359375 29.554688 32.796875 L 25.679688 27.351562 C 26.683594 26.402344 27.351562 25.046875 27.351562 23.527344 C 27.351562 23.289062 27.316406 23.050781 27.285156 22.816406 L 33.863281 20.648438 C 34.699219 22.410156 36.46875 23.628906 38.503906 23.628906 C 41.34375 23.628906 43.648438 21.292969 43.648438 18.417969 C 43.648438 15.507812 41.34375 13.171875 38.503906 13.171875 Z M 6.042969 22.273438 C 3.941406 22.273438 2.238281 20.515625 2.238281 18.417969 C 2.238281 16.316406 3.941406 14.523438 6.042969 14.523438 C 8.148438 14.523438 9.851562 16.25 9.851562 18.382812 C 9.851562 20.515625 8.148438 22.273438 6.042969 22.273438 Z M 16.230469 37.398438 C 16.230469 39.53125 14.527344 41.257812 12.421875 41.257812 C 10.320312 41.257812 8.617188 39.53125 8.617188 37.398438 C 8.617188 35.269531 10.320312 33.542969 12.421875 33.542969 C 14.492188 33.507812 16.230469 35.269531 16.230469 37.398438 Z M 35.933594 37.398438 C 35.933594 39.53125 34.230469 41.257812 32.128906 41.257812 C 30.023438 41.257812 28.320312 39.53125 28.320312 37.398438 C 28.320312 35.269531 30.023438 33.542969 32.128906 33.542969 C 34.230469 33.507812 35.933594 35.269531 35.933594 37.398438 Z M 18.335938 6.539062 C 18.335938 4.40625 20.039062 2.679688 22.140625 2.679688 C 24.246094 2.679688 25.949219 4.40625 25.949219 6.539062 C 25.949219 8.671875 24.246094 10.394531 22.140625 10.394531 C 20.039062 10.429688 18.335938 8.671875 18.335938 6.539062 Z M 22.175781 27.417969 C 20.070312 27.417969 18.367188 25.691406 18.367188 23.558594 C 18.367188 21.429688 20.070312 19.703125 22.175781 19.703125 C 24.277344 19.703125 25.980469 21.429688 25.980469 23.558594 C 25.980469 25.691406 24.277344 27.417969 22.175781 27.417969 Z M 38.503906 22.273438 C 36.402344 22.273438 34.699219 20.546875 34.699219 18.417969 C 34.699219 16.285156 36.402344 14.523438 38.503906 14.523438 C 40.609375 14.523438 42.3125 16.25 42.3125 18.382812 C 42.3125 20.515625 40.609375 22.273438 38.503906 22.273438 Z M 38.503906 22.273438 " fill-opacity="1" fill-rule="nonzero"/></g><path fill="#0032a0" d="M 23.34375 5.050781 C 23.34375 5.210938 23.3125 5.367188 23.253906 5.515625 C 23.191406 5.664062 23.105469 5.796875 22.992188 5.910156 C 22.878906 6.027344 22.75 6.113281 22.601562 6.175781 C 22.453125 6.238281 22.300781 6.269531 22.140625 6.269531 C 21.980469 6.269531 21.828125 6.238281 21.679688 6.175781 C 21.535156 6.113281 21.402344 6.027344 21.292969 5.910156 C 21.179688 5.796875 21.089844 5.664062 21.03125 5.515625 C 20.96875 5.367188 20.9375 5.210938 20.9375 5.050781 C 20.9375 4.886719 20.96875 4.734375 21.03125 4.582031 C 21.089844 4.433594 21.179688 4.300781 21.292969 4.1875 C 21.402344 4.074219 21.535156 3.984375 21.679688 3.925781 C 21.828125 3.863281 21.980469 3.832031 22.140625 3.832031 C 22.300781 3.832031 22.453125 3.863281 22.601562 3.925781 C 22.75 3.984375 22.878906 4.074219 22.992188 4.1875 C 23.105469 4.300781 23.191406 4.433594 23.253906 4.582031 C 23.3125 4.734375 23.34375 4.886719 23.34375 5.050781 Z M 23.34375 5.050781 " fill-opacity="1" fill-rule="nonzero"/><path fill="#0032a0" d="M 24.546875 8.230469 C 24.113281 7.453125 23.242188 6.910156 22.242188 6.910156 L 22.007812 6.910156 C 21.074219 6.910156 20.269531 7.382812 19.804688 8.09375 C 20.339844 8.875 21.207031 9.382812 22.242188 9.382812 C 23.175781 9.382812 24.011719 8.941406 24.546875 8.230469 Z M 24.546875 8.230469 " fill-opacity="1" fill-rule="nonzero"/><path fill="#0032a0" d="M 33.328125 35.878906 C 33.328125 36.039062 33.296875 36.195312 33.238281 36.34375 C 33.175781 36.492188 33.089844 36.625 32.976562 36.738281 C 32.863281 36.851562 32.734375 36.941406 32.585938 37.003906 C 32.441406 37.066406 32.285156 37.09375 32.128906 37.09375 C 31.96875 37.09375 31.8125 37.066406 31.667969 37.003906 C 31.519531 36.941406 31.390625 36.851562 31.277344 36.738281 C 31.164062 36.625 31.078125 36.492188 31.015625 36.34375 C 30.957031 36.195312 30.925781 36.039062 30.925781 35.878906 C 30.925781 35.714844 30.957031 35.558594 31.015625 35.410156 C 31.078125 35.261719 31.164062 35.128906 31.277344 35.015625 C 31.390625 34.902344 31.519531 34.8125 31.667969 34.75 C 31.8125 34.691406 31.96875 34.660156 32.128906 34.660156 C 32.285156 34.660156 32.441406 34.691406 32.585938 34.75 C 32.734375 34.8125 32.863281 34.902344 32.976562 35.015625 C 33.089844 35.128906 33.175781 35.261719 33.238281 35.410156 C 33.296875 35.558594 33.328125 35.714844 33.328125 35.878906 Z M 33.328125 35.878906 " fill-opacity="1" fill-rule="nonzero"/><path fill="#0032a0" d="M 32.195312 40.207031 C 33.128906 40.207031 33.996094 39.734375 34.53125 39.058594 C 34.0625 38.28125 33.230469 37.738281 32.226562 37.738281 L 31.992188 37.738281 C 31.058594 37.738281 30.257812 38.210938 29.789062 38.921875 C 30.324219 39.703125 31.191406 40.207031 32.195312 40.207031 Z M 32.195312 40.207031 " fill-opacity="1" fill-rule="nonzero"/><path fill="#0032a0" d="M 13.625 35.878906 C 13.625 36.039062 13.59375 36.195312 13.535156 36.34375 C 13.472656 36.492188 13.386719 36.625 13.273438 36.738281 C 13.160156 36.851562 13.03125 36.941406 12.882812 37.003906 C 12.734375 37.066406 12.582031 37.09375 12.421875 37.09375 C 12.261719 37.09375 12.109375 37.066406 11.964844 37.003906 C 11.816406 36.941406 11.6875 36.851562 11.574219 36.738281 C 11.460938 36.625 11.375 36.492188 11.3125 36.34375 C 11.25 36.195312 11.222656 36.039062 11.222656 35.878906 C 11.222656 35.714844 11.25 35.558594 11.3125 35.410156 C 11.375 35.261719 11.460938 35.128906 11.574219 35.015625 C 11.6875 34.902344 11.816406 34.8125 11.964844 34.75 C 12.109375 34.691406 12.261719 34.660156 12.421875 34.660156 C 12.582031 34.660156 12.734375 34.691406 12.882812 34.75 C 13.03125 34.8125 13.160156 34.902344 13.273438 35.015625 C 13.386719 35.128906 13.472656 35.261719 13.535156 35.410156 C 13.59375 35.558594 13.625 35.714844 13.625 35.878906 Z M 13.625 35.878906 " fill-opacity="1" fill-rule="nonzero"/><path fill="#0032a0" d="M 12.523438 37.738281 L 12.289062 37.738281 C 11.355469 37.738281 10.554688 38.210938 10.085938 38.921875 C 10.621094 39.703125 11.488281 40.207031 12.523438 40.207031 C 13.457031 40.207031 14.328125 39.734375 14.859375 39.058594 C 14.359375 38.28125 13.523438 37.738281 12.523438 37.738281 Z M 12.523438 37.738281 " fill-opacity="1" fill-rule="nonzero"/><path fill="#0032a0" d="M 23.378906 22.035156 C 23.378906 22.199219 23.347656 22.355469 23.285156 22.503906 C 23.222656 22.652344 23.136719 22.785156 23.023438 22.898438 C 22.914062 23.011719 22.78125 23.101562 22.636719 23.164062 C 22.488281 23.222656 22.335938 23.253906 22.175781 23.253906 C 22.015625 23.253906 21.863281 23.222656 21.714844 23.164062 C 21.566406 23.101562 21.4375 23.011719 21.324219 22.898438 C 21.210938 22.785156 21.125 22.652344 21.0625 22.503906 C 21.003906 22.355469 20.972656 22.199219 20.972656 22.035156 C 20.972656 21.875 21.003906 21.71875 21.0625 21.570312 C 21.125 21.421875 21.210938 21.289062 21.324219 21.175781 C 21.4375 21.0625 21.566406 20.972656 21.714844 20.910156 C 21.863281 20.851562 22.015625 20.820312 22.175781 20.820312 C 22.335938 20.820312 22.488281 20.851562 22.636719 20.910156 C 22.78125 20.972656 22.914062 21.0625 23.023438 21.175781 C 23.136719 21.289062 23.222656 21.421875 23.285156 21.570312 C 23.347656 21.71875 23.378906 21.875 23.378906 22.035156 Z M 23.378906 22.035156 " fill-opacity="1" fill-rule="nonzero"/><path fill="#0032a0" d="M 22.308594 23.898438 L 22.074219 23.898438 C 21.140625 23.898438 20.339844 24.371094 19.871094 25.082031 C 20.40625 25.859375 21.273438 26.367188 22.308594 26.367188 C 23.242188 26.367188 24.113281 25.894531 24.644531 25.21875 C 24.144531 24.441406 23.277344 23.898438 22.308594 23.898438 Z M 22.308594 23.898438 " fill-opacity="1" fill-rule="nonzero"/></svg>