<svg xmlns="http://www.w3.org/2000/svg" xmlns:xlink="http://www.w3.org/1999/xlink" width="72" zoomAndPan="magnify" viewBox="0 0 54 54" height="72" preserveAspectRatio="xMidYMid meet" version="1.0"><defs><clipPath id="1f6797d6e0"><path d="M 5.792969 5.300781 L 48.5 5.300781 L 48.5 48.011719 L 5.792969 48.011719 Z M 5.792969 5.300781 " clip-rule="nonzero"/></clipPath><clipPath id="d60d9ebf44"><path d="M 11.78125 11.292969 L 41.972656 11.292969 L 41.972656 41.480469 L 11.78125 41.480469 Z M 11.78125 11.292969 " clip-rule="nonzero"/></clipPath><clipPath id="496214e13a"><path d="M 16.726562 15.90625 L 36 15.90625 L 36 27 L 16.726562 27 Z M 16.726562 15.90625 " clip-rule="nonzero"/></clipPath><clipPath id="56a7c44001"><path d="M 18 25 L 34 25 L 34 37.261719 L 18 37.261719 Z M 18 25 " clip-rule="nonzero"/></clipPath><clipPath id="ee74cc2e36"><path d="M 17 36 L 36 36 L 36 37.261719 L 17 37.261719 Z M 17 36 " clip-rule="nonzero"/></clipPath><clipPath id="50db8772e6"><path d="M 29 27 L 37.347656 27 L 37.347656 36 L 29 36 Z M 29 27 " clip-rule="nonzero"/></clipPath><clipPath id="86c248ac1e"><path d="M 21 29 L 28 29 L 28 37.261719 L 21 37.261719 Z M 21 29 " clip-rule="nonzero"/></clipPath></defs><path fill="#0032a0" d="M 38.554688 34.097656 L 15.738281 34.097656 C 15.121094 34.097656 14.621094 33.5625 14.621094 32.90625 L 14.621094 20.40625 C 14.621094 19.75 15.121094 19.214844 15.738281 19.214844 L 38.554688 19.214844 C 39.171875 19.214844 39.675781 19.75 39.675781 20.40625 L 39.675781 32.90625 C 39.675781 33.5625 39.171875 34.097656 38.554688 34.097656 Z M 15.738281 19.785156 C 15.433594 19.785156 15.1875 20.0625 15.1875 20.40625 L 15.1875 32.90625 C 15.1875 33.25 15.433594 33.527344 15.738281 33.527344 L 38.554688 33.527344 C 38.859375 33.527344 39.105469 33.25 39.105469 32.90625 L 39.105469 20.40625 C 39.105469 20.0625 38.859375 19.785156 38.554688 19.785156 Z M 15.738281 19.785156 " fill-opacity="1" fill-rule="nonzero"/><path fill="#0032a0" d="M 23.734375 29.5625 L 16.429688 29.5625 C 16.269531 29.5625 16.144531 29.433594 16.144531 29.277344 C 16.144531 29.117188 16.269531 28.992188 16.429688 28.992188 L 23.734375 28.992188 C 23.890625 28.992188 24.019531 29.117188 24.019531 29.277344 C 24.019531 29.433594 23.890625 29.5625 23.734375 29.5625 Z M 23.734375 29.5625 " fill-opacity="1" fill-rule="nonzero"/><path fill="#0032a0" d="M 23.734375 30.882812 L 16.429688 30.882812 C 16.269531 30.882812 16.144531 30.753906 16.144531 30.597656 C 16.144531 30.441406 16.269531 30.3125 16.429688 30.3125 L 23.734375 30.3125 C 23.890625 30.3125 24.019531 30.441406 24.019531 30.597656 C 24.019531 30.753906 23.890625 30.882812 23.734375 30.882812 Z M 23.734375 30.882812 " fill-opacity="1" fill-rule="nonzero"/><path fill="#0032a0" d="M 23.734375 32.207031 L 16.429688 32.207031 C 16.269531 32.207031 16.144531 32.078125 16.144531 31.921875 C 16.144531 31.761719 16.269531 31.636719 16.429688 31.636719 L 23.734375 31.636719 C 23.890625 31.636719 24.019531 31.761719 24.019531 31.921875 C 24.019531 32.078125 23.890625 32.207031 23.734375 32.207031 Z M 23.734375 32.207031 " fill-opacity="1" fill-rule="nonzero"/><path fill="#0032a0" d="M 23.6875 27.503906 L 16.476562 27.503906 C 16.320312 27.503906 16.191406 27.375 16.191406 27.21875 L 16.191406 21.1875 C 16.191406 21.03125 16.316406 20.902344 16.476562 20.902344 L 23.6875 20.902344 C 23.84375 20.902344 23.972656 21.03125 23.972656 21.1875 L 23.972656 27.21875 C 23.972656 27.375 23.84375 27.503906 23.6875 27.503906 Z M 16.761719 26.933594 L 23.402344 26.933594 L 23.402344 21.472656 L 16.761719 21.472656 Z M 16.761719 26.933594 " fill-opacity="1" fill-rule="nonzero"/><path fill="#0032a0" d="M 20.082031 25.765625 C 19.019531 25.765625 18.152344 24.902344 18.152344 23.839844 C 18.152344 22.777344 19.019531 21.914062 20.082031 21.914062 C 21.144531 21.914062 22.007812 22.777344 22.007812 23.839844 C 22.007812 24.902344 21.144531 25.765625 20.082031 25.765625 Z M 20.082031 22.480469 C 19.332031 22.480469 18.722656 23.089844 18.722656 23.839844 C 18.722656 24.589844 19.332031 25.199219 20.082031 25.199219 C 20.828125 25.199219 21.4375 24.589844 21.4375 23.839844 C 21.4375 23.089844 20.828125 22.480469 20.082031 22.480469 Z M 20.082031 22.480469 " fill-opacity="1" fill-rule="nonzero"/><path fill="#0032a0" d="M 22.757812 27.503906 C 22.621094 27.503906 22.5 27.402344 22.476562 27.257812 C 22.355469 26.429688 21.308594 25.773438 20.097656 25.765625 L 20.066406 25.765625 C 18.855469 25.773438 17.808594 26.429688 17.6875 27.257812 C 17.664062 27.414062 17.519531 27.523438 17.363281 27.5 C 17.207031 27.476562 17.097656 27.332031 17.121094 27.175781 C 17.289062 26.054688 18.550781 25.203125 20.0625 25.195312 L 20.097656 25.195312 C 21.609375 25.203125 22.875 26.054688 23.039062 27.175781 C 23.0625 27.332031 22.957031 27.476562 22.800781 27.5 C 22.785156 27.5 22.773438 27.503906 22.757812 27.503906 Z M 22.757812 27.503906 " fill-opacity="1" fill-rule="nonzero"/><path fill="#0032a0" d="M 37.867188 27.503906 L 26.222656 27.503906 C 26.066406 27.503906 25.9375 27.375 25.9375 27.21875 C 25.9375 27.058594 26.066406 26.933594 26.222656 26.933594 L 37.867188 26.933594 C 38.023438 26.933594 38.152344 27.058594 38.152344 27.21875 C 38.152344 27.375 38.023438 27.503906 37.867188 27.503906 Z M 37.867188 27.503906 " fill-opacity="1" fill-rule="nonzero"/><path fill="#0032a0" d="M 37.867188 25.765625 L 26.222656 25.765625 C 26.066406 25.765625 25.9375 25.640625 25.9375 25.480469 C 25.9375 25.324219 26.066406 25.195312 26.222656 25.195312 L 37.867188 25.195312 C 38.023438 25.195312 38.152344 25.324219 38.152344 25.480469 C 38.152344 25.640625 38.023438 25.765625 37.867188 25.765625 Z M 37.867188 25.765625 " fill-opacity="1" fill-rule="nonzero"/><path fill="#0032a0" d="M 37.867188 24.113281 L 26.222656 24.113281 C 26.066406 24.113281 25.9375 23.988281 25.9375 23.828125 L 25.9375 21.1875 C 25.9375 21.03125 26.066406 20.902344 26.222656 20.902344 L 37.867188 20.902344 C 38.023438 20.902344 38.152344 21.03125 38.152344 21.1875 L 38.152344 23.828125 C 38.152344 23.988281 38.023438 24.113281 37.867188 24.113281 Z M 26.507812 23.542969 L 37.582031 23.542969 L 37.582031 21.472656 L 26.507812 21.472656 Z M 26.507812 23.542969 " fill-opacity="1" fill-rule="nonzero"/><path fill="#0032a0" d="M 28.128906 31.132812 C 28.082031 31.253906 28.039062 31.375 28.003906 31.496094 C 27.964844 31.363281 27.921875 31.238281 27.878906 31.132812 L 26.996094 28.667969 L 26.398438 28.667969 L 27.738281 32.125 L 28.265625 32.125 L 29.621094 28.667969 L 29.046875 28.667969 Z M 28.128906 31.132812 " fill-opacity="1" fill-rule="nonzero"/><path fill="#0032a0" d="M 30.109375 28.667969 L 30.667969 28.667969 L 30.667969 32.125 L 30.109375 32.125 Z M 30.109375 28.667969 " fill-opacity="1" fill-rule="nonzero"/><path fill="#0032a0" d="M 33.460938 30.230469 C 33.285156 30.164062 33.054688 30.101562 32.777344 30.039062 C 32.472656 29.972656 32.269531 29.902344 32.164062 29.835938 C 32.070312 29.777344 32.023438 29.6875 32.023438 29.5625 C 32.023438 29.421875 32.085938 29.316406 32.210938 29.242188 C 32.34375 29.160156 32.519531 29.121094 32.738281 29.121094 C 32.976562 29.121094 33.160156 29.171875 33.285156 29.269531 C 33.40625 29.367188 33.476562 29.511719 33.492188 29.710938 L 33.496094 29.765625 L 34.03125 29.722656 L 34.03125 29.667969 C 34.015625 29.332031 33.886719 29.066406 33.648438 28.882812 C 33.414062 28.703125 33.101562 28.609375 32.71875 28.609375 C 32.34375 28.609375 32.042969 28.703125 31.824219 28.886719 C 31.605469 29.070312 31.492188 29.308594 31.492188 29.59375 C 31.492188 29.84375 31.582031 30.050781 31.757812 30.210938 C 31.929688 30.363281 32.214844 30.484375 32.597656 30.566406 C 32.96875 30.648438 33.230469 30.726562 33.386719 30.808594 C 33.527344 30.882812 33.597656 30.996094 33.597656 31.15625 C 33.597656 31.3125 33.527344 31.433594 33.390625 31.523438 C 33.25 31.621094 33.058594 31.667969 32.824219 31.667969 C 32.570312 31.667969 32.355469 31.609375 32.175781 31.492188 C 32.003906 31.378906 31.910156 31.203125 31.894531 30.953125 L 31.890625 30.894531 L 31.359375 30.941406 L 31.359375 30.996094 C 31.375 31.34375 31.507812 31.632812 31.75 31.851562 C 31.992188 32.070312 32.359375 32.179688 32.84375 32.179688 C 33.222656 32.179688 33.535156 32.082031 33.773438 31.882812 C 34.015625 31.683594 34.136719 31.425781 34.136719 31.121094 C 34.136719 30.882812 34.070312 30.6875 33.933594 30.542969 C 33.804688 30.402344 33.644531 30.296875 33.460938 30.230469 Z M 33.460938 30.230469 " fill-opacity="1" fill-rule="nonzero"/><path fill="#0032a0" d="M 36.285156 28.667969 L 35.730469 28.667969 L 34.402344 32.125 L 34.992188 32.125 L 35.363281 31.105469 L 36.679688 31.105469 L 37.070312 32.125 L 37.695312 32.125 Z M 36.003906 29.289062 C 36.027344 29.367188 36.046875 29.429688 36.066406 29.484375 C 36.101562 29.582031 36.242188 29.960938 36.5 30.640625 L 35.53125 30.640625 L 35.875 29.71875 C 35.925781 29.585938 35.96875 29.441406 36.003906 29.289062 Z M 36.003906 29.289062 " fill-opacity="1" fill-rule="nonzero"/><g clip-path="url(#1f6797d6e0)"><path fill="#0032a0" d="M 27.148438 48.011719 C 24.265625 48.011719 21.46875 47.445312 18.835938 46.332031 C 16.292969 45.257812 14.007812 43.71875 12.046875 41.757812 C 10.085938 39.796875 8.546875 37.511719 7.46875 34.96875 C 6.359375 32.335938 5.792969 29.539062 5.792969 26.65625 C 5.792969 23.773438 6.359375 20.976562 7.46875 18.34375 C 8.546875 15.800781 10.085938 13.515625 12.046875 11.554688 C 14.007812 9.59375 16.292969 8.054688 18.835938 6.980469 C 21.46875 5.867188 24.265625 5.300781 27.148438 5.300781 C 30.03125 5.300781 32.828125 5.867188 35.460938 6.980469 C 38.003906 8.054688 40.285156 9.59375 42.246094 11.554688 C 44.210938 13.515625 45.75 15.800781 46.824219 18.34375 C 47.9375 20.976562 48.5 23.773438 48.5 26.65625 C 48.5 29.539062 47.9375 32.335938 46.824219 34.96875 C 45.75 37.511719 44.210938 39.796875 42.246094 41.757812 C 40.285156 43.71875 38.003906 45.257812 35.460938 46.332031 C 32.828125 47.445312 30.03125 48.011719 27.148438 48.011719 Z M 27.148438 5.863281 C 15.683594 5.863281 6.355469 15.191406 6.355469 26.65625 C 6.355469 38.121094 15.683594 47.449219 27.148438 47.449219 C 38.613281 47.449219 47.941406 38.121094 47.941406 26.65625 C 47.941406 15.191406 38.613281 5.863281 27.148438 5.863281 Z M 27.148438 5.863281 " fill-opacity="1" fill-rule="nonzero"/></g><g clip-path="url(#d60d9ebf44)"><path fill="#ffffff" d="M 26.878906 11.292969 C 18.539062 11.292969 11.78125 18.050781 11.78125 26.386719 C 11.78125 34.722656 18.539062 41.480469 26.878906 41.480469 C 35.214844 41.480469 41.972656 34.722656 41.972656 26.386719 C 41.972656 18.050781 35.214844 11.292969 26.878906 11.292969 " fill-opacity="1" fill-rule="nonzero"/></g><g clip-path="url(#496214e13a)"><path fill="#0032a0" d="M 34.105469 26.625 C 33.730469 26.625 33.398438 26.5 33.148438 26.25 L 26.082031 19.203125 L 19.054688 26.25 C 18.804688 26.5 18.472656 26.625 18.097656 26.625 C 17.726562 26.625 17.394531 26.5 17.144531 26.25 C 16.851562 26 16.726562 25.625 16.726562 25.289062 C 16.726562 24.914062 16.851562 24.582031 17.144531 24.289062 L 25.125 16.324219 C 25.375 16.03125 25.75 15.90625 26.082031 15.90625 C 26.453125 15.90625 26.789062 16.03125 27.078125 16.324219 L 35.058594 24.289062 C 35.308594 24.582031 35.476562 24.914062 35.476562 25.289062 C 35.476562 25.625 35.308594 26 35.058594 26.25 C 34.808594 26.5 34.476562 26.625 34.105469 26.625 Z M 26.082031 18.492188 C 26.164062 18.492188 26.246094 18.535156 26.289062 18.578125 L 33.5625 25.832031 C 33.6875 25.957031 33.894531 26.039062 34.105469 26.039062 C 34.3125 26.039062 34.519531 25.957031 34.644531 25.832031 C 34.808594 25.664062 34.894531 25.5 34.894531 25.289062 C 34.894531 25.082031 34.808594 24.875 34.644531 24.707031 L 26.664062 16.699219 C 26.496094 16.574219 26.289062 16.492188 26.082031 16.492188 C 25.871094 16.492188 25.707031 16.574219 25.539062 16.699219 L 17.515625 24.707031 C 17.394531 24.875 17.308594 25.082031 17.308594 25.289062 C 17.308594 25.5 17.394531 25.664062 17.515625 25.832031 C 17.683594 25.957031 17.890625 26.039062 18.097656 26.039062 C 18.308594 26.039062 18.515625 25.957031 18.640625 25.832031 L 25.871094 18.578125 C 25.957031 18.535156 26.039062 18.492188 26.082031 18.492188 Z M 26.082031 18.492188 " fill-opacity="1" fill-rule="evenodd"/></g><g clip-path="url(#56a7c44001)"><path fill="#0032a0" d="M 33.4375 37.257812 L 18.765625 37.257812 C 18.597656 37.257812 18.472656 37.132812 18.472656 36.964844 L 18.472656 26.125 C 18.472656 26.125 18.472656 26.125 18.472656 26.082031 C 18.472656 26 18.515625 25.957031 18.558594 25.914062 C 18.558594 25.914062 18.558594 25.875 18.558594 25.875 C 18.597656 25.875 18.640625 25.832031 18.640625 25.832031 C 18.765625 25.707031 18.929688 25.707031 19.054688 25.832031 C 19.097656 25.875 19.140625 25.957031 19.140625 26.039062 C 19.140625 26.125 19.097656 26.164062 19.054688 26.25 L 19.054688 36.671875 L 33.148438 36.671875 L 33.148438 35.132812 C 33.148438 34.964844 33.273438 34.839844 33.4375 34.839844 C 33.605469 34.839844 33.730469 34.964844 33.730469 35.132812 L 33.730469 36.964844 C 33.730469 37.132812 33.605469 37.257812 33.4375 37.257812 Z M 33.4375 28.167969 C 33.273438 28.167969 33.148438 28.042969 33.148438 27.875 L 33.148438 26.125 C 33.148438 25.957031 33.273438 25.832031 33.4375 25.832031 C 33.605469 25.832031 33.730469 25.957031 33.730469 26.125 L 33.730469 27.875 C 33.730469 28.042969 33.605469 28.167969 33.4375 28.167969 Z M 33.4375 28.167969 " fill-opacity="1" fill-rule="evenodd"/></g><g clip-path="url(#ee74cc2e36)"><path fill="#0032a0" d="M 34.726562 37.257812 L 17.476562 37.257812 C 17.308594 37.257812 17.183594 37.132812 17.183594 36.964844 C 17.183594 36.800781 17.308594 36.671875 17.476562 36.671875 L 34.726562 36.671875 C 34.894531 36.671875 35.019531 36.800781 35.019531 36.964844 C 35.019531 37.132812 34.894531 37.257812 34.726562 37.257812 Z M 34.726562 37.257812 " fill-opacity="1" fill-rule="evenodd"/></g><path fill="#0032a0" d="M 19.636719 22.496094 C 19.472656 22.496094 19.347656 22.371094 19.347656 22.203125 L 19.347656 18.117188 C 19.347656 17.949219 19.472656 17.824219 19.636719 17.824219 L 21.589844 17.824219 C 21.757812 17.824219 21.882812 17.949219 21.882812 18.117188 L 21.882812 20.246094 C 21.882812 20.410156 21.757812 20.535156 21.589844 20.535156 C 21.425781 20.535156 21.300781 20.410156 21.300781 20.246094 L 21.300781 18.410156 L 19.929688 18.410156 L 19.929688 22.203125 C 19.929688 22.371094 19.804688 22.496094 19.636719 22.496094 Z M 19.636719 22.496094 " fill-opacity="1" fill-rule="evenodd"/><g clip-path="url(#50db8772e6)"><path fill="#0032a0" d="M 33.4375 35.421875 C 31.277344 35.421875 29.53125 33.671875 29.53125 31.503906 C 29.53125 29.335938 31.277344 27.582031 33.4375 27.582031 C 35.601562 27.582031 37.347656 29.335938 37.347656 31.503906 C 37.347656 33.671875 35.601562 35.421875 33.4375 35.421875 Z M 33.4375 28.167969 C 31.609375 28.167969 30.113281 29.667969 30.113281 31.503906 C 30.113281 33.339844 31.609375 34.839844 33.4375 34.839844 C 35.265625 34.839844 36.765625 33.339844 36.765625 31.503906 C 36.765625 29.667969 35.265625 28.167969 33.4375 28.167969 Z M 33.4375 28.167969 " fill-opacity="1" fill-rule="evenodd"/></g><path fill="#0032a0" d="M 32.148438 33.085938 C 32.066406 33.085938 31.984375 33.046875 31.941406 33.003906 C 31.816406 32.878906 31.816406 32.710938 31.941406 32.585938 L 34.519531 30.003906 C 34.644531 29.875 34.851562 29.875 34.933594 30.003906 C 35.058594 30.085938 35.058594 30.292969 34.933594 30.417969 L 32.359375 33.003906 C 32.273438 33.046875 32.234375 33.085938 32.148438 33.085938 Z M 32.148438 33.085938 " fill-opacity="1" fill-rule="evenodd"/><path fill="#0032a0" d="M 32.234375 31.335938 C 31.941406 31.335938 31.691406 31.210938 31.484375 31.042969 C 31.277344 30.835938 31.195312 30.585938 31.195312 30.292969 C 31.195312 30.003906 31.277344 29.75 31.484375 29.542969 C 31.691406 29.335938 31.941406 29.25 32.234375 29.25 C 32.523438 29.25 32.773438 29.335938 32.980469 29.542969 C 33.1875 29.75 33.273438 30.003906 33.273438 30.292969 C 33.273438 30.585938 33.1875 30.835938 32.980469 31.042969 C 32.773438 31.210938 32.523438 31.335938 32.234375 31.335938 Z M 32.234375 29.835938 C 32.109375 29.835938 31.984375 29.875 31.898438 29.960938 C 31.816406 30.042969 31.777344 30.167969 31.777344 30.292969 C 31.777344 30.417969 31.816406 30.542969 31.898438 30.628906 C 31.984375 30.710938 32.109375 30.753906 32.234375 30.753906 C 32.359375 30.753906 32.480469 30.710938 32.566406 30.628906 C 32.648438 30.542969 32.691406 30.417969 32.691406 30.292969 C 32.691406 30.167969 32.648438 30.042969 32.566406 29.960938 C 32.480469 29.875 32.359375 29.835938 32.234375 29.835938 Z M 32.234375 29.835938 " fill-opacity="1" fill-rule="evenodd"/><path fill="#0032a0" d="M 34.644531 33.753906 C 34.351562 33.753906 34.105469 33.671875 33.894531 33.464844 C 33.523438 33.046875 33.523438 32.378906 33.894531 31.960938 C 34.105469 31.753906 34.351562 31.671875 34.644531 31.671875 C 34.933594 31.671875 35.183594 31.753906 35.390625 31.960938 C 35.808594 32.378906 35.808594 33.046875 35.390625 33.464844 C 35.183594 33.671875 34.933594 33.753906 34.644531 33.753906 Z M 34.644531 32.253906 C 34.519531 32.253906 34.394531 32.296875 34.3125 32.378906 C 34.144531 32.546875 34.144531 32.878906 34.3125 33.046875 C 34.394531 33.128906 34.519531 33.171875 34.644531 33.171875 C 34.769531 33.171875 34.894531 33.128906 34.976562 33.046875 C 35.183594 32.878906 35.183594 32.546875 34.976562 32.378906 C 34.894531 32.296875 34.769531 32.253906 34.644531 32.253906 Z M 34.644531 32.253906 " fill-opacity="1" fill-rule="evenodd"/><g clip-path="url(#86c248ac1e)"><path fill="#0032a0" d="M 27.035156 37.257812 L 21.550781 37.257812 C 21.382812 37.257812 21.257812 37.132812 21.257812 36.964844 L 21.257812 30.003906 C 21.257812 29.835938 21.382812 29.710938 21.550781 29.710938 L 27.035156 29.710938 C 27.203125 29.710938 27.328125 29.835938 27.328125 30.003906 L 27.328125 36.964844 C 27.328125 37.132812 27.203125 37.257812 27.035156 37.257812 Z M 21.839844 36.671875 L 26.746094 36.671875 L 26.746094 30.292969 L 21.839844 30.292969 Z M 21.839844 36.671875 " fill-opacity="1" fill-rule="evenodd"/></g><path fill="#0032a0" d="M 25.789062 34.128906 C 25.625 34.128906 25.5 34.003906 25.5 33.839844 L 25.5 33.085938 C 25.5 32.960938 25.625 32.796875 25.789062 32.796875 C 25.957031 32.796875 26.082031 32.960938 26.082031 33.085938 L 26.082031 33.839844 C 26.082031 34.003906 25.957031 34.128906 25.789062 34.128906 Z M 25.789062 34.128906 " fill-opacity="1" fill-rule="evenodd"/><path fill="#0032a0" d="M 29.199219 27.042969 L 22.964844 27.042969 C 22.796875 27.042969 22.671875 26.917969 22.671875 26.75 L 22.671875 24.039062 C 22.671875 23.871094 22.796875 23.746094 22.964844 23.746094 L 29.199219 23.746094 C 29.363281 23.746094 29.488281 23.871094 29.488281 24.039062 L 29.488281 26.75 C 29.488281 26.917969 29.363281 27.042969 29.199219 27.042969 Z M 23.253906 26.457031 L 28.90625 26.457031 L 28.90625 24.332031 L 23.253906 24.332031 Z M 23.253906 26.457031 " fill-opacity="1" fill-rule="evenodd"/><path fill="#0032a0" d="M 26.082031 27.042969 C 25.957031 27.042969 25.789062 26.917969 25.789062 26.75 L 25.789062 24.039062 C 25.789062 23.871094 25.957031 23.746094 26.082031 23.746094 C 26.246094 23.746094 26.371094 23.871094 26.371094 24.039062 L 26.371094 26.75 C 26.371094 26.917969 26.246094 27.042969 26.082031 27.042969 Z M 26.082031 27.042969 " fill-opacity="1" fill-rule="evenodd"/></svg>