<svg xmlns="http://www.w3.org/2000/svg" xmlns:xlink="http://www.w3.org/1999/xlink" width="60" zoomAndPan="magnify" viewBox="0 0 45 44.999999" height="60" preserveAspectRatio="xMidYMid meet" version="1.0"><defs><clipPath id="id1"><path d="M 37 16 L 42.898438 16 L 42.898438 42.898438 L 37 42.898438 Z M 37 16 " clip-rule="nonzero"/></clipPath><clipPath id="id2"><path d="M 31 16 L 38 16 L 38 42.898438 L 31 42.898438 Z M 31 16 " clip-rule="nonzero"/></clipPath><clipPath id="id3"><path d="M 26 9 L 32 9 L 32 42.898438 L 26 42.898438 Z M 26 9 " clip-rule="nonzero"/></clipPath><clipPath id="id4"><path d="M 25 9 L 32 9 L 32 42.898438 L 25 42.898438 Z M 25 9 " clip-rule="nonzero"/></clipPath><clipPath id="id5"><path d="M 20 9 L 26 9 L 26 42.898438 L 20 42.898438 Z M 20 9 " clip-rule="nonzero"/></clipPath><clipPath id="id6"><path d="M 15 1.648438 L 20 1.648438 L 20 42.898438 L 15 42.898438 Z M 15 1.648438 " clip-rule="nonzero"/></clipPath><clipPath id="id7"><path d="M 10 1.648438 L 16 1.648438 L 16 42.898438 L 10 42.898438 Z M 10 1.648438 " clip-rule="nonzero"/></clipPath><clipPath id="id8"><path d="M 6 19 L 11 19 L 11 42.898438 L 6 42.898438 Z M 6 19 " clip-rule="nonzero"/></clipPath><clipPath id="id9"><path d="M 1.648438 19 L 7 19 L 7 42.898438 L 1.648438 42.898438 Z M 1.648438 19 " clip-rule="nonzero"/></clipPath></defs><rect x="-4.5" width="54" fill="#ffffff" y="-4.5" height="53.999999" fill-opacity="1"/><rect x="-4.5" width="54" fill="#ffffff" y="-4.5" height="53.999999" fill-opacity="1"/><rect x="-4.5" width="54" fill="#ffffff" y="-4.5" height="53.999999" fill-opacity="1"/><rect x="-4.5" width="54" fill="#ffffff" y="-4.5" height="53.999999" fill-opacity="1"/><g clip-path="url(#id1)"><path fill="#ffffff" d="M 42.039062 24.945312 L 40.5625 24.199219 L 40.5625 19.820312 L 42.039062 20.769531 Z M 42.039062 30.164062 L 40.5625 29.664062 L 40.5625 25.285156 L 42.039062 25.984375 Z M 42.039062 35.378906 L 40.5625 35.128906 L 40.5625 30.75 L 42.039062 31.203125 Z M 42.039062 40.597656 L 40.5625 40.597656 L 40.5625 36.21875 L 42.039062 36.417969 Z M 39.765625 23.792969 L 38.289062 23.046875 L 38.289062 18.359375 L 39.765625 19.308594 Z M 39.765625 29.394531 L 38.289062 28.894531 L 38.289062 24.210938 L 39.765625 24.910156 Z M 39.765625 34.996094 L 38.289062 34.746094 L 38.289062 30.058594 L 39.765625 30.511719 Z M 39.765625 40.597656 L 38.289062 40.597656 L 38.289062 35.910156 L 39.765625 36.109375 Z M 37.484375 16.242188 L 37.484375 42.710938 L 42.734375 42.710938 L 42.734375 19.226562 L 37.484375 16.242188 " fill-opacity="1" fill-rule="nonzero"/><path fill="#0032a0" d="M 42.039062 24.945312 L 42.109375 24.804688 L 40.71875 24.101562 L 40.71875 20.109375 L 41.878906 20.855469 L 41.878906 24.945312 L 42.039062 24.945312 L 42.109375 24.804688 L 42.039062 24.945312 L 42.195312 24.945312 L 42.195312 20.769531 C 42.195312 20.714844 42.167969 20.664062 42.125 20.636719 L 40.648438 19.6875 C 40.597656 19.65625 40.535156 19.652344 40.484375 19.679688 C 40.433594 19.707031 40.402344 19.761719 40.402344 19.820312 L 40.402344 24.199219 C 40.402344 24.257812 40.4375 24.3125 40.488281 24.339844 L 41.96875 25.085938 C 42.015625 25.113281 42.074219 25.109375 42.121094 25.082031 C 42.167969 25.050781 42.195312 25 42.195312 24.945312 Z M 42.039062 30.164062 L 42.089844 30.011719 L 40.71875 29.550781 L 40.71875 25.535156 L 41.878906 26.085938 L 41.878906 30.164062 L 42.039062 30.164062 L 42.089844 30.011719 L 42.039062 30.164062 L 42.195312 30.164062 L 42.195312 25.984375 C 42.195312 25.925781 42.160156 25.867188 42.105469 25.839844 L 40.628906 25.144531 C 40.578125 25.121094 40.523438 25.121094 40.476562 25.152344 C 40.429688 25.179688 40.402344 25.230469 40.402344 25.285156 L 40.402344 29.664062 C 40.402344 29.730469 40.445312 29.792969 40.511719 29.8125 L 41.988281 30.3125 C 42.035156 30.328125 42.089844 30.320312 42.128906 30.292969 C 42.171875 30.261719 42.195312 30.214844 42.195312 30.164062 Z M 42.039062 35.378906 L 42.066406 35.222656 L 40.71875 34.996094 L 40.71875 30.964844 L 41.878906 31.316406 L 41.878906 35.378906 L 42.039062 35.378906 L 42.066406 35.222656 L 42.039062 35.378906 L 42.195312 35.378906 L 42.195312 31.203125 C 42.195312 31.132812 42.152344 31.070312 42.085938 31.050781 L 40.605469 30.601562 C 40.558594 30.585938 40.507812 30.59375 40.46875 30.625 C 40.425781 30.65625 40.402344 30.703125 40.402344 30.75 L 40.402344 35.128906 C 40.402344 35.207031 40.457031 35.273438 40.535156 35.285156 L 42.011719 35.535156 C 42.058594 35.542969 42.105469 35.53125 42.140625 35.5 C 42.175781 35.46875 42.195312 35.425781 42.195312 35.378906 Z M 42.039062 40.597656 L 42.039062 40.4375 L 40.71875 40.4375 L 40.71875 36.398438 L 41.878906 36.554688 L 41.878906 40.597656 L 42.039062 40.597656 L 42.039062 40.4375 L 42.039062 40.597656 L 42.195312 40.597656 L 42.195312 36.417969 C 42.195312 36.339844 42.136719 36.273438 42.058594 36.261719 L 40.582031 36.0625 C 40.535156 36.054688 40.492188 36.070312 40.457031 36.097656 C 40.421875 36.128906 40.402344 36.171875 40.402344 36.21875 L 40.402344 40.597656 C 40.402344 40.636719 40.421875 40.679688 40.449219 40.707031 C 40.480469 40.738281 40.519531 40.753906 40.5625 40.753906 L 42.039062 40.753906 C 42.082031 40.753906 42.121094 40.738281 42.148438 40.707031 C 42.179688 40.679688 42.195312 40.636719 42.195312 40.597656 Z M 39.765625 23.792969 L 39.835938 23.652344 L 38.445312 22.949219 L 38.445312 18.648438 L 39.605469 19.394531 L 39.605469 23.792969 L 39.765625 23.792969 L 39.835938 23.652344 L 39.765625 23.792969 L 39.921875 23.792969 L 39.921875 19.308594 C 39.921875 19.253906 39.894531 19.207031 39.851562 19.175781 L 38.375 18.226562 C 38.324219 18.195312 38.261719 18.195312 38.210938 18.222656 C 38.160156 18.25 38.128906 18.300781 38.128906 18.359375 L 38.128906 23.046875 C 38.128906 23.105469 38.164062 23.160156 38.21875 23.1875 L 39.695312 23.9375 C 39.742188 23.960938 39.800781 23.957031 39.847656 23.929688 C 39.894531 23.902344 39.921875 23.847656 39.921875 23.792969 Z M 39.765625 29.394531 L 39.816406 29.246094 L 38.445312 28.78125 L 38.445312 24.460938 L 39.605469 25.007812 L 39.605469 29.394531 L 39.765625 29.394531 L 39.816406 29.246094 L 39.765625 29.394531 L 39.921875 29.394531 L 39.921875 24.910156 C 39.921875 24.847656 39.886719 24.792969 39.832031 24.765625 L 38.355469 24.066406 C 38.308594 24.042969 38.25 24.046875 38.203125 24.078125 C 38.160156 24.105469 38.128906 24.15625 38.128906 24.210938 L 38.128906 28.894531 C 38.128906 28.964844 38.171875 29.023438 38.238281 29.046875 L 39.714844 29.546875 C 39.761719 29.5625 39.816406 29.554688 39.859375 29.523438 C 39.898438 29.496094 39.921875 29.445312 39.921875 29.394531 Z M 39.765625 34.996094 L 39.792969 34.839844 L 38.445312 34.613281 L 38.445312 30.273438 L 39.605469 30.628906 L 39.605469 34.996094 L 39.765625 34.996094 L 39.792969 34.839844 L 39.765625 34.996094 L 39.921875 34.996094 L 39.921875 30.511719 C 39.921875 30.441406 39.878906 30.378906 39.8125 30.359375 L 38.335938 29.910156 C 38.285156 29.894531 38.234375 29.902344 38.195312 29.933594 C 38.152344 29.964844 38.128906 30.011719 38.128906 30.058594 L 38.128906 34.746094 C 38.128906 34.824219 38.183594 34.886719 38.261719 34.902344 L 39.738281 35.152344 C 39.785156 35.160156 39.832031 35.144531 39.867188 35.117188 C 39.902344 35.085938 39.921875 35.042969 39.921875 34.996094 Z M 39.765625 40.597656 L 39.765625 40.4375 L 38.445312 40.4375 L 38.445312 36.089844 L 39.605469 36.25 L 39.605469 40.597656 L 39.765625 40.597656 L 39.765625 40.4375 L 39.765625 40.597656 L 39.921875 40.597656 L 39.921875 36.109375 C 39.921875 36.03125 39.867188 35.964844 39.785156 35.953125 L 38.308594 35.753906 C 38.265625 35.746094 38.21875 35.761719 38.183594 35.792969 C 38.148438 35.820312 38.128906 35.863281 38.128906 35.910156 L 38.128906 40.597656 C 38.128906 40.636719 38.148438 40.679688 38.175781 40.707031 C 38.207031 40.738281 38.246094 40.753906 38.289062 40.753906 L 39.765625 40.753906 C 39.808594 40.753906 39.847656 40.738281 39.878906 40.707031 C 39.90625 40.679688 39.921875 40.636719 39.921875 40.597656 Z M 37.484375 16.242188 L 37.324219 16.242188 L 37.324219 42.710938 C 37.324219 42.753906 37.34375 42.796875 37.371094 42.824219 C 37.402344 42.855469 37.441406 42.871094 37.484375 42.871094 L 42.734375 42.871094 C 42.777344 42.871094 42.816406 42.855469 42.84375 42.824219 C 42.875 42.796875 42.890625 42.753906 42.890625 42.710938 L 42.890625 19.226562 C 42.890625 19.171875 42.863281 19.121094 42.8125 19.089844 L 37.5625 16.105469 C 37.511719 16.078125 37.453125 16.078125 37.402344 16.105469 C 37.355469 16.136719 37.324219 16.1875 37.324219 16.242188 L 37.484375 16.242188 L 37.40625 16.378906 L 42.574219 19.320312 L 42.574219 42.554688 L 37.640625 42.554688 L 37.640625 16.242188 L 37.484375 16.242188 L 37.40625 16.378906 L 37.484375 16.242188 " fill-opacity="1" fill-rule="nonzero"/></g><g clip-path="url(#id2)"><path fill="#ffffff" d="M 36.167969 20.0625 L 32.582031 22.308594 L 32.582031 20.605469 L 36.167969 18.152344 Z M 36.167969 23.023438 L 32.582031 24.949219 L 32.582031 23.25 L 36.167969 21.117188 Z M 36.167969 25.988281 L 32.582031 27.589844 L 32.582031 25.890625 L 36.167969 24.078125 Z M 36.167969 28.949219 L 32.582031 30.234375 L 32.582031 28.53125 L 36.167969 27.042969 Z M 36.167969 31.914062 L 32.582031 32.875 L 32.582031 31.175781 L 36.167969 30.007812 Z M 36.167969 34.875 L 32.582031 35.519531 L 32.582031 33.816406 L 36.167969 32.96875 Z M 36.167969 37.839844 L 32.582031 38.160156 L 32.582031 36.460938 L 36.167969 35.933594 Z M 36.167969 40.800781 L 32.582031 40.800781 L 32.582031 39.101562 L 36.167969 38.894531 Z M 31.636719 19.226562 L 31.636719 42.710938 L 37.109375 42.710938 L 37.109375 16.242188 L 31.636719 19.226562 " fill-opacity="1" fill-rule="nonzero"/><path fill="#0032a0" d="M 36.167969 20.0625 L 36.085938 19.925781 L 32.738281 22.023438 L 32.738281 20.691406 L 36.011719 18.453125 L 36.011719 20.0625 L 36.167969 20.0625 L 36.085938 19.925781 L 36.167969 20.0625 L 36.328125 20.0625 L 36.328125 18.152344 C 36.328125 18.09375 36.292969 18.042969 36.242188 18.015625 C 36.191406 17.988281 36.128906 17.988281 36.078125 18.023438 L 32.492188 20.476562 C 32.449219 20.503906 32.421875 20.554688 32.421875 20.605469 L 32.421875 22.308594 C 32.421875 22.363281 32.453125 22.417969 32.503906 22.445312 C 32.554688 22.472656 32.617188 22.472656 32.664062 22.441406 L 36.253906 20.195312 C 36.296875 20.167969 36.328125 20.117188 36.328125 20.0625 Z M 36.167969 23.023438 L 36.09375 22.886719 L 32.738281 24.683594 L 32.738281 23.339844 L 36.011719 21.394531 L 36.011719 23.023438 L 36.167969 23.023438 L 36.09375 22.886719 L 36.167969 23.023438 L 36.328125 23.023438 L 36.328125 21.117188 C 36.328125 21.058594 36.296875 21.007812 36.246094 20.980469 C 36.195312 20.949219 36.136719 20.953125 36.085938 20.980469 L 32.5 23.113281 C 32.449219 23.140625 32.421875 23.191406 32.421875 23.25 L 32.421875 24.949219 C 32.421875 25.003906 32.453125 25.058594 32.5 25.085938 C 32.546875 25.113281 32.605469 25.113281 32.65625 25.089844 L 36.242188 23.164062 C 36.292969 23.136719 36.328125 23.082031 36.328125 23.023438 Z M 36.167969 25.988281 L 36.105469 25.84375 L 32.738281 27.347656 L 32.738281 25.988281 L 36.011719 24.335938 L 36.011719 25.988281 L 36.167969 25.988281 L 36.105469 25.84375 L 36.167969 25.988281 L 36.328125 25.988281 L 36.328125 24.078125 C 36.328125 24.023438 36.296875 23.972656 36.25 23.945312 C 36.203125 23.917969 36.144531 23.914062 36.097656 23.9375 L 32.507812 25.75 C 32.457031 25.777344 32.421875 25.832031 32.421875 25.890625 L 32.421875 27.589844 C 32.421875 27.644531 32.449219 27.695312 32.496094 27.722656 C 32.539062 27.753906 32.59375 27.757812 32.644531 27.734375 L 36.234375 26.132812 C 36.289062 26.105469 36.328125 26.050781 36.328125 25.988281 Z M 36.167969 28.949219 L 36.117188 28.800781 L 32.738281 30.007812 L 32.738281 28.636719 L 36.011719 27.28125 L 36.011719 28.949219 L 36.167969 28.949219 L 36.117188 28.800781 L 36.167969 28.949219 L 36.328125 28.949219 L 36.328125 27.042969 C 36.328125 26.988281 36.300781 26.941406 36.257812 26.910156 C 36.210938 26.882812 36.15625 26.875 36.109375 26.898438 L 32.519531 28.386719 C 32.460938 28.410156 32.421875 28.46875 32.421875 28.53125 L 32.421875 30.234375 C 32.421875 30.285156 32.449219 30.332031 32.488281 30.363281 C 32.53125 30.394531 32.585938 30.398438 32.632812 30.382812 L 36.222656 29.101562 C 36.285156 29.078125 36.328125 29.015625 36.328125 28.949219 Z M 36.167969 31.914062 L 36.128906 31.761719 L 32.738281 32.671875 L 32.738281 31.289062 L 36.011719 30.222656 L 36.011719 31.914062 L 36.167969 31.914062 L 36.128906 31.761719 L 36.167969 31.914062 L 36.328125 31.914062 L 36.328125 30.007812 C 36.328125 29.957031 36.300781 29.90625 36.261719 29.878906 C 36.21875 29.847656 36.167969 29.839844 36.121094 29.855469 L 32.53125 31.023438 C 32.464844 31.046875 32.421875 31.105469 32.421875 31.175781 L 32.421875 32.875 C 32.421875 32.925781 32.445312 32.972656 32.484375 33 C 32.523438 33.03125 32.574219 33.042969 32.621094 33.027344 L 36.210938 32.066406 C 36.277344 32.046875 36.328125 31.984375 36.328125 31.914062 Z M 36.167969 34.875 L 36.140625 34.722656 L 32.738281 35.328125 L 32.738281 33.941406 L 36.011719 33.167969 L 36.011719 34.875 L 36.167969 34.875 L 36.140625 34.722656 L 36.167969 34.875 L 36.328125 34.875 L 36.328125 32.96875 C 36.328125 32.921875 36.304688 32.875 36.265625 32.84375 C 36.226562 32.816406 36.179688 32.804688 36.132812 32.816406 L 32.542969 33.664062 C 32.472656 33.679688 32.421875 33.742188 32.421875 33.816406 L 32.421875 35.519531 C 32.421875 35.566406 32.441406 35.609375 32.480469 35.640625 C 32.515625 35.667969 32.5625 35.683594 32.609375 35.675781 L 36.195312 35.03125 C 36.273438 35.019531 36.328125 34.953125 36.328125 34.875 Z M 36.167969 37.839844 L 36.152344 37.683594 L 32.738281 37.988281 L 32.738281 36.59375 L 36.011719 36.113281 L 36.011719 37.839844 L 36.167969 37.839844 L 36.152344 37.683594 L 36.167969 37.839844 L 36.328125 37.839844 L 36.328125 35.933594 C 36.328125 35.886719 36.304688 35.84375 36.273438 35.8125 C 36.238281 35.78125 36.191406 35.769531 36.144531 35.777344 L 32.558594 36.304688 C 32.480469 36.316406 32.421875 36.382812 32.421875 36.460938 L 32.421875 38.160156 C 32.421875 38.203125 32.441406 38.246094 32.472656 38.277344 C 32.507812 38.308594 32.550781 38.320312 32.59375 38.316406 L 36.183594 37.996094 C 36.265625 37.988281 36.328125 37.921875 36.328125 37.839844 Z M 36.167969 40.800781 L 36.167969 40.644531 L 32.738281 40.644531 L 32.738281 39.25 L 36.011719 39.0625 L 36.011719 40.800781 L 36.167969 40.800781 L 36.167969 40.644531 L 36.167969 40.800781 L 36.328125 40.800781 L 36.328125 38.894531 C 36.328125 38.851562 36.308594 38.808594 36.277344 38.78125 C 36.246094 38.75 36.203125 38.734375 36.160156 38.738281 L 32.570312 38.945312 C 32.488281 38.949219 32.421875 39.015625 32.421875 39.101562 L 32.421875 40.800781 C 32.421875 40.84375 32.4375 40.882812 32.46875 40.914062 C 32.496094 40.945312 32.539062 40.960938 32.582031 40.960938 L 36.167969 40.960938 C 36.210938 40.960938 36.25 40.945312 36.28125 40.914062 C 36.308594 40.882812 36.328125 40.84375 36.328125 40.800781 Z M 31.636719 19.226562 L 31.480469 19.226562 L 31.480469 42.710938 C 31.480469 42.753906 31.496094 42.796875 31.523438 42.824219 C 31.554688 42.855469 31.59375 42.871094 31.636719 42.871094 L 37.109375 42.871094 C 37.152344 42.871094 37.195312 42.855469 37.222656 42.824219 C 37.253906 42.796875 37.269531 42.753906 37.269531 42.710938 L 37.269531 16.242188 C 37.269531 16.1875 37.238281 16.136719 37.191406 16.105469 C 37.144531 16.078125 37.085938 16.078125 37.035156 16.105469 L 31.5625 19.089844 C 31.511719 19.117188 31.480469 19.171875 31.480469 19.226562 L 31.636719 19.226562 L 31.714844 19.367188 L 36.953125 16.511719 L 36.953125 42.554688 L 31.796875 42.554688 L 31.796875 19.226562 L 31.636719 19.226562 L 31.714844 19.367188 L 31.636719 19.226562 " fill-opacity="1" fill-rule="nonzero"/></g><g clip-path="url(#id3)"><path fill="#ffffff" d="M 30.628906 17.023438 L 29.519531 16.214844 L 29.519531 13.746094 L 30.628906 14.632812 Z M 30.628906 20.011719 L 29.519531 19.304688 L 29.519531 16.832031 L 30.628906 17.621094 Z M 30.628906 22.996094 L 29.519531 22.390625 L 29.519531 19.921875 L 30.628906 20.609375 Z M 30.628906 25.984375 L 29.519531 25.480469 L 29.519531 23.007812 L 30.628906 23.59375 Z M 30.628906 28.972656 L 29.519531 28.570312 L 29.519531 26.097656 L 30.628906 26.582031 Z M 30.628906 31.960938 L 29.519531 31.65625 L 29.519531 29.1875 L 30.628906 29.570312 Z M 30.628906 34.949219 L 29.519531 34.746094 L 29.519531 32.273438 L 30.628906 32.558594 Z M 30.628906 37.933594 L 29.519531 37.832031 L 29.519531 35.363281 L 30.628906 35.546875 Z M 30.628906 40.921875 L 29.519531 40.921875 L 29.519531 38.453125 L 30.628906 38.53125 Z M 29.191406 15.976562 L 28.085938 15.167969 L 28.085938 12.59375 L 29.191406 13.480469 Z M 29.191406 19.09375 L 28.085938 18.386719 L 28.085938 15.8125 L 29.191406 16.597656 Z M 29.191406 22.210938 L 28.085938 21.605469 L 28.085938 19.03125 L 29.191406 19.71875 Z M 29.191406 25.332031 L 28.085938 24.824219 L 28.085938 22.25 L 29.191406 22.835938 Z M 29.191406 28.449219 L 28.085938 28.046875 L 28.085938 25.46875 L 29.191406 25.953125 Z M 29.191406 31.566406 L 28.085938 31.265625 L 28.085938 28.6875 L 29.191406 29.074219 Z M 29.191406 34.6875 L 28.085938 34.484375 L 28.085938 31.910156 L 29.191406 32.191406 Z M 29.191406 37.804688 L 28.085938 37.703125 L 28.085938 35.128906 L 29.191406 35.308594 Z M 29.191406 40.921875 L 28.085938 40.921875 L 28.085938 38.347656 L 29.191406 38.429688 Z M 27.757812 14.929688 L 26.652344 14.121094 L 26.652344 11.441406 L 27.757812 12.328125 Z M 27.757812 18.179688 L 26.652344 17.472656 L 26.652344 14.789062 L 27.757812 15.578125 Z M 27.757812 21.425781 L 26.652344 20.820312 L 26.652344 18.140625 L 27.757812 18.828125 Z M 27.757812 24.675781 L 26.652344 24.171875 L 26.652344 21.492188 L 27.757812 22.078125 Z M 27.757812 27.925781 L 26.652344 27.523438 L 26.652344 24.839844 L 27.757812 25.328125 Z M 27.757812 31.175781 L 26.652344 30.871094 L 26.652344 28.191406 L 27.757812 28.574219 Z M 27.757812 34.425781 L 26.652344 34.222656 L 26.652344 31.542969 L 27.757812 31.824219 Z M 27.757812 37.671875 L 26.652344 37.574219 L 26.652344 34.890625 L 27.757812 35.074219 Z M 27.757812 40.921875 L 26.652344 40.921875 L 26.652344 38.242188 L 27.757812 38.324219 Z M 31.265625 13.589844 L 26.015625 9.410156 L 26.015625 42.710938 L 31.265625 42.710938 L 31.265625 13.589844 " fill-opacity="1" fill-rule="nonzero"/></g><g clip-path="url(#id4)"><path fill="#0032a0" d="M 30.628906 17.023438 L 30.722656 16.894531 L 29.679688 16.132812 L 29.679688 14.074219 L 30.46875 14.707031 L 30.46875 17.023438 L 30.628906 17.023438 L 30.722656 16.894531 L 30.628906 17.023438 L 30.785156 17.023438 L 30.785156 14.632812 C 30.785156 14.585938 30.765625 14.539062 30.726562 14.507812 L 29.621094 13.621094 C 29.574219 13.582031 29.507812 13.574219 29.453125 13.601562 C 29.398438 13.628906 29.363281 13.683594 29.363281 13.746094 L 29.363281 16.214844 C 29.363281 16.265625 29.386719 16.3125 29.429688 16.34375 L 30.535156 17.152344 C 30.582031 17.183594 30.648438 17.191406 30.699219 17.164062 C 30.753906 17.136719 30.785156 17.082031 30.785156 17.023438 Z M 30.628906 20.011719 L 30.714844 19.878906 L 29.679688 19.21875 L 29.679688 17.140625 L 30.46875 17.703125 L 30.46875 20.011719 L 30.628906 20.011719 L 30.714844 19.878906 L 30.628906 20.011719 L 30.785156 20.011719 L 30.785156 17.621094 C 30.785156 17.570312 30.761719 17.519531 30.71875 17.492188 L 29.613281 16.703125 C 29.5625 16.667969 29.5 16.664062 29.449219 16.691406 C 29.394531 16.71875 29.363281 16.773438 29.363281 16.832031 L 29.363281 19.304688 C 29.363281 19.359375 29.390625 19.410156 29.4375 19.4375 L 30.542969 20.144531 C 30.59375 20.175781 30.652344 20.175781 30.703125 20.148438 C 30.753906 20.121094 30.785156 20.070312 30.785156 20.011719 Z M 30.628906 22.996094 L 30.703125 22.859375 L 29.679688 22.296875 L 29.679688 20.203125 L 30.46875 20.695312 L 30.46875 22.996094 L 30.628906 22.996094 L 30.703125 22.859375 L 30.628906 22.996094 L 30.785156 22.996094 L 30.785156 20.609375 C 30.785156 20.550781 30.757812 20.503906 30.710938 20.472656 L 29.605469 19.785156 C 29.554688 19.757812 29.492188 19.753906 29.445312 19.78125 C 29.394531 19.8125 29.363281 19.863281 29.363281 19.921875 L 29.363281 22.390625 C 29.363281 22.449219 29.394531 22.503906 29.445312 22.53125 L 30.550781 23.136719 C 30.601562 23.164062 30.660156 23.160156 30.707031 23.132812 C 30.757812 23.105469 30.785156 23.054688 30.785156 22.996094 Z M 30.628906 25.984375 L 30.695312 25.839844 L 29.679688 25.378906 L 29.679688 23.273438 L 30.46875 23.691406 L 30.46875 25.984375 L 30.628906 25.984375 L 30.695312 25.839844 L 30.628906 25.984375 L 30.785156 25.984375 L 30.785156 23.59375 C 30.785156 23.535156 30.753906 23.484375 30.703125 23.457031 L 29.59375 22.871094 C 29.546875 22.84375 29.488281 22.84375 29.4375 22.875 C 29.390625 22.902344 29.363281 22.953125 29.363281 23.007812 L 29.363281 25.480469 C 29.363281 25.542969 29.398438 25.597656 29.453125 25.625 L 30.5625 26.128906 C 30.613281 26.152344 30.667969 26.148438 30.714844 26.117188 C 30.757812 26.089844 30.785156 26.039062 30.785156 25.984375 Z M 30.628906 28.972656 L 30.683594 28.824219 L 29.679688 28.457031 L 29.679688 26.339844 L 30.46875 26.6875 L 30.46875 28.972656 L 30.628906 28.972656 L 30.683594 28.824219 L 30.628906 28.972656 L 30.785156 28.972656 L 30.785156 26.582031 C 30.785156 26.519531 30.75 26.464844 30.691406 26.4375 L 29.585938 25.953125 C 29.535156 25.929688 29.480469 25.9375 29.433594 25.964844 C 29.390625 25.996094 29.363281 26.042969 29.363281 26.097656 L 29.363281 28.570312 C 29.363281 28.636719 29.40625 28.695312 29.464844 28.71875 L 30.574219 29.121094 C 30.621094 29.136719 30.675781 29.132812 30.71875 29.101562 C 30.761719 29.074219 30.785156 29.023438 30.785156 28.972656 Z M 30.628906 31.960938 L 30.667969 31.808594 L 29.679688 31.535156 L 29.679688 29.40625 L 30.46875 29.683594 L 30.46875 31.960938 L 30.628906 31.960938 L 30.667969 31.808594 L 30.628906 31.960938 L 30.785156 31.960938 L 30.785156 29.570312 C 30.785156 29.503906 30.742188 29.441406 30.679688 29.421875 L 29.574219 29.035156 C 29.523438 29.019531 29.472656 29.027344 29.429688 29.058594 C 29.386719 29.085938 29.363281 29.132812 29.363281 29.1875 L 29.363281 31.65625 C 29.363281 31.730469 29.410156 31.792969 29.480469 31.808594 L 30.585938 32.113281 C 30.632812 32.125 30.683594 32.117188 30.722656 32.085938 C 30.765625 32.054688 30.785156 32.007812 30.785156 31.960938 Z M 30.628906 34.949219 L 30.65625 34.792969 L 29.679688 34.613281 L 29.679688 32.476562 L 30.46875 32.679688 L 30.46875 34.949219 L 30.628906 34.949219 L 30.65625 34.792969 L 30.628906 34.949219 L 30.785156 34.949219 L 30.785156 32.558594 C 30.785156 32.484375 30.738281 32.421875 30.667969 32.402344 L 29.558594 32.121094 C 29.511719 32.109375 29.460938 32.121094 29.421875 32.148438 C 29.386719 32.179688 29.363281 32.226562 29.363281 32.273438 L 29.363281 34.746094 C 29.363281 34.820312 29.417969 34.886719 29.492188 34.902344 L 30.601562 35.101562 C 30.644531 35.113281 30.695312 35.097656 30.730469 35.070312 C 30.765625 35.039062 30.785156 34.996094 30.785156 34.949219 Z M 30.628906 37.933594 L 30.644531 37.777344 L 29.679688 37.6875 L 29.679688 35.550781 L 30.46875 35.679688 L 30.46875 37.933594 L 30.628906 37.933594 L 30.644531 37.777344 L 30.628906 37.933594 L 30.785156 37.933594 L 30.785156 35.546875 C 30.785156 35.46875 30.730469 35.402344 30.652344 35.390625 L 29.546875 35.207031 C 29.5 35.199219 29.453125 35.210938 29.417969 35.242188 C 29.382812 35.273438 29.363281 35.316406 29.363281 35.363281 L 29.363281 37.832031 C 29.363281 37.914062 29.425781 37.984375 29.507812 37.992188 L 30.613281 38.09375 C 30.660156 38.097656 30.703125 38.082031 30.734375 38.050781 C 30.769531 38.023438 30.785156 37.980469 30.785156 37.933594 Z M 30.628906 40.921875 L 30.628906 40.765625 L 29.679688 40.765625 L 29.679688 38.621094 L 30.46875 38.679688 L 30.46875 40.921875 L 30.628906 40.921875 L 30.628906 40.765625 L 30.628906 40.921875 L 30.785156 40.921875 L 30.785156 38.53125 C 30.785156 38.449219 30.722656 38.382812 30.640625 38.375 L 29.53125 38.292969 C 29.488281 38.289062 29.445312 38.304688 29.414062 38.335938 C 29.382812 38.367188 29.363281 38.40625 29.363281 38.453125 L 29.363281 40.921875 C 29.363281 40.964844 29.378906 41.003906 29.410156 41.035156 C 29.4375 41.0625 29.476562 41.078125 29.519531 41.078125 L 30.628906 41.078125 C 30.671875 41.078125 30.710938 41.0625 30.742188 41.035156 C 30.769531 41.003906 30.785156 40.964844 30.785156 40.921875 Z M 29.191406 15.976562 L 29.285156 15.847656 L 28.242188 15.085938 L 28.242188 12.921875 L 29.035156 13.558594 L 29.035156 15.976562 L 29.191406 15.976562 L 29.285156 15.847656 L 29.191406 15.976562 L 29.351562 15.976562 L 29.351562 13.480469 C 29.351562 13.433594 29.328125 13.386719 29.292969 13.359375 L 28.183594 12.46875 C 28.136719 12.429688 28.070312 12.421875 28.015625 12.449219 C 27.960938 12.476562 27.925781 12.53125 27.925781 12.59375 L 27.925781 15.167969 C 27.925781 15.21875 27.949219 15.265625 27.992188 15.296875 L 29.101562 16.105469 C 29.148438 16.136719 29.210938 16.144531 29.265625 16.117188 C 29.316406 16.089844 29.351562 16.035156 29.351562 15.976562 Z M 29.191406 19.09375 L 29.277344 18.960938 L 28.242188 18.300781 L 28.242188 16.117188 L 29.035156 16.679688 L 29.035156 19.09375 L 29.191406 19.09375 L 29.277344 18.960938 L 29.191406 19.09375 L 29.351562 19.09375 L 29.351562 16.597656 C 29.351562 16.546875 29.328125 16.5 29.285156 16.472656 L 28.175781 15.683594 C 28.128906 15.648438 28.066406 15.644531 28.011719 15.671875 C 27.960938 15.699219 27.925781 15.753906 27.925781 15.8125 L 27.925781 18.386719 C 27.925781 18.441406 27.953125 18.492188 28 18.519531 L 29.109375 19.226562 C 29.15625 19.257812 29.21875 19.261719 29.269531 19.234375 C 29.320312 19.203125 29.351562 19.152344 29.351562 19.09375 Z M 29.191406 22.210938 L 29.269531 22.074219 L 28.242188 21.511719 L 28.242188 19.316406 L 29.035156 19.804688 L 29.035156 22.210938 L 29.191406 22.210938 L 29.269531 22.074219 L 29.191406 22.210938 L 29.351562 22.210938 L 29.351562 19.71875 C 29.351562 19.664062 29.324219 19.613281 29.277344 19.582031 L 28.167969 18.894531 C 28.121094 18.867188 28.058594 18.863281 28.007812 18.890625 C 27.957031 18.921875 27.925781 18.972656 27.925781 19.03125 L 27.925781 21.605469 C 27.925781 21.664062 27.957031 21.71875 28.011719 21.746094 L 29.117188 22.351562 C 29.167969 22.378906 29.226562 22.378906 29.273438 22.347656 C 29.320312 22.320312 29.351562 22.269531 29.351562 22.210938 Z M 29.191406 25.332031 L 29.257812 25.1875 L 28.242188 24.722656 L 28.242188 22.511719 L 29.035156 22.929688 L 29.035156 25.332031 L 29.191406 25.332031 L 29.257812 25.1875 L 29.191406 25.332031 L 29.351562 25.332031 L 29.351562 22.835938 C 29.351562 22.777344 29.320312 22.722656 29.265625 22.695312 L 28.160156 22.109375 C 28.109375 22.085938 28.050781 22.085938 28.003906 22.113281 C 27.957031 22.144531 27.925781 22.195312 27.925781 22.25 L 27.925781 24.824219 C 27.925781 24.886719 27.964844 24.945312 28.019531 24.96875 L 29.128906 25.476562 C 29.175781 25.496094 29.234375 25.492188 29.277344 25.464844 C 29.324219 25.433594 29.351562 25.382812 29.351562 25.332031 Z M 29.191406 28.449219 L 29.246094 28.300781 L 28.242188 27.933594 L 28.242188 25.710938 L 29.035156 26.058594 L 29.035156 28.449219 L 29.191406 28.449219 L 29.246094 28.300781 L 29.191406 28.449219 L 29.351562 28.449219 L 29.351562 25.953125 C 29.351562 25.890625 29.316406 25.835938 29.257812 25.808594 L 28.148438 25.324219 C 28.101562 25.304688 28.042969 25.308594 28 25.335938 C 27.953125 25.367188 27.925781 25.417969 27.925781 25.46875 L 27.925781 28.046875 C 27.925781 28.113281 27.96875 28.171875 28.03125 28.195312 L 29.140625 28.597656 C 29.1875 28.617188 29.242188 28.609375 29.285156 28.578125 C 29.328125 28.546875 29.351562 28.5 29.351562 28.449219 Z M 29.191406 31.566406 L 29.234375 31.414062 L 28.242188 31.144531 L 28.242188 28.910156 L 29.035156 29.183594 L 29.035156 31.566406 L 29.191406 31.566406 L 29.234375 31.414062 L 29.191406 31.566406 L 29.351562 31.566406 L 29.351562 29.074219 C 29.351562 29.003906 29.308594 28.945312 29.246094 28.921875 L 28.136719 28.539062 C 28.089844 28.523438 28.035156 28.53125 27.992188 28.558594 C 27.953125 28.589844 27.925781 28.636719 27.925781 28.6875 L 27.925781 31.265625 C 27.925781 31.335938 27.976562 31.398438 28.042969 31.417969 L 29.152344 31.71875 C 29.199219 31.734375 29.25 31.722656 29.289062 31.691406 C 29.328125 31.664062 29.351562 31.617188 29.351562 31.566406 Z M 29.191406 34.6875 L 29.222656 34.53125 L 28.242188 34.351562 L 28.242188 32.113281 L 29.035156 32.3125 L 29.035156 34.6875 L 29.191406 34.6875 L 29.222656 34.53125 L 29.191406 34.6875 L 29.351562 34.6875 L 29.351562 32.191406 C 29.351562 32.117188 29.300781 32.054688 29.234375 32.039062 L 28.125 31.753906 C 28.078125 31.742188 28.027344 31.753906 27.988281 31.78125 C 27.949219 31.8125 27.925781 31.859375 27.925781 31.910156 L 27.925781 34.484375 C 27.925781 34.558594 27.980469 34.625 28.058594 34.640625 L 29.164062 34.839844 C 29.210938 34.847656 29.257812 34.835938 29.292969 34.808594 C 29.332031 34.777344 29.351562 34.730469 29.351562 34.6875 Z M 29.191406 37.804688 L 29.207031 37.648438 L 28.242188 37.558594 L 28.242188 35.3125 L 29.035156 35.445312 L 29.035156 37.804688 L 29.191406 37.804688 L 29.207031 37.648438 L 29.191406 37.804688 L 29.351562 37.804688 L 29.351562 35.308594 C 29.351562 35.230469 29.296875 35.164062 29.21875 35.152344 L 28.109375 34.972656 C 28.066406 34.964844 28.019531 34.976562 27.984375 35.007812 C 27.949219 35.035156 27.925781 35.082031 27.925781 35.128906 L 27.925781 37.703125 C 27.925781 37.785156 27.988281 37.851562 28.070312 37.859375 L 29.179688 37.960938 C 29.222656 37.964844 29.265625 37.949219 29.300781 37.921875 C 29.332031 37.890625 29.351562 37.847656 29.351562 37.804688 Z M 29.191406 40.921875 L 29.191406 40.765625 L 28.242188 40.765625 L 28.242188 38.515625 L 29.035156 38.574219 L 29.035156 40.921875 L 29.191406 40.921875 L 29.191406 40.765625 L 29.191406 40.921875 L 29.351562 40.921875 L 29.351562 38.429688 C 29.351562 38.34375 29.289062 38.277344 29.203125 38.269531 L 28.097656 38.191406 C 28.054688 38.1875 28.011719 38.203125 27.976562 38.230469 C 27.945312 38.261719 27.925781 38.304688 27.925781 38.347656 L 27.925781 40.921875 C 27.925781 40.964844 27.945312 41.003906 27.972656 41.035156 C 28.003906 41.0625 28.042969 41.078125 28.085938 41.078125 L 29.191406 41.078125 C 29.234375 41.078125 29.273438 41.0625 29.304688 41.035156 C 29.335938 41.003906 29.351562 40.964844 29.351562 40.921875 Z M 27.757812 14.929688 L 27.851562 14.800781 L 26.808594 14.039062 L 26.808594 11.769531 L 27.601562 12.40625 L 27.601562 14.929688 L 27.757812 14.929688 L 27.851562 14.800781 L 27.757812 14.929688 L 27.914062 14.929688 L 27.914062 12.328125 C 27.914062 12.28125 27.894531 12.238281 27.855469 12.207031 L 26.75 11.316406 C 26.703125 11.28125 26.636719 11.273438 26.582031 11.296875 C 26.527344 11.324219 26.492188 11.378906 26.492188 11.441406 L 26.492188 14.121094 C 26.492188 14.171875 26.515625 14.21875 26.558594 14.25 L 27.664062 15.058594 C 27.710938 15.089844 27.777344 15.097656 27.828125 15.070312 C 27.882812 15.042969 27.914062 14.988281 27.914062 14.929688 Z M 27.757812 18.179688 L 27.84375 18.046875 L 26.808594 17.382812 L 26.808594 15.097656 L 27.601562 15.660156 L 27.601562 18.179688 L 27.757812 18.179688 L 27.84375 18.046875 L 27.757812 18.179688 L 27.914062 18.179688 L 27.914062 15.578125 C 27.914062 15.527344 27.890625 15.480469 27.851562 15.449219 L 26.742188 14.660156 C 26.695312 14.628906 26.628906 14.625 26.578125 14.648438 C 26.527344 14.675781 26.492188 14.730469 26.492188 14.789062 L 26.492188 17.472656 C 26.492188 17.523438 26.519531 17.574219 26.566406 17.605469 L 27.671875 18.3125 C 27.722656 18.34375 27.78125 18.34375 27.832031 18.316406 C 27.886719 18.289062 27.914062 18.234375 27.914062 18.179688 Z M 27.757812 21.425781 L 27.832031 21.289062 L 26.808594 20.726562 L 26.808594 18.425781 L 27.601562 18.914062 L 27.601562 21.425781 L 27.757812 21.425781 L 27.832031 21.289062 L 27.757812 21.425781 L 27.914062 21.425781 L 27.914062 18.828125 C 27.914062 18.773438 27.886719 18.722656 27.839844 18.695312 L 26.734375 18.007812 C 26.683594 17.976562 26.625 17.976562 26.574219 18.003906 C 26.523438 18.03125 26.492188 18.082031 26.492188 18.140625 L 26.492188 20.820312 C 26.492188 20.878906 26.523438 20.933594 26.574219 20.960938 L 27.683594 21.566406 C 27.730469 21.59375 27.789062 21.59375 27.839844 21.5625 C 27.886719 21.535156 27.914062 21.484375 27.914062 21.425781 Z M 27.757812 24.675781 L 27.824219 24.53125 L 26.808594 24.070312 L 26.808594 21.753906 L 27.601562 22.171875 L 27.601562 24.675781 L 27.757812 24.675781 L 27.824219 24.53125 L 27.757812 24.675781 L 27.914062 24.675781 L 27.914062 22.078125 C 27.914062 22.019531 27.882812 21.964844 27.832031 21.9375 L 26.722656 21.351562 C 26.675781 21.324219 26.617188 21.328125 26.570312 21.355469 C 26.519531 21.382812 26.492188 21.4375 26.492188 21.492188 L 26.492188 24.171875 C 26.492188 24.234375 26.527344 24.289062 26.585938 24.316406 L 27.691406 24.820312 C 27.742188 24.84375 27.796875 24.839844 27.84375 24.808594 C 27.890625 24.78125 27.914062 24.730469 27.914062 24.675781 Z M 27.757812 27.925781 L 27.8125 27.777344 L 26.808594 27.410156 L 26.808594 25.082031 L 27.601562 25.429688 L 27.601562 27.925781 L 27.757812 27.925781 L 27.8125 27.777344 L 27.757812 27.925781 L 27.914062 27.925781 L 27.914062 25.328125 C 27.914062 25.261719 27.878906 25.207031 27.820312 25.179688 L 26.714844 24.695312 C 26.664062 24.675781 26.609375 24.679688 26.5625 24.710938 C 26.519531 24.738281 26.492188 24.789062 26.492188 24.839844 L 26.492188 27.523438 C 26.492188 27.585938 26.535156 27.648438 26.597656 27.671875 L 27.703125 28.074219 C 27.753906 28.089844 27.804688 28.085938 27.847656 28.054688 C 27.890625 28.027344 27.914062 27.976562 27.914062 27.925781 Z M 27.757812 31.175781 L 27.800781 31.023438 L 26.808594 30.75 L 26.808594 28.414062 L 27.601562 28.6875 L 27.601562 31.175781 L 27.757812 31.175781 L 27.800781 31.023438 L 27.757812 31.175781 L 27.914062 31.175781 L 27.914062 28.574219 C 27.914062 28.507812 27.875 28.449219 27.808594 28.425781 L 26.703125 28.042969 C 26.652344 28.027344 26.601562 28.03125 26.558594 28.0625 C 26.515625 28.09375 26.492188 28.140625 26.492188 28.191406 L 26.492188 30.871094 C 26.492188 30.941406 26.539062 31.003906 26.609375 31.023438 L 27.714844 31.328125 C 27.761719 31.339844 27.816406 31.332031 27.855469 31.300781 C 27.894531 31.269531 27.914062 31.222656 27.914062 31.175781 Z M 27.757812 34.425781 L 27.785156 34.269531 L 26.808594 34.089844 L 26.808594 31.746094 L 27.601562 31.949219 L 27.601562 34.425781 L 27.757812 34.425781 L 27.785156 34.269531 L 27.757812 34.425781 L 27.914062 34.425781 L 27.914062 31.824219 C 27.914062 31.753906 27.867188 31.6875 27.796875 31.671875 L 26.6875 31.386719 C 26.640625 31.375 26.59375 31.386719 26.554688 31.417969 C 26.515625 31.445312 26.492188 31.492188 26.492188 31.542969 L 26.492188 34.222656 C 26.492188 34.296875 26.546875 34.363281 26.621094 34.378906 L 27.730469 34.578125 C 27.777344 34.585938 27.824219 34.574219 27.859375 34.546875 C 27.894531 34.515625 27.914062 34.472656 27.914062 34.425781 Z M 27.757812 37.671875 L 27.773438 37.515625 L 26.808594 37.429688 L 26.808594 35.078125 L 27.601562 35.207031 L 27.601562 37.671875 L 27.757812 37.671875 L 27.773438 37.515625 L 27.757812 37.671875 L 27.914062 37.671875 L 27.914062 35.074219 C 27.914062 34.996094 27.859375 34.929688 27.785156 34.917969 L 26.675781 34.734375 C 26.628906 34.726562 26.582031 34.742188 26.546875 34.769531 C 26.511719 34.800781 26.492188 34.84375 26.492188 34.890625 L 26.492188 37.574219 C 26.492188 37.652344 26.554688 37.722656 26.636719 37.730469 L 27.742188 37.832031 C 27.789062 37.835938 27.832031 37.820312 27.863281 37.789062 C 27.898438 37.757812 27.914062 37.71875 27.914062 37.671875 Z M 27.757812 40.921875 L 27.757812 40.765625 L 26.808594 40.765625 L 26.808594 38.410156 L 27.601562 38.46875 L 27.601562 40.921875 L 27.757812 40.921875 L 27.757812 40.765625 L 27.757812 40.921875 L 27.914062 40.921875 L 27.914062 38.324219 C 27.914062 38.238281 27.851562 38.171875 27.769531 38.164062 L 26.664062 38.085938 C 26.617188 38.082031 26.574219 38.097656 26.542969 38.125 C 26.511719 38.15625 26.492188 38.199219 26.492188 38.242188 L 26.492188 40.921875 C 26.492188 40.964844 26.507812 41.003906 26.539062 41.035156 C 26.566406 41.0625 26.609375 41.078125 26.652344 41.078125 L 27.757812 41.078125 C 27.800781 41.078125 27.839844 41.0625 27.871094 41.035156 C 27.898438 41.003906 27.914062 40.964844 27.914062 40.921875 Z M 31.265625 13.589844 L 31.363281 13.464844 L 26.113281 9.285156 C 26.066406 9.25 26 9.242188 25.945312 9.269531 C 25.890625 9.292969 25.855469 9.351562 25.855469 9.410156 L 25.855469 42.710938 C 25.855469 42.753906 25.875 42.796875 25.902344 42.824219 C 25.933594 42.855469 25.972656 42.871094 26.015625 42.871094 L 31.265625 42.871094 C 31.304688 42.871094 31.347656 42.855469 31.375 42.824219 C 31.40625 42.796875 31.421875 42.753906 31.421875 42.710938 L 31.421875 13.589844 C 31.421875 13.539062 31.402344 13.492188 31.363281 13.464844 L 31.265625 13.589844 L 31.105469 13.589844 L 31.105469 42.554688 L 26.171875 42.554688 L 26.171875 9.738281 L 31.164062 13.710938 L 31.265625 13.589844 L 31.105469 13.589844 L 31.265625 13.589844 " fill-opacity="1" fill-rule="nonzero"/></g><g clip-path="url(#id5)"><path fill="#ffffff" d="M 24.746094 40.921875 L 24.328125 40.921875 L 24.328125 11.367188 L 24.746094 11 Z M 23.929688 40.921875 L 23.511719 40.921875 L 23.511719 12.085938 L 23.929688 11.71875 Z M 23.113281 40.921875 L 22.695312 40.921875 L 22.695312 12.804688 L 23.113281 12.433594 Z M 22.296875 40.921875 L 21.878906 40.921875 L 21.878906 13.523438 L 22.296875 13.152344 Z M 21.484375 40.921875 L 21.0625 40.921875 L 21.0625 14.238281 L 21.484375 13.871094 Z M 20.167969 13.589844 L 20.167969 42.710938 L 25.640625 42.710938 L 25.640625 9.410156 L 20.167969 13.589844 " fill-opacity="1" fill-rule="nonzero"/><path fill="#0032a0" d="M 24.746094 40.921875 L 24.746094 40.765625 L 24.484375 40.765625 L 24.484375 11.4375 L 24.585938 11.347656 L 24.585938 40.921875 L 24.746094 40.921875 L 24.746094 40.765625 L 24.746094 40.921875 L 24.902344 40.921875 L 24.902344 11 C 24.902344 10.9375 24.867188 10.878906 24.808594 10.855469 C 24.753906 10.828125 24.6875 10.839844 24.640625 10.878906 L 24.222656 11.25 C 24.1875 11.277344 24.167969 11.320312 24.167969 11.367188 L 24.167969 40.921875 C 24.167969 40.964844 24.1875 41.003906 24.214844 41.035156 C 24.246094 41.0625 24.285156 41.078125 24.328125 41.078125 L 24.746094 41.078125 C 24.789062 41.078125 24.828125 41.0625 24.855469 41.035156 C 24.886719 41.003906 24.902344 40.964844 24.902344 40.921875 Z M 23.929688 40.921875 L 23.929688 40.765625 L 23.671875 40.765625 L 23.671875 12.15625 L 23.769531 12.066406 L 23.769531 40.921875 L 23.929688 40.921875 L 23.929688 40.765625 L 23.929688 40.921875 L 24.085938 40.921875 L 24.085938 11.71875 C 24.085938 11.65625 24.050781 11.597656 23.996094 11.574219 C 23.9375 11.546875 23.871094 11.558594 23.824219 11.597656 L 23.40625 11.964844 C 23.371094 11.996094 23.351562 12.039062 23.351562 12.085938 L 23.351562 40.921875 C 23.351562 40.964844 23.371094 41.003906 23.398438 41.035156 C 23.429688 41.0625 23.46875 41.078125 23.511719 41.078125 L 23.929688 41.078125 C 23.972656 41.078125 24.011719 41.0625 24.042969 41.035156 C 24.070312 41.003906 24.085938 40.964844 24.085938 40.921875 Z M 23.113281 40.921875 L 23.113281 40.765625 L 22.855469 40.765625 L 22.855469 12.875 L 22.957031 12.785156 L 22.957031 40.921875 L 23.113281 40.921875 L 23.113281 40.765625 L 23.113281 40.921875 L 23.273438 40.921875 L 23.273438 12.433594 C 23.273438 12.375 23.234375 12.316406 23.179688 12.289062 C 23.121094 12.265625 23.054688 12.273438 23.007812 12.316406 L 22.589844 12.683594 C 22.558594 12.714844 22.539062 12.757812 22.539062 12.804688 L 22.539062 40.921875 C 22.539062 40.964844 22.554688 41.003906 22.585938 41.035156 C 22.613281 41.0625 22.652344 41.078125 22.695312 41.078125 L 23.113281 41.078125 C 23.15625 41.078125 23.195312 41.0625 23.226562 41.035156 C 23.253906 41.003906 23.273438 40.964844 23.273438 40.921875 Z M 22.296875 40.921875 L 22.296875 40.765625 L 22.039062 40.765625 L 22.039062 13.59375 L 22.140625 13.503906 L 22.140625 40.921875 L 22.296875 40.921875 L 22.296875 40.765625 L 22.296875 40.921875 L 22.457031 40.921875 L 22.457031 13.152344 C 22.457031 13.089844 22.417969 13.035156 22.363281 13.007812 C 22.308594 12.984375 22.238281 12.992188 22.195312 13.035156 L 21.773438 13.402344 C 21.742188 13.433594 21.722656 13.476562 21.722656 13.523438 L 21.722656 40.921875 C 21.722656 40.964844 21.738281 41.003906 21.769531 41.035156 C 21.796875 41.0625 21.839844 41.078125 21.878906 41.078125 L 22.296875 41.078125 C 22.339844 41.078125 22.378906 41.0625 22.410156 41.035156 C 22.441406 41.003906 22.457031 40.964844 22.457031 40.921875 Z M 21.484375 40.921875 L 21.484375 40.765625 L 21.222656 40.765625 L 21.222656 14.308594 L 21.324219 14.21875 L 21.324219 40.921875 L 21.484375 40.921875 L 21.484375 40.765625 L 21.484375 40.921875 L 21.640625 40.921875 L 21.640625 13.871094 C 21.640625 13.808594 21.605469 13.753906 21.546875 13.726562 C 21.492188 13.699219 21.425781 13.710938 21.378906 13.753906 L 20.960938 14.121094 C 20.925781 14.152344 20.90625 14.195312 20.90625 14.238281 L 20.90625 40.921875 C 20.90625 40.964844 20.921875 41.003906 20.953125 41.035156 C 20.980469 41.0625 21.023438 41.078125 21.0625 41.078125 L 21.484375 41.078125 C 21.523438 41.078125 21.566406 41.0625 21.59375 41.035156 C 21.625 41.003906 21.640625 40.964844 21.640625 40.921875 Z M 20.167969 13.589844 L 20.007812 13.589844 L 20.007812 42.710938 C 20.007812 42.753906 20.027344 42.796875 20.054688 42.824219 C 20.085938 42.855469 20.125 42.871094 20.167969 42.871094 L 25.640625 42.871094 C 25.683594 42.871094 25.726562 42.855469 25.753906 42.824219 C 25.785156 42.796875 25.800781 42.753906 25.800781 42.710938 L 25.800781 9.410156 C 25.800781 9.351562 25.765625 9.296875 25.710938 9.269531 C 25.660156 9.242188 25.59375 9.25 25.546875 9.285156 L 20.070312 13.460938 C 20.03125 13.492188 20.007812 13.539062 20.007812 13.589844 L 20.167969 13.589844 L 20.261719 13.714844 L 25.484375 9.730469 L 25.484375 42.554688 L 20.324219 42.554688 L 20.324219 13.589844 L 20.167969 13.589844 L 20.261719 13.714844 L 20.167969 13.589844 " fill-opacity="1" fill-rule="nonzero"/></g><g clip-path="url(#id6)"><path fill="#ffffff" d="M 19.316406 14.464844 L 18.433594 13.566406 L 18.433594 10.441406 L 19.316406 11.4375 Z M 19.316406 18.242188 L 18.433594 17.476562 L 18.433594 14.347656 L 19.316406 15.21875 Z M 19.316406 22.023438 L 18.433594 21.382812 L 18.433594 18.257812 L 19.316406 19 Z M 19.316406 29.582031 L 18.433594 29.199219 L 18.433594 26.074219 L 19.316406 26.558594 Z M 19.316406 33.363281 L 18.433594 33.105469 L 18.433594 29.980469 L 19.316406 30.339844 Z M 19.316406 40.921875 L 18.433594 40.921875 L 18.433594 37.796875 L 19.316406 37.898438 Z M 18.171875 9.359375 L 17.289062 8.335938 L 17.289062 5.078125 L 18.171875 6.203125 Z M 18.171875 25.140625 L 17.289062 24.628906 L 17.289062 21.371094 L 18.171875 21.984375 Z M 18.171875 29.085938 L 17.289062 28.703125 L 17.289062 25.445312 L 18.171875 25.929688 Z M 18.171875 36.976562 L 17.289062 36.847656 L 17.289062 33.589844 L 18.171875 33.820312 Z M 17.027344 8.035156 L 16.140625 7.011719 L 16.140625 3.621094 L 17.027344 4.746094 Z M 17.027344 16.257812 L 16.140625 15.488281 L 16.140625 12.097656 L 17.027344 12.96875 Z M 17.027344 20.367188 L 16.140625 19.726562 L 16.140625 16.335938 L 17.027344 17.078125 Z M 17.027344 24.476562 L 16.140625 23.964844 L 16.140625 20.574219 L 17.027344 21.1875 Z M 17.027344 32.699219 L 16.140625 32.445312 L 16.140625 29.054688 L 17.027344 29.410156 Z M 17.027344 36.8125 L 16.140625 36.683594 L 16.140625 33.292969 L 17.027344 33.523438 Z M 17.027344 40.921875 L 16.140625 40.921875 L 16.140625 37.53125 L 17.027344 37.632812 Z M 19.796875 6.460938 L 15.664062 1.851562 L 15.664062 42.710938 L 19.796875 42.710938 L 19.796875 6.460938 " fill-opacity="1" fill-rule="nonzero"/><path fill="#0032a0" d="M 19.316406 14.464844 L 19.429688 14.351562 L 18.589844 13.503906 L 18.589844 10.859375 L 19.160156 11.5 L 19.160156 14.464844 L 19.316406 14.464844 L 19.429688 14.351562 L 19.316406 14.464844 L 19.476562 14.464844 L 19.476562 11.4375 C 19.476562 11.398438 19.460938 11.363281 19.4375 11.332031 L 18.550781 10.335938 C 18.507812 10.289062 18.4375 10.269531 18.378906 10.292969 C 18.316406 10.316406 18.273438 10.375 18.273438 10.441406 L 18.273438 13.566406 C 18.273438 13.609375 18.292969 13.648438 18.320312 13.679688 L 19.203125 14.574219 C 19.25 14.621094 19.316406 14.632812 19.378906 14.609375 C 19.4375 14.585938 19.476562 14.527344 19.476562 14.464844 Z M 19.316406 18.242188 L 19.421875 18.121094 L 18.589844 17.402344 L 18.589844 14.726562 L 19.160156 15.285156 L 19.160156 18.242188 L 19.316406 18.242188 L 19.421875 18.121094 L 19.316406 18.242188 L 19.476562 18.242188 L 19.476562 15.21875 C 19.476562 15.175781 19.457031 15.136719 19.429688 15.105469 L 18.542969 14.238281 C 18.5 14.191406 18.429688 14.179688 18.371094 14.203125 C 18.3125 14.226562 18.273438 14.285156 18.273438 14.347656 L 18.273438 17.476562 C 18.273438 17.523438 18.292969 17.566406 18.328125 17.59375 L 19.214844 18.363281 C 19.261719 18.402344 19.328125 18.410156 19.382812 18.386719 C 19.4375 18.359375 19.476562 18.304688 19.476562 18.242188 Z M 19.316406 22.023438 L 19.410156 21.894531 L 18.589844 21.300781 L 18.589844 18.597656 L 19.160156 19.074219 L 19.160156 22.023438 L 19.316406 22.023438 L 19.410156 21.894531 L 19.316406 22.023438 L 19.476562 22.023438 L 19.476562 19 C 19.476562 18.953125 19.453125 18.90625 19.417969 18.878906 L 18.535156 18.136719 C 18.488281 18.097656 18.421875 18.085938 18.367188 18.113281 C 18.308594 18.140625 18.273438 18.195312 18.273438 18.257812 L 18.273438 21.382812 C 18.273438 21.433594 18.300781 21.480469 18.339844 21.511719 L 19.222656 22.152344 C 19.273438 22.1875 19.335938 22.191406 19.390625 22.164062 C 19.441406 22.136719 19.476562 22.082031 19.476562 22.023438 Z M 19.316406 29.582031 L 19.378906 29.4375 L 18.589844 29.09375 L 18.589844 26.339844 L 19.160156 26.652344 L 19.160156 29.582031 L 19.316406 29.582031 L 19.378906 29.4375 L 19.316406 29.582031 L 19.476562 29.582031 L 19.476562 26.558594 C 19.476562 26.5 19.445312 26.449219 19.394531 26.421875 L 18.507812 25.933594 C 18.460938 25.90625 18.402344 25.90625 18.351562 25.9375 C 18.304688 25.964844 18.273438 26.015625 18.273438 26.074219 L 18.273438 29.199219 C 18.273438 29.261719 18.3125 29.320312 18.371094 29.34375 L 19.253906 29.726562 C 19.304688 29.75 19.359375 29.746094 19.402344 29.714844 C 19.449219 29.6875 19.476562 29.636719 19.476562 29.582031 Z M 19.316406 33.363281 L 19.363281 33.210938 L 18.589844 32.988281 L 18.589844 30.214844 L 19.160156 30.445312 L 19.160156 33.363281 L 19.316406 33.363281 L 19.363281 33.210938 L 19.316406 33.363281 L 19.476562 33.363281 L 19.476562 30.339844 C 19.476562 30.273438 19.4375 30.214844 19.378906 30.191406 L 18.492188 29.832031 C 18.445312 29.8125 18.386719 29.820312 18.34375 29.847656 C 18.300781 29.878906 18.273438 29.929688 18.273438 29.980469 L 18.273438 33.105469 C 18.273438 33.175781 18.320312 33.238281 18.390625 33.257812 L 19.273438 33.515625 C 19.320312 33.527344 19.371094 33.519531 19.414062 33.488281 C 19.453125 33.460938 19.476562 33.414062 19.476562 33.363281 Z M 19.316406 40.921875 L 19.316406 40.765625 L 18.589844 40.765625 L 18.589844 37.972656 L 19.160156 38.039062 L 19.160156 40.921875 L 19.316406 40.921875 L 19.316406 40.765625 L 19.316406 40.921875 L 19.476562 40.921875 L 19.476562 37.898438 C 19.476562 37.816406 19.414062 37.75 19.335938 37.742188 L 18.449219 37.636719 C 18.40625 37.632812 18.363281 37.648438 18.328125 37.675781 C 18.292969 37.707031 18.273438 37.75 18.273438 37.796875 L 18.273438 40.921875 C 18.273438 40.964844 18.292969 41.003906 18.320312 41.035156 C 18.351562 41.0625 18.390625 41.078125 18.433594 41.078125 L 19.316406 41.078125 C 19.359375 41.078125 19.398438 41.0625 19.429688 41.035156 C 19.460938 41.003906 19.476562 40.964844 19.476562 40.921875 Z M 18.171875 9.359375 L 18.292969 9.253906 L 17.445312 8.277344 L 17.445312 5.535156 L 18.011719 6.257812 L 18.011719 9.359375 L 18.171875 9.359375 L 18.292969 9.253906 L 18.171875 9.359375 L 18.328125 9.359375 L 18.328125 6.203125 C 18.328125 6.167969 18.316406 6.132812 18.296875 6.105469 L 17.410156 4.980469 C 17.371094 4.925781 17.300781 4.90625 17.234375 4.929688 C 17.171875 4.949219 17.128906 5.011719 17.128906 5.078125 L 17.128906 8.335938 C 17.128906 8.375 17.144531 8.410156 17.167969 8.4375 L 18.050781 9.460938 C 18.09375 9.511719 18.164062 9.53125 18.226562 9.507812 C 18.289062 9.484375 18.328125 9.425781 18.328125 9.359375 Z M 18.171875 25.140625 L 18.25 25.003906 L 17.445312 24.539062 L 17.445312 21.671875 L 18.011719 22.066406 L 18.011719 25.140625 L 18.171875 25.140625 L 18.25 25.003906 L 18.171875 25.140625 L 18.328125 25.140625 L 18.328125 21.984375 C 18.328125 21.933594 18.304688 21.882812 18.261719 21.855469 L 17.378906 21.242188 C 17.328125 21.207031 17.265625 21.203125 17.214844 21.230469 C 17.164062 21.257812 17.128906 21.3125 17.128906 21.371094 L 17.128906 24.628906 C 17.128906 24.6875 17.160156 24.738281 17.207031 24.765625 L 18.09375 25.277344 C 18.140625 25.304688 18.203125 25.304688 18.25 25.277344 C 18.300781 25.25 18.328125 25.195312 18.328125 25.140625 Z M 18.171875 29.085938 L 18.234375 28.941406 L 17.445312 28.597656 L 17.445312 25.710938 L 18.011719 26.023438 L 18.011719 29.085938 L 18.171875 29.085938 L 18.234375 28.941406 L 18.171875 29.085938 L 18.328125 29.085938 L 18.328125 25.929688 C 18.328125 25.871094 18.296875 25.820312 18.246094 25.792969 L 17.363281 25.304688 C 17.316406 25.277344 17.253906 25.277344 17.207031 25.308594 C 17.160156 25.335938 17.128906 25.386719 17.128906 25.445312 L 17.128906 28.703125 C 17.128906 28.765625 17.167969 28.824219 17.222656 28.847656 L 18.109375 29.230469 C 18.15625 29.253906 18.214844 29.246094 18.257812 29.21875 C 18.304688 29.1875 18.328125 29.140625 18.328125 29.085938 Z M 18.171875 36.976562 L 18.195312 36.820312 L 17.445312 36.710938 L 17.445312 33.792969 L 18.011719 33.941406 L 18.011719 36.976562 L 18.171875 36.976562 L 18.195312 36.820312 L 18.171875 36.976562 L 18.328125 36.976562 L 18.328125 33.820312 C 18.328125 33.75 18.28125 33.683594 18.210938 33.667969 L 17.328125 33.4375 C 17.28125 33.425781 17.230469 33.433594 17.191406 33.464844 C 17.152344 33.496094 17.128906 33.539062 17.128906 33.589844 L 17.128906 36.847656 C 17.128906 36.929688 17.1875 36.992188 17.265625 37.003906 L 18.148438 37.132812 C 18.195312 37.140625 18.242188 37.125 18.273438 37.097656 C 18.308594 37.066406 18.328125 37.023438 18.328125 36.976562 Z M 17.027344 8.035156 L 17.144531 7.929688 L 16.300781 6.953125 L 16.300781 4.078125 L 16.867188 4.800781 L 16.867188 8.035156 L 17.027344 8.035156 L 17.144531 7.929688 L 17.027344 8.035156 L 17.183594 8.035156 L 17.183594 4.746094 C 17.183594 4.710938 17.171875 4.675781 17.152344 4.648438 L 16.265625 3.523438 C 16.226562 3.46875 16.152344 3.449219 16.089844 3.46875 C 16.027344 3.492188 15.984375 3.550781 15.984375 3.621094 L 15.984375 7.011719 C 15.984375 7.050781 15.996094 7.085938 16.023438 7.113281 L 16.90625 8.136719 C 16.949219 8.1875 17.019531 8.203125 17.082031 8.183594 C 17.144531 8.160156 17.183594 8.101562 17.183594 8.035156 Z M 17.027344 16.257812 L 17.128906 16.136719 L 16.300781 15.417969 L 16.300781 12.476562 L 16.867188 13.035156 L 16.867188 16.257812 L 17.027344 16.257812 L 17.128906 16.136719 L 17.027344 16.257812 L 17.183594 16.257812 L 17.183594 12.96875 C 17.183594 12.925781 17.167969 12.882812 17.136719 12.855469 L 16.253906 11.984375 C 16.207031 11.941406 16.140625 11.929688 16.082031 11.953125 C 16.023438 11.976562 15.984375 12.035156 15.984375 12.097656 L 15.984375 15.488281 C 15.984375 15.535156 16.003906 15.578125 16.039062 15.609375 L 16.921875 16.375 C 16.96875 16.414062 17.035156 16.425781 17.09375 16.398438 C 17.148438 16.375 17.183594 16.316406 17.183594 16.257812 Z M 17.027344 20.367188 L 17.117188 20.238281 L 16.300781 19.648438 L 16.300781 16.675781 L 16.867188 17.152344 L 16.867188 20.367188 L 17.027344 20.367188 L 17.117188 20.238281 L 17.027344 20.367188 L 17.183594 20.367188 L 17.183594 17.078125 C 17.183594 17.03125 17.164062 16.988281 17.128906 16.957031 L 16.242188 16.214844 C 16.195312 16.175781 16.128906 16.167969 16.074219 16.195312 C 16.019531 16.21875 15.984375 16.273438 15.984375 16.335938 L 15.984375 19.726562 C 15.984375 19.777344 16.007812 19.828125 16.050781 19.855469 L 16.933594 20.496094 C 16.980469 20.53125 17.046875 20.535156 17.097656 20.507812 C 17.152344 20.480469 17.183594 20.425781 17.183594 20.367188 Z M 17.027344 24.476562 L 17.105469 24.339844 L 16.300781 23.875 L 16.300781 20.878906 L 16.867188 21.273438 L 16.867188 24.476562 L 17.027344 24.476562 L 17.105469 24.339844 L 17.027344 24.476562 L 17.183594 24.476562 L 17.183594 21.1875 C 17.183594 21.136719 17.160156 21.089844 17.117188 21.058594 L 16.230469 20.445312 C 16.183594 20.410156 16.121094 20.40625 16.070312 20.433594 C 16.015625 20.460938 15.984375 20.515625 15.984375 20.574219 L 15.984375 23.964844 C 15.984375 24.023438 16.015625 24.074219 16.0625 24.105469 L 16.949219 24.613281 C 16.996094 24.644531 17.054688 24.644531 17.105469 24.613281 C 17.152344 24.585938 17.183594 24.535156 17.183594 24.476562 Z M 17.027344 32.699219 L 17.070312 32.546875 L 16.300781 32.324219 L 16.300781 29.289062 L 16.867188 29.519531 L 16.867188 32.699219 L 17.027344 32.699219 L 17.070312 32.546875 L 17.027344 32.699219 L 17.183594 32.699219 L 17.183594 29.410156 C 17.183594 29.347656 17.144531 29.289062 17.085938 29.265625 L 16.203125 28.90625 C 16.152344 28.886719 16.097656 28.894531 16.054688 28.921875 C 16.011719 28.953125 15.984375 29 15.984375 29.054688 L 15.984375 32.445312 C 15.984375 32.515625 16.03125 32.578125 16.097656 32.597656 L 16.984375 32.851562 C 17.03125 32.867188 17.082031 32.855469 17.121094 32.828125 C 17.160156 32.796875 17.183594 32.75 17.183594 32.699219 Z M 17.027344 36.8125 L 17.050781 36.65625 L 16.300781 36.546875 L 16.300781 33.496094 L 16.867188 33.644531 L 16.867188 36.8125 L 17.027344 36.8125 L 17.050781 36.65625 L 17.027344 36.8125 L 17.183594 36.8125 L 17.183594 33.523438 C 17.183594 33.449219 17.136719 33.386719 17.066406 33.367188 L 16.179688 33.140625 C 16.132812 33.128906 16.082031 33.136719 16.046875 33.167969 C 16.007812 33.199219 15.984375 33.242188 15.984375 33.292969 L 15.984375 36.683594 C 15.984375 36.761719 16.042969 36.828125 16.117188 36.839844 L 17.003906 36.96875 C 17.050781 36.972656 17.09375 36.960938 17.128906 36.929688 C 17.164062 36.902344 17.183594 36.855469 17.183594 36.8125 Z M 17.027344 40.921875 L 17.027344 40.765625 L 16.300781 40.765625 L 16.300781 37.707031 L 16.867188 37.773438 L 16.867188 40.921875 L 17.027344 40.921875 L 17.027344 40.765625 L 17.027344 40.921875 L 17.183594 40.921875 L 17.183594 37.632812 C 17.183594 37.554688 17.125 37.484375 17.042969 37.476562 L 16.160156 37.375 C 16.117188 37.367188 16.070312 37.382812 16.035156 37.414062 C 16.003906 37.441406 15.984375 37.484375 15.984375 37.53125 L 15.984375 40.921875 C 15.984375 40.964844 16 41.003906 16.03125 41.035156 C 16.058594 41.0625 16.101562 41.078125 16.140625 41.078125 L 17.027344 41.078125 C 17.066406 41.078125 17.109375 41.0625 17.136719 41.035156 C 17.167969 41.003906 17.183594 40.964844 17.183594 40.921875 Z M 19.796875 6.460938 L 19.914062 6.355469 L 15.78125 1.746094 C 15.738281 1.699219 15.667969 1.683594 15.609375 1.707031 C 15.546875 1.730469 15.507812 1.789062 15.507812 1.851562 L 15.507812 42.710938 C 15.507812 42.753906 15.523438 42.796875 15.554688 42.824219 C 15.582031 42.855469 15.621094 42.871094 15.664062 42.871094 L 19.796875 42.871094 C 19.835938 42.871094 19.878906 42.855469 19.90625 42.824219 C 19.9375 42.796875 19.953125 42.753906 19.953125 42.710938 L 19.953125 6.460938 C 19.953125 6.421875 19.9375 6.386719 19.914062 6.355469 L 19.796875 6.460938 L 19.636719 6.460938 L 19.636719 42.554688 L 15.824219 42.554688 L 15.824219 2.265625 L 19.675781 6.566406 L 19.796875 6.460938 L 19.636719 6.460938 L 19.796875 6.460938 " fill-opacity="1" fill-rule="nonzero"/></g><g clip-path="url(#id7)"><path fill="#ffffff" d="M 14.847656 5.058594 L 11.425781 8.941406 L 11.425781 7.472656 L 14.847656 3.410156 Z M 14.847656 7.621094 L 11.425781 11.226562 L 11.425781 9.753906 L 14.847656 5.972656 Z M 14.847656 10.183594 L 11.425781 13.511719 L 11.425781 12.039062 L 14.847656 8.535156 Z M 14.847656 12.746094 L 11.425781 15.796875 L 11.425781 14.324219 L 14.847656 11.09375 Z M 14.847656 15.304688 L 11.425781 18.078125 L 11.425781 16.609375 L 14.847656 13.65625 Z M 14.847656 17.867188 L 11.425781 20.363281 L 11.425781 18.890625 L 14.847656 16.21875 Z M 14.847656 20.429688 L 11.425781 22.648438 L 11.425781 21.175781 L 14.847656 18.78125 Z M 14.847656 22.992188 L 11.425781 24.933594 L 11.425781 23.460938 L 14.847656 21.34375 Z M 14.847656 25.554688 L 11.425781 27.21875 L 11.425781 25.746094 L 14.847656 23.902344 Z M 14.847656 28.113281 L 11.425781 29.5 L 11.425781 28.03125 L 14.847656 26.464844 Z M 14.847656 30.675781 L 11.425781 31.785156 L 11.425781 30.316406 L 14.847656 29.027344 Z M 14.847656 33.238281 L 11.425781 34.070312 L 11.425781 32.597656 L 14.847656 31.585938 Z M 14.847656 35.800781 L 11.425781 36.355469 L 11.425781 34.882812 L 14.847656 34.148438 Z M 14.847656 38.359375 L 11.425781 38.636719 L 11.425781 37.167969 L 14.847656 36.710938 Z M 14.847656 40.921875 L 11.425781 40.921875 L 11.425781 39.453125 L 14.847656 39.273438 Z M 10.984375 6.460938 L 10.984375 42.710938 L 15.292969 42.710938 L 15.292969 1.851562 L 10.984375 6.460938 " fill-opacity="1" fill-rule="nonzero"/><path fill="#0032a0" d="M 14.847656 5.058594 L 14.730469 4.953125 L 11.585938 8.523438 L 11.585938 7.527344 L 14.691406 3.84375 L 14.691406 5.058594 L 14.847656 5.058594 L 14.730469 4.953125 L 14.847656 5.058594 L 15.007812 5.058594 L 15.007812 3.410156 C 15.007812 3.34375 14.964844 3.285156 14.902344 3.261719 C 14.839844 3.238281 14.769531 3.257812 14.726562 3.308594 L 11.304688 7.371094 C 11.28125 7.398438 11.269531 7.433594 11.269531 7.472656 L 11.269531 8.941406 C 11.269531 9.007812 11.308594 9.066406 11.371094 9.089844 C 11.433594 9.113281 11.5 9.097656 11.546875 9.046875 L 14.96875 5.164062 C 14.992188 5.136719 15.007812 5.097656 15.007812 5.058594 Z M 14.847656 7.621094 L 14.734375 7.511719 L 11.585938 10.832031 L 11.585938 9.816406 L 14.691406 6.382812 L 14.691406 7.621094 L 14.847656 7.621094 L 14.734375 7.511719 L 14.847656 7.621094 L 15.007812 7.621094 L 15.007812 5.972656 C 15.007812 5.90625 14.96875 5.847656 14.90625 5.824219 C 14.84375 5.800781 14.777344 5.816406 14.730469 5.867188 L 11.308594 9.648438 C 11.285156 9.679688 11.269531 9.714844 11.269531 9.753906 L 11.269531 11.226562 C 11.269531 11.292969 11.308594 11.347656 11.367188 11.375 C 11.429688 11.398438 11.496094 11.382812 11.542969 11.335938 L 14.964844 7.730469 C 14.992188 7.699219 15.007812 7.660156 15.007812 7.621094 Z M 14.847656 10.183594 L 14.738281 10.070312 L 11.585938 13.136719 L 11.585938 12.105469 L 14.691406 8.921875 L 14.691406 10.183594 L 14.847656 10.183594 L 14.738281 10.070312 L 14.847656 10.183594 L 15.007812 10.183594 L 15.007812 8.535156 C 15.007812 8.46875 14.96875 8.410156 14.910156 8.386719 C 14.847656 8.363281 14.78125 8.375 14.734375 8.421875 L 11.3125 11.929688 C 11.285156 11.960938 11.269531 12 11.269531 12.039062 L 11.269531 13.511719 C 11.269531 13.574219 11.308594 13.632812 11.363281 13.65625 C 11.421875 13.679688 11.492188 13.667969 11.535156 13.625 L 14.960938 10.296875 C 14.988281 10.265625 15.007812 10.226562 15.007812 10.183594 Z M 14.847656 12.746094 L 14.746094 12.625 L 11.585938 15.441406 L 11.585938 14.394531 L 14.691406 11.460938 L 14.691406 12.746094 L 14.847656 12.746094 L 14.746094 12.625 L 14.847656 12.746094 L 15.007812 12.746094 L 15.007812 11.09375 C 15.007812 11.03125 14.96875 10.976562 14.910156 10.949219 C 14.855469 10.925781 14.785156 10.9375 14.742188 10.980469 L 11.316406 14.210938 C 11.285156 14.238281 11.269531 14.28125 11.269531 14.324219 L 11.269531 15.796875 C 11.269531 15.859375 11.304688 15.914062 11.363281 15.941406 C 11.417969 15.964844 11.484375 15.953125 11.53125 15.914062 L 14.953125 12.863281 C 14.988281 12.832031 15.007812 12.789062 15.007812 12.746094 Z M 14.847656 15.304688 L 14.75 15.183594 L 11.585938 17.746094 L 11.585938 16.679688 L 14.691406 14 L 14.691406 15.304688 L 14.847656 15.304688 L 14.75 15.183594 L 14.847656 15.304688 L 15.007812 15.304688 L 15.007812 13.65625 C 15.007812 13.59375 14.972656 13.539062 14.914062 13.511719 C 14.859375 13.488281 14.792969 13.496094 14.746094 13.539062 L 11.324219 16.488281 C 11.289062 16.519531 11.269531 16.5625 11.269531 16.609375 L 11.269531 18.078125 C 11.269531 18.140625 11.304688 18.195312 11.359375 18.222656 C 11.414062 18.25 11.476562 18.242188 11.527344 18.203125 L 14.949219 15.429688 C 14.984375 15.398438 15.007812 15.351562 15.007812 15.304688 Z M 14.847656 17.867188 L 14.757812 17.738281 L 11.585938 20.050781 L 11.585938 18.96875 L 14.691406 16.542969 L 14.691406 17.867188 L 14.847656 17.867188 L 14.757812 17.738281 L 14.847656 17.867188 L 15.007812 17.867188 L 15.007812 16.21875 C 15.007812 16.15625 14.972656 16.101562 14.917969 16.078125 C 14.863281 16.050781 14.800781 16.054688 14.75 16.09375 L 11.328125 18.769531 C 11.289062 18.796875 11.269531 18.84375 11.269531 18.890625 L 11.269531 20.363281 C 11.269531 20.421875 11.300781 20.476562 11.355469 20.503906 C 11.40625 20.53125 11.472656 20.527344 11.519531 20.492188 L 14.941406 17.996094 C 14.984375 17.964844 15.007812 17.917969 15.007812 17.867188 Z M 14.847656 20.429688 L 14.761719 20.296875 L 11.585938 22.355469 L 11.585938 21.257812 L 14.691406 19.082031 L 14.691406 20.429688 L 14.847656 20.429688 L 14.761719 20.296875 L 14.847656 20.429688 L 15.007812 20.429688 L 15.007812 18.78125 C 15.007812 18.722656 14.976562 18.667969 14.921875 18.640625 C 14.871094 18.613281 14.808594 18.617188 14.757812 18.652344 L 11.335938 21.046875 C 11.292969 21.078125 11.269531 21.125 11.269531 21.175781 L 11.269531 22.648438 C 11.269531 22.707031 11.300781 22.757812 11.351562 22.789062 C 11.402344 22.816406 11.464844 22.8125 11.511719 22.78125 L 14.933594 20.5625 C 14.980469 20.53125 15.007812 20.480469 15.007812 20.429688 Z M 14.847656 22.992188 L 14.773438 22.851562 L 11.585938 24.660156 L 11.585938 23.550781 L 14.691406 21.625 L 14.691406 22.992188 L 14.847656 22.992188 L 14.773438 22.851562 L 14.847656 22.992188 L 15.007812 22.992188 L 15.007812 21.34375 C 15.007812 21.285156 14.976562 21.230469 14.925781 21.203125 C 14.875 21.175781 14.816406 21.175781 14.765625 21.207031 L 11.34375 23.328125 C 11.296875 23.355469 11.269531 23.40625 11.269531 23.460938 L 11.269531 24.933594 C 11.269531 24.988281 11.296875 25.039062 11.347656 25.070312 C 11.394531 25.097656 11.457031 25.097656 11.503906 25.070312 L 14.925781 23.128906 C 14.976562 23.101562 15.007812 23.046875 15.007812 22.992188 Z M 14.847656 25.554688 L 14.78125 25.410156 L 11.585938 26.964844 L 11.585938 25.839844 L 14.691406 24.167969 L 14.691406 25.554688 L 14.847656 25.554688 L 14.78125 25.410156 L 14.847656 25.554688 L 15.007812 25.554688 L 15.007812 23.902344 C 15.007812 23.847656 14.976562 23.796875 14.929688 23.765625 C 14.882812 23.738281 14.824219 23.738281 14.773438 23.765625 L 11.351562 25.605469 C 11.300781 25.632812 11.269531 25.6875 11.269531 25.746094 L 11.269531 27.21875 C 11.269531 27.273438 11.296875 27.320312 11.34375 27.351562 C 11.390625 27.378906 11.445312 27.382812 11.496094 27.359375 L 14.917969 25.695312 C 14.972656 25.667969 15.007812 25.613281 15.007812 25.554688 Z M 14.847656 28.113281 L 14.789062 27.96875 L 11.585938 29.265625 L 11.585938 28.132812 L 14.691406 26.710938 L 14.691406 28.113281 L 14.847656 28.113281 L 14.789062 27.96875 L 14.847656 28.113281 L 15.007812 28.113281 L 15.007812 26.464844 C 15.007812 26.410156 14.980469 26.359375 14.933594 26.332031 C 14.890625 26.300781 14.832031 26.296875 14.785156 26.320312 L 11.359375 27.886719 C 11.304688 27.910156 11.269531 27.96875 11.269531 28.03125 L 11.269531 29.5 C 11.269531 29.554688 11.296875 29.601562 11.339844 29.632812 C 11.382812 29.660156 11.4375 29.667969 11.484375 29.648438 L 14.910156 28.261719 C 14.96875 28.234375 15.007812 28.179688 15.007812 28.113281 Z M 14.847656 30.675781 L 14.800781 30.523438 L 11.585938 31.566406 L 11.585938 30.421875 L 14.691406 29.253906 L 14.691406 30.675781 L 14.847656 30.675781 L 14.800781 30.523438 L 14.847656 30.675781 L 15.007812 30.675781 L 15.007812 29.027344 C 15.007812 28.976562 14.980469 28.925781 14.941406 28.894531 C 14.898438 28.867188 14.84375 28.859375 14.792969 28.878906 L 11.371094 30.167969 C 11.308594 30.191406 11.269531 30.25 11.269531 30.316406 L 11.269531 31.785156 C 11.269531 31.835938 11.292969 31.882812 11.332031 31.914062 C 11.375 31.941406 11.425781 31.953125 11.476562 31.9375 L 14.898438 30.828125 C 14.964844 30.804688 15.007812 30.746094 15.007812 30.675781 Z M 14.847656 33.238281 L 14.8125 33.082031 L 11.585938 33.867188 L 11.585938 32.71875 L 14.691406 31.800781 L 14.691406 33.238281 L 14.847656 33.238281 L 14.8125 33.082031 L 14.847656 33.238281 L 15.007812 33.238281 L 15.007812 31.585938 C 15.007812 31.539062 14.984375 31.492188 14.945312 31.460938 C 14.902344 31.429688 14.851562 31.421875 14.804688 31.4375 L 11.382812 32.445312 C 11.3125 32.46875 11.269531 32.527344 11.269531 32.597656 L 11.269531 34.070312 C 11.269531 34.117188 11.289062 34.164062 11.328125 34.195312 C 11.367188 34.222656 11.417969 34.234375 11.464844 34.222656 L 14.886719 33.390625 C 14.957031 33.375 15.007812 33.308594 15.007812 33.238281 Z M 14.847656 35.800781 L 14.824219 35.644531 L 11.585938 36.167969 L 11.585938 35.011719 L 14.691406 34.34375 L 14.691406 35.800781 L 14.847656 35.800781 L 14.824219 35.644531 L 14.847656 35.800781 L 15.007812 35.800781 L 15.007812 34.148438 C 15.007812 34.101562 14.984375 34.054688 14.949219 34.027344 C 14.910156 33.996094 14.863281 33.984375 14.816406 33.996094 L 11.394531 34.726562 C 11.320312 34.742188 11.269531 34.808594 11.269531 34.882812 L 11.269531 36.355469 C 11.269531 36.398438 11.289062 36.445312 11.324219 36.472656 C 11.359375 36.503906 11.40625 36.515625 11.453125 36.507812 L 14.875 35.953125 C 14.953125 35.941406 15.007812 35.875 15.007812 35.800781 Z M 14.847656 38.359375 L 14.835938 38.203125 L 11.585938 38.46875 L 11.585938 37.304688 L 14.691406 36.890625 L 14.691406 38.359375 L 14.847656 38.359375 L 14.835938 38.203125 L 14.847656 38.359375 L 15.007812 38.359375 L 15.007812 36.710938 C 15.007812 36.664062 14.988281 36.621094 14.953125 36.59375 C 14.917969 36.5625 14.875 36.546875 14.828125 36.554688 L 11.40625 37.011719 C 11.328125 37.019531 11.269531 37.089844 11.269531 37.167969 L 11.269531 38.636719 C 11.269531 38.683594 11.285156 38.722656 11.320312 38.753906 C 11.351562 38.785156 11.394531 38.800781 11.441406 38.796875 L 14.863281 38.519531 C 14.945312 38.511719 15.007812 38.445312 15.007812 38.359375 Z M 14.847656 40.921875 L 14.847656 40.765625 L 11.585938 40.765625 L 11.585938 39.601562 L 14.691406 39.441406 L 14.691406 40.921875 L 14.847656 40.921875 L 14.847656 40.765625 L 14.847656 40.921875 L 15.007812 40.921875 L 15.007812 39.273438 C 15.007812 39.230469 14.988281 39.1875 14.957031 39.160156 C 14.925781 39.128906 14.882812 39.113281 14.839844 39.117188 L 11.417969 39.292969 C 11.335938 39.296875 11.269531 39.367188 11.269531 39.453125 L 11.269531 40.921875 C 11.269531 40.964844 11.285156 41.003906 11.316406 41.035156 C 11.34375 41.0625 11.382812 41.078125 11.425781 41.078125 L 14.847656 41.078125 C 14.890625 41.078125 14.929688 41.0625 14.960938 41.035156 C 14.992188 41.003906 15.007812 40.964844 15.007812 40.921875 Z M 10.984375 6.460938 L 10.824219 6.460938 L 10.824219 42.710938 C 10.824219 42.753906 10.84375 42.796875 10.871094 42.824219 C 10.902344 42.855469 10.941406 42.871094 10.984375 42.871094 L 15.292969 42.871094 C 15.332031 42.871094 15.371094 42.855469 15.402344 42.824219 C 15.433594 42.796875 15.449219 42.753906 15.449219 42.710938 L 15.449219 1.851562 C 15.449219 1.789062 15.410156 1.730469 15.347656 1.707031 C 15.289062 1.683594 15.21875 1.695312 15.175781 1.746094 L 10.867188 6.351562 C 10.839844 6.382812 10.824219 6.421875 10.824219 6.460938 L 10.984375 6.460938 L 11.101562 6.570312 L 15.132812 2.253906 L 15.132812 42.554688 L 11.140625 42.554688 L 11.140625 6.460938 L 10.984375 6.460938 L 11.101562 6.570312 L 10.984375 6.460938 " fill-opacity="1" fill-rule="nonzero"/></g><g clip-path="url(#id8)"><path fill="#ffffff" d="M 10.113281 25.0625 L 9.238281 24.425781 L 9.238281 22.480469 L 10.113281 23.183594 Z M 10.113281 27.417969 L 9.238281 26.859375 L 9.238281 24.914062 L 10.113281 25.535156 Z M 10.113281 29.769531 L 9.238281 29.292969 L 9.238281 27.34375 L 10.113281 27.886719 Z M 10.113281 34.472656 L 9.238281 34.152344 L 9.238281 32.210938 L 10.113281 32.589844 Z M 10.113281 39.175781 L 9.238281 39.015625 L 9.238281 37.074219 L 10.113281 37.292969 Z M 10.113281 41.527344 L 9.238281 41.449219 L 9.238281 39.503906 L 10.113281 39.648438 Z M 8.980469 24.238281 L 8.109375 23.601562 L 8.109375 21.574219 L 8.980469 22.277344 Z M 8.980469 29.148438 L 8.109375 28.671875 L 8.109375 26.644531 L 8.980469 27.1875 Z M 8.980469 36.515625 L 8.109375 36.277344 L 8.109375 34.25 L 8.980469 34.550781 Z M 8.980469 38.96875 L 8.109375 38.8125 L 8.109375 36.785156 L 8.980469 37.007812 Z M 7.851562 25.972656 L 6.980469 25.417969 L 6.980469 23.304688 L 7.851562 23.925781 Z M 7.851562 28.53125 L 6.980469 28.054688 L 6.980469 25.945312 L 7.851562 26.484375 Z M 7.851562 31.089844 L 6.980469 30.691406 L 6.980469 28.582031 L 7.851562 29.042969 Z M 7.851562 33.648438 L 6.980469 33.332031 L 6.980469 31.21875 L 7.851562 31.601562 Z M 7.851562 36.207031 L 6.980469 35.96875 L 6.980469 33.859375 L 7.851562 34.160156 Z M 7.851562 41.320312 L 6.980469 41.242188 L 6.980469 39.132812 L 7.851562 39.277344 Z M 6.480469 19.246094 L 6.480469 42.710938 L 10.609375 42.710938 L 10.609375 21.894531 L 6.480469 19.246094 " fill-opacity="1" fill-rule="nonzero"/><path fill="#0032a0" d="M 10.113281 25.0625 L 10.203125 24.9375 L 9.398438 24.347656 L 9.398438 22.8125 L 9.953125 23.257812 L 9.953125 25.0625 L 10.113281 25.0625 L 10.203125 24.9375 L 10.113281 25.0625 L 10.269531 25.0625 L 10.269531 23.183594 C 10.269531 23.132812 10.25 23.089844 10.210938 23.058594 L 9.339844 22.359375 C 9.289062 22.320312 9.226562 22.3125 9.171875 22.339844 C 9.117188 22.367188 9.082031 22.421875 9.082031 22.480469 L 9.082031 24.425781 C 9.082031 24.476562 9.105469 24.527344 9.144531 24.554688 L 10.019531 25.191406 C 10.066406 25.226562 10.128906 25.230469 10.183594 25.203125 C 10.238281 25.179688 10.269531 25.125 10.269531 25.0625 Z M 10.113281 27.417969 L 10.195312 27.28125 L 9.398438 26.773438 L 9.398438 25.21875 L 9.953125 25.617188 L 9.953125 27.417969 L 10.113281 27.417969 L 10.195312 27.28125 L 10.113281 27.417969 L 10.269531 27.417969 L 10.269531 25.535156 C 10.269531 25.484375 10.246094 25.433594 10.203125 25.40625 L 9.332031 24.785156 C 9.285156 24.75 9.21875 24.746094 9.167969 24.773438 C 9.113281 24.800781 9.082031 24.855469 9.082031 24.914062 L 9.082031 26.859375 C 9.082031 26.914062 9.109375 26.964844 9.15625 26.992188 L 10.027344 27.550781 C 10.074219 27.582031 10.136719 27.582031 10.1875 27.554688 C 10.238281 27.527344 10.269531 27.472656 10.269531 27.417969 Z M 10.113281 29.769531 L 10.1875 29.628906 L 9.398438 29.195312 L 9.398438 27.628906 L 9.953125 27.972656 L 9.953125 29.769531 L 10.113281 29.769531 L 10.1875 29.628906 L 10.113281 29.769531 L 10.269531 29.769531 L 10.269531 27.886719 C 10.269531 27.832031 10.242188 27.78125 10.195312 27.753906 L 9.324219 27.210938 C 9.273438 27.179688 9.214844 27.179688 9.164062 27.207031 C 9.113281 27.234375 9.082031 27.289062 9.082031 27.34375 L 9.082031 29.292969 C 9.082031 29.347656 9.113281 29.402344 9.164062 29.429688 L 10.035156 29.90625 C 10.085938 29.933594 10.144531 29.933594 10.191406 29.902344 C 10.238281 29.875 10.269531 29.824219 10.269531 29.769531 Z M 10.113281 34.472656 L 10.167969 34.324219 L 9.398438 34.042969 L 9.398438 32.449219 L 9.953125 32.695312 L 9.953125 34.472656 L 10.113281 34.472656 L 10.167969 34.324219 L 10.113281 34.472656 L 10.269531 34.472656 L 10.269531 32.589844 C 10.269531 32.527344 10.234375 32.472656 10.175781 32.445312 L 9.304688 32.0625 C 9.253906 32.042969 9.199219 32.046875 9.152344 32.078125 C 9.109375 32.105469 9.082031 32.15625 9.082031 32.210938 L 9.082031 34.152344 C 9.082031 34.21875 9.125 34.28125 9.1875 34.300781 L 10.058594 34.621094 C 10.105469 34.636719 10.160156 34.632812 10.203125 34.601562 C 10.246094 34.570312 10.269531 34.523438 10.269531 34.472656 Z M 10.113281 39.175781 L 10.140625 39.019531 L 9.398438 38.886719 L 9.398438 37.277344 L 9.953125 37.417969 L 9.953125 39.175781 L 10.113281 39.175781 L 10.140625 39.019531 L 10.113281 39.175781 L 10.269531 39.175781 L 10.269531 37.292969 C 10.269531 37.222656 10.21875 37.160156 10.152344 37.140625 L 9.277344 36.917969 C 9.230469 36.90625 9.179688 36.917969 9.144531 36.945312 C 9.105469 36.976562 9.082031 37.023438 9.082031 37.074219 L 9.082031 39.015625 C 9.082031 39.09375 9.136719 39.160156 9.210938 39.171875 L 10.082031 39.332031 C 10.128906 39.339844 10.175781 39.328125 10.214844 39.296875 C 10.25 39.269531 10.269531 39.222656 10.269531 39.175781 Z M 10.113281 41.527344 L 10.125 41.371094 L 9.398438 41.304688 L 9.398438 39.691406 L 9.953125 39.78125 L 9.953125 41.527344 L 10.113281 41.527344 L 10.125 41.371094 L 10.113281 41.527344 L 10.269531 41.527344 L 10.269531 39.648438 C 10.269531 39.570312 10.214844 39.503906 10.136719 39.492188 L 9.265625 39.347656 C 9.21875 39.339844 9.171875 39.351562 9.136719 39.382812 C 9.101562 39.414062 9.082031 39.457031 9.082031 39.503906 L 9.082031 41.449219 C 9.082031 41.53125 9.144531 41.597656 9.226562 41.605469 L 10.097656 41.6875 C 10.140625 41.691406 10.183594 41.675781 10.21875 41.644531 C 10.25 41.617188 10.269531 41.574219 10.269531 41.527344 Z M 8.980469 24.238281 L 9.074219 24.113281 L 8.265625 23.523438 L 8.265625 21.90625 L 8.824219 22.351562 L 8.824219 24.238281 L 8.980469 24.238281 L 9.074219 24.113281 L 8.980469 24.238281 L 9.140625 24.238281 L 9.140625 22.277344 C 9.140625 22.226562 9.117188 22.183594 9.082031 22.152344 L 8.207031 21.453125 C 8.160156 21.414062 8.097656 21.40625 8.042969 21.433594 C 7.988281 21.460938 7.953125 21.515625 7.953125 21.574219 L 7.953125 23.601562 C 7.953125 23.652344 7.976562 23.699219 8.015625 23.730469 L 8.890625 24.367188 C 8.9375 24.402344 9 24.40625 9.054688 24.378906 C 9.105469 24.351562 9.140625 24.300781 9.140625 24.238281 Z M 8.980469 29.148438 L 9.058594 29.011719 L 8.265625 28.578125 L 8.265625 26.929688 L 8.824219 27.273438 L 8.824219 29.148438 L 8.980469 29.148438 L 9.058594 29.011719 L 8.980469 29.148438 L 9.140625 29.148438 L 9.140625 27.1875 C 9.140625 27.128906 9.113281 27.082031 9.066406 27.050781 L 8.191406 26.511719 C 8.144531 26.480469 8.082031 26.480469 8.03125 26.507812 C 7.984375 26.535156 7.953125 26.585938 7.953125 26.644531 L 7.953125 28.671875 C 7.953125 28.730469 7.984375 28.785156 8.035156 28.8125 L 8.90625 29.289062 C 8.953125 29.316406 9.015625 29.316406 9.0625 29.285156 C 9.109375 29.257812 9.140625 29.207031 9.140625 29.148438 Z M 8.980469 36.515625 L 9.023438 36.363281 L 8.265625 36.15625 L 8.265625 34.472656 L 8.824219 34.664062 L 8.824219 36.515625 L 8.980469 36.515625 L 9.023438 36.363281 L 8.980469 36.515625 L 9.140625 36.515625 L 9.140625 34.550781 C 9.140625 34.484375 9.097656 34.425781 9.035156 34.402344 L 8.160156 34.101562 C 8.113281 34.082031 8.058594 34.089844 8.019531 34.121094 C 7.976562 34.148438 7.953125 34.199219 7.953125 34.25 L 7.953125 36.277344 C 7.953125 36.347656 8 36.410156 8.066406 36.429688 L 8.941406 36.667969 C 8.988281 36.679688 9.039062 36.671875 9.078125 36.640625 C 9.117188 36.609375 9.140625 36.5625 9.140625 36.515625 Z M 8.980469 38.96875 L 9.011719 38.816406 L 8.265625 38.679688 L 8.265625 36.988281 L 8.824219 37.128906 L 8.824219 38.96875 L 8.980469 38.96875 L 9.011719 38.816406 L 8.980469 38.96875 L 9.140625 38.96875 L 9.140625 37.007812 C 9.140625 36.933594 9.089844 36.871094 9.019531 36.851562 L 8.148438 36.628906 C 8.101562 36.617188 8.050781 36.628906 8.011719 36.660156 C 7.972656 36.6875 7.953125 36.734375 7.953125 36.785156 L 7.953125 38.8125 C 7.953125 38.886719 8.007812 38.953125 8.082031 38.964844 L 8.953125 39.125 C 9 39.132812 9.046875 39.121094 9.082031 39.09375 C 9.121094 39.0625 9.140625 39.015625 9.140625 38.96875 Z M 7.851562 25.972656 L 7.9375 25.839844 L 7.136719 25.328125 L 7.136719 23.613281 L 7.695312 24.007812 L 7.695312 25.972656 L 7.851562 25.972656 L 7.9375 25.839844 L 7.851562 25.972656 L 8.011719 25.972656 L 8.011719 23.925781 C 8.011719 23.875 7.984375 23.828125 7.941406 23.796875 L 7.070312 23.175781 C 7.023438 23.144531 6.960938 23.140625 6.90625 23.164062 C 6.855469 23.191406 6.820312 23.246094 6.820312 23.304688 L 6.820312 25.417969 C 6.820312 25.46875 6.847656 25.519531 6.894531 25.550781 L 7.765625 26.105469 C 7.816406 26.136719 7.878906 26.140625 7.929688 26.113281 C 7.976562 26.085938 8.011719 26.03125 8.011719 25.972656 Z M 7.851562 28.53125 L 7.929688 28.394531 L 7.136719 27.960938 L 7.136719 26.226562 L 7.695312 26.574219 L 7.695312 28.53125 L 7.851562 28.53125 L 7.929688 28.394531 L 7.851562 28.53125 L 8.011719 28.53125 L 8.011719 26.484375 C 8.011719 26.429688 7.980469 26.378906 7.933594 26.351562 L 7.0625 25.808594 C 7.015625 25.78125 6.953125 25.777344 6.902344 25.804688 C 6.851562 25.835938 6.820312 25.886719 6.820312 25.945312 L 6.820312 28.054688 C 6.820312 28.113281 6.855469 28.164062 6.90625 28.191406 L 7.777344 28.671875 C 7.824219 28.699219 7.882812 28.695312 7.933594 28.667969 C 7.980469 28.640625 8.011719 28.585938 8.011719 28.53125 Z M 7.851562 31.089844 L 7.917969 30.945312 L 7.136719 30.589844 L 7.136719 28.84375 L 7.695312 29.136719 L 7.695312 31.089844 L 7.851562 31.089844 L 7.917969 30.945312 L 7.851562 31.089844 L 8.011719 31.089844 L 8.011719 29.042969 C 8.011719 28.984375 7.976562 28.929688 7.925781 28.902344 L 7.054688 28.441406 C 7.003906 28.417969 6.945312 28.417969 6.898438 28.445312 C 6.851562 28.476562 6.820312 28.527344 6.820312 28.582031 L 6.820312 30.691406 C 6.820312 30.753906 6.859375 30.808594 6.914062 30.835938 L 7.785156 31.234375 C 7.835938 31.253906 7.890625 31.25 7.9375 31.222656 C 7.984375 31.191406 8.011719 31.144531 8.011719 31.089844 Z M 7.851562 33.648438 L 7.90625 33.5 L 7.136719 33.21875 L 7.136719 31.460938 L 7.695312 31.703125 L 7.695312 33.648438 L 7.851562 33.648438 L 7.90625 33.5 L 7.851562 33.648438 L 8.011719 33.648438 L 8.011719 31.601562 C 8.011719 31.539062 7.972656 31.480469 7.914062 31.457031 L 7.042969 31.074219 C 6.996094 31.054688 6.9375 31.058594 6.894531 31.085938 C 6.847656 31.117188 6.820312 31.167969 6.820312 31.21875 L 6.820312 33.332031 C 6.820312 33.394531 6.863281 33.457031 6.925781 33.476562 L 7.796875 33.796875 C 7.847656 33.8125 7.898438 33.808594 7.941406 33.777344 C 7.984375 33.746094 8.011719 33.699219 8.011719 33.648438 Z M 7.851562 36.207031 L 7.894531 36.054688 L 7.136719 35.847656 L 7.136719 34.078125 L 7.695312 34.273438 L 7.695312 36.207031 L 7.851562 36.207031 L 7.894531 36.054688 L 7.851562 36.207031 L 8.011719 36.207031 L 8.011719 34.160156 C 8.011719 34.089844 7.96875 34.03125 7.902344 34.007812 L 7.03125 33.707031 C 6.984375 33.691406 6.929688 33.699219 6.886719 33.730469 C 6.847656 33.757812 6.820312 33.804688 6.820312 33.859375 L 6.820312 35.96875 C 6.820312 36.039062 6.871094 36.101562 6.9375 36.121094 L 7.808594 36.359375 C 7.855469 36.371094 7.910156 36.363281 7.949219 36.332031 C 7.988281 36.300781 8.011719 36.253906 8.011719 36.207031 Z M 7.851562 41.320312 L 7.867188 41.164062 L 7.136719 41.097656 L 7.136719 39.320312 L 7.695312 39.410156 L 7.695312 41.320312 L 7.851562 41.320312 L 7.867188 41.164062 L 7.851562 41.320312 L 8.011719 41.320312 L 8.011719 39.277344 C 8.011719 39.199219 7.953125 39.132812 7.878906 39.121094 L 7.003906 38.976562 C 6.960938 38.96875 6.914062 38.980469 6.878906 39.011719 C 6.84375 39.042969 6.820312 39.085938 6.820312 39.132812 L 6.820312 41.242188 C 6.820312 41.324219 6.882812 41.394531 6.964844 41.402344 L 7.835938 41.480469 C 7.882812 41.484375 7.925781 41.46875 7.957031 41.4375 C 7.992188 41.410156 8.011719 41.367188 8.011719 41.320312 Z M 6.480469 19.246094 L 6.324219 19.246094 L 6.324219 42.710938 C 6.324219 42.753906 6.339844 42.796875 6.367188 42.824219 C 6.398438 42.855469 6.4375 42.871094 6.480469 42.871094 L 10.609375 42.871094 C 10.652344 42.871094 10.691406 42.855469 10.722656 42.824219 C 10.753906 42.796875 10.769531 42.753906 10.769531 42.710938 L 10.769531 21.894531 C 10.769531 21.839844 10.742188 21.789062 10.695312 21.761719 L 6.566406 19.113281 C 6.515625 19.082031 6.457031 19.082031 6.40625 19.109375 C 6.355469 19.136719 6.324219 19.1875 6.324219 19.246094 L 6.480469 19.246094 L 6.394531 19.378906 L 10.453125 21.980469 L 10.453125 42.554688 L 6.640625 42.554688 L 6.640625 19.246094 L 6.480469 19.246094 L 6.394531 19.378906 L 6.480469 19.246094 " fill-opacity="1" fill-rule="nonzero"/></g><g clip-path="url(#id9)"><path fill="#ffffff" d="M 5.445312 22.332031 L 2.464844 24.394531 L 2.464844 22.832031 L 5.445312 20.578125 Z M 5.445312 25.050781 L 2.464844 26.820312 L 2.464844 25.257812 L 5.445312 23.300781 Z M 5.445312 27.773438 L 2.464844 29.246094 L 2.464844 27.683594 L 5.445312 26.023438 Z M 5.445312 30.496094 L 2.464844 31.675781 L 2.464844 30.113281 L 5.445312 28.742188 Z M 5.445312 33.21875 L 2.464844 34.101562 L 2.464844 32.539062 L 5.445312 31.464844 Z M 5.445312 35.9375 L 2.464844 36.527344 L 2.464844 34.964844 L 5.445312 34.1875 Z M 5.445312 38.660156 L 2.464844 38.957031 L 2.464844 37.394531 L 5.445312 36.910156 Z M 5.445312 41.382812 L 2.464844 41.382812 L 2.464844 39.820312 L 5.445312 39.628906 Z M 1.800781 21.894531 L 1.800781 42.710938 L 6.109375 42.710938 L 6.109375 19.246094 L 1.800781 21.894531 " fill-opacity="1" fill-rule="nonzero"/><path fill="#0032a0" d="M 5.445312 22.332031 L 5.355469 22.199219 L 2.621094 24.09375 L 2.621094 22.910156 L 5.285156 20.894531 L 5.285156 22.332031 L 5.445312 22.332031 L 5.355469 22.199219 L 5.445312 22.332031 L 5.601562 22.332031 L 5.601562 20.578125 C 5.601562 20.519531 5.570312 20.464844 5.515625 20.4375 C 5.460938 20.410156 5.398438 20.417969 5.351562 20.453125 L 2.367188 22.703125 C 2.328125 22.734375 2.304688 22.78125 2.304688 22.832031 L 2.304688 24.394531 C 2.304688 24.453125 2.335938 24.507812 2.390625 24.535156 C 2.441406 24.5625 2.503906 24.558594 2.554688 24.523438 L 5.535156 22.460938 C 5.578125 22.429688 5.601562 22.382812 5.601562 22.332031 Z M 5.445312 25.050781 L 5.363281 24.914062 L 2.621094 26.542969 L 2.621094 25.34375 L 5.285156 23.59375 L 5.285156 25.050781 L 5.445312 25.050781 L 5.363281 24.914062 L 5.445312 25.050781 L 5.601562 25.050781 L 5.601562 23.300781 C 5.601562 23.242188 5.570312 23.1875 5.519531 23.160156 C 5.46875 23.132812 5.40625 23.136719 5.359375 23.167969 L 2.375 25.125 C 2.332031 25.15625 2.304688 25.203125 2.304688 25.257812 L 2.304688 26.820312 C 2.304688 26.878906 2.335938 26.929688 2.386719 26.957031 C 2.433594 26.984375 2.496094 26.984375 2.542969 26.957031 L 5.527344 25.1875 C 5.574219 25.160156 5.601562 25.109375 5.601562 25.050781 Z M 5.445312 27.773438 L 5.375 27.632812 L 2.621094 28.992188 L 2.621094 27.777344 L 5.285156 26.289062 L 5.285156 27.773438 L 5.445312 27.773438 L 5.375 27.632812 L 5.445312 27.773438 L 5.601562 27.773438 L 5.601562 26.023438 C 5.601562 25.964844 5.574219 25.914062 5.523438 25.886719 C 5.476562 25.855469 5.417969 25.855469 5.367188 25.882812 L 2.386719 27.546875 C 2.335938 27.574219 2.304688 27.628906 2.304688 27.683594 L 2.304688 29.246094 C 2.304688 29.300781 2.335938 29.351562 2.378906 29.382812 C 2.425781 29.410156 2.484375 29.414062 2.535156 29.390625 L 5.515625 27.914062 C 5.570312 27.890625 5.601562 27.835938 5.601562 27.773438 Z M 5.445312 30.496094 L 5.386719 30.347656 L 2.621094 31.441406 L 2.621094 30.214844 L 5.285156 28.988281 L 5.285156 30.496094 L 5.445312 30.496094 L 5.386719 30.347656 L 5.445312 30.496094 L 5.601562 30.496094 L 5.601562 28.742188 C 5.601562 28.691406 5.574219 28.640625 5.53125 28.609375 C 5.484375 28.582031 5.429688 28.578125 5.378906 28.597656 L 2.398438 29.96875 C 2.339844 29.996094 2.304688 30.050781 2.304688 30.113281 L 2.304688 31.675781 C 2.304688 31.726562 2.332031 31.777344 2.375 31.804688 C 2.417969 31.835938 2.472656 31.839844 2.523438 31.820312 L 5.503906 30.644531 C 5.5625 30.617188 5.601562 30.558594 5.601562 30.496094 Z M 5.445312 33.21875 L 5.402344 33.066406 L 2.621094 33.890625 L 2.621094 32.648438 L 5.285156 31.691406 L 5.285156 33.21875 L 5.445312 33.21875 L 5.402344 33.066406 L 5.445312 33.21875 L 5.601562 33.21875 L 5.601562 31.464844 C 5.601562 31.414062 5.578125 31.363281 5.535156 31.335938 C 5.496094 31.304688 5.441406 31.300781 5.390625 31.316406 L 2.410156 32.390625 C 2.347656 32.414062 2.304688 32.472656 2.304688 32.539062 L 2.304688 34.101562 C 2.304688 34.152344 2.328125 34.199219 2.367188 34.226562 C 2.410156 34.257812 2.460938 34.265625 2.507812 34.253906 L 5.488281 33.367188 C 5.558594 33.347656 5.601562 33.285156 5.601562 33.21875 Z M 5.445312 35.9375 L 5.414062 35.785156 L 2.621094 36.335938 L 2.621094 35.089844 L 5.285156 34.390625 L 5.285156 35.9375 L 5.445312 35.9375 L 5.414062 35.785156 L 5.445312 35.9375 L 5.601562 35.9375 L 5.601562 34.1875 C 5.601562 34.136719 5.582031 34.089844 5.542969 34.0625 C 5.503906 34.03125 5.453125 34.019531 5.40625 34.035156 L 2.421875 34.8125 C 2.355469 34.832031 2.304688 34.894531 2.304688 34.964844 L 2.304688 36.527344 C 2.304688 36.574219 2.324219 36.621094 2.363281 36.652344 C 2.398438 36.679688 2.449219 36.691406 2.496094 36.683594 L 5.476562 36.09375 C 5.550781 36.078125 5.601562 36.015625 5.601562 35.9375 Z M 5.445312 38.660156 L 5.429688 38.503906 L 2.621094 38.78125 L 2.621094 37.527344 L 5.285156 37.09375 L 5.285156 38.660156 L 5.445312 38.660156 L 5.429688 38.503906 L 5.445312 38.660156 L 5.601562 38.660156 L 5.601562 36.910156 C 5.601562 36.863281 5.582031 36.816406 5.546875 36.789062 C 5.511719 36.757812 5.464844 36.746094 5.417969 36.753906 L 2.4375 37.238281 C 2.363281 37.25 2.304688 37.316406 2.304688 37.394531 L 2.304688 38.957031 C 2.304688 39 2.324219 39.042969 2.359375 39.070312 C 2.390625 39.101562 2.433594 39.117188 2.480469 39.113281 L 5.460938 38.816406 C 5.542969 38.808594 5.601562 38.742188 5.601562 38.660156 Z M 5.445312 41.382812 L 5.445312 41.222656 L 2.621094 41.222656 L 2.621094 39.96875 L 5.285156 39.796875 L 5.285156 41.382812 L 5.445312 41.382812 L 5.445312 41.222656 L 5.445312 41.382812 L 5.601562 41.382812 L 5.601562 39.628906 C 5.601562 39.585938 5.585938 39.542969 5.554688 39.515625 C 5.523438 39.484375 5.476562 39.46875 5.433594 39.472656 L 2.453125 39.660156 C 2.371094 39.667969 2.304688 39.734375 2.304688 39.820312 L 2.304688 41.382812 C 2.304688 41.421875 2.324219 41.464844 2.351562 41.492188 C 2.382812 41.523438 2.421875 41.539062 2.464844 41.539062 L 5.445312 41.539062 C 5.488281 41.539062 5.527344 41.523438 5.558594 41.492188 C 5.585938 41.464844 5.601562 41.425781 5.601562 41.382812 Z M 1.800781 21.894531 L 1.640625 21.894531 L 1.640625 42.710938 C 1.640625 42.753906 1.660156 42.796875 1.6875 42.824219 C 1.71875 42.855469 1.757812 42.871094 1.800781 42.871094 L 6.109375 42.871094 C 6.148438 42.871094 6.191406 42.855469 6.21875 42.824219 C 6.25 42.796875 6.265625 42.753906 6.265625 42.710938 L 6.265625 19.246094 C 6.265625 19.191406 6.234375 19.136719 6.183594 19.109375 C 6.136719 19.082031 6.074219 19.082031 6.023438 19.113281 L 1.71875 21.757812 C 1.671875 21.789062 1.640625 21.839844 1.640625 21.894531 L 1.800781 21.894531 L 1.882812 22.027344 L 5.949219 19.53125 L 5.949219 42.554688 L 1.957031 42.554688 L 1.957031 21.894531 L 1.800781 21.894531 L 1.882812 22.027344 L 1.800781 21.894531 " fill-opacity="1" fill-rule="nonzero"/></g></svg>