<svg xmlns="http://www.w3.org/2000/svg" xmlns:xlink="http://www.w3.org/1999/xlink" width="72" zoomAndPan="magnify" viewBox="0 0 54 54" height="72" preserveAspectRatio="xMidYMid meet" version="1.0"><defs><clipPath id="fe5167427a"><path d="M 5.792969 5.300781 L 48.5 5.300781 L 48.5 48.011719 L 5.792969 48.011719 Z M 5.792969 5.300781 " clip-rule="nonzero"/></clipPath><clipPath id="2fa8c24c72"><path d="M 11.78125 11.292969 L 41.972656 11.292969 L 41.972656 41.480469 L 11.78125 41.480469 Z M 11.78125 11.292969 " clip-rule="nonzero"/></clipPath><clipPath id="d1b8497250"><path d="M 16 33 L 38 33 L 38 39.390625 L 16 39.390625 Z M 16 33 " clip-rule="nonzero"/></clipPath><clipPath id="541c975c19"><path d="M 22 13.617188 L 25 13.617188 L 25 18 L 22 18 Z M 22 13.617188 " clip-rule="nonzero"/></clipPath><clipPath id="0f98e8ff39"><path d="M 37 27 L 40.800781 27 L 40.800781 31 L 37 31 Z M 37 27 " clip-rule="nonzero"/></clipPath></defs><path fill="#0032a0" d="M 38.554688 34.097656 L 15.738281 34.097656 C 15.121094 34.097656 14.621094 33.5625 14.621094 32.90625 L 14.621094 20.40625 C 14.621094 19.75 15.121094 19.214844 15.738281 19.214844 L 38.554688 19.214844 C 39.171875 19.214844 39.675781 19.75 39.675781 20.40625 L 39.675781 32.90625 C 39.675781 33.5625 39.171875 34.097656 38.554688 34.097656 Z M 15.738281 19.785156 C 15.433594 19.785156 15.1875 20.0625 15.1875 20.40625 L 15.1875 32.90625 C 15.1875 33.25 15.433594 33.527344 15.738281 33.527344 L 38.554688 33.527344 C 38.859375 33.527344 39.105469 33.25 39.105469 32.90625 L 39.105469 20.40625 C 39.105469 20.0625 38.859375 19.785156 38.554688 19.785156 Z M 15.738281 19.785156 " fill-opacity="1" fill-rule="nonzero"/><path fill="#0032a0" d="M 23.734375 29.5625 L 16.429688 29.5625 C 16.269531 29.5625 16.144531 29.433594 16.144531 29.277344 C 16.144531 29.117188 16.269531 28.992188 16.429688 28.992188 L 23.734375 28.992188 C 23.890625 28.992188 24.019531 29.117188 24.019531 29.277344 C 24.019531 29.433594 23.890625 29.5625 23.734375 29.5625 Z M 23.734375 29.5625 " fill-opacity="1" fill-rule="nonzero"/><path fill="#0032a0" d="M 23.734375 30.882812 L 16.429688 30.882812 C 16.269531 30.882812 16.144531 30.753906 16.144531 30.597656 C 16.144531 30.441406 16.269531 30.3125 16.429688 30.3125 L 23.734375 30.3125 C 23.890625 30.3125 24.019531 30.441406 24.019531 30.597656 C 24.019531 30.753906 23.890625 30.882812 23.734375 30.882812 Z M 23.734375 30.882812 " fill-opacity="1" fill-rule="nonzero"/><path fill="#0032a0" d="M 23.734375 32.207031 L 16.429688 32.207031 C 16.269531 32.207031 16.144531 32.078125 16.144531 31.921875 C 16.144531 31.761719 16.269531 31.636719 16.429688 31.636719 L 23.734375 31.636719 C 23.890625 31.636719 24.019531 31.761719 24.019531 31.921875 C 24.019531 32.078125 23.890625 32.207031 23.734375 32.207031 Z M 23.734375 32.207031 " fill-opacity="1" fill-rule="nonzero"/><path fill="#0032a0" d="M 23.6875 27.503906 L 16.476562 27.503906 C 16.320312 27.503906 16.191406 27.375 16.191406 27.21875 L 16.191406 21.1875 C 16.191406 21.03125 16.316406 20.902344 16.476562 20.902344 L 23.6875 20.902344 C 23.84375 20.902344 23.972656 21.03125 23.972656 21.1875 L 23.972656 27.21875 C 23.972656 27.375 23.84375 27.503906 23.6875 27.503906 Z M 16.761719 26.933594 L 23.402344 26.933594 L 23.402344 21.472656 L 16.761719 21.472656 Z M 16.761719 26.933594 " fill-opacity="1" fill-rule="nonzero"/><path fill="#0032a0" d="M 20.082031 25.765625 C 19.019531 25.765625 18.152344 24.902344 18.152344 23.839844 C 18.152344 22.777344 19.019531 21.914062 20.082031 21.914062 C 21.144531 21.914062 22.007812 22.777344 22.007812 23.839844 C 22.007812 24.902344 21.144531 25.765625 20.082031 25.765625 Z M 20.082031 22.480469 C 19.332031 22.480469 18.722656 23.089844 18.722656 23.839844 C 18.722656 24.589844 19.332031 25.199219 20.082031 25.199219 C 20.828125 25.199219 21.4375 24.589844 21.4375 23.839844 C 21.4375 23.089844 20.828125 22.480469 20.082031 22.480469 Z M 20.082031 22.480469 " fill-opacity="1" fill-rule="nonzero"/><path fill="#0032a0" d="M 22.757812 27.503906 C 22.621094 27.503906 22.5 27.402344 22.476562 27.257812 C 22.355469 26.429688 21.308594 25.773438 20.097656 25.765625 L 20.066406 25.765625 C 18.855469 25.773438 17.808594 26.429688 17.6875 27.257812 C 17.664062 27.414062 17.519531 27.523438 17.363281 27.5 C 17.207031 27.476562 17.097656 27.332031 17.121094 27.175781 C 17.289062 26.054688 18.550781 25.203125 20.0625 25.195312 L 20.097656 25.195312 C 21.609375 25.203125 22.875 26.054688 23.039062 27.175781 C 23.0625 27.332031 22.957031 27.476562 22.800781 27.5 C 22.785156 27.5 22.773438 27.503906 22.757812 27.503906 Z M 22.757812 27.503906 " fill-opacity="1" fill-rule="nonzero"/><path fill="#0032a0" d="M 37.867188 27.503906 L 26.222656 27.503906 C 26.066406 27.503906 25.9375 27.375 25.9375 27.21875 C 25.9375 27.058594 26.066406 26.933594 26.222656 26.933594 L 37.867188 26.933594 C 38.023438 26.933594 38.152344 27.058594 38.152344 27.21875 C 38.152344 27.375 38.023438 27.503906 37.867188 27.503906 Z M 37.867188 27.503906 " fill-opacity="1" fill-rule="nonzero"/><path fill="#0032a0" d="M 37.867188 25.765625 L 26.222656 25.765625 C 26.066406 25.765625 25.9375 25.640625 25.9375 25.480469 C 25.9375 25.324219 26.066406 25.195312 26.222656 25.195312 L 37.867188 25.195312 C 38.023438 25.195312 38.152344 25.324219 38.152344 25.480469 C 38.152344 25.640625 38.023438 25.765625 37.867188 25.765625 Z M 37.867188 25.765625 " fill-opacity="1" fill-rule="nonzero"/><path fill="#0032a0" d="M 37.867188 24.113281 L 26.222656 24.113281 C 26.066406 24.113281 25.9375 23.988281 25.9375 23.828125 L 25.9375 21.1875 C 25.9375 21.03125 26.066406 20.902344 26.222656 20.902344 L 37.867188 20.902344 C 38.023438 20.902344 38.152344 21.03125 38.152344 21.1875 L 38.152344 23.828125 C 38.152344 23.988281 38.023438 24.113281 37.867188 24.113281 Z M 26.507812 23.542969 L 37.582031 23.542969 L 37.582031 21.472656 L 26.507812 21.472656 Z M 26.507812 23.542969 " fill-opacity="1" fill-rule="nonzero"/><path fill="#0032a0" d="M 28.128906 31.132812 C 28.082031 31.253906 28.039062 31.375 28.003906 31.496094 C 27.964844 31.363281 27.921875 31.238281 27.878906 31.132812 L 26.996094 28.667969 L 26.398438 28.667969 L 27.738281 32.125 L 28.265625 32.125 L 29.621094 28.667969 L 29.046875 28.667969 Z M 28.128906 31.132812 " fill-opacity="1" fill-rule="nonzero"/><path fill="#0032a0" d="M 30.109375 28.667969 L 30.667969 28.667969 L 30.667969 32.125 L 30.109375 32.125 Z M 30.109375 28.667969 " fill-opacity="1" fill-rule="nonzero"/><path fill="#0032a0" d="M 33.460938 30.230469 C 33.285156 30.164062 33.054688 30.101562 32.777344 30.039062 C 32.472656 29.972656 32.269531 29.902344 32.164062 29.835938 C 32.070312 29.777344 32.023438 29.6875 32.023438 29.5625 C 32.023438 29.421875 32.085938 29.316406 32.210938 29.242188 C 32.34375 29.160156 32.519531 29.121094 32.738281 29.121094 C 32.976562 29.121094 33.160156 29.171875 33.285156 29.269531 C 33.40625 29.367188 33.476562 29.511719 33.492188 29.710938 L 33.496094 29.765625 L 34.03125 29.722656 L 34.03125 29.667969 C 34.015625 29.332031 33.886719 29.066406 33.648438 28.882812 C 33.414062 28.703125 33.101562 28.609375 32.71875 28.609375 C 32.34375 28.609375 32.042969 28.703125 31.824219 28.886719 C 31.605469 29.070312 31.492188 29.308594 31.492188 29.59375 C 31.492188 29.84375 31.582031 30.050781 31.757812 30.210938 C 31.929688 30.363281 32.214844 30.484375 32.597656 30.566406 C 32.96875 30.648438 33.230469 30.726562 33.386719 30.808594 C 33.527344 30.882812 33.597656 30.996094 33.597656 31.15625 C 33.597656 31.3125 33.527344 31.433594 33.390625 31.523438 C 33.25 31.621094 33.058594 31.667969 32.824219 31.667969 C 32.570312 31.667969 32.355469 31.609375 32.175781 31.492188 C 32.003906 31.378906 31.910156 31.203125 31.894531 30.953125 L 31.890625 30.894531 L 31.359375 30.941406 L 31.359375 30.996094 C 31.375 31.34375 31.507812 31.632812 31.75 31.851562 C 31.992188 32.070312 32.359375 32.179688 32.84375 32.179688 C 33.222656 32.179688 33.535156 32.082031 33.773438 31.882812 C 34.015625 31.683594 34.136719 31.425781 34.136719 31.121094 C 34.136719 30.882812 34.070312 30.6875 33.933594 30.542969 C 33.804688 30.402344 33.644531 30.296875 33.460938 30.230469 Z M 33.460938 30.230469 " fill-opacity="1" fill-rule="nonzero"/><path fill="#0032a0" d="M 36.285156 28.667969 L 35.730469 28.667969 L 34.402344 32.125 L 34.992188 32.125 L 35.363281 31.105469 L 36.679688 31.105469 L 37.070312 32.125 L 37.695312 32.125 Z M 36.003906 29.289062 C 36.027344 29.367188 36.046875 29.429688 36.066406 29.484375 C 36.101562 29.582031 36.242188 29.960938 36.5 30.640625 L 35.53125 30.640625 L 35.875 29.71875 C 35.925781 29.585938 35.96875 29.441406 36.003906 29.289062 Z M 36.003906 29.289062 " fill-opacity="1" fill-rule="nonzero"/><g clip-path="url(#fe5167427a)"><path fill="#0032a0" d="M 27.148438 48.011719 C 24.265625 48.011719 21.46875 47.445312 18.835938 46.332031 C 16.292969 45.257812 14.007812 43.71875 12.046875 41.757812 C 10.085938 39.796875 8.546875 37.511719 7.46875 34.96875 C 6.359375 32.335938 5.792969 29.539062 5.792969 26.65625 C 5.792969 23.773438 6.359375 20.976562 7.46875 18.34375 C 8.546875 15.800781 10.085938 13.515625 12.046875 11.554688 C 14.007812 9.59375 16.292969 8.054688 18.835938 6.980469 C 21.46875 5.867188 24.265625 5.300781 27.148438 5.300781 C 30.03125 5.300781 32.828125 5.867188 35.460938 6.980469 C 38.003906 8.054688 40.285156 9.59375 42.246094 11.554688 C 44.210938 13.515625 45.75 15.800781 46.824219 18.34375 C 47.9375 20.976562 48.5 23.773438 48.5 26.65625 C 48.5 29.539062 47.9375 32.335938 46.824219 34.96875 C 45.75 37.511719 44.210938 39.796875 42.246094 41.757812 C 40.285156 43.71875 38.003906 45.257812 35.460938 46.332031 C 32.828125 47.445312 30.03125 48.011719 27.148438 48.011719 Z M 27.148438 5.863281 C 15.683594 5.863281 6.355469 15.191406 6.355469 26.65625 C 6.355469 38.121094 15.683594 47.449219 27.148438 47.449219 C 38.613281 47.449219 47.941406 38.121094 47.941406 26.65625 C 47.941406 15.191406 38.613281 5.863281 27.148438 5.863281 Z M 27.148438 5.863281 " fill-opacity="1" fill-rule="nonzero"/></g><g clip-path="url(#2fa8c24c72)"><path fill="#ffffff" d="M 26.878906 11.292969 C 18.539062 11.292969 11.78125 18.050781 11.78125 26.386719 C 11.78125 34.722656 18.539062 41.480469 26.878906 41.480469 C 35.214844 41.480469 41.972656 34.722656 41.972656 26.386719 C 41.972656 18.050781 35.214844 11.292969 26.878906 11.292969 " fill-opacity="1" fill-rule="nonzero"/></g><path fill="#0032a0" d="M 38.65625 30.003906 C 38.636719 30.003906 38.613281 30 38.59375 29.996094 C 38.519531 29.976562 38.460938 29.9375 38.421875 29.875 C 38.378906 29.808594 38.371094 29.742188 38.386719 29.667969 C 38.570312 28.878906 38.675781 28.082031 38.695312 27.273438 C 38.714844 26.464844 38.652344 25.664062 38.503906 24.871094 C 38.359375 24.074219 38.132812 23.300781 37.824219 22.554688 C 37.519531 21.804688 37.140625 21.09375 36.6875 20.417969 C 36.234375 19.746094 35.714844 19.125 35.132812 18.558594 C 34.550781 17.988281 33.917969 17.484375 33.230469 17.042969 C 32.542969 16.601562 31.820312 16.234375 31.058594 15.941406 C 30.296875 15.644531 29.511719 15.429688 28.703125 15.296875 C 28.628906 15.28125 28.566406 15.246094 28.523438 15.183594 C 28.480469 15.121094 28.464844 15.054688 28.476562 14.980469 C 28.488281 14.90625 28.527344 14.847656 28.589844 14.800781 C 28.652344 14.757812 28.71875 14.742188 28.796875 14.753906 C 29.640625 14.898438 30.460938 15.121094 31.257812 15.429688 C 32.058594 15.738281 32.816406 16.125 33.53125 16.585938 C 34.25 17.042969 34.914062 17.574219 35.523438 18.167969 C 36.132812 18.761719 36.675781 19.410156 37.148438 20.117188 C 37.625 20.820312 38.019531 21.5625 38.339844 22.347656 C 38.660156 23.132812 38.898438 23.941406 39.050781 24.773438 C 39.203125 25.605469 39.269531 26.441406 39.246094 27.289062 C 39.226562 28.132812 39.121094 28.96875 38.925781 29.789062 C 38.894531 29.933594 38.804688 30.003906 38.65625 30.003906 Z M 38.65625 30.003906 " fill-opacity="1" fill-rule="nonzero"/><path fill="#0032a0" d="M 14.714844 30.003906 C 14.570312 30.003906 14.480469 29.933594 14.445312 29.789062 C 14.253906 28.96875 14.144531 28.132812 14.125 27.289062 C 14.105469 26.441406 14.167969 25.605469 14.324219 24.773438 C 14.476562 23.941406 14.710938 23.132812 15.03125 22.347656 C 15.351562 21.5625 15.75 20.820312 16.222656 20.117188 C 16.699219 19.410156 17.238281 18.761719 17.847656 18.167969 C 18.457031 17.574219 19.121094 17.046875 19.839844 16.585938 C 20.558594 16.125 21.316406 15.738281 22.113281 15.429688 C 22.910156 15.125 23.734375 14.898438 24.578125 14.753906 C 24.652344 14.742188 24.722656 14.757812 24.785156 14.800781 C 24.847656 14.847656 24.882812 14.90625 24.894531 14.980469 C 24.910156 15.054688 24.894531 15.121094 24.847656 15.183594 C 24.804688 15.246094 24.746094 15.28125 24.667969 15.296875 C 23.863281 15.429688 23.078125 15.644531 22.3125 15.941406 C 21.550781 16.234375 20.828125 16.601562 20.140625 17.042969 C 19.453125 17.484375 18.820312 17.988281 18.238281 18.558594 C 17.65625 19.125 17.136719 19.746094 16.683594 20.417969 C 16.230469 21.09375 15.851562 21.804688 15.546875 22.550781 C 15.238281 23.300781 15.011719 24.074219 14.867188 24.871094 C 14.722656 25.664062 14.65625 26.464844 14.679688 27.273438 C 14.699219 28.082031 14.800781 28.878906 14.984375 29.667969 C 15.003906 29.742188 14.992188 29.808594 14.949219 29.875 C 14.910156 29.9375 14.851562 29.976562 14.777344 29.996094 C 14.757812 30 14.738281 30.003906 14.714844 30.003906 Z M 14.714844 30.003906 " fill-opacity="1" fill-rule="nonzero"/><g clip-path="url(#d1b8497250)"><path fill="#0032a0" d="M 26.683594 39.382812 C 25.625 39.386719 24.585938 39.257812 23.558594 39 C 22.535156 38.738281 21.558594 38.359375 20.628906 37.855469 C 19.703125 37.351562 18.851562 36.742188 18.082031 36.027344 C 17.3125 35.3125 16.644531 34.511719 16.078125 33.628906 C 16.039062 33.566406 16.027344 33.496094 16.046875 33.425781 C 16.0625 33.351562 16.101562 33.296875 16.167969 33.253906 C 16.230469 33.214844 16.296875 33.203125 16.371094 33.21875 C 16.445312 33.234375 16.503906 33.273438 16.546875 33.335938 C 16.816406 33.753906 17.109375 34.15625 17.433594 34.539062 C 17.753906 34.921875 18.097656 35.285156 18.464844 35.625 C 18.832031 35.964844 19.21875 36.28125 19.625 36.574219 C 20.035156 36.867188 20.457031 37.132812 20.898438 37.371094 C 21.339844 37.609375 21.796875 37.820312 22.265625 38.003906 C 22.734375 38.1875 23.210938 38.339844 23.699219 38.464844 C 24.1875 38.589844 24.679688 38.679688 25.179688 38.742188 C 25.679688 38.804688 26.183594 38.835938 26.6875 38.835938 C 27.191406 38.835938 27.691406 38.804688 28.191406 38.742188 C 28.691406 38.679688 29.183594 38.589844 29.671875 38.464844 C 30.160156 38.339844 30.640625 38.1875 31.105469 38.003906 C 31.574219 37.820312 32.03125 37.609375 32.472656 37.371094 C 32.914062 37.132812 33.335938 36.867188 33.746094 36.574219 C 34.152344 36.28125 34.539062 35.964844 34.90625 35.625 C 35.273438 35.285156 35.617188 34.921875 35.941406 34.539062 C 36.261719 34.15625 36.558594 33.753906 36.828125 33.335938 C 36.867188 33.273438 36.925781 33.234375 37 33.21875 C 37.074219 33.203125 37.140625 33.214844 37.207031 33.253906 C 37.269531 33.296875 37.308594 33.351562 37.328125 33.425781 C 37.34375 33.496094 37.332031 33.566406 37.292969 33.628906 C 36.730469 34.511719 36.0625 35.3125 35.289062 36.027344 C 34.519531 36.742188 33.667969 37.351562 32.742188 37.855469 C 31.8125 38.359375 30.835938 38.742188 29.8125 39 C 28.785156 39.257812 27.742188 39.386719 26.683594 39.382812 Z M 26.683594 39.382812 " fill-opacity="1" fill-rule="nonzero"/></g><g clip-path="url(#541c975c19)"><path fill="#0032a0" d="M 23.542969 17.035156 C 23.433594 17.035156 23.351562 16.988281 23.300781 16.894531 C 23.246094 16.800781 23.25 16.707031 23.308594 16.617188 L 24.273438 15.113281 L 22.75 14.160156 C 22.6875 14.117188 22.644531 14.0625 22.628906 13.988281 C 22.613281 13.914062 22.625 13.84375 22.664062 13.78125 C 22.707031 13.71875 22.765625 13.675781 22.839844 13.660156 C 22.914062 13.644531 22.984375 13.65625 23.046875 13.695312 L 24.804688 14.796875 C 24.871094 14.835938 24.910156 14.894531 24.929688 14.96875 C 24.945312 15.042969 24.933594 15.109375 24.890625 15.175781 L 23.777344 16.910156 C 23.722656 16.992188 23.644531 17.035156 23.542969 17.035156 Z M 23.542969 17.035156 " fill-opacity="1" fill-rule="nonzero"/></g><g clip-path="url(#0f98e8ff39)"><path fill="#0032a0" d="M 38.65625 30.011719 C 38.636719 30.011719 38.613281 30.011719 38.59375 30.003906 C 38.519531 29.988281 38.460938 29.945312 38.421875 29.882812 L 37.328125 28.132812 C 37.285156 28.070312 37.269531 28 37.285156 27.921875 C 37.300781 27.84375 37.34375 27.785156 37.410156 27.746094 C 37.480469 27.703125 37.550781 27.695312 37.628906 27.714844 C 37.703125 27.734375 37.761719 27.777344 37.800781 27.847656 L 38.746094 29.363281 L 40.28125 28.425781 C 40.347656 28.382812 40.417969 28.371094 40.496094 28.386719 C 40.574219 28.402344 40.632812 28.441406 40.671875 28.507812 C 40.714844 28.574219 40.726562 28.644531 40.707031 28.722656 C 40.6875 28.796875 40.640625 28.855469 40.574219 28.890625 L 38.800781 29.96875 C 38.757812 29.996094 38.707031 30.011719 38.65625 30.011719 Z M 38.65625 30.011719 " fill-opacity="1" fill-rule="nonzero"/></g><path fill="#0032a0" d="M 15.832031 35.753906 C 15.808594 35.753906 15.789062 35.75 15.765625 35.746094 C 15.691406 35.726562 15.636719 35.6875 15.59375 35.625 C 15.554688 35.558594 15.542969 35.492188 15.558594 35.417969 L 16.042969 33.417969 C 16.058594 33.34375 16.101562 33.289062 16.164062 33.25 C 16.230469 33.210938 16.300781 33.199219 16.375 33.214844 L 18.398438 33.691406 C 18.476562 33.707031 18.535156 33.746094 18.574219 33.8125 C 18.617188 33.878906 18.628906 33.945312 18.609375 34.023438 C 18.59375 34.097656 18.550781 34.152344 18.484375 34.191406 C 18.417969 34.230469 18.34375 34.242188 18.269531 34.222656 L 16.515625 33.808594 L 16.101562 35.542969 C 16.066406 35.683594 15.976562 35.753906 15.832031 35.753906 Z M 15.832031 35.753906 " fill-opacity="1" fill-rule="nonzero"/><path fill="#0032a0" d="M 26.695312 35.003906 C 26.148438 35.003906 25.609375 34.953125 25.070312 34.847656 C 24.535156 34.742188 24.015625 34.585938 23.511719 34.378906 C 23.007812 34.171875 22.527344 33.921875 22.074219 33.621094 C 21.617188 33.320312 21.199219 32.980469 20.8125 32.597656 C 20.425781 32.21875 20.082031 31.804688 19.777344 31.355469 C 19.472656 30.90625 19.21875 30.433594 19.007812 29.933594 C 18.800781 29.4375 18.640625 28.921875 18.535156 28.394531 C 18.429688 27.867188 18.375 27.332031 18.375 26.792969 C 18.375 26.253906 18.429688 25.71875 18.535156 25.191406 C 18.640625 24.660156 18.800781 24.148438 19.007812 23.648438 C 19.21875 23.152344 19.472656 22.675781 19.777344 22.230469 C 20.082031 21.78125 20.425781 21.367188 20.8125 20.984375 C 21.199219 20.601562 21.621094 20.261719 22.074219 19.964844 C 22.527344 19.664062 23.007812 19.410156 23.511719 19.203125 C 24.015625 19 24.539062 18.84375 25.074219 18.738281 C 25.609375 18.632812 26.152344 18.578125 26.695312 18.578125 C 27.242188 18.578125 27.785156 18.632812 28.320312 18.738281 C 28.855469 18.84375 29.375 19 29.882812 19.203125 C 30.386719 19.410156 30.867188 19.664062 31.320312 19.964844 C 31.773438 20.261719 32.195312 20.605469 32.582031 20.984375 C 32.96875 21.367188 33.3125 21.78125 33.617188 22.230469 C 33.921875 22.679688 34.175781 23.152344 34.386719 23.648438 C 34.59375 24.148438 34.753906 24.664062 34.859375 25.191406 C 34.964844 25.71875 35.019531 26.253906 35.019531 26.792969 C 35.019531 27.332031 34.964844 27.867188 34.855469 28.394531 C 34.75 28.925781 34.59375 29.4375 34.382812 29.9375 C 34.171875 30.433594 33.917969 30.90625 33.613281 31.355469 C 33.308594 31.804688 32.964844 32.21875 32.578125 32.597656 C 32.191406 32.980469 31.769531 33.320312 31.316406 33.621094 C 30.863281 33.917969 30.382812 34.171875 29.878906 34.378906 C 29.375 34.585938 28.855469 34.742188 28.316406 34.847656 C 27.78125 34.953125 27.242188 35.003906 26.695312 35.003906 Z M 26.695312 19.125 C 26.183594 19.125 25.679688 19.175781 25.179688 19.273438 C 24.679688 19.371094 24.195312 19.515625 23.722656 19.710938 C 23.253906 19.902344 22.804688 20.136719 22.378906 20.417969 C 21.957031 20.699219 21.5625 21.015625 21.203125 21.371094 C 20.84375 21.726562 20.519531 22.113281 20.238281 22.535156 C 19.953125 22.953125 19.714844 23.394531 19.519531 23.859375 C 19.324219 24.324219 19.179688 24.804688 19.078125 25.296875 C 18.980469 25.789062 18.929688 26.289062 18.929688 26.792969 C 18.929688 27.296875 18.980469 27.792969 19.078125 28.289062 C 19.179688 28.78125 19.324219 29.261719 19.519531 29.726562 C 19.714844 30.191406 19.957031 30.632812 20.238281 31.050781 C 20.523438 31.46875 20.84375 31.855469 21.203125 32.214844 C 21.566406 32.570312 21.957031 32.886719 22.382812 33.167969 C 22.804688 33.445312 23.253906 33.683594 23.726562 33.875 C 24.195312 34.066406 24.679688 34.210938 25.183594 34.3125 C 25.683594 34.410156 26.1875 34.457031 26.695312 34.457031 C 27.207031 34.457031 27.710938 34.410156 28.210938 34.3125 C 28.710938 34.214844 29.199219 34.066406 29.667969 33.875 C 30.140625 33.683594 30.589844 33.445312 31.011719 33.167969 C 31.4375 32.886719 31.828125 32.570312 32.1875 32.214844 C 32.550781 31.859375 32.871094 31.472656 33.15625 31.050781 C 33.4375 30.632812 33.679688 30.191406 33.875 29.726562 C 34.066406 29.261719 34.214844 28.78125 34.316406 28.289062 C 34.414062 27.796875 34.464844 27.296875 34.464844 26.792969 C 34.464844 26.289062 34.414062 25.792969 34.316406 25.296875 C 34.214844 24.804688 34.066406 24.324219 33.871094 23.859375 C 33.675781 23.394531 33.4375 22.953125 33.152344 22.535156 C 32.871094 22.117188 32.546875 21.730469 32.1875 21.375 C 31.828125 21.019531 31.433594 20.699219 31.011719 20.421875 C 30.585938 20.140625 30.136719 19.90625 29.667969 19.710938 C 29.195312 19.519531 28.710938 19.375 28.210938 19.273438 C 27.710938 19.175781 27.207031 19.125 26.695312 19.125 Z M 26.695312 19.125 " fill-opacity="1" fill-rule="nonzero"/><path fill="#0032a0" d="M 26.695312 32.800781 C 26.296875 32.800781 25.898438 32.761719 25.507812 32.683594 C 25.117188 32.609375 24.734375 32.492188 24.367188 32.34375 C 23.996094 32.191406 23.644531 32.007812 23.3125 31.789062 C 22.980469 31.566406 22.671875 31.320312 22.390625 31.039062 C 22.109375 30.761719 21.855469 30.457031 21.632812 30.128906 C 21.410156 29.800781 21.222656 29.453125 21.070312 29.089844 C 20.917969 28.726562 20.804688 28.347656 20.726562 27.960938 C 20.648438 27.574219 20.609375 27.183594 20.609375 26.789062 C 20.609375 26.394531 20.648438 26.003906 20.726562 25.617188 C 20.804688 25.230469 20.917969 24.855469 21.074219 24.492188 C 21.226562 24.125 21.414062 23.78125 21.636719 23.453125 C 21.859375 23.125 22.109375 22.820312 22.394531 22.542969 C 22.675781 22.261719 22.984375 22.015625 23.316406 21.792969 C 23.648438 21.574219 24 21.390625 24.367188 21.238281 C 24.738281 21.089844 25.117188 20.976562 25.511719 20.898438 C 25.902344 20.820312 26.300781 20.78125 26.699219 20.78125 C 27.097656 20.785156 27.496094 20.820312 27.886719 20.898438 C 28.277344 20.976562 28.660156 21.089844 29.027344 21.242188 C 29.398438 21.390625 29.75 21.578125 30.082031 21.796875 C 30.414062 22.015625 30.722656 22.265625 31.003906 22.542969 C 31.285156 22.824219 31.539062 23.128906 31.761719 23.457031 C 31.984375 23.785156 32.171875 24.128906 32.324219 24.492188 C 32.476562 24.859375 32.589844 25.234375 32.667969 25.621094 C 32.746094 26.007812 32.785156 26.398438 32.785156 26.792969 C 32.785156 27.1875 32.746094 27.578125 32.667969 27.964844 C 32.589844 28.351562 32.472656 28.726562 32.320312 29.09375 C 32.167969 29.457031 31.980469 29.804688 31.757812 30.132812 C 31.535156 30.457031 31.28125 30.761719 31 31.042969 C 30.71875 31.320312 30.410156 31.570312 30.078125 31.789062 C 29.746094 32.007812 29.394531 32.191406 29.023438 32.34375 C 28.65625 32.496094 28.273438 32.609375 27.882812 32.683594 C 27.492188 32.761719 27.09375 32.800781 26.695312 32.800781 Z M 26.695312 21.328125 C 26.332031 21.328125 25.972656 21.363281 25.617188 21.433594 C 25.257812 21.503906 24.914062 21.609375 24.578125 21.746094 C 24.242188 21.882812 23.921875 22.050781 23.621094 22.25 C 23.320312 22.449219 23.039062 22.675781 22.78125 22.929688 C 22.527344 23.183594 22.296875 23.460938 22.09375 23.757812 C 21.894531 24.054688 21.722656 24.371094 21.582031 24.703125 C 21.445312 25.035156 21.339844 25.375 21.269531 25.726562 C 21.199219 26.078125 21.164062 26.433594 21.164062 26.792969 C 21.164062 27.152344 21.199219 27.507812 21.269531 27.859375 C 21.339844 28.210938 21.445312 28.550781 21.582031 28.882812 C 21.722656 29.214844 21.894531 29.527344 22.09375 29.828125 C 22.296875 30.125 22.527344 30.402344 22.785156 30.65625 C 23.039062 30.90625 23.320312 31.132812 23.621094 31.332031 C 23.925781 31.53125 24.242188 31.703125 24.578125 31.839844 C 24.914062 31.976562 25.261719 32.078125 25.617188 32.148438 C 25.972656 32.21875 26.332031 32.253906 26.695312 32.253906 C 27.058594 32.253906 27.421875 32.21875 27.777344 32.148438 C 28.132812 32.078125 28.480469 31.976562 28.816406 31.839844 C 29.148438 31.703125 29.46875 31.535156 29.769531 31.335938 C 30.074219 31.136719 30.351562 30.910156 30.609375 30.65625 C 30.867188 30.402344 31.097656 30.125 31.296875 29.828125 C 31.5 29.53125 31.671875 29.214844 31.808594 28.882812 C 31.949219 28.550781 32.054688 28.210938 32.125 27.859375 C 32.195312 27.507812 32.230469 27.152344 32.230469 26.792969 C 32.230469 26.433594 32.195312 26.078125 32.125 25.726562 C 32.054688 25.375 31.949219 25.035156 31.808594 24.703125 C 31.667969 24.371094 31.5 24.058594 31.296875 23.757812 C 31.09375 23.460938 30.867188 23.183594 30.609375 22.929688 C 30.351562 22.675781 30.070312 22.453125 29.769531 22.25 C 29.46875 22.050781 29.148438 21.882812 28.8125 21.746094 C 28.476562 21.609375 28.132812 21.503906 27.773438 21.433594 C 27.417969 21.367188 27.058594 21.332031 26.695312 21.328125 Z M 26.695312 21.328125 " fill-opacity="1" fill-rule="nonzero"/><path fill="#0032a0" d="M 28.695312 28.996094 C 28.515625 29.253906 28.285156 29.445312 28 29.578125 C 27.667969 29.730469 27.320312 29.8125 26.953125 29.828125 L 26.953125 30.429688 C 26.957031 30.5 26.933594 30.558594 26.882812 30.609375 C 26.757812 30.71875 26.628906 30.722656 26.503906 30.613281 C 26.453125 30.5625 26.425781 30.5 26.429688 30.429688 L 26.429688 29.824219 C 25.828125 29.789062 25.25 29.65625 24.695312 29.425781 C 24.625 29.398438 24.566406 29.351562 24.523438 29.289062 C 24.40625 29.128906 24.417969 28.972656 24.554688 28.828125 C 24.621094 28.757812 24.707031 28.722656 24.808594 28.722656 C 24.863281 28.722656 24.917969 28.734375 24.96875 28.757812 C 25.4375 28.960938 25.921875 29.074219 26.429688 29.097656 L 26.429688 27.148438 C 26.09375 27.0625 25.765625 26.953125 25.445312 26.816406 C 25.183594 26.703125 24.960938 26.535156 24.78125 26.3125 C 24.59375 26.070312 24.503906 25.792969 24.515625 25.488281 C 24.511719 25.195312 24.585938 24.925781 24.734375 24.671875 C 24.894531 24.40625 25.113281 24.203125 25.386719 24.054688 C 25.714844 23.878906 26.0625 23.78125 26.429688 23.757812 L 26.429688 23.164062 C 26.429688 23.09375 26.453125 23.03125 26.503906 22.976562 C 26.554688 22.925781 26.617188 22.898438 26.6875 22.902344 C 26.761719 22.902344 26.824219 22.925781 26.878906 22.976562 C 26.929688 23.027344 26.957031 23.089844 26.953125 23.164062 L 26.953125 23.75 C 27.46875 23.761719 27.964844 23.855469 28.449219 24.027344 C 28.621094 24.078125 28.703125 24.191406 28.691406 24.367188 C 28.691406 24.460938 28.660156 24.542969 28.597656 24.613281 C 28.53125 24.691406 28.449219 24.726562 28.347656 24.722656 C 28.300781 24.71875 28.253906 24.707031 28.210938 24.6875 C 27.804688 24.550781 27.386719 24.472656 26.953125 24.460938 L 26.953125 26.476562 C 27.304688 26.554688 27.648438 26.660156 27.980469 26.792969 C 28.253906 26.902344 28.480469 27.070312 28.664062 27.296875 C 28.863281 27.558594 28.953125 27.855469 28.9375 28.183594 C 28.941406 28.476562 28.859375 28.75 28.695312 28.996094 Z M 25.585938 26.003906 C 25.847656 26.167969 26.128906 26.285156 26.429688 26.351562 L 26.429688 24.488281 C 26.128906 24.515625 25.851562 24.617188 25.605469 24.796875 C 25.394531 24.957031 25.289062 25.164062 25.296875 25.429688 C 25.285156 25.671875 25.382812 25.863281 25.585938 26.003906 Z M 28.164062 28.132812 C 28.167969 27.898438 28.066406 27.726562 27.859375 27.617188 C 27.574219 27.464844 27.273438 27.351562 26.953125 27.273438 L 26.953125 29.097656 C 27.761719 29.042969 28.167969 28.71875 28.164062 28.132812 Z M 28.164062 28.132812 " fill-opacity="1" fill-rule="nonzero"/></svg>