<svg xmlns="http://www.w3.org/2000/svg" xmlns:xlink="http://www.w3.org/1999/xlink" width="90" zoomAndPan="magnify" viewBox="0 0 67.5 67.499996" height="90" preserveAspectRatio="xMidYMid meet" version="1.0"><defs><clipPath id="1ffcd90c65"><path d="M 0 0 L 67.003906 0 L 67.003906 67.003906 L 0 67.003906 Z M 0 0 " clip-rule="nonzero"/></clipPath><clipPath id="66a4c511f1"><path d="M 26 6.75 L 43 6.75 L 43 19 L 26 19 Z M 26 6.75 " clip-rule="nonzero"/></clipPath><clipPath id="b5910bba03"><path d="M 6.75 26 L 60.75 26 L 60.75 60.75 L 6.75 60.75 Z M 6.75 26 " clip-rule="nonzero"/></clipPath></defs><g clip-path="url(#1ffcd90c65)"><path fill="#ffffff" d="M 0 0 L 67.5 0 L 67.5 292.5 L 0 292.5 Z M 0 0 " fill-opacity="1" fill-rule="nonzero"/><path fill="#ffffff" d="M 0 0 L 67.5 0 L 67.5 67.5 L 0 67.5 Z M 0 0 " fill-opacity="1" fill-rule="nonzero"/><path fill="#f6f6f6" d="M 0 0 L 67.5 0 L 67.5 67.5 L 0 67.5 Z M 0 0 " fill-opacity="1" fill-rule="nonzero"/></g><path fill="#00259e" d="M 19.933594 17.070312 C 16.5625 17.914062 14.5 21.367188 15.34375 24.734375 C 15.765625 26.378906 16.773438 27.769531 18.25 28.609375 C 19.261719 29.199219 20.355469 29.496094 21.449219 29.496094 C 21.957031 29.496094 22.503906 29.410156 23.007812 29.285156 C 24.273438 28.949219 25.410156 28.273438 26.253906 27.261719 C 26.503906 26.96875 26.503906 26.503906 26.253906 26.167969 C 26.125 26.042969 25.957031 25.914062 25.789062 25.875 C 25.703125 25.875 25.03125 25.703125 24.355469 25.285156 C 25.496094 25.324219 26.757812 25.15625 27.515625 24.316406 C 27.640625 24.1875 27.769531 23.976562 27.769531 23.765625 C 27.851562 23.007812 27.769531 22.292969 27.601562 21.578125 C 27.179688 19.933594 26.167969 18.542969 24.695312 17.703125 C 23.261719 16.902344 21.578125 16.648438 19.933594 17.070312 Z M 26 22.039062 C 26.125 22.460938 26.167969 22.882812 26.125 23.347656 C 25.285156 23.894531 23.304688 23.554688 22.417969 23.304688 C 22.125 23.21875 21.789062 23.304688 21.578125 23.554688 C 21.367188 23.765625 21.28125 24.105469 21.410156 24.398438 C 21.914062 25.746094 23.09375 26.589844 24.0625 27.050781 C 23.640625 27.347656 23.175781 27.558594 22.628906 27.683594 C 21.449219 27.980469 20.1875 27.8125 19.132812 27.179688 C 18.082031 26.546875 17.324219 25.535156 17.027344 24.355469 C 16.394531 21.871094 17.914062 19.34375 20.398438 18.710938 C 20.777344 18.628906 21.15625 18.585938 21.535156 18.585938 C 23.554688 18.542969 25.453125 19.933594 26 22.039062 Z M 26 22.039062 " fill-opacity="1" fill-rule="nonzero"/><path fill="#00259e" d="M 45.921875 29.496094 C 49.417969 29.496094 52.242188 26.671875 52.242188 23.175781 C 52.242188 19.679688 49.417969 16.859375 45.921875 16.859375 C 42.425781 16.859375 39.605469 19.679688 39.605469 23.175781 C 39.605469 26.671875 42.425781 29.496094 45.921875 29.496094 Z M 45.921875 18.542969 C 48.492188 18.542969 50.554688 20.609375 50.554688 23.175781 C 50.554688 25.746094 48.492188 27.8125 45.921875 27.8125 C 43.355469 27.8125 41.289062 25.746094 41.289062 23.175781 C 41.289062 20.609375 43.355469 18.542969 45.921875 18.542969 Z M 45.921875 18.542969 " fill-opacity="1" fill-rule="nonzero"/><g clip-path="url(#66a4c511f1)"><path fill="#00259e" d="M 27.683594 18.753906 C 27.851562 18.882812 28.019531 18.964844 28.230469 18.964844 C 28.402344 18.964844 28.527344 18.921875 28.652344 18.839844 L 33.285156 16.058594 L 40.449219 16.058594 C 41.375 16.058594 42.132812 15.300781 42.132812 14.375 L 42.132812 8.476562 C 42.132812 7.550781 41.375 6.792969 40.449219 6.792969 L 28.652344 6.792969 C 27.726562 6.792969 26.96875 7.550781 26.96875 8.476562 L 26.96875 14.375 C 26.96875 15.175781 27.515625 15.804688 28.230469 16.015625 L 27.472656 17.785156 C 27.304688 18.121094 27.390625 18.5 27.683594 18.753906 Z M 28.652344 8.476562 L 40.449219 8.476562 L 40.449219 14.375 L 33.074219 14.375 C 32.90625 14.375 32.78125 14.417969 32.65625 14.5 L 30.042969 16.058594 L 30.253906 15.554688 C 30.378906 15.300781 30.339844 15.003906 30.167969 14.753906 C 30 14.5 29.75 14.375 29.453125 14.375 L 28.609375 14.375 L 28.609375 8.476562 Z M 28.652344 8.476562 " fill-opacity="1" fill-rule="nonzero"/></g><g clip-path="url(#b5910bba03)"><path fill="#00259e" d="M 58.011719 26.546875 C 56.789062 26.546875 55.609375 27.515625 55.402344 28.738281 L 53.800781 33.875 C 53.421875 32.105469 51.820312 30.757812 49.96875 30.757812 C 46.976562 30.757812 44.113281 31.9375 42.003906 34.085938 C 40.109375 36.023438 38.972656 38.550781 38.761719 41.289062 L 28.609375 41.289062 C 28.402344 38.59375 27.261719 36.023438 25.367188 34.085938 C 23.261719 31.9375 20.398438 30.757812 17.40625 30.757812 C 15.554688 30.757812 13.996094 32.105469 13.574219 33.875 C 13.574219 33.875 12.015625 28.78125 11.972656 28.738281 C 11.636719 27.515625 10.792969 26.546875 9.402344 26.546875 C 7.929688 26.546875 6.75 27.726562 6.75 29.199219 L 6.75 54.347656 C 6.75 54.8125 7.128906 55.191406 7.59375 55.191406 L 11.804688 55.191406 L 11.804688 58.980469 C 11.804688 58.980469 10.121094 58.980469 10.121094 58.980469 C 9.023438 58.980469 9.023438 60.664062 10.121094 60.664062 C 10.121094 60.664062 15.175781 60.664062 15.175781 60.664062 C 16.226562 60.664062 16.269531 58.980469 15.175781 58.980469 L 13.488281 58.980469 L 13.488281 55.191406 C 13.488281 55.191406 18.542969 55.191406 18.542969 55.191406 C 19.933594 55.191406 21.070312 54.050781 21.070312 52.664062 C 21.070312 52.367188 21.027344 52.074219 20.902344 51.820312 L 24.355469 51.820312 C 24.355469 51.820312 27.011719 59.316406 27.011719 59.359375 C 27.390625 60.371094 28.949219 59.824219 28.609375 58.8125 L 25.746094 50.683594 C 25.621094 50.347656 25.324219 50.136719 24.945312 50.136719 L 15.175781 50.136719 L 15.175781 34.71875 C 15.175781 33.496094 16.183594 32.445312 17.40625 32.445312 C 19.976562 32.445312 22.378906 33.457031 24.1875 35.308594 C 25.789062 36.910156 26.757812 39.058594 26.96875 41.332031 L 23.597656 41.332031 C 22.671875 41.332031 21.914062 42.089844 21.914062 43.015625 L 21.914062 45.542969 C 21.914062 46.472656 22.671875 47.230469 23.597656 47.230469 L 30.339844 47.230469 L 30.339844 59.023438 C 30.339844 59.949219 31.097656 60.707031 32.023438 60.707031 L 34.550781 60.707031 C 35.476562 60.707031 36.234375 59.949219 36.234375 59.023438 L 36.234375 47.1875 L 42.976562 47.1875 C 43.902344 47.1875 44.660156 46.429688 44.660156 45.5 L 44.660156 42.976562 C 44.660156 42.046875 43.902344 41.289062 42.976562 41.289062 L 40.488281 41.289062 C 40.699219 39.015625 41.667969 36.910156 43.269531 35.308594 C 45.082031 33.457031 47.480469 32.445312 50.050781 32.445312 C 51.230469 32.445312 52.285156 33.496094 52.285156 34.71875 L 52.285156 50.136719 L 42.46875 50.136719 C 42.132812 50.136719 41.796875 50.347656 41.667969 50.683594 C 41.667969 50.683594 38.847656 58.769531 38.847656 58.769531 C 38.507812 59.78125 40.109375 60.328125 40.449219 59.316406 L 43.101562 51.777344 C 43.101562 51.777344 46.554688 51.777344 46.554688 51.777344 C 46.175781 51.777344 46.511719 53.421875 46.640625 53.632812 C 47.019531 54.515625 47.988281 55.148438 48.957031 55.148438 C 48.957031 55.148438 54.011719 55.148438 54.011719 55.148438 L 54.011719 58.9375 L 52.324219 58.9375 C 51.863281 58.9375 51.484375 59.316406 51.484375 59.78125 C 51.484375 60.246094 51.863281 60.625 52.324219 60.625 L 57.378906 60.625 C 57.84375 60.625 58.222656 60.246094 58.222656 59.78125 C 58.222656 59.316406 57.84375 58.9375 57.378906 58.9375 L 55.695312 58.9375 L 55.695312 55.148438 L 59.90625 55.148438 C 60.371094 55.148438 60.75 54.769531 60.75 54.304688 L 60.75 29.199219 C 60.664062 27.726562 59.488281 26.546875 58.011719 26.546875 Z M 18.542969 51.820312 C 19.007812 51.820312 19.386719 52.199219 19.386719 52.664062 C 19.386719 52.875 19.300781 53.082031 19.132812 53.253906 C 18.964844 53.421875 18.753906 53.503906 18.542969 53.503906 L 8.433594 53.503906 L 8.433594 29.199219 C 8.433594 28.652344 8.855469 28.230469 9.402344 28.230469 C 9.867188 28.230469 10.289062 28.570312 10.371094 29.074219 C 10.371094 29.117188 10.371094 29.160156 10.414062 29.199219 L 13.488281 39.269531 L 13.488281 50.976562 C 13.488281 51.441406 13.867188 51.820312 14.332031 51.820312 Z M 42.976562 42.976562 L 42.976562 45.5 L 36.234375 45.5 C 35.308594 45.5 34.550781 46.261719 34.550781 47.1875 L 34.550781 58.980469 L 32.023438 58.980469 L 32.023438 47.1875 C 32.023438 46.261719 31.265625 45.5 30.339844 45.5 L 23.597656 45.5 L 23.597656 42.976562 Z M 58.980469 53.503906 L 48.871094 53.503906 C 48.660156 53.503906 48.449219 53.421875 48.28125 53.253906 C 48.113281 53.082031 48.027344 52.875 48.027344 52.664062 C 48.027344 52.199219 48.410156 51.820312 48.871094 51.820312 L 53.082031 51.820312 C 53.546875 51.820312 53.925781 51.441406 53.925781 50.976562 L 53.925781 39.269531 L 57.042969 29.199219 C 57.042969 29.160156 57.085938 29.117188 57.085938 29.074219 C 57.128906 28.863281 57.210938 28.652344 57.421875 28.484375 C 57.589844 28.316406 57.800781 28.230469 58.054688 28.230469 C 58.601562 28.230469 59.023438 28.652344 59.023438 29.199219 L 59.023438 53.503906 Z M 58.980469 53.503906 " fill-opacity="1" fill-rule="nonzero"/></g></svg>