<svg xmlns="http://www.w3.org/2000/svg" xmlns:xlink="http://www.w3.org/1999/xlink" width="90" zoomAndPan="magnify" viewBox="0 0 67.5 67.499996" height="90" preserveAspectRatio="xMidYMid meet" version="1.0"><defs><clipPath id="0750f784e3"><path d="M 0 0 L 67.003906 0 L 67.003906 67.003906 L 0 67.003906 Z M 0 0 " clip-rule="nonzero"/></clipPath><clipPath id="70540803a5"><path d="M 9.585938 21 L 57.585938 21 L 57.585938 60.75 L 9.585938 60.75 Z M 9.585938 21 " clip-rule="nonzero"/></clipPath><clipPath id="e35099b42b"><path d="M 34 6.75 L 43 6.75 L 43 21 L 34 21 Z M 34 6.75 " clip-rule="nonzero"/></clipPath></defs><g clip-path="url(#0750f784e3)"><path fill="#ffffff" d="M 0 0 L 67.5 0 L 67.5 67.5 L 0 67.5 Z M 0 0 " fill-opacity="1" fill-rule="nonzero"/><path fill="#f6f6f6" d="M 0 0 L 67.5 0 L 67.5 67.5 L 0 67.5 Z M 0 0 " fill-opacity="1" fill-rule="nonzero"/></g><g clip-path="url(#70540803a5)"><path fill="#00259e" d="M 57.046875 43.863281 C 56.261719 42.738281 54.597656 42.320312 53.25 42.910156 L 49.605469 44.425781 C 46.804688 42.308594 43.15625 41.101562 39.234375 41 L 39.234375 37.652344 L 42.699219 35.699219 C 43.703125 37.023438 45.285156 37.882812 47.0625 37.882812 C 50.082031 37.882812 52.542969 35.40625 52.542969 32.367188 C 52.542969 29.324219 50.082031 26.851562 47.0625 26.851562 C 44.042969 26.851562 41.582031 29.324219 41.582031 32.367188 C 41.582031 33.214844 41.777344 34.023438 42.117188 34.742188 L 39.234375 36.367188 L 39.234375 22.203125 C 39.234375 21.890625 38.988281 21.640625 38.679688 21.640625 C 38.371094 21.640625 38.121094 21.890625 38.121094 22.203125 L 38.121094 36.429688 L 35.097656 34.726562 C 35.433594 34.011719 35.625 33.210938 35.625 32.367188 C 35.625 29.324219 33.167969 26.851562 30.144531 26.851562 C 27.125 26.851562 24.667969 29.324219 24.667969 32.367188 C 24.667969 35.40625 27.125 37.882812 30.144531 37.882812 C 31.929688 37.882812 33.515625 37.019531 34.519531 35.6875 L 38.121094 37.714844 L 38.121094 41 C 34.6875 41.09375 31.390625 42.054688 28.75 43.738281 C 27.351562 43.320312 25.429688 43.078125 23.46875 43.078125 L 20 43.078125 L 20 42.144531 C 20 41.132812 19.183594 40.308594 18.179688 40.308594 L 16.3125 40.308594 L 16.3125 39.488281 C 16.3125 39.179688 16.0625 38.929688 15.753906 38.929688 L 10.167969 38.929688 C 9.859375 38.929688 9.609375 39.179688 9.609375 39.488281 L 9.609375 60.183594 C 9.609375 60.492188 9.859375 60.746094 10.167969 60.746094 L 15.753906 60.746094 C 16.0625 60.746094 16.3125 60.492188 16.3125 60.183594 L 16.3125 59.105469 L 18.179688 59.105469 C 19.183594 59.105469 20 58.28125 20 57.269531 L 20 56.078125 L 34.796875 59.535156 C 35.109375 59.601562 35.457031 59.636719 35.820312 59.636719 C 36.980469 59.636719 38.296875 59.300781 39.160156 58.738281 L 56.207031 47.476562 C 56.839844 47.0625 57.285156 46.417969 57.421875 45.707031 C 57.550781 45.054688 57.417969 44.398438 57.046875 43.863281 Z M 47.0625 27.972656 C 49.46875 27.972656 51.425781 29.941406 51.425781 32.367188 C 51.425781 34.789062 49.46875 36.761719 47.0625 36.761719 C 45.550781 36.761719 44.214844 35.980469 43.429688 34.800781 C 43.417969 34.757812 43.402344 34.714844 43.382812 34.675781 C 43.351562 34.621094 43.3125 34.574219 43.269531 34.535156 C 42.90625 33.894531 42.699219 33.15625 42.699219 32.367188 C 42.699219 29.941406 44.65625 27.972656 47.0625 27.972656 Z M 30.144531 36.761719 C 27.738281 36.761719 25.78125 34.789062 25.78125 32.367188 C 25.78125 29.941406 27.738281 27.972656 30.144531 27.972656 C 32.550781 27.972656 34.511719 29.941406 34.511719 32.367188 C 34.511719 34.789062 32.550781 36.761719 30.144531 36.761719 Z M 15.195312 59.621094 L 10.726562 59.621094 L 10.726562 40.050781 L 15.195312 40.050781 Z M 18.886719 43.632812 C 18.886719 43.636719 18.886719 43.636719 18.886719 43.640625 C 18.886719 43.640625 18.886719 43.644531 18.886719 43.644531 L 18.886719 55.355469 C 18.886719 55.355469 18.886719 55.359375 18.886719 55.363281 L 18.886719 57.269531 C 18.886719 57.664062 18.570312 57.980469 18.179688 57.980469 L 16.3125 57.980469 L 16.3125 41.429688 L 18.179688 41.429688 C 18.570312 41.429688 18.886719 41.75 18.886719 42.144531 Z M 38.679688 42.113281 C 42.316406 42.113281 45.722656 43.105469 48.390625 44.929688 L 44.273438 46.636719 C 43.898438 45.507812 42.820312 44.703125 41.558594 44.703125 L 33.605469 44.703125 C 32.671875 44.703125 31.273438 44.488281 30.171875 44.195312 C 32.632812 42.84375 35.609375 42.113281 38.679688 42.113281 Z M 56.328125 45.492188 C 56.25 45.90625 55.984375 46.285156 55.597656 46.535156 L 38.554688 57.800781 C 37.671875 58.371094 36.0625 58.664062 35.042969 58.4375 L 20 54.925781 L 20 44.199219 L 23.46875 44.199219 C 25.566406 44.199219 27.589844 44.484375 28.886719 44.964844 L 28.933594 44.980469 C 28.9375 44.984375 28.941406 44.984375 28.949219 44.988281 C 30.191406 45.449219 32.28125 45.824219 33.605469 45.824219 L 41.558594 45.824219 C 42.492188 45.824219 43.257812 46.535156 43.300781 47.453125 C 43.304688 47.476562 43.304688 47.5 43.304688 47.527344 C 43.304688 47.632812 43.292969 47.742188 43.273438 47.851562 C 43.113281 48.648438 42.390625 49.226562 41.558594 49.226562 L 33.621094 49.226562 C 33.386719 49.214844 31.253906 49.175781 29.480469 50.71875 C 29.246094 50.921875 29.21875 51.273438 29.421875 51.507812 C 29.53125 51.636719 29.6875 51.703125 29.84375 51.703125 C 29.972656 51.703125 30.101562 51.65625 30.207031 51.566406 C 31.695312 50.269531 33.558594 50.347656 33.578125 50.347656 C 33.585938 50.347656 33.597656 50.347656 33.605469 50.347656 L 41.558594 50.347656 C 42.921875 50.347656 44.101562 49.390625 44.363281 48.070312 C 44.382812 47.980469 44.394531 47.890625 44.40625 47.796875 L 53.679688 43.945312 C 53.683594 43.945312 53.6875 43.941406 53.691406 43.941406 C 54.539062 43.566406 55.660156 43.824219 56.132812 44.507812 C 56.328125 44.789062 56.398438 45.140625 56.328125 45.492188 Z M 56.328125 45.492188 " fill-opacity="1" fill-rule="nonzero"/></g><path fill="#00259e" d="M 29.855469 30.910156 L 31.433594 30.910156 C 31.742188 30.910156 31.992188 30.660156 31.992188 30.351562 C 31.992188 30.039062 31.742188 29.789062 31.433594 29.789062 L 30.703125 29.789062 L 30.703125 29.21875 C 30.703125 28.910156 30.453125 28.65625 30.144531 28.65625 C 29.835938 28.65625 29.589844 28.910156 29.589844 29.21875 L 29.589844 29.816406 C 28.855469 29.945312 28.296875 30.585938 28.296875 31.359375 C 28.296875 32.222656 28.996094 32.925781 29.855469 32.925781 L 30.433594 32.925781 C 30.679688 32.925781 30.878906 33.128906 30.878906 33.375 C 30.878906 33.621094 30.679688 33.820312 30.433594 33.820312 L 28.855469 33.820312 C 28.546875 33.820312 28.296875 34.070312 28.296875 34.382812 C 28.296875 34.691406 28.546875 34.941406 28.855469 34.941406 L 29.585938 34.941406 L 29.585938 35.515625 C 29.585938 35.824219 29.835938 36.074219 30.144531 36.074219 C 30.453125 36.074219 30.703125 35.824219 30.703125 35.515625 L 30.703125 34.917969 C 31.433594 34.789062 31.992188 34.148438 31.992188 33.375 C 31.992188 32.507812 31.292969 31.804688 30.433594 31.804688 L 29.855469 31.804688 C 29.613281 31.804688 29.414062 31.605469 29.414062 31.359375 C 29.414062 31.113281 29.613281 30.910156 29.855469 30.910156 Z M 29.855469 30.910156 " fill-opacity="1" fill-rule="nonzero"/><path fill="#00259e" d="M 46.773438 32.925781 L 47.351562 32.925781 C 47.59375 32.925781 47.792969 33.128906 47.792969 33.375 C 47.792969 33.621094 47.59375 33.820312 47.351562 33.820312 L 45.773438 33.820312 C 45.464844 33.820312 45.214844 34.070312 45.214844 34.382812 C 45.214844 34.691406 45.464844 34.941406 45.773438 34.941406 L 46.503906 34.941406 L 46.503906 35.515625 C 46.503906 35.824219 46.753906 36.074219 47.0625 36.074219 C 47.371094 36.074219 47.621094 35.824219 47.621094 35.515625 L 47.621094 34.917969 C 48.351562 34.789062 48.910156 34.148438 48.910156 33.375 C 48.910156 32.507812 48.210938 31.804688 47.351562 31.804688 L 46.773438 31.804688 C 46.527344 31.804688 46.328125 31.605469 46.328125 31.359375 C 46.328125 31.113281 46.527344 30.910156 46.773438 30.910156 L 48.351562 30.910156 C 48.660156 30.910156 48.910156 30.660156 48.910156 30.351562 C 48.910156 30.042969 48.660156 29.789062 48.351562 29.789062 L 47.621094 29.789062 L 47.621094 29.21875 C 47.621094 28.910156 47.371094 28.65625 47.0625 28.65625 C 46.753906 28.65625 46.503906 28.910156 46.503906 29.21875 L 46.503906 29.816406 C 45.773438 29.945312 45.214844 30.585938 45.214844 31.359375 C 45.214844 32.222656 45.914062 32.925781 46.773438 32.925781 Z M 46.773438 32.925781 " fill-opacity="1" fill-rule="nonzero"/><path fill="#00259e" d="M 25.238281 17.640625 C 25.257812 17.820312 25.800781 22.046875 29.035156 24.121094 C 30.175781 24.851562 31.492188 25.21875 32.980469 25.21875 C 34.144531 25.21875 35.40625 24.996094 36.769531 24.546875 C 36.773438 24.546875 36.777344 24.542969 36.78125 24.542969 C 36.789062 24.539062 36.796875 24.539062 36.804688 24.535156 C 36.808594 24.53125 36.8125 24.53125 36.816406 24.527344 C 36.832031 24.519531 36.851562 24.511719 36.867188 24.503906 C 36.871094 24.5 36.875 24.496094 36.878906 24.496094 C 36.882812 24.492188 36.886719 24.492188 36.890625 24.488281 C 36.898438 24.484375 36.90625 24.480469 36.914062 24.476562 C 36.925781 24.464844 36.9375 24.457031 36.949219 24.445312 C 36.957031 24.441406 36.960938 24.4375 36.96875 24.429688 C 36.972656 24.425781 36.980469 24.421875 36.984375 24.414062 C 36.988281 24.414062 36.992188 24.410156 36.992188 24.40625 C 37.007812 24.390625 37.019531 24.378906 37.03125 24.363281 C 37.035156 24.359375 37.039062 24.351562 37.042969 24.347656 C 37.042969 24.347656 37.042969 24.34375 37.046875 24.34375 C 37.050781 24.335938 37.058594 24.328125 37.0625 24.320312 C 37.066406 24.3125 37.070312 24.308594 37.074219 24.300781 C 37.078125 24.296875 37.078125 24.289062 37.082031 24.285156 C 37.085938 24.273438 37.09375 24.265625 37.097656 24.253906 C 37.105469 24.242188 37.109375 24.226562 37.113281 24.214844 C 37.117188 24.203125 37.121094 24.195312 37.125 24.183594 C 37.128906 24.171875 37.132812 24.164062 37.132812 24.152344 C 37.136719 24.136719 37.140625 24.125 37.140625 24.109375 C 37.144531 24.097656 37.148438 24.085938 37.148438 24.078125 C 37.148438 24.066406 37.148438 24.054688 37.148438 24.042969 C 37.152344 24.03125 37.152344 24.015625 37.152344 24.003906 C 37.148438 23.992188 37.148438 23.980469 37.148438 23.96875 C 37.148438 23.957031 37.144531 23.941406 37.144531 23.929688 C 37.144531 23.925781 37.144531 23.917969 37.144531 23.910156 C 36.539062 20.683594 35.164062 18.453125 33.054688 17.289062 C 29.691406 15.433594 25.75 16.988281 25.582031 17.054688 C 25.570312 17.058594 25.5625 17.066406 25.550781 17.070312 C 25.53125 17.078125 25.515625 17.085938 25.5 17.097656 C 25.484375 17.109375 25.46875 17.117188 25.453125 17.128906 C 25.441406 17.140625 25.425781 17.152344 25.414062 17.164062 C 25.398438 17.175781 25.386719 17.191406 25.375 17.203125 C 25.363281 17.21875 25.351562 17.230469 25.34375 17.242188 C 25.332031 17.257812 25.324219 17.273438 25.3125 17.289062 C 25.304688 17.304688 25.296875 17.320312 25.289062 17.335938 C 25.28125 17.351562 25.273438 17.367188 25.269531 17.382812 C 25.261719 17.402344 25.257812 17.421875 25.25 17.441406 C 25.246094 17.457031 25.246094 17.472656 25.242188 17.488281 C 25.238281 17.507812 25.238281 17.527344 25.234375 17.546875 C 25.234375 17.566406 25.234375 17.582031 25.238281 17.601562 C 25.238281 17.613281 25.238281 17.628906 25.238281 17.640625 Z M 32.523438 18.277344 C 34.046875 19.121094 35.128906 20.660156 35.753906 22.859375 L 30.796875 19.90625 C 30.53125 19.746094 30.1875 19.835938 30.03125 20.101562 C 29.875 20.371094 29.964844 20.714844 30.226562 20.871094 L 35.183594 23.824219 C 32.96875 24.332031 31.109375 24.121094 29.640625 23.179688 C 27.414062 21.757812 26.648438 19.019531 26.421875 17.953125 C 27.460938 17.632812 30.214844 16.996094 32.523438 18.277344 Z M 32.523438 18.277344 " fill-opacity="1" fill-rule="nonzero"/><path fill="#00259e" d="M 40.0625 23.929688 C 40.0625 23.945312 40.058594 23.957031 40.058594 23.96875 C 40.058594 23.980469 40.058594 23.992188 40.058594 24.003906 C 40.058594 24.015625 40.058594 24.03125 40.058594 24.042969 C 40.058594 24.054688 40.058594 24.066406 40.058594 24.078125 C 40.0625 24.085938 40.0625 24.097656 40.066406 24.109375 C 40.066406 24.125 40.070312 24.136719 40.074219 24.152344 C 40.078125 24.160156 40.078125 24.171875 40.082031 24.183594 C 40.085938 24.195312 40.089844 24.203125 40.09375 24.214844 C 40.097656 24.226562 40.105469 24.238281 40.109375 24.253906 C 40.113281 24.261719 40.121094 24.273438 40.125 24.285156 C 40.128906 24.289062 40.128906 24.296875 40.132812 24.300781 C 40.136719 24.304688 40.140625 24.3125 40.144531 24.320312 C 40.152344 24.328125 40.15625 24.335938 40.164062 24.34375 C 40.164062 24.34375 40.164062 24.347656 40.167969 24.347656 C 40.167969 24.351562 40.171875 24.359375 40.175781 24.363281 C 40.1875 24.378906 40.199219 24.390625 40.214844 24.40625 C 40.21875 24.410156 40.21875 24.414062 40.222656 24.414062 C 40.226562 24.421875 40.234375 24.425781 40.238281 24.429688 C 40.246094 24.4375 40.253906 24.441406 40.257812 24.445312 C 40.269531 24.457031 40.285156 24.464844 40.296875 24.476562 C 40.304688 24.480469 40.308594 24.484375 40.316406 24.488281 C 40.320312 24.492188 40.324219 24.492188 40.328125 24.496094 C 40.332031 24.5 40.335938 24.5 40.339844 24.503906 C 40.355469 24.511719 40.375 24.519531 40.394531 24.527344 C 40.398438 24.53125 40.398438 24.53125 40.402344 24.535156 C 40.414062 24.539062 40.421875 24.539062 40.429688 24.542969 C 40.433594 24.542969 40.4375 24.546875 40.441406 24.546875 C 41.800781 24.996094 43.066406 25.21875 44.226562 25.21875 C 45.714844 25.21875 47.035156 24.851562 48.171875 24.121094 C 51.40625 22.046875 51.949219 17.820312 51.96875 17.640625 C 51.972656 17.628906 51.96875 17.617188 51.972656 17.605469 C 51.972656 17.585938 51.972656 17.566406 51.972656 17.546875 C 51.972656 17.527344 51.96875 17.511719 51.964844 17.492188 C 51.964844 17.476562 51.960938 17.457031 51.957031 17.4375 C 51.953125 17.421875 51.945312 17.402344 51.941406 17.386719 C 51.933594 17.371094 51.925781 17.351562 51.921875 17.335938 C 51.914062 17.320312 51.902344 17.304688 51.894531 17.289062 C 51.886719 17.273438 51.875 17.257812 51.863281 17.242188 C 51.855469 17.230469 51.84375 17.21875 51.832031 17.203125 C 51.820312 17.191406 51.808594 17.175781 51.792969 17.164062 C 51.78125 17.152344 51.765625 17.140625 51.753906 17.128906 C 51.738281 17.117188 51.722656 17.109375 51.707031 17.097656 C 51.691406 17.085938 51.675781 17.078125 51.65625 17.070312 C 51.644531 17.066406 51.636719 17.058594 51.625 17.054688 C 51.457031 16.988281 47.515625 15.433594 44.15625 17.289062 C 42.042969 18.453125 40.667969 20.683594 40.066406 23.910156 C 40.0625 23.917969 40.066406 23.925781 40.0625 23.929688 Z M 44.683594 18.277344 C 46.992188 16.996094 49.746094 17.632812 50.785156 17.953125 C 50.566406 19.019531 49.800781 21.746094 47.574219 23.175781 C 46.105469 24.117188 44.242188 24.335938 42.023438 23.824219 L 46.980469 20.871094 C 47.246094 20.714844 47.332031 20.371094 47.175781 20.101562 C 47.019531 19.835938 46.675781 19.746094 46.414062 19.90625 L 41.457031 22.859375 C 42.078125 20.660156 43.160156 19.121094 44.683594 18.277344 Z M 44.683594 18.277344 " fill-opacity="1" fill-rule="nonzero"/><g clip-path="url(#e35099b42b)"><path fill="#00259e" d="M 38.191406 20.367188 C 38.199219 20.371094 38.207031 20.375 38.214844 20.382812 C 38.222656 20.390625 38.234375 20.398438 38.242188 20.402344 C 38.25 20.410156 38.253906 20.414062 38.261719 20.417969 C 38.277344 20.425781 38.296875 20.4375 38.3125 20.445312 C 38.320312 20.449219 38.332031 20.457031 38.339844 20.460938 C 38.34375 20.460938 38.351562 20.464844 38.355469 20.464844 C 38.375 20.472656 38.398438 20.480469 38.417969 20.484375 C 38.421875 20.488281 38.425781 20.488281 38.429688 20.488281 C 38.4375 20.492188 38.445312 20.496094 38.457031 20.496094 C 38.488281 20.503906 38.519531 20.503906 38.550781 20.507812 C 38.554688 20.507812 38.554688 20.507812 38.558594 20.507812 C 38.558594 20.507812 38.5625 20.507812 38.5625 20.507812 C 38.597656 20.507812 38.632812 20.503906 38.667969 20.496094 C 38.671875 20.496094 38.675781 20.496094 38.675781 20.496094 C 38.683594 20.492188 38.691406 20.492188 38.699219 20.488281 C 38.722656 20.484375 38.746094 20.476562 38.769531 20.46875 C 38.773438 20.464844 38.777344 20.464844 38.78125 20.460938 C 38.792969 20.457031 38.800781 20.453125 38.808594 20.449219 C 38.828125 20.4375 38.84375 20.429688 38.859375 20.417969 C 38.867188 20.414062 38.875 20.410156 38.882812 20.40625 C 38.890625 20.402344 38.898438 20.394531 38.90625 20.386719 C 38.914062 20.382812 38.921875 20.378906 38.929688 20.371094 C 41.394531 18.21875 42.613281 15.898438 42.550781 13.476562 C 42.449219 9.617188 39.128906 6.972656 38.988281 6.863281 C 38.976562 6.855469 38.96875 6.851562 38.957031 6.84375 C 38.941406 6.832031 38.925781 6.820312 38.90625 6.8125 C 38.890625 6.804688 38.875 6.796875 38.859375 6.789062 C 38.84375 6.78125 38.824219 6.777344 38.808594 6.769531 C 38.789062 6.765625 38.773438 6.761719 38.753906 6.757812 C 38.738281 6.753906 38.71875 6.75 38.703125 6.75 C 38.683594 6.746094 38.667969 6.746094 38.648438 6.746094 C 38.632812 6.746094 38.613281 6.746094 38.59375 6.75 C 38.578125 6.75 38.5625 6.753906 38.546875 6.753906 C 38.527344 6.757812 38.507812 6.761719 38.488281 6.769531 C 38.472656 6.773438 38.457031 6.78125 38.441406 6.785156 C 38.421875 6.792969 38.40625 6.800781 38.390625 6.808594 C 38.371094 6.816406 38.355469 6.828125 38.339844 6.839844 C 38.332031 6.84375 38.320312 6.851562 38.308594 6.859375 C 38.164062 6.96875 34.8125 9.570312 34.660156 13.425781 C 34.566406 15.847656 35.753906 18.183594 38.191406 20.367188 Z M 35.773438 13.476562 C 35.875 10.824219 37.835938 8.777344 38.640625 8.042969 C 39.4375 8.785156 41.367188 10.847656 41.433594 13.507812 C 41.480469 15.261719 40.707031 16.980469 39.128906 18.636719 L 39.167969 12.832031 C 39.167969 12.523438 38.921875 12.269531 38.613281 12.265625 C 38.613281 12.265625 38.609375 12.265625 38.609375 12.265625 C 38.304688 12.265625 38.054688 12.515625 38.050781 12.824219 L 38.015625 18.628906 C 36.460938 16.957031 35.710938 15.226562 35.773438 13.476562 Z M 35.773438 13.476562 " fill-opacity="1" fill-rule="nonzero"/></g></svg>