<svg xmlns="http://www.w3.org/2000/svg" xmlns:xlink="http://www.w3.org/1999/xlink" width="90" zoomAndPan="magnify" viewBox="0 0 67.5 67.499996" height="90" preserveAspectRatio="xMidYMid meet" version="1.0"><defs><clipPath id="0c87946dfe"><path d="M 0 0 L 67.003906 0 L 67.003906 67.003906 L 0 67.003906 Z M 0 0 " clip-rule="nonzero"/></clipPath><clipPath id="10f1af872e"><path d="M 6.75 5.734375 L 60.75 5.734375 L 60.75 61.984375 L 6.75 61.984375 Z M 6.75 5.734375 " clip-rule="nonzero"/></clipPath></defs><g clip-path="url(#0c87946dfe)"><path fill="#ffffff" d="M 0 0 L 67.5 0 L 67.5 67.5 L 0 67.5 Z M 0 0 " fill-opacity="1" fill-rule="nonzero"/><path fill="#f6f6f6" d="M 0 0 L 67.5 0 L 67.5 67.5 L 0 67.5 Z M 0 0 " fill-opacity="1" fill-rule="nonzero"/></g><g clip-path="url(#10f1af872e)"><path fill="#00259e" d="M 33.75 61.984375 C 48.878906 61.984375 60.726562 56.035156 60.726562 48.441406 C 60.726562 42.402344 53.214844 37.414062 42.53125 35.621094 C 45.589844 30.679688 48.277344 24.976562 48.277344 20.15625 C 48.277344 12.191406 41.773438 5.734375 33.75 5.734375 C 25.726562 5.734375 19.222656 12.191406 19.222656 20.15625 C 19.222656 24.976562 21.910156 30.679688 24.96875 35.621094 C 14.285156 37.414062 6.773438 42.402344 6.773438 48.441406 C 6.773438 56.035156 18.621094 61.984375 33.75 61.984375 Z M 21.300781 20.15625 C 21.300781 13.351562 26.882812 7.816406 33.75 7.816406 C 40.617188 7.816406 46.199219 13.351562 46.199219 20.15625 C 46.199219 28.359375 37.382812 39.832031 33.75 44.207031 C 30.117188 39.832031 21.300781 28.359375 21.300781 20.15625 Z M 37.003906 43.488281 C 41.222656 44.101562 44.125 45.816406 44.125 47.402344 C 44.125 49.367188 39.6875 51.566406 33.75 51.566406 C 27.8125 51.566406 23.375 49.367188 23.375 47.402344 C 23.375 45.816406 26.277344 44.101562 30.496094 43.488281 C 32.382812 45.890625 33.75 47.402344 33.75 47.402344 C 33.75 47.402344 35.117188 45.890625 37.003906 43.488281 Z M 26.203125 37.550781 C 27.167969 39.003906 28.132812 40.367188 29.042969 41.585938 C 24.417969 42.480469 21.300781 44.683594 21.300781 47.402344 C 21.300781 50.964844 26.652344 53.652344 33.75 53.652344 C 40.847656 53.652344 46.199219 50.964844 46.199219 47.402344 C 46.199219 44.683594 43.082031 42.480469 38.457031 41.585938 C 39.367188 40.367188 40.332031 39.003906 41.296875 37.550781 C 51.238281 39.0625 58.652344 43.4375 58.652344 48.441406 C 58.652344 54.652344 47.25 59.902344 33.75 59.902344 C 20.25 59.902344 8.847656 54.652344 8.847656 48.441406 C 8.847656 43.4375 16.261719 39.0625 26.203125 37.550781 Z M 26.203125 37.550781 " fill-opacity="1" fill-rule="nonzero"/></g><path fill="#00259e" d="M 33.75 26.566406 C 37.1875 26.566406 39.976562 23.769531 39.976562 20.316406 C 39.976562 16.867188 37.1875 14.066406 33.75 14.066406 C 30.3125 14.066406 27.523438 16.867188 27.523438 20.316406 C 27.523438 23.769531 30.3125 26.566406 33.75 26.566406 Z M 33.75 26.566406 " fill-opacity="1" fill-rule="nonzero"/></svg>