<svg xmlns="http://www.w3.org/2000/svg" xmlns:xlink="http://www.w3.org/1999/xlink" width="90" zoomAndPan="magnify" viewBox="0 0 67.5 67.499996" height="90" preserveAspectRatio="xMidYMid meet" version="1.0"><defs><clipPath id="3b4b3e59f9"><path d="M 0 0 L 67.003906 0 L 67.003906 67.003906 L 0 67.003906 Z M 0 0 " clip-rule="nonzero"/></clipPath><clipPath id="2c284f7881"><path d="M 14 38 L 21 38 L 21 60.75 L 14 60.75 Z M 14 38 " clip-rule="nonzero"/></clipPath><clipPath id="a12ffb9fc6"><path d="M 21 30 L 28 30 L 28 60.75 L 21 60.75 Z M 21 30 " clip-rule="nonzero"/></clipPath><clipPath id="00d006d1c6"><path d="M 30 29 L 46 29 L 46 60.75 L 30 60.75 Z M 30 29 " clip-rule="nonzero"/></clipPath><clipPath id="a4360ab903"><path d="M 45 18 L 60.75 18 L 60.75 60.75 L 45 60.75 Z M 45 18 " clip-rule="nonzero"/></clipPath><clipPath id="56feb05c0d"><path d="M 6.75 47 L 13 47 L 13 60.75 L 6.75 60.75 Z M 6.75 47 " clip-rule="nonzero"/></clipPath><clipPath id="4ec5a89dd4"><path d="M 6.75 6.75 L 56 6.75 L 56 46 L 6.75 46 Z M 6.75 6.75 " clip-rule="nonzero"/></clipPath></defs><g clip-path="url(#3b4b3e59f9)"><path fill="#ffffff" d="M 0 0 L 67.5 0 L 67.5 67.5 L 0 67.5 Z M 0 0 " fill-opacity="1" fill-rule="nonzero"/><path fill="#f6f6f6" d="M 0 0 L 67.5 0 L 67.5 67.5 L 0 67.5 Z M 0 0 " fill-opacity="1" fill-rule="nonzero"/></g><g clip-path="url(#2c284f7881)"><path fill="#00259e" d="M 15.90625 38.8125 C 15.0625 38.8125 14.34375 39.53125 14.34375 40.375 L 14.34375 59.1875 C 14.34375 60.03125 15.019531 60.75 15.90625 60.75 L 18.730469 60.75 C 19.574219 60.75 20.292969 60.03125 20.292969 59.1875 L 20.292969 40.375 C 20.292969 39.53125 19.617188 38.8125 18.730469 38.8125 Z M 18.5625 59.0625 L 16.03125 59.0625 L 16.03125 40.5 L 18.5625 40.5 Z M 18.5625 59.0625 " fill-opacity="1" fill-rule="nonzero"/></g><g clip-path="url(#a12ffb9fc6)"><path fill="#00259e" d="M 23.5 30.375 C 22.65625 30.375 21.9375 31.09375 21.9375 31.9375 L 21.9375 59.1875 C 21.9375 60.03125 22.613281 60.75 23.5 60.75 L 26.324219 60.75 C 27.167969 60.75 27.886719 60.03125 27.886719 59.1875 L 27.886719 31.9375 C 27.886719 31.09375 27.210938 30.375 26.324219 30.375 Z M 26.15625 59.0625 L 23.625 59.0625 L 23.625 32.0625 L 26.15625 32.0625 Z M 26.15625 59.0625 " fill-opacity="1" fill-rule="nonzero"/></g><g clip-path="url(#00d006d1c6)"><path fill="#00259e" d="M 45.5625 36.28125 C 45.5625 32.316406 42.355469 29.109375 38.390625 29.109375 C 34.425781 29.109375 31.21875 32.316406 31.21875 36.28125 C 31.21875 38.726562 32.441406 40.878906 34.339844 42.1875 L 34.171875 42.1875 C 33.242188 42.1875 32.484375 42.945312 32.484375 43.875 L 32.484375 45.5625 C 31.554688 45.5625 30.796875 46.320312 30.796875 47.25 L 30.796875 48.9375 C 30.796875 49.867188 31.554688 50.625 32.484375 50.625 L 32.90625 50.625 L 32.90625 52.3125 L 32.484375 52.3125 C 31.554688 52.3125 30.796875 53.070312 30.796875 54 L 30.796875 55.6875 C 30.796875 56.488281 31.34375 57.121094 32.0625 57.332031 C 32.0625 57.332031 32.0625 57.375 32.0625 57.375 L 32.0625 59.0625 C 32.0625 59.992188 32.820312 60.75 33.75 60.75 L 42.1875 60.75 C 43.117188 60.75 43.875 59.992188 43.875 59.0625 L 43.875 57.375 C 43.875 56.574219 43.328125 55.941406 42.609375 55.730469 C 42.609375 55.730469 42.609375 55.6875 42.609375 55.6875 L 42.609375 54 L 43.03125 54 C 43.960938 54 44.71875 53.242188 44.71875 52.3125 L 44.71875 50.625 C 44.71875 49.695312 43.960938 48.9375 43.03125 48.9375 L 42.609375 48.9375 L 42.609375 47.25 C 43.539062 47.25 44.296875 46.492188 44.296875 45.5625 L 44.296875 43.875 C 44.296875 42.945312 43.539062 42.1875 42.609375 42.1875 L 42.441406 42.1875 C 44.339844 40.878906 45.5625 38.726562 45.5625 36.28125 Z M 32.484375 48.9375 L 32.484375 47.25 L 40.921875 47.25 L 40.921875 48.9375 Z M 32.484375 55.6875 L 32.484375 54 L 40.921875 54 L 40.921875 55.6875 Z M 33.75 59.0625 L 33.75 57.375 L 42.1875 57.375 L 42.1875 59.0625 Z M 43.03125 50.625 L 43.03125 52.3125 L 34.59375 52.3125 L 34.59375 50.625 Z M 42.609375 43.875 L 42.609375 45.5625 L 34.171875 45.5625 L 34.171875 43.875 Z M 38.390625 41.765625 C 35.351562 41.765625 32.90625 39.320312 32.90625 36.28125 C 32.90625 33.242188 35.351562 30.796875 38.390625 30.796875 C 41.429688 30.796875 43.875 33.242188 43.875 36.28125 C 43.875 39.320312 41.429688 41.765625 38.390625 41.765625 Z M 38.390625 41.765625 " fill-opacity="1" fill-rule="nonzero"/></g><g clip-path="url(#a4360ab903)"><path fill="#00259e" d="M 59.484375 45.605469 C 59.484375 45.605469 59.484375 45.5625 59.484375 45.5625 L 59.484375 43.875 C 59.484375 42.945312 58.726562 42.1875 57.796875 42.1875 L 57.796875 40.5 C 58.726562 40.5 59.484375 39.742188 59.484375 38.8125 L 59.484375 37.125 C 59.484375 36.492188 59.148438 35.945312 58.597656 35.648438 C 58.597656 35.5625 58.640625 35.523438 58.640625 35.4375 L 58.640625 33.75 C 58.640625 32.820312 57.882812 32.0625 56.953125 32.0625 L 56.785156 32.0625 C 58.683594 30.753906 59.90625 28.601562 59.90625 26.15625 C 59.90625 22.191406 56.699219 18.984375 52.734375 18.984375 C 48.769531 18.984375 45.5625 22.191406 45.5625 26.15625 C 45.5625 28.601562 46.785156 30.753906 48.683594 32.0625 L 48.515625 32.0625 C 47.585938 32.0625 46.828125 32.820312 46.828125 33.75 L 46.828125 35.4375 C 46.828125 36.070312 47.164062 36.617188 47.714844 36.914062 C 47.714844 37 47.671875 37.039062 47.671875 37.125 L 47.671875 38.8125 C 46.742188 38.8125 45.984375 39.570312 45.984375 40.5 L 45.984375 42.1875 C 45.984375 43.117188 46.742188 43.875 47.671875 43.875 L 47.671875 45.5625 C 47.671875 46.363281 48.21875 46.996094 48.9375 47.207031 C 48.9375 47.207031 48.9375 47.25 48.9375 47.25 L 48.9375 48.9375 C 48.9375 48.9375 48.9375 48.980469 48.9375 48.980469 C 48.21875 49.148438 47.671875 49.824219 47.671875 50.625 L 47.671875 52.3125 L 47.25 52.3125 C 46.320312 52.3125 45.5625 53.070312 45.5625 54 L 45.5625 55.6875 C 45.5625 56.617188 46.320312 57.375 47.25 57.375 L 47.671875 57.375 L 47.671875 59.0625 C 47.671875 59.992188 48.429688 60.75 49.359375 60.75 L 57.796875 60.75 C 58.726562 60.75 59.484375 59.992188 59.484375 59.0625 L 59.484375 57.375 C 59.484375 56.445312 58.726562 55.6875 57.796875 55.6875 L 57.375 55.6875 L 57.375 54 L 57.796875 54 C 58.726562 54 59.484375 53.242188 59.484375 52.3125 L 59.484375 50.625 C 59.484375 50.625 59.484375 50.582031 59.484375 50.582031 C 60.203125 50.414062 60.75 49.738281 60.75 48.9375 L 60.75 47.25 C 60.75 46.449219 60.203125 45.816406 59.484375 45.605469 Z M 57.796875 45.5625 L 49.359375 45.5625 L 49.359375 43.875 L 57.796875 43.875 Z M 57.796875 38.8125 L 49.359375 38.8125 L 49.359375 37.125 L 57.796875 37.125 Z M 47.25 26.15625 C 47.25 23.117188 49.695312 20.671875 52.734375 20.671875 C 55.773438 20.671875 58.21875 23.117188 58.21875 26.15625 C 58.21875 29.195312 55.773438 31.640625 52.734375 31.640625 C 49.695312 31.640625 47.25 29.195312 47.25 26.15625 Z M 48.515625 33.75 L 56.953125 33.75 L 56.953125 35.4375 L 48.515625 35.4375 Z M 47.671875 42.1875 L 47.671875 40.5 L 56.109375 40.5 L 56.109375 42.1875 Z M 47.25 55.6875 L 47.25 54 L 55.6875 54 L 55.6875 55.6875 Z M 57.796875 57.375 L 57.796875 59.0625 L 49.359375 59.0625 L 49.359375 57.375 Z M 49.359375 52.3125 L 49.359375 50.625 L 57.796875 50.625 L 57.796875 52.3125 Z M 50.625 48.9375 L 50.625 47.25 L 59.0625 47.25 L 59.0625 48.9375 Z M 50.625 48.9375 " fill-opacity="1" fill-rule="nonzero"/></g><path fill="#00259e" d="M 52.3125 29.867188 L 52.3125 30.460938 C 52.3125 30.753906 52.523438 30.964844 52.820312 30.964844 C 53.113281 30.964844 53.324219 30.753906 53.324219 30.460938 L 53.324219 29.867188 C 54.757812 29.742188 55.519531 28.941406 55.519531 27.800781 C 55.519531 25.144531 51.59375 25.777344 51.59375 24.382812 C 51.59375 23.960938 51.933594 23.539062 52.820312 23.539062 C 53.410156 23.539062 54 23.792969 54.335938 24.089844 C 54.507812 24.257812 54.632812 24.34375 54.800781 24.34375 C 55.140625 24.34375 55.390625 24.089844 55.390625 23.792969 C 55.390625 23.667969 55.351562 23.539062 55.265625 23.457031 C 54.886719 22.949219 54.210938 22.613281 53.324219 22.484375 L 53.324219 21.851562 C 53.324219 21.558594 53.113281 21.347656 52.820312 21.347656 C 52.566406 21.347656 52.3125 21.558594 52.3125 21.851562 L 52.3125 22.445312 C 50.960938 22.613281 50.328125 23.414062 50.328125 24.382812 C 50.328125 26.957031 54.253906 26.242188 54.253906 27.800781 C 54.253906 28.476562 53.789062 28.773438 52.820312 28.773438 C 52.058594 28.773438 51.511719 28.390625 51.046875 27.96875 C 50.921875 27.84375 50.792969 27.71875 50.582031 27.71875 C 50.289062 27.71875 50.035156 27.96875 50.035156 28.308594 C 50.035156 28.433594 50.078125 28.519531 50.117188 28.601562 C 50.457031 29.195312 51.257812 29.742188 52.3125 29.867188 Z M 52.3125 29.867188 " fill-opacity="1" fill-rule="nonzero"/><path fill="#00259e" d="M 37.210938 34.507812 C 37.210938 34.085938 37.546875 33.664062 38.433594 33.664062 C 39.023438 33.664062 39.613281 33.917969 39.953125 34.214844 C 40.121094 34.382812 40.246094 34.46875 40.414062 34.46875 C 40.753906 34.46875 41.007812 34.214844 41.007812 33.917969 C 41.007812 33.792969 40.964844 33.664062 40.878906 33.582031 C 40.5 33.074219 39.824219 32.738281 38.9375 32.609375 L 38.9375 31.976562 C 38.9375 31.683594 38.726562 31.472656 38.433594 31.472656 C 38.179688 31.472656 37.925781 31.683594 37.925781 31.976562 L 37.925781 32.570312 C 36.578125 32.738281 35.945312 33.539062 35.945312 34.507812 C 35.945312 37.082031 39.867188 36.367188 39.867188 37.925781 C 39.867188 38.601562 39.402344 38.898438 38.433594 38.898438 C 37.671875 38.898438 37.125 38.515625 36.660156 38.09375 C 36.535156 37.96875 36.40625 37.84375 36.195312 37.84375 C 35.902344 37.84375 35.648438 38.09375 35.648438 38.433594 C 35.648438 38.558594 35.691406 38.644531 35.734375 38.726562 C 36.113281 39.320312 36.914062 39.867188 37.96875 39.992188 L 37.96875 40.585938 C 37.96875 40.878906 38.179688 41.089844 38.476562 41.089844 C 38.769531 41.089844 38.980469 40.878906 38.980469 40.585938 L 38.980469 39.992188 C 40.414062 39.867188 41.175781 39.066406 41.175781 37.925781 C 41.132812 35.226562 37.210938 35.902344 37.210938 34.507812 Z M 37.210938 34.507812 " fill-opacity="1" fill-rule="nonzero"/><g clip-path="url(#56feb05c0d)"><path fill="#00259e" d="M 8.3125 60.75 L 11.136719 60.75 C 11.980469 60.75 12.699219 60.03125 12.699219 59.1875 L 12.699219 48.8125 C 12.699219 47.96875 12.023438 47.25 11.136719 47.25 L 8.3125 47.25 C 7.46875 47.25 6.75 47.96875 6.75 48.8125 L 6.75 59.1875 C 6.75 60.03125 7.425781 60.75 8.3125 60.75 Z M 8.4375 48.9375 L 10.96875 48.9375 L 10.96875 59.0625 L 8.4375 59.0625 Z M 8.4375 48.9375 " fill-opacity="1" fill-rule="nonzero"/></g><g clip-path="url(#4ec5a89dd4)"><path fill="#00259e" d="M 11.09375 45.5625 C 11.179688 45.5625 11.265625 45.5625 11.347656 45.5625 C 9.617188 42.273438 8.5625 38.558594 8.4375 34.59375 L 20.25 34.59375 L 20.25 32.90625 L 8.480469 32.90625 C 8.691406 26.367188 11.390625 20.460938 15.652344 16.074219 C 17.59375 17.84375 19.742188 19.28125 22.0625 20.417969 C 21.179688 23.539062 20.628906 27.085938 20.460938 30.882812 C 20.757812 29.996094 21.429688 29.277344 22.316406 28.898438 C 22.570312 26.113281 23.035156 23.5 23.710938 21.09375 C 26.621094 22.273438 29.742188 22.90625 32.949219 23.035156 L 32.949219 29.320312 C 33.453125 28.898438 34.046875 28.5625 34.636719 28.265625 L 34.636719 23.078125 C 37.84375 22.992188 40.964844 22.316406 43.875 21.136719 C 44.085938 21.8125 44.253906 22.527344 44.382812 23.289062 C 44.675781 22.445312 45.097656 21.640625 45.605469 20.96875 C 45.5625 20.796875 45.519531 20.628906 45.476562 20.460938 C 45.816406 20.292969 46.152344 20.125 46.492188 19.953125 C 47.417969 19.027344 48.558594 18.308594 49.78125 17.84375 C 50.5 17.296875 51.214844 16.75 51.890625 16.117188 C 52.269531 16.496094 52.648438 16.917969 52.988281 17.339844 C 53.875 17.382812 54.675781 17.507812 55.476562 17.761719 C 50.539062 11.09375 42.652344 6.75 33.75 6.75 C 18.859375 6.75 6.75 18.859375 6.75 33.75 C 6.75 37.96875 7.71875 41.976562 9.492188 45.5625 Z M 50.625 14.933594 C 48.894531 16.496094 46.996094 17.761719 44.972656 18.773438 C 43.578125 14.511719 41.597656 11.09375 39.234375 9.027344 C 43.578125 10 47.460938 12.066406 50.625 14.933594 Z M 34.59375 8.523438 C 38.179688 9.113281 41.386719 13.375 43.367188 19.53125 C 40.625 20.671875 37.632812 21.304688 34.59375 21.390625 Z M 32.90625 8.523438 L 32.90625 21.390625 C 29.867188 21.304688 26.914062 20.671875 24.132812 19.53125 C 26.113281 13.375 29.320312 9.113281 32.90625 8.523438 Z M 28.265625 9.027344 C 25.902344 11.09375 23.960938 14.511719 22.570312 18.773438 C 20.546875 17.761719 18.605469 16.453125 16.875 14.890625 C 20.039062 12.066406 23.921875 10 28.265625 9.027344 Z M 28.265625 9.027344 " fill-opacity="1" fill-rule="nonzero"/></g></svg>