<svg xmlns="http://www.w3.org/2000/svg" xmlns:xlink="http://www.w3.org/1999/xlink" width="60" zoomAndPan="magnify" viewBox="0 0 45 44.999999" height="60" preserveAspectRatio="xMidYMid meet" version="1.0"><path fill="#000000" d="M 37.171875 7.039062 C 37.664062 7.039062 38.121094 7.144531 38.507812 7.496094 C 38.507812 7.496094 43.738281 12.445312 43.738281 12.445312 C 44.015625 12.6875 44.472656 12.6875 44.71875 12.410156 C 45 12.128906 44.964844 11.671875 44.683594 11.425781 C 44.683594 11.425781 39.453125 6.476562 39.453125 6.476562 C 38.472656 5.5625 36.960938 5.492188 35.699219 5.738281 L 28.78125 7.214844 L 28.78125 8.652344 L 35.980469 7.179688 C 36.363281 7.109375 36.785156 7.039062 37.171875 7.039062 Z M 37.171875 7.039062 " fill-opacity="1" fill-rule="nonzero"/><path fill="#000000" d="M 21.761719 4.230469 L 12.636719 4.230469 C 12.25 4.230469 11.933594 4.546875 11.933594 4.933594 C 11.933594 5.316406 12.25 5.632812 12.636719 5.632812 L 21.761719 5.632812 C 22.148438 5.632812 22.464844 5.316406 22.464844 4.933594 C 22.464844 4.546875 22.148438 4.230469 21.761719 4.230469 Z M 21.761719 4.230469 " fill-opacity="1" fill-rule="nonzero"/><path fill="#000000" d="M 21.761719 7.039062 L 12.636719 7.039062 C 12.25 7.039062 11.933594 7.355469 11.933594 7.738281 C 11.933594 8.125 12.25 8.441406 12.636719 8.441406 L 21.761719 8.441406 C 22.148438 8.441406 22.464844 8.125 22.464844 7.738281 C 22.464844 7.355469 22.148438 7.039062 21.761719 7.039062 Z M 21.761719 7.039062 " fill-opacity="1" fill-rule="nonzero"/><path fill="#000000" d="M 21.761719 9.847656 L 12.636719 9.847656 C 12.25 9.847656 11.933594 10.160156 11.933594 10.546875 C 11.933594 10.933594 12.25 11.25 12.636719 11.25 L 21.761719 11.25 C 22.148438 11.25 22.464844 10.933594 22.464844 10.546875 C 22.464844 10.160156 22.148438 9.847656 21.761719 9.847656 Z M 21.761719 9.847656 " fill-opacity="1" fill-rule="nonzero"/><path fill="#000000" d="M 21.761719 12.652344 L 12.636719 12.652344 C 12.25 12.652344 11.933594 12.96875 11.933594 13.355469 C 11.933594 13.742188 12.25 14.058594 12.636719 14.058594 L 21.761719 14.058594 C 22.148438 14.058594 22.464844 13.742188 22.464844 13.355469 C 22.464844 12.96875 22.148438 12.652344 21.761719 12.652344 Z M 21.761719 12.652344 " fill-opacity="1" fill-rule="nonzero"/><path fill="#000000" d="M 21.761719 15.460938 L 12.636719 15.460938 C 12.25 15.460938 11.933594 15.777344 11.933594 16.164062 C 11.933594 16.550781 12.25 16.867188 12.636719 16.867188 L 21.761719 16.867188 C 22.148438 16.867188 22.464844 16.550781 22.464844 16.164062 C 22.464844 15.777344 22.148438 15.460938 21.761719 15.460938 Z M 21.761719 15.460938 " fill-opacity="1" fill-rule="nonzero"/><path fill="#000000" d="M 21.761719 18.269531 L 12.636719 18.269531 C 12.25 18.269531 11.933594 18.585938 11.933594 18.972656 C 11.933594 19.359375 12.25 19.675781 12.636719 19.675781 L 21.761719 19.675781 C 22.148438 19.675781 22.464844 19.359375 22.464844 18.972656 C 22.464844 18.585938 22.148438 18.269531 21.761719 18.269531 Z M 21.761719 18.269531 " fill-opacity="1" fill-rule="nonzero"/><path fill="#000000" d="M 21.761719 21.078125 L 12.636719 21.078125 C 12.25 21.078125 11.933594 21.394531 11.933594 21.78125 C 11.933594 22.167969 12.25 22.484375 12.636719 22.484375 L 21.761719 22.484375 C 22.148438 22.484375 22.464844 22.167969 22.464844 21.78125 C 22.464844 21.394531 22.148438 21.078125 21.761719 21.078125 Z M 21.761719 21.078125 " fill-opacity="1" fill-rule="nonzero"/><path fill="#000000" d="M 21.761719 23.886719 L 12.636719 23.886719 C 12.25 23.886719 11.933594 24.203125 11.933594 24.589844 C 11.933594 24.976562 12.25 25.289062 12.636719 25.289062 L 21.761719 25.289062 C 22.148438 25.289062 22.464844 24.976562 22.464844 24.589844 C 22.464844 24.203125 22.148438 23.886719 21.761719 23.886719 Z M 21.761719 23.886719 " fill-opacity="1" fill-rule="nonzero"/><path fill="#000000" d="M 44.4375 21.816406 C 40.824219 20.585938 32.46875 18.269531 30.960938 18.09375 C 30.714844 18.058594 30.46875 18.023438 30.222656 18.023438 C 28.78125 17.882812 27.414062 17.742188 26.1875 17.183594 C 25.835938 17.042969 25.484375 16.65625 25.34375 16.234375 C 25.273438 16.023438 25.203125 15.742188 25.308594 15.460938 C 25.589844 14.867188 26.535156 14.796875 26.921875 14.796875 C 26.957031 14.796875 29.730469 14.796875 32.644531 15.742188 C 32.644531 15.742188 32.679688 15.742188 32.679688 15.742188 C 32.855469 15.777344 37.277344 16.9375 38.855469 14.480469 C 39.066406 14.164062 38.960938 13.707031 38.648438 13.496094 C 38.332031 13.285156 37.875 13.390625 37.664062 13.707031 C 37.3125 14.269531 36.574219 14.515625 35.804688 14.585938 C 36.226562 13.847656 36.226562 12.96875 36.085938 12.445312 C 35.980469 12.058594 35.628906 11.847656 35.242188 11.917969 C 34.855469 12.023438 34.644531 12.375 34.714844 12.757812 C 34.75 12.898438 34.996094 14.023438 33.835938 14.375 C 33.765625 14.410156 33.734375 14.410156 33.664062 14.445312 C 33.417969 14.410156 33.207031 14.375 33.03125 14.304688 C 29.90625 13.390625 27.0625 13.355469 26.921875 13.355469 C 25.484375 13.355469 24.464844 13.882812 24.007812 14.832031 C 23.761719 15.390625 23.761719 16.023438 24.007812 16.691406 C 24.289062 17.464844 24.921875 18.128906 25.589844 18.410156 C 27.027344 19.042969 28.574219 19.21875 30.046875 19.359375 C 30.292969 19.394531 30.539062 19.394531 30.75 19.429688 C 32.1875 19.605469 33.523438 19.886719 34.785156 20.339844 C 34.785156 20.339844 40.261719 21.851562 43.980469 23.113281 C 44.050781 23.148438 44.121094 23.148438 44.191406 23.148438 C 44.472656 23.148438 44.753906 22.972656 44.859375 22.65625 C 45 22.34375 44.824219 21.957031 44.4375 21.816406 Z M 44.4375 21.816406 " fill-opacity="1" fill-rule="nonzero"/><path fill="#000000" d="M 29.695312 23.535156 C 30.152344 23.21875 30.644531 22.515625 30.820312 20.902344 C 30.679688 20.867188 30.574219 20.867188 30.539062 20.867188 C 30.152344 20.832031 29.800781 20.796875 29.414062 20.761719 C 29.273438 21.992188 28.957031 22.34375 28.886719 22.378906 C 28.851562 22.378906 28.851562 22.378906 28.816406 22.414062 C 28.78125 22.414062 28.78125 22.449219 28.75 22.449219 L 28.75 25.289062 C 29.0625 25.5 29.484375 25.640625 29.976562 25.640625 C 30.152344 25.640625 30.292969 25.640625 30.46875 25.605469 C 30.503906 25.605469 30.574219 25.570312 30.609375 25.570312 C 30.785156 25.5 31.242188 25.289062 31.695312 24.554688 C 31.835938 24.589844 32.046875 24.660156 32.328125 24.660156 C 32.609375 24.660156 32.925781 24.589844 33.277344 24.414062 C 34.046875 24.027344 34.679688 23.183594 35.136719 21.921875 C 34.679688 21.78125 34.433594 21.710938 34.398438 21.710938 C 34.363281 21.710938 34.292969 21.675781 34.257812 21.675781 C 34.117188 21.605469 33.941406 21.570312 33.765625 21.535156 C 33.347656 22.585938 32.925781 23.007812 32.644531 23.148438 C 32.503906 23.21875 32.363281 23.253906 32.257812 23.253906 C 32.433594 22.726562 32.609375 22.0625 32.714844 21.253906 C 32.222656 21.148438 31.730469 21.042969 31.34375 20.972656 C 31.03125 23.324219 30.292969 24.0625 30.082031 24.203125 C 29.730469 24.238281 29.519531 24.167969 29.449219 24.097656 C 29.484375 24.027344 29.484375 23.816406 29.484375 23.640625 C 29.554688 23.640625 29.625 23.605469 29.695312 23.535156 Z M 29.695312 23.535156 " fill-opacity="1" fill-rule="nonzero"/><path fill="#000000" d="M 9.125 29.503906 L 25.273438 29.503906 C 26.429688 29.503906 27.378906 28.554688 27.378906 27.398438 L 27.378906 20.410156 C 26.816406 20.269531 26.359375 20.164062 25.976562 20.058594 L 25.976562 27.433594 C 25.976562 27.816406 25.660156 28.132812 25.273438 28.132812 L 9.125 28.132812 C 8.742188 28.132812 8.425781 27.816406 8.425781 27.433594 L 8.425781 2.125 C 8.425781 1.738281 8.742188 1.421875 9.125 1.421875 L 25.273438 1.421875 C 25.660156 1.421875 25.976562 1.738281 25.976562 2.125 L 25.976562 12.023438 C 26.324219 11.988281 26.640625 11.953125 26.992188 11.988281 C 27.0625 11.988281 27.203125 11.988281 27.378906 11.988281 L 27.378906 2.125 C 27.378906 0.964844 26.429688 0.015625 25.273438 0.015625 L 9.125 0.015625 C 7.96875 0.015625 7.019531 0.964844 7.019531 2.125 L 7.019531 27.398438 C 7.019531 28.554688 7.96875 29.503906 9.125 29.503906 Z M 9.125 29.503906 " fill-opacity="1" fill-rule="nonzero"/><path fill="#000000" d="M 33.871094 10.054688 C 33.765625 10.125 33.347656 10.300781 32.609375 10.40625 C 32.574219 10.40625 32.503906 10.40625 32.433594 10.40625 C 31.90625 10.40625 31.414062 10.441406 30.960938 10.582031 C 30.398438 10.722656 29.90625 11.109375 29.589844 11.601562 C 29.449219 11.777344 29.34375 11.953125 29.203125 12.128906 C 29.660156 12.199219 30.1875 12.269531 30.75 12.375 C 30.890625 12.164062 31.101562 12.023438 31.308594 11.953125 C 31.660156 11.847656 32.011719 11.8125 32.398438 11.847656 C 32.574219 11.847656 32.714844 11.847656 32.820312 11.8125 C 34.433594 11.566406 34.820312 11.144531 34.925781 11.003906 C 35.171875 10.722656 35.171875 10.265625 34.855469 10.019531 C 34.574219 9.742188 34.152344 9.777344 33.871094 10.054688 Z M 33.871094 10.054688 " fill-opacity="1" fill-rule="nonzero"/><path fill="#000000" d="M 34.960938 33.046875 C 33.59375 32.03125 31.066406 32.207031 30.292969 32.347656 C 29.800781 31.996094 29.203125 31.785156 28.539062 31.679688 C 27.695312 31.574219 26.78125 31.679688 26.011719 31.996094 L 22.324219 33.539062 C 23.203125 33.75 24.078125 33.925781 24.921875 33.960938 L 26.570312 33.257812 C 27.132812 33.011719 27.765625 32.941406 28.363281 33.011719 C 28.574219 33.046875 28.78125 33.082031 28.957031 33.152344 L 26.675781 34.3125 C 26.851562 34.382812 26.992188 34.453125 27.167969 34.558594 C 27.484375 34.734375 27.765625 34.980469 27.976562 35.222656 L 31.207031 33.609375 C 31.976562 33.574219 33.066406 33.644531 33.765625 33.925781 L 28.679688 36.453125 C 28.78125 36.769531 28.816406 37.121094 28.78125 37.472656 C 28.78125 37.644531 28.75 37.820312 28.714844 37.996094 L 35.945312 34.417969 C 36.820312 34.453125 37.769531 34.664062 37.875 35.222656 C 37.980469 35.644531 37.558594 36.171875 36.785156 36.488281 L 22.535156 43.121094 C 21.796875 43.4375 20.921875 43.578125 20.042969 43.507812 C 19.585938 43.472656 19.128906 43.367188 18.640625 43.191406 L 10.53125 40.136719 C 10.496094 40.136719 10.496094 40.136719 10.460938 40.101562 C 9.933594 39.964844 9.371094 39.964844 8.84375 40.101562 L 6.28125 40.839844 L 6.28125 34.171875 L 6.84375 33.960938 C 7.828125 33.714844 8.878906 33.644531 9.898438 33.714844 C 11.511719 33.820312 13.023438 34.066406 14.460938 34.417969 C 15.515625 34.664062 16.566406 34.945312 17.585938 35.222656 C 18.464844 35.46875 19.410156 35.714844 20.324219 35.925781 L 20.359375 35.925781 C 21.832031 36.277344 23.34375 36.664062 24.921875 36.734375 C 25.238281 36.734375 25.519531 36.804688 25.660156 36.910156 C 25.941406 37.085938 25.941406 37.191406 25.90625 37.261719 C 25.871094 37.714844 25.132812 38.277344 24.007812 38.417969 C 22.113281 38.664062 19.726562 38.699219 16.320312 37.367188 C 15.972656 37.226562 15.550781 37.402344 15.410156 37.75 C 15.269531 38.101562 15.445312 38.523438 15.796875 38.664062 C 18.324219 39.683594 20.324219 39.964844 22.007812 39.964844 C 22.78125 39.964844 23.519531 39.894531 24.183594 39.824219 C 25.941406 39.613281 27.203125 38.59375 27.308594 37.367188 C 27.34375 36.699219 27.027344 36.101562 26.359375 35.714844 C 25.90625 35.433594 25.34375 35.363281 24.957031 35.328125 C 23.554688 35.257812 22.078125 34.910156 20.675781 34.558594 L 20.640625 34.558594 C 19.726562 34.347656 18.8125 34.101562 17.9375 33.855469 C 16.882812 33.574219 15.832031 33.292969 14.777344 33.046875 C 13.269531 32.695312 11.652344 32.453125 9.96875 32.3125 C 8.808594 32.242188 7.582031 32.347656 6.457031 32.625 C 6.421875 32.625 6.421875 32.625 6.386719 32.625 L 5.96875 32.765625 C 5.757812 32.3125 5.195312 31.960938 4.5625 31.960938 L 1.753906 31.960938 C 0.773438 31.960938 0 32.730469 0 33.714844 L 0 42.140625 C 0 43.121094 0.773438 43.894531 1.753906 43.894531 L 4.5625 43.894531 C 5.476562 43.894531 6.179688 43.226562 6.28125 42.351562 L 9.230469 41.507812 C 9.511719 41.4375 9.828125 41.4375 10.074219 41.507812 L 18.148438 44.527344 C 18.746094 44.738281 19.339844 44.878906 19.9375 44.949219 C 20.113281 44.949219 20.324219 44.984375 20.5 44.984375 C 21.410156 44.984375 22.324219 44.808594 23.132812 44.457031 L 37.382812 37.820312 C 38.785156 37.226562 39.523438 36.101562 39.277344 34.945312 C 38.785156 32.941406 35.980469 32.941406 34.960938 33.046875 Z M 4.914062 42.140625 C 4.914062 42.351562 4.773438 42.492188 4.5625 42.492188 L 1.753906 42.492188 C 1.542969 42.492188 1.402344 42.351562 1.402344 42.140625 L 1.402344 33.714844 C 1.402344 33.503906 1.542969 33.363281 1.753906 33.363281 L 4.5625 33.363281 C 4.773438 33.363281 4.914062 33.503906 4.914062 33.714844 Z M 4.914062 42.140625 " fill-opacity="1" fill-rule="nonzero"/></svg>