<svg xmlns="http://www.w3.org/2000/svg" xmlns:xlink="http://www.w3.org/1999/xlink" width="60" zoomAndPan="magnify" viewBox="0 0 45 44.999999" height="60" preserveAspectRatio="xMidYMid meet" version="1.0"><defs><clipPath id="id1"><path d="M 5 1.242188 L 40 1.242188 L 40 27 L 5 27 Z M 5 1.242188 " clip-rule="nonzero"/></clipPath><clipPath id="id2"><path d="M 2.398438 28 L 42.898438 28 L 42.898438 44.742188 L 2.398438 44.742188 Z M 2.398438 28 " clip-rule="nonzero"/></clipPath></defs><path fill="rgb(1.179504%, 1.179504%, 1.179504%)" d="M 37.453125 2.976562 L 21.433594 2.976562 C 21.242188 2.976562 21.089844 3.125 21.089844 3.3125 L 21.089844 8.433594 C 21.089844 8.617188 21.242188 8.769531 21.433594 8.769531 L 37.453125 8.769531 C 37.640625 8.769531 37.792969 8.617188 37.792969 8.433594 L 37.792969 3.3125 C 37.792969 3.125 37.640625 2.976562 37.453125 2.976562 Z M 37.109375 8.09375 L 21.777344 8.09375 L 21.777344 3.652344 L 37.109375 3.652344 Z M 37.109375 8.09375 " fill-opacity="1" fill-rule="nonzero"/><path fill="rgb(1.179504%, 1.179504%, 1.179504%)" d="M 25.851562 9.941406 L 21.5625 9.941406 C 21.375 9.941406 21.21875 10.09375 21.21875 10.28125 L 21.21875 12.554688 C 21.21875 12.742188 21.375 12.894531 21.5625 12.894531 L 25.851562 12.894531 C 26.042969 12.894531 26.195312 12.742188 26.195312 12.554688 L 26.195312 10.28125 C 26.195312 10.09375 26.042969 9.941406 25.851562 9.941406 Z M 25.507812 12.214844 L 21.90625 12.214844 L 21.90625 10.621094 L 25.507812 10.621094 Z M 25.507812 12.214844 " fill-opacity="1" fill-rule="nonzero"/><path fill="rgb(1.179504%, 1.179504%, 1.179504%)" d="M 31.652344 9.941406 L 27.363281 9.941406 C 27.171875 9.941406 27.019531 10.09375 27.019531 10.28125 L 27.019531 12.554688 C 27.019531 12.742188 27.171875 12.894531 27.363281 12.894531 L 31.652344 12.894531 C 31.839844 12.894531 31.996094 12.742188 31.996094 12.554688 L 31.996094 10.28125 C 31.996094 10.09375 31.839844 9.941406 31.652344 9.941406 Z M 31.308594 12.214844 L 27.707031 12.214844 L 27.707031 10.621094 L 31.308594 10.621094 Z M 31.308594 12.214844 " fill-opacity="1" fill-rule="nonzero"/><path fill="rgb(1.179504%, 1.179504%, 1.179504%)" d="M 37.449219 9.941406 L 33.164062 9.941406 C 32.972656 9.941406 32.820312 10.09375 32.820312 10.28125 L 32.820312 12.554688 C 32.820312 12.742188 32.972656 12.894531 33.164062 12.894531 L 37.449219 12.894531 C 37.640625 12.894531 37.792969 12.742188 37.792969 12.554688 L 37.792969 10.28125 C 37.792969 10.09375 37.640625 9.941406 37.449219 9.941406 Z M 37.109375 12.214844 L 33.503906 12.214844 L 33.503906 10.621094 L 37.109375 10.621094 Z M 37.109375 12.214844 " fill-opacity="1" fill-rule="nonzero"/><path fill="rgb(1.179504%, 1.179504%, 1.179504%)" d="M 25.851562 14.035156 L 21.5625 14.035156 C 21.375 14.035156 21.21875 14.1875 21.21875 14.375 L 21.21875 16.648438 C 21.21875 16.835938 21.375 16.988281 21.5625 16.988281 L 25.851562 16.988281 C 26.042969 16.988281 26.195312 16.835938 26.195312 16.648438 L 26.195312 14.375 C 26.195312 14.1875 26.042969 14.035156 25.851562 14.035156 Z M 25.507812 16.3125 L 21.90625 16.3125 L 21.90625 14.714844 L 25.507812 14.714844 Z M 25.507812 16.3125 " fill-opacity="1" fill-rule="nonzero"/><path fill="rgb(1.179504%, 1.179504%, 1.179504%)" d="M 31.652344 14.035156 L 27.363281 14.035156 C 27.171875 14.035156 27.019531 14.1875 27.019531 14.375 L 27.019531 16.648438 C 27.019531 16.835938 27.171875 16.988281 27.363281 16.988281 L 31.652344 16.988281 C 31.839844 16.988281 31.996094 16.835938 31.996094 16.648438 L 31.996094 14.375 C 31.996094 14.1875 31.839844 14.035156 31.652344 14.035156 Z M 31.308594 16.3125 L 27.707031 16.3125 L 27.707031 14.714844 L 31.308594 14.714844 Z M 31.308594 16.3125 " fill-opacity="1" fill-rule="nonzero"/><path fill="rgb(1.179504%, 1.179504%, 1.179504%)" d="M 37.449219 14.035156 L 33.164062 14.035156 C 32.972656 14.035156 32.820312 14.1875 32.820312 14.375 L 32.820312 16.648438 C 32.820312 16.835938 32.972656 16.988281 33.164062 16.988281 L 37.449219 16.988281 C 37.640625 16.988281 37.792969 16.835938 37.792969 16.648438 L 37.792969 14.375 C 37.792969 14.1875 37.640625 14.035156 37.449219 14.035156 Z M 37.109375 16.3125 L 33.503906 16.3125 L 33.503906 14.714844 L 37.109375 14.714844 Z M 37.109375 16.3125 " fill-opacity="1" fill-rule="nonzero"/><path fill="rgb(1.179504%, 1.179504%, 1.179504%)" d="M 25.851562 18.132812 L 21.5625 18.132812 C 21.375 18.132812 21.21875 18.28125 21.21875 18.46875 L 21.21875 20.746094 C 21.21875 20.933594 21.375 21.082031 21.5625 21.082031 L 25.851562 21.082031 C 26.042969 21.082031 26.195312 20.933594 26.195312 20.746094 L 26.195312 18.46875 C 26.195312 18.28125 26.042969 18.132812 25.851562 18.132812 Z M 25.507812 20.40625 L 21.90625 20.40625 L 21.90625 18.808594 L 25.507812 18.808594 Z M 25.507812 20.40625 " fill-opacity="1" fill-rule="nonzero"/><path fill="rgb(1.179504%, 1.179504%, 1.179504%)" d="M 31.652344 18.132812 L 27.363281 18.132812 C 27.171875 18.132812 27.019531 18.28125 27.019531 18.46875 L 27.019531 20.746094 C 27.019531 20.933594 27.171875 21.082031 27.363281 21.082031 L 31.652344 21.082031 C 31.839844 21.082031 31.996094 20.933594 31.996094 20.746094 L 31.996094 18.46875 C 31.996094 18.28125 31.839844 18.132812 31.652344 18.132812 Z M 31.308594 20.40625 L 27.707031 20.40625 L 27.707031 18.808594 L 31.308594 18.808594 Z M 31.308594 20.40625 " fill-opacity="1" fill-rule="nonzero"/><path fill="rgb(1.179504%, 1.179504%, 1.179504%)" d="M 37.449219 18.132812 L 33.164062 18.132812 C 32.972656 18.132812 32.820312 18.28125 32.820312 18.46875 L 32.820312 20.746094 C 32.820312 20.933594 32.972656 21.082031 33.164062 21.082031 L 37.449219 21.082031 C 37.640625 21.082031 37.792969 20.933594 37.792969 20.746094 L 37.792969 18.46875 C 37.792969 18.28125 37.640625 18.132812 37.449219 18.132812 Z M 37.109375 20.40625 L 33.503906 20.40625 L 33.503906 18.808594 L 37.109375 18.808594 Z M 37.109375 20.40625 " fill-opacity="1" fill-rule="nonzero"/><path fill="rgb(1.179504%, 1.179504%, 1.179504%)" d="M 25.851562 22.226562 L 21.5625 22.226562 C 21.375 22.226562 21.21875 22.378906 21.21875 22.566406 L 21.21875 24.839844 C 21.21875 25.027344 21.375 25.179688 21.5625 25.179688 L 25.851562 25.179688 C 26.042969 25.179688 26.195312 25.027344 26.195312 24.839844 L 26.195312 22.566406 C 26.195312 22.378906 26.042969 22.226562 25.851562 22.226562 Z M 25.507812 24.5 L 21.90625 24.5 L 21.90625 22.902344 L 25.507812 22.902344 Z M 25.507812 24.5 " fill-opacity="1" fill-rule="nonzero"/><path fill="rgb(1.179504%, 1.179504%, 1.179504%)" d="M 31.652344 22.226562 L 27.363281 22.226562 C 27.171875 22.226562 27.019531 22.378906 27.019531 22.566406 L 27.019531 24.839844 C 27.019531 25.027344 27.171875 25.179688 27.363281 25.179688 L 31.652344 25.179688 C 31.839844 25.179688 31.996094 25.027344 31.996094 24.839844 L 31.996094 22.566406 C 31.996094 22.378906 31.839844 22.226562 31.652344 22.226562 Z M 31.308594 24.5 L 27.707031 24.5 L 27.707031 22.902344 L 31.308594 22.902344 Z M 31.308594 24.5 " fill-opacity="1" fill-rule="nonzero"/><path fill="rgb(1.179504%, 1.179504%, 1.179504%)" d="M 37.449219 22.226562 L 33.164062 22.226562 C 32.972656 22.226562 32.820312 22.378906 32.820312 22.566406 L 32.820312 24.839844 C 32.820312 25.027344 32.972656 25.179688 33.164062 25.179688 L 37.449219 25.179688 C 37.640625 25.179688 37.792969 25.027344 37.792969 24.839844 L 37.792969 22.566406 C 37.792969 22.378906 37.640625 22.226562 37.449219 22.226562 Z M 37.109375 24.5 L 33.503906 24.5 L 33.503906 22.902344 L 37.109375 22.902344 Z M 37.109375 24.5 " fill-opacity="1" fill-rule="nonzero"/><path fill="rgb(1.179504%, 1.179504%, 1.179504%)" d="M 15.152344 13.847656 L 15.558594 14.007812 L 15.476562 14.207031 C 15.40625 14.378906 15.492188 14.578125 15.667969 14.648438 C 15.710938 14.664062 15.753906 14.671875 15.796875 14.671875 C 15.933594 14.671875 16.0625 14.589844 16.113281 14.457031 L 16.214844 14.210938 C 16.242188 14.210938 16.265625 14.214844 16.292969 14.214844 C 16.738281 14.214844 17.160156 13.949219 17.335938 13.515625 C 17.566406 12.949219 17.285156 12.304688 16.710938 12.078125 L 16.601562 12.03125 C 16.375 11.945312 16.265625 11.695312 16.355469 11.472656 C 16.445312 11.253906 16.699219 11.144531 16.925781 11.230469 L 17.035156 11.277344 L 17.648438 11.519531 C 17.824219 11.585938 18.023438 11.503906 18.09375 11.328125 C 18.164062 11.15625 18.078125 10.957031 17.902344 10.890625 L 17.605469 10.773438 L 17.6875 10.574219 C 17.757812 10.402344 17.671875 10.203125 17.496094 10.132812 C 17.320312 10.066406 17.121094 10.148438 17.050781 10.324219 L 16.960938 10.542969 C 16.445312 10.449219 15.921875 10.726562 15.71875 11.222656 C 15.488281 11.789062 15.769531 12.4375 16.34375 12.660156 L 16.453125 12.707031 C 16.679688 12.792969 16.789062 13.046875 16.699219 13.265625 C 16.609375 13.484375 16.355469 13.59375 16.132812 13.507812 C 16.132812 13.507812 16.132812 13.507812 16.128906 13.507812 C 16.128906 13.503906 16.128906 13.503906 16.128906 13.503906 L 15.40625 13.21875 C 15.230469 13.152344 15.03125 13.234375 14.960938 13.410156 C 14.890625 13.582031 14.976562 13.78125 15.152344 13.847656 Z M 15.152344 13.847656 " fill-opacity="1" fill-rule="nonzero"/><g clip-path="url(#id1)"><path fill="rgb(1.179504%, 1.179504%, 1.179504%)" d="M 5.542969 21.261719 C 5.484375 21.480469 5.453125 21.707031 5.453125 21.933594 C 5.453125 22.160156 5.484375 22.382812 5.542969 22.605469 C 5.484375 22.824219 5.453125 23.050781 5.453125 23.277344 C 5.453125 25.125 7.359375 26.632812 9.703125 26.632812 C 10.898438 26.632812 12.042969 26.234375 12.847656 25.539062 C 12.988281 25.414062 13.003906 25.199219 12.878906 25.058594 C 12.753906 24.917969 12.535156 24.90625 12.394531 25.027344 C 11.714844 25.617188 10.734375 25.953125 9.703125 25.953125 C 8.011719 25.953125 6.59375 25.0625 6.230469 23.875 C 7.007812 24.742188 8.28125 25.289062 9.703125 25.289062 C 10.753906 25.289062 11.765625 24.980469 12.539062 24.433594 C 13.136719 25.714844 14.699219 26.632812 16.527344 26.632812 C 17.460938 26.632812 18.367188 26.386719 19.101562 25.945312 L 19.101562 26.574219 C 19.101562 26.761719 19.253906 26.914062 19.441406 26.914062 L 39.441406 26.914062 C 39.628906 26.914062 39.785156 26.761719 39.785156 26.574219 L 39.785156 1.578125 C 39.785156 1.390625 39.628906 1.238281 39.441406 1.238281 L 19.441406 1.238281 C 19.253906 1.238281 19.101562 1.390625 19.101562 1.578125 L 19.101562 9.699219 C 18.367188 9.257812 17.460938 9.015625 16.527344 9.015625 C 15.132812 9.015625 13.894531 9.546875 13.117188 10.367188 C 12.992188 10.222656 12.878906 10.128906 12.835938 10.097656 C 12.035156 9.410156 10.894531 9.015625 9.703125 9.015625 C 7.359375 9.015625 5.453125 10.519531 5.453125 12.367188 C 5.453125 12.59375 5.484375 12.820312 5.542969 13.042969 C 5.484375 13.261719 5.453125 13.488281 5.453125 13.714844 C 5.453125 13.941406 5.484375 14.167969 5.542969 14.386719 C 5.484375 14.605469 5.453125 14.832031 5.453125 15.058594 C 5.453125 15.285156 5.484375 15.507812 5.542969 15.730469 C 5.484375 15.949219 5.453125 16.175781 5.453125 16.402344 C 5.453125 16.628906 5.484375 16.855469 5.542969 17.074219 C 5.484375 17.292969 5.453125 17.519531 5.453125 17.746094 C 5.453125 18.003906 5.492188 18.253906 5.5625 18.492188 C 5.492188 18.738281 5.453125 18.992188 5.453125 19.242188 C 5.453125 19.472656 5.484375 19.695312 5.542969 19.917969 C 5.484375 20.136719 5.453125 20.363281 5.453125 20.589844 C 5.453125 20.8125 5.484375 21.039062 5.542969 21.261719 Z M 19.101562 19.59375 C 18.429688 20.125 17.5 20.425781 16.527344 20.425781 C 14.835938 20.425781 13.417969 19.535156 13.054688 18.34375 C 13.828125 19.210938 15.105469 19.757812 16.527344 19.757812 C 17.460938 19.757812 18.367188 19.511719 19.101562 19.074219 Z M 19.101562 18.25 C 18.429688 18.777344 17.5 19.082031 16.527344 19.082031 C 14.875 19.082031 13.417969 18.203125 13.050781 16.992188 C 13.839844 17.878906 15.125 18.414062 16.527344 18.414062 C 17.460938 18.414062 18.367188 18.167969 19.101562 17.726562 Z M 16.527344 21.101562 C 17.460938 21.101562 18.367188 20.855469 19.101562 20.417969 L 19.101562 21.09375 C 18.425781 21.621094 17.5 21.921875 16.527344 21.921875 C 15.503906 21.921875 14.527344 21.585938 13.847656 21.003906 C 13.636719 20.824219 13.457031 20.621094 13.316406 20.40625 C 13.199219 20.222656 13.109375 20.027344 13.046875 19.820312 C 13.027344 19.753906 13.011719 19.683594 13 19.613281 C 13.761719 20.511719 15.058594 21.101562 16.527344 21.101562 Z M 13.050781 21.175781 C 13.15625 21.296875 13.273438 21.410156 13.398438 21.515625 C 14.199219 22.203125 15.339844 22.597656 16.527344 22.597656 C 17.460938 22.597656 18.367188 22.355469 19.101562 21.914062 L 19.101562 22.4375 C 18.429688 22.964844 17.5 23.265625 16.527344 23.265625 C 15.171875 23.265625 13.914062 22.671875 13.316406 21.75 C 13.199219 21.570312 13.113281 21.378906 13.050781 21.175781 Z M 19.101562 16.90625 C 18.429688 17.433594 17.5 17.734375 16.527344 17.734375 C 15.171875 17.734375 13.914062 17.140625 13.316406 16.21875 C 13.199219 16.039062 13.113281 15.847656 13.050781 15.648438 C 13.15625 15.765625 13.273438 15.878906 13.398438 15.984375 C 14.199219 16.675781 15.339844 17.070312 16.527344 17.070312 C 17.460938 17.070312 18.363281 16.824219 19.101562 16.382812 Z M 12.320312 16.871094 C 11.644531 17.421875 10.699219 17.734375 9.703125 17.734375 C 8.347656 17.734375 7.089844 17.140625 6.496094 16.21875 C 6.378906 16.039062 6.289062 15.847656 6.230469 15.648438 C 6.335938 15.765625 6.449219 15.878906 6.574219 15.984375 C 7.375 16.675781 8.515625 17.070312 9.703125 17.070312 C 10.636719 17.070312 11.539062 16.824219 12.277344 16.382812 C 12.277344 16.390625 12.277344 16.394531 12.277344 16.402344 C 12.277344 16.558594 12.292969 16.714844 12.320312 16.871094 Z M 6.230469 16.992188 C 7.015625 17.878906 8.300781 18.414062 9.703125 18.414062 C 10.640625 18.414062 11.542969 18.167969 12.277344 17.726562 C 12.277344 17.734375 12.277344 17.738281 12.277344 17.746094 C 12.277344 17.90625 12.292969 18.0625 12.320312 18.214844 C 11.644531 18.765625 10.699219 19.082031 9.703125 19.082031 C 8.054688 19.082031 6.59375 18.203125 6.230469 16.992188 Z M 13.050781 22.523438 C 13.839844 23.410156 15.125 23.945312 16.527344 23.945312 C 17.460938 23.945312 18.367188 23.699219 19.101562 23.257812 L 19.101562 23.78125 C 18.425781 24.308594 17.5 24.609375 16.527344 24.609375 C 14.875 24.609375 13.417969 23.734375 13.050781 22.523438 Z M 19.101562 15.5625 C 18.425781 16.089844 17.5 16.390625 16.527344 16.390625 C 15.503906 16.390625 14.527344 16.058594 13.847656 15.472656 C 13.636719 15.292969 13.457031 15.09375 13.316406 14.875 C 13.203125 14.695312 13.113281 14.507812 13.054688 14.3125 C 13.832031 15.179688 15.105469 15.726562 16.527344 15.726562 C 17.460938 15.726562 18.367188 15.480469 19.101562 15.042969 Z M 12.320312 15.527344 C 11.644531 16.078125 10.695312 16.390625 9.703125 16.390625 C 8.679688 16.390625 7.703125 16.058594 7.023438 15.472656 C 6.8125 15.292969 6.636719 15.089844 6.496094 14.875 C 6.378906 14.695312 6.292969 14.507812 6.230469 14.3125 C 7.007812 15.179688 8.285156 15.726562 9.703125 15.726562 C 10.640625 15.726562 11.542969 15.480469 12.277344 15.039062 C 12.277344 15.046875 12.277344 15.050781 12.277344 15.058594 C 12.277344 15.214844 12.292969 15.371094 12.320312 15.527344 Z M 6.230469 18.34375 C 7.007812 19.210938 8.28125 19.757812 9.703125 19.757812 C 10.640625 19.757812 11.546875 19.511719 12.28125 19.070312 C 12.28125 19.128906 12.277344 19.1875 12.277344 19.242188 C 12.277344 19.355469 12.285156 19.464844 12.300781 19.578125 C 11.625 20.117188 10.6875 20.425781 9.703125 20.425781 C 8.015625 20.425781 6.59375 19.535156 6.230469 18.34375 Z M 12.320312 22.402344 C 11.644531 22.953125 10.699219 23.265625 9.703125 23.265625 C 8.351562 23.265625 7.089844 22.671875 6.496094 21.75 C 6.378906 21.570312 6.289062 21.378906 6.230469 21.175781 C 6.335938 21.296875 6.449219 21.410156 6.574219 21.515625 C 7.375 22.203125 8.515625 22.597656 9.703125 22.597656 C 10.636719 22.597656 11.542969 22.355469 12.277344 21.914062 C 12.277344 21.921875 12.277344 21.925781 12.277344 21.933594 C 12.277344 22.089844 12.292969 22.246094 12.320312 22.402344 Z M 9.703125 24.609375 C 8.054688 24.609375 6.597656 23.734375 6.230469 22.523438 C 7.019531 23.410156 8.300781 23.945312 9.703125 23.945312 C 10.640625 23.945312 11.542969 23.699219 12.277344 23.257812 C 12.277344 23.265625 12.277344 23.269531 12.277344 23.277344 C 12.277344 23.4375 12.292969 23.59375 12.320312 23.746094 C 11.644531 24.296875 10.699219 24.609375 9.703125 24.609375 Z M 16.527344 25.953125 C 14.835938 25.953125 13.417969 25.0625 13.054688 23.875 C 13.828125 24.742188 15.105469 25.289062 16.527344 25.289062 C 17.460938 25.289062 18.367188 25.042969 19.101562 24.601562 L 19.101562 25.125 C 18.425781 25.652344 17.5 25.953125 16.527344 25.953125 Z M 19.785156 1.917969 L 39.097656 1.917969 L 39.097656 26.234375 L 19.785156 26.234375 Z M 16.527344 9.691406 C 17.5 9.691406 18.429688 9.992188 19.101562 10.519531 L 19.101562 14.21875 C 18.429688 14.746094 17.5 15.046875 16.527344 15.046875 C 14.871094 15.046875 13.40625 14.164062 13.046875 12.949219 C 13.046875 12.945312 13.042969 12.941406 13.042969 12.9375 C 12.992188 12.75 12.964844 12.558594 12.964844 12.367188 C 12.964844 10.890625 14.5625 9.691406 16.527344 9.691406 Z M 9.703125 9.691406 C 10.734375 9.691406 11.714844 10.027344 12.394531 10.617188 C 12.398438 10.621094 12.410156 10.628906 12.414062 10.632812 C 12.417969 10.636719 12.554688 10.738281 12.691406 10.925781 C 12.425781 11.363281 12.277344 11.851562 12.277344 12.367188 C 12.277344 12.59375 12.308594 12.820312 12.363281 13.042969 C 12.308594 13.261719 12.277344 13.488281 12.277344 13.714844 C 12.277344 13.871094 12.292969 14.027344 12.320312 14.183594 C 11.644531 14.734375 10.699219 15.046875 9.703125 15.046875 C 8.050781 15.046875 6.589844 14.167969 6.226562 12.953125 C 6.226562 12.949219 6.222656 12.941406 6.21875 12.933594 C 6.167969 12.75 6.140625 12.558594 6.140625 12.367188 C 6.140625 10.890625 7.738281 9.691406 9.703125 9.691406 Z M 9.703125 21.101562 C 10.644531 21.101562 11.546875 20.855469 12.28125 20.414062 C 12.28125 20.472656 12.277344 20.53125 12.277344 20.589844 C 12.277344 20.746094 12.292969 20.902344 12.320312 21.058594 C 11.644531 21.605469 10.695312 21.921875 9.703125 21.921875 C 8.679688 21.921875 7.703125 21.585938 7.023438 21.003906 C 6.8125 20.824219 6.632812 20.621094 6.496094 20.40625 C 6.375 20.222656 6.285156 20.027344 6.226562 19.820312 C 6.203125 19.753906 6.1875 19.683594 6.175781 19.613281 C 6.941406 20.511719 8.238281 21.101562 9.703125 21.101562 Z M 9.703125 21.101562 " fill-opacity="1" fill-rule="nonzero"/></g><path fill="rgb(1.179504%, 1.179504%, 1.179504%)" d="M 8.328125 13.847656 L 8.734375 14.007812 L 8.65625 14.207031 C 8.585938 14.378906 8.671875 14.578125 8.847656 14.648438 C 8.886719 14.664062 8.929688 14.671875 8.972656 14.671875 C 9.109375 14.671875 9.238281 14.589844 9.292969 14.457031 L 9.390625 14.210938 C 9.417969 14.210938 9.441406 14.214844 9.46875 14.214844 C 9.914062 14.214844 10.339844 13.949219 10.511719 13.515625 C 10.625 13.242188 10.621094 12.941406 10.503906 12.667969 C 10.382812 12.398438 10.164062 12.1875 9.886719 12.078125 L 9.777344 12.03125 C 9.554688 11.945312 9.445312 11.691406 9.53125 11.472656 C 9.621094 11.253906 9.878906 11.144531 10.101562 11.230469 L 10.824219 11.519531 C 11 11.585938 11.199219 11.503906 11.273438 11.328125 C 11.34375 11.15625 11.257812 10.957031 11.082031 10.890625 L 10.785156 10.773438 L 10.863281 10.574219 C 10.933594 10.402344 10.847656 10.203125 10.671875 10.132812 C 10.496094 10.066406 10.296875 10.148438 10.226562 10.324219 L 10.136719 10.542969 C 9.625 10.449219 9.097656 10.726562 8.894531 11.222656 C 8.664062 11.789062 8.945312 12.433594 9.519531 12.660156 L 9.632812 12.707031 C 9.742188 12.75 9.824219 12.828125 9.871094 12.9375 C 9.917969 13.042969 9.917969 13.160156 9.875 13.265625 C 9.785156 13.484375 9.53125 13.59375 9.308594 13.507812 C 9.308594 13.507812 9.308594 13.507812 9.308594 13.503906 C 9.304688 13.503906 9.304688 13.503906 9.304688 13.503906 L 8.582031 13.21875 C 8.40625 13.152344 8.207031 13.234375 8.136719 13.410156 C 8.066406 13.582031 8.152344 13.78125 8.328125 13.847656 Z M 8.328125 13.847656 " fill-opacity="1" fill-rule="nonzero"/><g clip-path="url(#id2)"><path fill="rgb(1.179504%, 1.179504%, 1.179504%)" d="M 41.921875 28.417969 C 40.25 27.542969 36.527344 29.226562 30.546875 33.5625 C 29.875 32.417969 28.566406 32.496094 26.820312 32.601562 C 25.121094 32.703125 22.792969 32.84375 19.902344 31.96875 C 14.253906 30.253906 8.746094 31.433594 7.160156 31.84375 L 7.160156 30.863281 C 7.160156 29.972656 6.425781 29.246094 5.519531 29.246094 L 4.050781 29.246094 C 3.148438 29.246094 2.414062 29.972656 2.414062 30.863281 L 2.414062 42.144531 C 2.414062 43.035156 3.148438 43.761719 4.050781 43.761719 L 5.519531 43.761719 C 6.425781 43.761719 7.160156 43.035156 7.160156 42.144531 L 7.160156 41.3125 C 8.714844 41.515625 14.542969 42.320312 17.035156 43.160156 L 17.160156 43.199219 C 18.542969 43.667969 20.097656 44.191406 21.953125 44.191406 C 22.09375 44.191406 22.238281 44.1875 22.386719 44.179688 C 24.746094 44.078125 27.117188 43.101562 29.625 41.195312 C 30.714844 40.367188 31.898438 39.476562 33.042969 38.617188 C 35.410156 36.835938 37.859375 34.996094 39.671875 33.566406 C 42.816406 31.085938 42.816406 30.8125 42.816406 30.570312 C 42.816406 30.542969 42.816406 30.511719 42.820312 30.472656 C 42.835938 30.046875 42.882812 28.921875 41.921875 28.417969 Z M 5.519531 43.085938 L 4.050781 43.085938 C 3.527344 43.085938 3.097656 42.664062 3.097656 42.144531 L 3.097656 30.863281 C 3.097656 30.34375 3.527344 29.921875 4.050781 29.921875 L 5.519531 29.921875 C 6.046875 29.921875 6.472656 30.34375 6.472656 30.863281 L 6.472656 32.285156 C 6.472656 32.289062 6.472656 32.289062 6.472656 32.292969 L 6.472656 40.925781 C 6.472656 40.929688 6.472656 40.929688 6.472656 40.929688 L 6.472656 42.144531 C 6.472656 42.664062 6.046875 43.085938 5.519531 43.085938 Z M 42.132812 30.445312 C 42.132812 30.472656 42.128906 30.496094 42.128906 30.519531 C 41.742188 31.222656 36.695312 35.019531 32.628906 38.078125 C 31.484375 38.9375 30.300781 39.828125 29.207031 40.65625 C 23.835938 44.734375 20.257812 43.527344 17.382812 42.558594 L 17.257812 42.515625 C 14.621094 41.628906 8.59375 40.816406 7.160156 40.628906 L 7.160156 32.546875 C 8.382812 32.222656 14.046875 30.898438 19.703125 32.613281 C 22.710938 33.527344 25.109375 33.382812 26.859375 33.277344 C 28.863281 33.15625 29.695312 33.148438 30.089844 34.199219 C 30.089844 34.203125 30.089844 34.203125 30.089844 34.203125 C 30.144531 34.34375 30.191406 34.507812 30.226562 34.691406 C 30.320312 35.164062 30.226562 35.554688 29.941406 35.886719 C 28.574219 37.476562 23.386719 37.324219 21.683594 37.273438 C 21.429688 37.265625 21.230469 37.261719 21.09375 37.261719 L 18.710938 37.261719 C 18.519531 37.261719 18.367188 37.414062 18.367188 37.601562 C 18.367188 37.789062 18.519531 37.9375 18.710938 37.9375 L 21.09375 37.9375 C 21.21875 37.9375 21.414062 37.945312 21.664062 37.953125 C 25.023438 38.050781 29.0625 37.953125 30.464844 36.324219 C 30.886719 35.832031 31.035156 35.238281 30.902344 34.5625 C 30.875 34.4375 30.847656 34.320312 30.816406 34.207031 C 38.34375 28.730469 40.804688 28.601562 41.601562 29.015625 C 42.113281 29.285156 42.15625 29.886719 42.132812 30.445312 Z M 42.132812 30.445312 " fill-opacity="1" fill-rule="nonzero"/></g></svg>