<svg xmlns="http://www.w3.org/2000/svg" xmlns:xlink="http://www.w3.org/1999/xlink" width="60" zoomAndPan="magnify" viewBox="0 0 45 44.999999" height="60" preserveAspectRatio="xMidYMid meet" version="1.0"><path fill="rgb(0%, 0%, 0%)" d="M 32.316406 9.824219 L 12.800781 9.824219 L 12.800781 13.394531 L 32.316406 13.394531 Z M 12.355469 8.933594 L 33.207031 8.933594 L 33.207031 14.285156 L 11.910156 14.285156 L 11.910156 8.933594 L 12.355469 8.933594 " fill-opacity="1" fill-rule="nonzero"/><path fill="rgb(0%, 0%, 0%)" d="M 27.21875 19.417969 L 17.910156 19.417969 L 17.910156 21.078125 L 27.21875 21.078125 Z M 17.464844 18.527344 L 28.109375 18.527344 L 28.109375 21.96875 L 17.019531 21.96875 L 17.019531 18.527344 L 17.464844 18.527344 " fill-opacity="1" fill-rule="nonzero"/><path fill="rgb(0%, 0%, 0%)" d="M 40.613281 19.417969 L 31.304688 19.417969 L 31.304688 21.078125 L 40.613281 21.078125 Z M 30.859375 18.527344 L 41.503906 18.527344 L 41.503906 21.96875 L 30.414062 21.96875 L 30.414062 18.527344 L 30.859375 18.527344 " fill-opacity="1" fill-rule="nonzero"/><path fill="rgb(0%, 0%, 0%)" d="M 13.824219 19.417969 L 4.515625 19.417969 L 4.515625 21.078125 L 13.824219 21.078125 Z M 4.070312 18.527344 L 14.714844 18.527344 L 14.714844 21.96875 L 3.625 21.96875 L 3.625 18.527344 L 4.070312 18.527344 " fill-opacity="1" fill-rule="nonzero"/><path fill="rgb(0%, 0%, 0%)" d="M 19.882812 36.199219 L 11.742188 36.199219 L 11.742188 32.929688 L 20.328125 32.929688 L 20.328125 36.199219 Z M 12.632812 35.308594 L 19.4375 35.308594 L 19.4375 33.820312 L 12.632812 33.820312 L 12.632812 35.308594 " fill-opacity="1" fill-rule="nonzero"/><path fill="rgb(0%, 0%, 0%)" d="M 9.777344 36.199219 L 1.636719 36.199219 L 1.636719 32.929688 L 10.222656 32.929688 L 10.222656 36.199219 Z M 2.527344 35.308594 L 9.332031 35.308594 L 9.332031 33.820312 L 2.527344 33.820312 L 2.527344 35.308594 " fill-opacity="1" fill-rule="nonzero"/><path fill="rgb(0%, 0%, 0%)" d="M 43.050781 36.199219 L 34.90625 36.199219 L 34.90625 32.929688 L 43.496094 32.929688 L 43.496094 36.199219 Z M 35.796875 35.308594 L 42.605469 35.308594 L 42.605469 33.820312 L 35.796875 33.820312 L 35.796875 35.308594 " fill-opacity="1" fill-rule="nonzero"/><path fill="rgb(0%, 0%, 0%)" d="M 32.941406 36.199219 L 24.800781 36.199219 L 24.800781 32.929688 L 33.386719 32.929688 L 33.386719 36.199219 Z M 25.691406 35.308594 L 32.496094 35.308594 L 32.496094 33.820312 L 25.691406 33.820312 L 25.691406 35.308594 " fill-opacity="1" fill-rule="nonzero"/><path fill="rgb(0%, 0%, 0%)" d="M 31.464844 29.21875 L 23.324219 29.21875 L 23.324219 25.945312 L 31.910156 25.945312 L 31.910156 29.21875 Z M 24.214844 28.328125 L 31.019531 28.328125 L 31.019531 26.835938 L 24.214844 26.835938 L 24.214844 28.328125 " fill-opacity="1" fill-rule="nonzero"/><path fill="rgb(0%, 0%, 0%)" d="M 21.359375 29.21875 L 13.21875 29.21875 L 13.21875 25.945312 L 21.804688 25.945312 L 21.804688 29.21875 Z M 14.109375 28.328125 L 20.914062 28.328125 L 20.914062 26.835938 L 14.109375 26.835938 L 14.109375 28.328125 " fill-opacity="1" fill-rule="nonzero"/><path fill="rgb(0%, 0%, 0%)" d="M 14.609375 13.839844 L 14.609375 17.269531 L 9.503906 17.269531 L 9.503906 18.972656 L 8.835938 18.972656 L 8.835938 16.601562 L 13.941406 16.601562 L 13.941406 13.839844 L 14.609375 13.839844 " fill-opacity="1" fill-rule="nonzero"/><path fill="rgb(0%, 0%, 0%)" d="M 31.183594 13.839844 L 31.183594 16.605469 L 36.28125 16.605469 L 36.28125 18.976562 L 35.613281 18.976562 L 35.613281 17.273438 L 30.847656 17.269531 L 30.515625 17.269531 L 30.515625 13.839844 L 31.183594 13.839844 " fill-opacity="1" fill-rule="nonzero"/><path fill="rgb(0%, 0%, 0%)" d="M 22.894531 13.839844 L 22.894531 18.972656 L 22.226562 18.972656 L 22.226562 13.839844 L 22.894531 13.839844 " fill-opacity="1" fill-rule="nonzero"/><path fill="rgb(0%, 0%, 0%)" d="M 22.890625 21.523438 L 22.898438 24.667969 L 22.230469 24.667969 L 22.226562 21.523438 L 22.890625 21.523438 " fill-opacity="1" fill-rule="nonzero"/><path fill="rgb(0%, 0%, 0%)" d="M 17.171875 26.390625 L 17.171875 24.332031 L 27.949219 24.332031 L 27.949219 26.390625 L 27.28125 26.390625 L 27.28125 25 L 17.839844 25 L 17.839844 26.390625 L 17.171875 26.390625 " fill-opacity="1" fill-rule="nonzero"/><path fill="rgb(0%, 0%, 0%)" d="M 9.5 21.523438 L 9.507812 31.363281 L 8.839844 31.363281 L 8.835938 21.523438 L 9.5 21.523438 " fill-opacity="1" fill-rule="nonzero"/><path fill="rgb(0%, 0%, 0%)" d="M 5.59375 33.375 L 5.59375 31.027344 L 16.371094 31.027344 L 16.371094 33.375 L 15.703125 33.375 L 15.703125 31.695312 L 6.261719 31.695312 L 6.261719 33.375 L 5.59375 33.375 " fill-opacity="1" fill-rule="nonzero"/><path fill="rgb(0%, 0%, 0%)" d="M 36.292969 21.523438 L 36.289062 31.363281 L 35.621094 31.363281 L 35.628906 21.523438 L 36.292969 21.523438 " fill-opacity="1" fill-rule="nonzero"/><path fill="rgb(0%, 0%, 0%)" d="M 38.867188 33.375 L 38.867188 31.695312 L 29.429688 31.695312 L 29.429688 33.375 L 28.761719 33.375 L 28.761719 31.027344 L 39.535156 31.027344 L 39.535156 33.375 L 38.867188 33.375 " fill-opacity="1" fill-rule="nonzero"/></svg>