<svg xmlns="http://www.w3.org/2000/svg" xmlns:xlink="http://www.w3.org/1999/xlink" width="60" zoomAndPan="magnify" viewBox="0 0 45 44.999999" height="60" preserveAspectRatio="xMidYMid meet" version="1.0"><defs><clipPath id="id1"><path d="M 0 3.769531 L 23 3.769531 L 23 11 L 0 11 Z M 0 3.769531 " clip-rule="nonzero"/></clipPath><clipPath id="id2"><path d="M 18 35 L 27 35 L 27 41.269531 L 18 41.269531 Z M 18 35 " clip-rule="nonzero"/></clipPath><clipPath id="id3"><path d="M 12 3.769531 L 45 3.769531 L 45 23 L 12 23 Z M 12 3.769531 " clip-rule="nonzero"/></clipPath></defs><path fill="rgb(0%, 0%, 0%)" d="M 5.824219 29.140625 C 5.660156 29.140625 5.496094 29.101562 5.34375 29.007812 L 0.6875 26.210938 C 0.246094 25.945312 0.101562 25.375 0.367188 24.929688 C 0.632812 24.488281 1.203125 24.339844 1.644531 24.609375 L 6.304688 27.410156 C 6.746094 27.671875 6.886719 28.246094 6.621094 28.6875 C 6.449219 28.980469 6.136719 29.140625 5.824219 29.140625 Z M 5.824219 29.140625 " fill-opacity="1" fill-rule="nonzero"/><g clip-path="url(#id1)"><path fill="rgb(0%, 0%, 0%)" d="M 21.320312 10.488281 C 21.230469 10.488281 21.136719 10.476562 21.046875 10.449219 C 17.734375 9.433594 13.792969 9.28125 9.335938 9.992188 C 7.460938 10.289062 5.558594 9.765625 4.113281 8.5625 L 0.570312 5.605469 C 0.171875 5.273438 0.121094 4.6875 0.449219 4.292969 C 0.777344 3.898438 1.363281 3.839844 1.761719 4.171875 L 5.308594 7.128906 C 6.335938 7.992188 7.707031 8.367188 9.042969 8.148438 C 13.78125 7.398438 18.003906 7.566406 21.589844 8.664062 C 22.082031 8.8125 22.359375 9.335938 22.210938 9.828125 C 22.089844 10.230469 21.71875 10.488281 21.320312 10.488281 Z M 21.320312 10.488281 " fill-opacity="1" fill-rule="nonzero"/></g><path fill="rgb(0%, 0%, 0%)" d="M 28.652344 39.402344 C 27.539062 39.402344 26.445312 39.019531 25.578125 38.324219 L 21.058594 34.472656 C 20.667969 34.140625 20.617188 33.550781 20.953125 33.160156 C 21.285156 32.765625 21.875 32.71875 22.265625 33.050781 L 26.761719 36.882812 C 27.28125 37.296875 27.960938 37.539062 28.652344 37.539062 C 29.421875 37.539062 30.046875 36.910156 30.046875 36.140625 C 30.046875 35.734375 29.875 35.351562 29.570312 35.089844 L 21.066406 27.992188 C 20.671875 27.664062 20.617188 27.074219 20.945312 26.679688 C 21.277344 26.289062 21.859375 26.230469 22.257812 26.5625 L 30.738281 33.636719 C 30.75 33.644531 30.765625 33.65625 30.777344 33.667969 L 32.734375 35.300781 C 33.019531 35.542969 33.386719 35.671875 33.757812 35.671875 L 34.035156 35.671875 C 34.917969 35.671875 35.636719 34.953125 35.636719 34.066406 C 35.636719 33.601562 35.441406 33.164062 35.09375 32.859375 L 24.792969 24.261719 C 24.398438 23.933594 24.34375 23.34375 24.671875 22.949219 C 25.003906 22.554688 25.589844 22.5 25.984375 22.832031 L 36.253906 31.398438 C 36.273438 31.414062 36.289062 31.429688 36.304688 31.441406 L 36.457031 31.566406 C 36.746094 31.808594 37.113281 31.941406 37.492188 31.941406 L 37.742188 31.941406 C 38.636719 31.941406 39.363281 31.210938 39.363281 30.316406 C 39.363281 29.835938 39.160156 29.390625 38.804688 29.082031 L 24.773438 16.785156 C 24.386719 16.445312 24.347656 15.855469 24.6875 15.46875 C 25.023438 15.078125 25.613281 15.042969 26.003906 15.378906 L 40.027344 27.675781 C 40.789062 28.335938 41.226562 29.296875 41.226562 30.308594 C 41.226562 32.242188 39.664062 33.804688 37.742188 33.804688 L 37.492188 33.804688 C 37.496094 33.890625 37.5 33.976562 37.5 34.0625 C 37.5 35.980469 35.945312 37.539062 34.035156 37.539062 L 33.757812 37.539062 C 33.0625 37.539062 32.382812 37.328125 31.8125 36.9375 C 31.457031 38.351562 30.171875 39.402344 28.652344 39.402344 Z M 28.652344 39.402344 " fill-opacity="1" fill-rule="nonzero"/><g clip-path="url(#id2)"><path fill="rgb(0%, 0%, 0%)" d="M 23.523438 41.269531 C 22.78125 41.269531 22.078125 40.976562 21.546875 40.449219 L 19.160156 38.21875 C 18.785156 37.871094 18.765625 37.277344 19.117188 36.902344 C 19.46875 36.523438 20.054688 36.503906 20.433594 36.859375 L 22.84375 39.109375 C 23.242188 39.507812 23.832031 39.484375 24.183594 39.132812 C 24.660156 38.65625 24.839844 37.730469 24.597656 37.488281 C 24.234375 37.125 24.234375 36.535156 24.597656 36.167969 C 24.960938 35.804688 25.550781 35.804688 25.914062 36.167969 C 27.019531 37.277344 26.605469 39.339844 25.5 40.453125 C 24.972656 40.976562 24.269531 41.269531 23.523438 41.269531 Z M 23.523438 41.269531 " fill-opacity="1" fill-rule="nonzero"/></g><path fill="rgb(0%, 0%, 0%)" d="M 39.363281 29.140625 C 39.046875 29.140625 38.738281 28.980469 38.5625 28.6875 C 38.300781 28.25 38.441406 27.671875 38.882812 27.410156 L 43.539062 24.609375 C 43.984375 24.339844 44.554688 24.492188 44.820312 24.929688 C 45.082031 25.371094 44.941406 25.945312 44.5 26.210938 L 39.84375 29.007812 C 39.691406 29.101562 39.527344 29.140625 39.363281 29.140625 Z M 39.363281 29.140625 " fill-opacity="1" fill-rule="nonzero"/><g clip-path="url(#id3)"><path fill="rgb(0%, 0%, 0%)" d="M 16.878906 22.613281 L 16.132812 22.613281 C 14.59375 22.613281 13.207031 21.753906 12.515625 20.375 C 11.734375 18.8125 12.039062 16.933594 13.273438 15.699219 L 18.207031 10.757812 C 18.261719 10.707031 18.324219 10.65625 18.386719 10.621094 C 18.726562 10.417969 19.070312 10.191406 19.421875 9.960938 C 21.039062 8.890625 22.871094 7.6875 25.386719 7.6875 C 26.847656 7.6875 28.191406 8.128906 29.613281 8.597656 C 31.636719 9.265625 33.925781 10.023438 37.097656 9.597656 L 43.414062 4.179688 C 43.808594 3.847656 44.394531 3.890625 44.730469 4.28125 C 45.066406 4.671875 45.019531 5.261719 44.628906 5.597656 L 38.105469 11.195312 C 37.976562 11.308594 37.8125 11.382812 37.640625 11.40625 C 33.894531 11.984375 31.199219 11.085938 29.03125 10.371094 C 27.699219 9.929688 26.550781 9.550781 25.386719 9.550781 C 23.429688 9.550781 21.914062 10.550781 20.445312 11.515625 C 20.105469 11.738281 19.773438 11.957031 19.445312 12.160156 L 14.589844 17.019531 C 13.925781 17.683594 13.761719 18.699219 14.183594 19.542969 C 14.554688 20.285156 15.300781 20.746094 16.132812 20.746094 L 16.875 20.746094 C 17.382812 20.746094 17.859375 20.578125 18.25 20.257812 C 18.601562 19.972656 19.011719 19.628906 19.449219 19.265625 C 21.835938 17.265625 23.765625 15.695312 25.058594 15.210938 C 25.539062 15.023438 26.078125 15.273438 26.261719 15.753906 C 26.441406 16.238281 26.195312 16.773438 25.714844 16.957031 C 24.617188 17.371094 22.226562 19.371094 20.644531 20.699219 C 20.199219 21.070312 19.785156 21.417969 19.425781 21.710938 C 18.710938 22.292969 17.804688 22.613281 16.878906 22.613281 Z M 16.878906 22.613281 " fill-opacity="1" fill-rule="nonzero"/></g><path fill="rgb(0%, 0%, 0%)" d="M 7.644531 32.875 C 6.125 32.875 4.890625 31.636719 4.890625 30.117188 L 4.890625 29.691406 C 4.890625 29.144531 5.050781 28.617188 5.355469 28.164062 L 6.371094 26.636719 C 6.882812 25.871094 7.738281 25.410156 8.660156 25.410156 C 10.179688 25.410156 11.414062 26.648438 11.414062 28.167969 L 11.414062 28.589844 C 11.414062 29.136719 11.253906 29.667969 10.949219 30.121094 L 9.933594 31.644531 C 9.421875 32.414062 8.566406 32.875 7.644531 32.875 Z M 8.660156 27.277344 C 8.363281 27.277344 8.085938 27.421875 7.921875 27.671875 L 6.902344 29.199219 C 6.808594 29.34375 6.753906 29.515625 6.753906 29.695312 L 6.753906 30.117188 C 6.753906 30.609375 7.152344 31.007812 7.644531 31.007812 C 7.941406 31.007812 8.21875 30.863281 8.382812 30.613281 L 9.398438 29.085938 C 9.496094 28.9375 9.550781 28.765625 9.550781 28.589844 L 9.550781 28.167969 C 9.550781 27.675781 9.152344 27.277344 8.660156 27.277344 Z M 8.660156 27.277344 " fill-opacity="1" fill-rule="nonzero"/><path fill="rgb(0%, 0%, 0%)" d="M 10.503906 35.671875 C 8.921875 35.671875 7.6875 34.433594 7.6875 32.914062 L 7.6875 32.546875 C 7.6875 31.957031 7.882812 31.367188 8.234375 30.890625 L 10.121094 28.378906 C 10.636719 27.6875 11.460938 27.273438 12.324219 27.273438 C 13.90625 27.277344 15.140625 28.511719 15.140625 30.035156 L 15.140625 30.398438 C 15.140625 30.992188 14.945312 31.582031 14.589844 32.054688 L 12.703125 34.570312 C 12.1875 35.257812 11.363281 35.671875 10.503906 35.671875 Z M 12.386719 29.140625 C 12.042969 29.140625 11.78125 29.273438 11.613281 29.496094 L 9.726562 32.011719 C 9.613281 32.167969 9.550781 32.355469 9.550781 32.546875 L 9.550781 32.914062 C 9.550781 33.40625 9.949219 33.804688 10.4375 33.804688 C 10.78125 33.804688 11.046875 33.671875 11.214844 33.453125 L 13.097656 30.933594 C 13.214844 30.78125 13.277344 30.589844 13.277344 30.398438 L 13.277344 30.035156 C 13.277344 29.542969 12.878906 29.140625 12.386719 29.140625 Z M 12.386719 29.140625 " fill-opacity="1" fill-rule="nonzero"/><path fill="rgb(0%, 0%, 0%)" d="M 14.230469 37.539062 C 12.648438 37.539062 11.414062 36.300781 11.414062 34.78125 L 11.414062 34.414062 C 11.414062 33.820312 11.609375 33.230469 11.960938 32.757812 L 13.847656 30.242188 C 14.363281 29.550781 15.1875 29.140625 16.050781 29.140625 C 17.632812 29.140625 18.867188 30.378906 18.867188 31.898438 L 18.867188 32.265625 C 18.867188 32.859375 18.671875 33.449219 18.316406 33.921875 L 16.429688 36.4375 C 15.914062 37.125 15.089844 37.539062 14.230469 37.539062 Z M 16.113281 31.007812 C 15.769531 31.007812 15.507812 31.140625 15.339844 31.363281 L 13.453125 33.878906 C 13.339844 34.03125 13.277344 34.222656 13.277344 34.414062 L 13.277344 34.78125 C 13.277344 35.273438 13.675781 35.671875 14.164062 35.671875 C 14.507812 35.671875 14.773438 35.539062 14.941406 35.316406 L 16.824219 32.800781 C 16.941406 32.648438 17.003906 32.457031 17.003906 32.265625 L 17.003906 31.898438 C 17.003906 31.40625 16.605469 31.007812 16.113281 31.007812 Z M 16.113281 31.007812 " fill-opacity="1" fill-rule="nonzero"/><path fill="rgb(0%, 0%, 0%)" d="M 17.957031 39.402344 C 16.375 39.402344 15.140625 38.167969 15.140625 36.644531 L 15.140625 36.28125 C 15.140625 35.6875 15.335938 35.097656 15.691406 34.625 L 17.574219 32.109375 C 18.089844 31.417969 18.914062 31.003906 19.777344 31.003906 C 21.359375 31.003906 22.59375 32.242188 22.59375 33.761719 L 22.59375 34.128906 C 22.59375 34.722656 22.398438 35.3125 22.042969 35.785156 L 20.15625 38.300781 C 19.640625 38.992188 18.816406 39.402344 17.957031 39.402344 Z M 19.839844 32.875 C 19.5 32.875 19.234375 33.003906 19.066406 33.226562 L 17.179688 35.746094 C 17.066406 35.898438 17.003906 36.085938 17.003906 36.28125 L 17.003906 36.644531 C 17.003906 37.136719 17.402344 37.539062 17.890625 37.539062 C 18.234375 37.539062 18.5 37.40625 18.667969 37.183594 L 20.554688 34.667969 C 20.667969 34.511719 20.730469 34.324219 20.730469 34.128906 L 20.730469 33.765625 C 20.730469 33.273438 20.332031 32.875 19.839844 32.875 Z M 19.839844 32.875 " fill-opacity="1" fill-rule="nonzero"/></svg>