<svg xmlns="http://www.w3.org/2000/svg" xmlns:xlink="http://www.w3.org/1999/xlink" width="60" zoomAndPan="magnify" viewBox="0 0 45 44.999999" height="60" preserveAspectRatio="xMidYMid meet" version="1.0"><defs><clipPath id="id1"><path d="M 3.175781 1 L 42.175781 1 L 42.175781 43.71875 L 3.175781 43.71875 Z M 3.175781 1 " clip-rule="nonzero"/></clipPath></defs><g clip-path="url(#id1)"><path fill="rgb(0%, 0%, 0%)" d="M 40.003906 23.054688 L 37.835938 23.054688 L 37.835938 1.75 C 37.839844 1.464844 37.660156 1.203125 37.390625 1.097656 C 37.121094 0.988281 36.808594 1.046875 36.601562 1.246094 L 34.949219 2.878906 L 33.296875 1.246094 C 33.042969 0.996094 32.636719 0.96875 32.351562 1.183594 L 29.894531 2.992188 L 27.441406 1.183594 C 27.183594 0.992188 26.832031 0.992188 26.574219 1.183594 L 24.121094 2.992188 L 21.667969 1.183594 C 21.410156 0.992188 21.054688 0.992188 20.800781 1.183594 L 18.34375 2.992188 L 15.890625 1.183594 C 15.636719 0.992188 15.28125 0.992188 15.023438 1.183594 L 12.570312 2.992188 L 10.117188 1.183594 C 9.859375 0.992188 9.503906 0.992188 9.25 1.183594 L 6.792969 2.992188 L 4.339844 1.183594 C 4.121094 1.023438 3.828125 0.996094 3.582031 1.117188 C 3.335938 1.238281 3.183594 1.484375 3.183594 1.75 L 3.183594 42.9375 C 3.183594 43.207031 3.335938 43.453125 3.582031 43.570312 C 3.828125 43.691406 4.121094 43.667969 4.339844 43.507812 L 6.792969 41.695312 L 9.25 43.507812 C 9.503906 43.699219 9.859375 43.699219 10.117188 43.507812 L 12.570312 41.695312 L 15.023438 43.507812 C 15.28125 43.699219 15.636719 43.699219 15.890625 43.507812 L 18.34375 41.695312 L 20.800781 43.507812 C 21.054688 43.699219 21.410156 43.699219 21.667969 43.507812 L 24.121094 41.695312 L 26.574219 43.507812 C 26.832031 43.699219 27.183594 43.699219 27.441406 43.507812 L 29.894531 41.695312 L 32.351562 43.507812 C 32.636719 43.71875 33.042969 43.691406 33.296875 43.441406 L 34.949219 41.808594 L 36.601562 43.441406 C 36.738281 43.574219 36.921875 43.648438 37.113281 43.648438 C 37.210938 43.652344 37.304688 43.632812 37.390625 43.59375 C 37.660156 43.484375 37.839844 43.226562 37.835938 42.9375 L 37.835938 37.96875 L 40.003906 37.96875 C 41.199219 37.964844 42.164062 37.011719 42.167969 35.835938 L 42.167969 25.183594 C 42.164062 24.011719 41.199219 23.058594 40.003906 23.054688 Z M 36.394531 41.226562 L 35.460938 40.304688 C 35.179688 40.027344 34.71875 40.027344 34.4375 40.304688 L 32.71875 42 L 30.328125 40.238281 C 30.074219 40.046875 29.71875 40.046875 29.460938 40.238281 L 27.007812 42.050781 L 24.554688 40.238281 C 24.296875 40.046875 23.945312 40.046875 23.6875 40.238281 L 21.234375 42.050781 L 18.777344 40.238281 C 18.523438 40.046875 18.167969 40.046875 17.910156 40.238281 L 15.457031 42.050781 L 13.003906 40.238281 C 12.746094 40.046875 12.394531 40.046875 12.136719 40.238281 L 9.683594 42.050781 L 7.226562 40.238281 C 6.972656 40.046875 6.617188 40.046875 6.359375 40.238281 L 4.628906 41.519531 L 4.628906 3.171875 L 6.359375 4.449219 C 6.617188 4.640625 6.972656 4.640625 7.226562 4.449219 L 9.683594 2.640625 L 12.136719 4.449219 C 12.394531 4.640625 12.746094 4.640625 13.003906 4.449219 L 15.457031 2.640625 L 17.910156 4.449219 C 18.167969 4.640625 18.523438 4.640625 18.777344 4.449219 L 21.234375 2.640625 L 23.6875 4.449219 C 23.945312 4.640625 24.296875 4.640625 24.554688 4.449219 L 27.007812 2.640625 L 29.460938 4.449219 C 29.71875 4.640625 30.074219 4.640625 30.328125 4.449219 L 32.71875 2.6875 L 34.4375 4.386719 C 34.71875 4.664062 35.179688 4.664062 35.460938 4.386719 L 36.394531 3.460938 L 36.394531 23.054688 L 21.234375 23.054688 C 20.039062 23.058594 19.070312 24.011719 19.066406 25.183594 L 19.066406 35.835938 C 19.070312 37.011719 20.039062 37.964844 21.234375 37.96875 L 36.394531 37.96875 Z M 40.726562 35.835938 C 40.726562 36.230469 40.402344 36.546875 40.003906 36.546875 L 21.234375 36.546875 C 20.835938 36.546875 20.511719 36.230469 20.511719 35.835938 L 20.511719 29.445312 L 40.726562 29.445312 Z M 40.726562 28.027344 L 20.511719 28.027344 L 20.511719 27.316406 L 40.726562 27.316406 Z M 40.726562 25.894531 L 20.511719 25.894531 L 20.511719 25.183594 C 20.511719 24.792969 20.835938 24.476562 21.234375 24.476562 L 40.003906 24.476562 C 40.402344 24.476562 40.726562 24.792969 40.726562 25.183594 Z M 40.726562 25.894531 " fill-opacity="1" fill-rule="nonzero"/></g><path fill="rgb(0%, 0%, 0%)" d="M 38.199219 32.285156 L 35.308594 32.285156 C 34.3125 32.285156 33.503906 33.082031 33.503906 34.0625 C 33.503906 35.042969 34.3125 35.835938 35.308594 35.835938 L 38.199219 35.835938 C 39.195312 35.835938 40.003906 35.042969 40.003906 34.0625 C 40.003906 33.082031 39.195312 32.285156 38.199219 32.285156 Z M 38.199219 34.417969 L 35.308594 34.417969 C 34.828125 34.417969 34.828125 33.707031 35.308594 33.707031 L 38.199219 33.707031 C 38.679688 33.707031 38.679688 34.417969 38.199219 34.417969 Z M 38.199219 34.417969 " fill-opacity="1" fill-rule="nonzero"/><path fill="rgb(0%, 0%, 0%)" d="M 10.402344 11.691406 L 10.402344 10.984375 L 8.960938 10.984375 L 8.960938 12.402344 L 11.125 12.402344 C 11.523438 12.402344 11.847656 12.722656 11.847656 13.113281 L 11.847656 15.953125 C 11.847656 16.347656 11.523438 16.664062 11.125 16.664062 L 10.402344 16.664062 L 10.402344 17.375 L 8.960938 17.375 L 8.960938 16.664062 L 8.238281 16.664062 C 7.839844 16.664062 7.515625 16.347656 7.515625 15.953125 L 7.515625 14.535156 L 8.960938 14.535156 L 8.960938 15.242188 L 10.402344 15.242188 L 10.402344 13.824219 L 8.238281 13.824219 C 7.839844 13.824219 7.515625 13.503906 7.515625 13.113281 L 7.515625 10.273438 C 7.515625 9.878906 7.839844 9.5625 8.238281 9.5625 L 8.960938 9.5625 L 8.960938 8.851562 L 10.402344 8.851562 L 10.402344 9.5625 L 11.125 9.5625 C 11.523438 9.5625 11.847656 9.878906 11.847656 10.273438 L 11.847656 11.691406 Z M 10.402344 11.691406 " fill-opacity="1" fill-rule="nonzero"/><path fill="rgb(0%, 0%, 0%)" d="M 14.015625 8.851562 L 16.902344 8.851562 L 16.902344 7.433594 L 14.015625 7.433594 Z M 14.015625 8.851562 " fill-opacity="1" fill-rule="nonzero"/><path fill="rgb(0%, 0%, 0%)" d="M 14.015625 12.402344 L 16.902344 12.402344 L 16.902344 10.984375 L 14.015625 10.984375 Z M 14.015625 12.402344 " fill-opacity="1" fill-rule="nonzero"/><path fill="rgb(0%, 0%, 0%)" d="M 14.015625 15.953125 L 16.902344 15.953125 L 16.902344 14.535156 L 14.015625 14.535156 Z M 14.015625 15.953125 " fill-opacity="1" fill-rule="nonzero"/><path fill="rgb(0%, 0%, 0%)" d="M 19.066406 8.851562 L 33.503906 8.851562 L 33.503906 7.433594 L 19.066406 7.433594 Z M 19.066406 8.851562 " fill-opacity="1" fill-rule="nonzero"/><path fill="rgb(0%, 0%, 0%)" d="M 19.066406 12.402344 L 33.503906 12.402344 L 33.503906 10.984375 L 19.066406 10.984375 Z M 19.066406 12.402344 " fill-opacity="1" fill-rule="nonzero"/><path fill="rgb(0%, 0%, 0%)" d="M 19.066406 15.953125 L 33.503906 15.953125 L 33.503906 14.535156 L 19.066406 14.535156 Z M 19.066406 15.953125 " fill-opacity="1" fill-rule="nonzero"/><path fill="rgb(0%, 0%, 0%)" d="M 14.015625 19.503906 L 16.902344 19.503906 L 16.902344 18.085938 L 14.015625 18.085938 Z M 14.015625 19.503906 " fill-opacity="1" fill-rule="nonzero"/><path fill="rgb(0%, 0%, 0%)" d="M 19.066406 19.503906 L 33.503906 19.503906 L 33.503906 18.085938 L 19.066406 18.085938 Z M 19.066406 19.503906 " fill-opacity="1" fill-rule="nonzero"/></svg>