<svg xmlns="http://www.w3.org/2000/svg" xmlns:xlink="http://www.w3.org/1999/xlink" width="60" zoomAndPan="magnify" viewBox="0 0 45 44.999999" height="60" preserveAspectRatio="xMidYMid meet" version="1.0"><defs><clipPath id="id1"><path d="M 2 25 L 28 25 L 28 43.242188 L 2 43.242188 Z M 2 25 " clip-rule="nonzero"/></clipPath><clipPath id="id2"><path d="M 0.234375 15 L 30 15 L 30 25 L 0.234375 25 Z M 0.234375 15 " clip-rule="nonzero"/></clipPath></defs><path fill="rgb(10.978699%, 10.978699%, 10.5896%)" d="M 45.1875 31.414062 L 37.628906 11.867188 C 37.484375 11.503906 37.082031 11.324219 36.71875 11.464844 L 23.859375 16.445312 C 23.496094 16.582031 23.316406 16.988281 23.457031 17.351562 C 23.597656 17.714844 24.003906 17.890625 24.367188 17.75 L 36.574219 13.027344 L 43.625 31.265625 L 29.089844 36.894531 C 28.726562 37.03125 28.546875 37.4375 28.6875 37.800781 C 28.792969 38.078125 29.058594 38.25 29.339844 38.25 C 29.425781 38.25 29.511719 38.234375 29.59375 38.203125 L 44.785156 32.320312 C 44.960938 32.253906 45.097656 32.121094 45.175781 31.949219 C 45.25 31.777344 45.253906 31.589844 45.1875 31.414062 " fill-opacity="1" fill-rule="nonzero"/><path fill="rgb(10.978699%, 10.978699%, 10.5896%)" d="M 39.5 27.71875 C 39.863281 27.578125 40.039062 27.171875 39.902344 26.808594 L 36.8125 18.828125 C 36.746094 18.65625 36.613281 18.515625 36.441406 18.441406 C 36.273438 18.363281 36.078125 18.359375 35.90625 18.425781 C 34.851562 18.832031 33.664062 18.308594 33.257812 17.257812 C 33.117188 16.894531 32.710938 16.71875 32.347656 16.855469 L 27.441406 18.753906 C 27.078125 18.894531 26.898438 19.300781 27.039062 19.664062 C 27.179688 20.023438 27.585938 20.203125 27.949219 20.0625 L 32.265625 18.390625 C 33.007812 19.542969 34.382812 20.148438 35.730469 19.921875 L 38.363281 26.730469 C 37.804688 27.089844 37.359375 27.609375 37.082031 28.234375 C 36.804688 28.859375 36.722656 29.539062 36.832031 30.195312 L 29.089844 33.195312 C 28.726562 33.335938 28.546875 33.742188 28.6875 34.105469 C 28.792969 34.382812 29.058594 34.550781 29.339844 34.550781 C 29.425781 34.550781 29.511719 34.535156 29.59375 34.503906 L 37.929688 31.277344 C 38.101562 31.210938 38.238281 31.078125 38.316406 30.90625 C 38.390625 30.738281 38.394531 30.542969 38.328125 30.371094 C 37.921875 29.316406 38.445312 28.128906 39.5 27.71875 " fill-opacity="1" fill-rule="nonzero"/><path fill="rgb(10.978699%, 10.978699%, 10.5896%)" d="M 21.617188 15.425781 C 21.730469 15.492188 21.851562 15.519531 21.976562 15.519531 C 22.214844 15.519531 22.449219 15.398438 22.578125 15.175781 C 22.777344 14.84375 22.667969 14.410156 22.332031 14.214844 C 20.585938 13.1875 19.507812 11.292969 19.507812 9.269531 C 19.507812 6.109375 22.074219 3.539062 25.234375 3.539062 C 28.394531 3.539062 30.960938 6.109375 30.960938 9.269531 C 30.960938 9.917969 30.855469 10.550781 30.648438 11.152344 C 30.519531 11.519531 30.714844 11.917969 31.078125 12.046875 C 31.449219 12.175781 31.847656 11.980469 31.976562 11.609375 C 32.234375 10.863281 32.367188 10.074219 32.367188 9.269531 C 32.367188 5.335938 29.167969 2.132812 25.234375 2.132812 C 21.300781 2.132812 18.101562 5.335938 18.101562 9.269531 C 18.101562 11.785156 19.449219 14.144531 21.617188 15.425781 " fill-opacity="1" fill-rule="nonzero"/><path fill="rgb(10.978699%, 10.978699%, 10.5896%)" d="M 24.480469 7.34375 L 25.808594 7.34375 C 26.144531 7.34375 26.421875 7.617188 26.421875 7.957031 C 26.421875 8.347656 26.734375 8.660156 27.121094 8.660156 C 27.507812 8.660156 27.824219 8.347656 27.824219 7.957031 C 27.824219 6.859375 26.9375 5.964844 25.847656 5.949219 L 25.847656 5.097656 C 25.847656 4.707031 25.53125 4.394531 25.144531 4.394531 C 24.757812 4.394531 24.441406 4.707031 24.441406 5.097656 L 24.441406 5.949219 C 23.351562 5.964844 22.464844 6.859375 22.464844 7.957031 C 22.464844 9.070312 23.367188 9.972656 24.480469 9.972656 L 25.808594 9.972656 C 26.144531 9.972656 26.421875 10.246094 26.421875 10.582031 C 26.421875 10.921875 26.144531 11.195312 25.808594 11.195312 L 24.480469 11.195312 C 24.144531 11.195312 23.871094 10.921875 23.871094 10.582031 C 23.871094 10.195312 23.554688 9.882812 23.167969 9.882812 C 22.78125 9.882812 22.464844 10.195312 22.464844 10.582031 C 22.464844 11.683594 23.351562 12.578125 24.441406 12.59375 L 24.441406 13.445312 C 24.441406 13.835938 24.757812 14.148438 25.144531 14.148438 C 25.53125 14.148438 25.847656 13.835938 25.847656 13.445312 L 25.847656 12.59375 C 26.9375 12.578125 27.824219 11.683594 27.824219 10.582031 C 27.824219 9.472656 26.921875 8.570312 25.808594 8.570312 L 24.480469 8.570312 C 24.144531 8.570312 23.871094 8.292969 23.871094 7.957031 C 23.871094 7.617188 24.144531 7.34375 24.480469 7.34375 " fill-opacity="1" fill-rule="nonzero"/><g clip-path="url(#id1)"><path fill="rgb(10.978699%, 10.978699%, 10.5896%)" d="M 26.601562 25.960938 C 26.210938 25.960938 25.902344 26.277344 25.902344 26.664062 L 25.902344 41.695312 L 4.296875 41.695312 L 4.296875 26.664062 C 4.296875 26.277344 3.980469 25.960938 3.59375 25.960938 C 3.207031 25.960938 2.894531 26.277344 2.894531 26.664062 L 2.894531 42.398438 C 2.894531 42.785156 3.207031 43.097656 3.59375 43.097656 L 26.601562 43.097656 C 26.988281 43.097656 27.304688 42.785156 27.304688 42.398438 L 27.304688 26.664062 C 27.304688 26.277344 26.988281 25.960938 26.601562 25.960938 " fill-opacity="1" fill-rule="nonzero"/></g><g clip-path="url(#id2)"><path fill="rgb(10.978699%, 10.978699%, 10.5896%)" d="M 2.691406 23.3125 L 15.097656 16.984375 L 27.503906 23.3125 Z M 29.835938 23.871094 C 29.957031 23.375 29.722656 22.863281 29.265625 22.632812 L 15.417969 15.574219 C 15.214844 15.472656 14.980469 15.472656 14.78125 15.574219 L 0.929688 22.632812 C 0.472656 22.863281 0.238281 23.375 0.355469 23.871094 C 0.476562 24.367188 0.914062 24.714844 1.425781 24.714844 L 28.769531 24.714844 C 29.28125 24.714844 29.71875 24.367188 29.835938 23.871094 " fill-opacity="1" fill-rule="nonzero"/></g><path fill="rgb(10.978699%, 10.978699%, 10.5896%)" d="M 15.925781 20.496094 C 15.925781 20.953125 15.554688 21.320312 15.097656 21.320312 C 14.640625 21.320312 14.273438 20.953125 14.273438 20.496094 C 14.273438 20.042969 14.640625 19.667969 15.097656 19.667969 C 15.554688 19.667969 15.925781 20.042969 15.925781 20.496094 Z M 12.871094 20.496094 C 12.871094 21.722656 13.871094 22.726562 15.097656 22.726562 C 16.328125 22.726562 17.328125 21.722656 17.328125 20.496094 C 17.328125 19.265625 16.328125 18.265625 15.097656 18.265625 C 13.871094 18.265625 12.871094 19.265625 12.871094 20.496094 " fill-opacity="1" fill-rule="nonzero"/><path fill="rgb(10.978699%, 10.978699%, 10.5896%)" d="M 9.601562 28.566406 L 9.601562 38.058594 C 9.601562 38.707031 9.074219 39.234375 8.429688 39.234375 C 7.78125 39.234375 7.257812 38.707031 7.257812 38.058594 L 7.257812 28.566406 C 7.257812 27.917969 7.78125 27.390625 8.429688 27.390625 C 9.074219 27.390625 9.601562 27.917969 9.601562 28.566406 Z M 5.855469 28.566406 L 5.855469 38.058594 C 5.855469 39.484375 7.011719 40.636719 8.429688 40.636719 C 9.851562 40.636719 11.003906 39.484375 11.003906 38.058594 L 11.003906 28.566406 C 11.003906 27.144531 9.851562 25.988281 8.429688 25.988281 C 7.011719 25.988281 5.855469 27.144531 5.855469 28.566406 " fill-opacity="1" fill-rule="nonzero"/><path fill="rgb(10.978699%, 10.978699%, 10.5896%)" d="M 16.300781 28.566406 L 16.300781 38.058594 C 16.300781 38.707031 15.773438 39.234375 15.132812 39.234375 C 14.484375 39.234375 13.957031 38.707031 13.957031 38.058594 L 13.957031 28.566406 C 13.957031 27.917969 14.484375 27.390625 15.132812 27.390625 C 15.773438 27.390625 16.300781 27.917969 16.300781 28.566406 Z M 12.554688 28.566406 L 12.554688 38.058594 C 12.554688 39.484375 13.710938 40.636719 15.132812 40.636719 C 16.550781 40.636719 17.703125 39.484375 17.703125 38.058594 L 17.703125 28.566406 C 17.703125 27.144531 16.550781 25.988281 15.132812 25.988281 C 13.710938 25.988281 12.554688 27.144531 12.554688 28.566406 " fill-opacity="1" fill-rule="nonzero"/><path fill="rgb(10.978699%, 10.978699%, 10.5896%)" d="M 23 28.566406 L 23 38.058594 C 23 38.707031 22.476562 39.234375 21.832031 39.234375 C 21.183594 39.234375 20.65625 38.707031 20.65625 38.058594 L 20.65625 28.566406 C 20.65625 27.917969 21.183594 27.390625 21.832031 27.390625 C 22.476562 27.390625 23 27.917969 23 28.566406 Z M 19.253906 28.566406 L 19.253906 38.058594 C 19.253906 39.484375 20.410156 40.636719 21.832031 40.636719 C 23.25 40.636719 24.402344 39.484375 24.402344 38.058594 L 24.402344 28.566406 C 24.402344 27.144531 23.25 25.988281 21.832031 25.988281 C 20.410156 25.988281 19.253906 27.144531 19.253906 28.566406 " fill-opacity="1" fill-rule="nonzero"/></svg>