<svg xmlns="http://www.w3.org/2000/svg" xmlns:xlink="http://www.w3.org/1999/xlink" width="60" zoomAndPan="magnify" viewBox="0 0 45 44.999999" height="60" preserveAspectRatio="xMidYMid meet" version="1.0"><defs><clipPath id="id1"><path d="M 6 17 L 33 17 L 33 36.882812 L 6 36.882812 Z M 6 17 " clip-rule="nonzero"/></clipPath><clipPath id="id2"><path d="M 1.3125 22 L 11 22 L 11 36.882812 L 1.3125 36.882812 Z M 1.3125 22 " clip-rule="nonzero"/></clipPath><clipPath id="id3"><path d="M 13 8.382812 L 43.3125 8.382812 L 43.3125 28 L 13 28 Z M 13 8.382812 " clip-rule="nonzero"/></clipPath></defs><g clip-path="url(#id1)"><path fill="#000000" d="M 20.269531 36.777344 C 19.554688 36.777344 18.992188 36.71875 18.597656 36.601562 L 7.40625 34.855469 C 7.160156 34.820312 6.945312 34.675781 6.8125 34.464844 C 6.675781 34.257812 6.632812 34 6.699219 33.757812 L 8.617188 26.332031 C 8.632812 26.273438 8.65625 26.21875 8.679688 26.164062 C 9.730469 24.019531 11.792969 22.648438 14.121094 22.515625 L 18.527344 18.027344 C 19.621094 16.914062 21.53125 16.914062 22.621094 18.027344 C 23.59375 19.019531 23.746094 20.585938 22.984375 21.75 L 20.25 25.574219 C 19.894531 26.070312 19.703125 26.660156 19.703125 27.273438 C 19.703125 28.863281 21.082031 30.140625 22.683594 29.902344 L 26.589844 29.589844 L 31.875 29.585938 C 32.261719 29.585938 32.601562 29.847656 32.707031 30.230469 C 32.816406 30.609375 32.660156 31.015625 32.332031 31.222656 L 25.445312 35.574219 C 24.378906 36.523438 21.617188 36.777344 20.269531 36.777344 Z M 8.625 33.257812 L 18.96875 34.878906 C 19.160156 34.925781 19.496094 35.007812 20.269531 35.007812 C 22.089844 35.007812 23.96875 34.589844 24.304688 34.242188 C 24.351562 34.195312 24.40625 34.152344 24.460938 34.117188 L 28.824219 31.359375 L 26.660156 31.359375 L 22.875 31.664062 C 22.71875 31.6875 22.511719 31.703125 22.308594 31.703125 C 19.914062 31.703125 17.96875 29.71875 17.96875 27.277344 C 17.96875 26.285156 18.273438 25.335938 18.84375 24.535156 L 21.558594 20.742188 C 21.84375 20.304688 21.785156 19.679688 21.394531 19.285156 C 20.957031 18.839844 20.195312 18.839844 19.757812 19.285156 L 15.105469 24.019531 C 14.941406 24.183594 14.722656 24.277344 14.492188 24.277344 C 12.707031 24.277344 11.097656 25.273438 10.273438 26.875 Z M 8.625 33.257812 " fill-opacity="1" fill-rule="nonzero"/></g><g clip-path="url(#id2)"><path fill="#000000" d="M 2.320312 36.667969 C 1.84375 36.667969 1.453125 36.273438 1.453125 35.785156 L 1.453125 23.390625 C 1.453125 23.144531 1.554688 22.910156 1.730469 22.742188 C 1.910156 22.578125 2.132812 22.492188 2.390625 22.511719 C 3.371094 22.589844 8.351562 23.050781 9.875 24.519531 C 10.066406 24.707031 10.164062 24.972656 10.140625 25.242188 C 9.746094 29.839844 8.421875 34.105469 8.367188 34.285156 C 8.300781 34.496094 8.15625 34.671875 7.96875 34.785156 C 7.835938 34.859375 4.699219 36.667969 2.320312 36.667969 Z M 3.191406 24.367188 L 3.191406 34.804688 C 4.496094 34.550781 6.007812 33.839844 6.808594 33.410156 C 7.109375 32.375 8.007812 29.082031 8.363281 25.578125 C 7.378906 25.019531 5.070312 24.582031 3.191406 24.367188 Z M 3.191406 24.367188 " fill-opacity="1" fill-rule="nonzero"/></g><path fill="#000000" d="M 28.394531 22.476562 C 26.058594 22.476562 24.234375 21.453125 24.058594 20.042969 C 24 19.558594 24.335938 19.117188 24.8125 19.054688 C 25.28125 19 25.722656 19.335938 25.785156 19.820312 C 25.816406 20.078125 26.769531 20.707031 28.394531 20.707031 C 30.167969 20.707031 31.007812 19.996094 31.007812 19.820312 C 31.007812 19.816406 30.976562 19.265625 28.46875 18.949219 L 28.285156 18.925781 C 27.011719 18.769531 24.050781 18.398438 24.050781 16.28125 C 24.050781 14.769531 25.921875 13.625 28.402344 13.625 C 30.738281 13.625 32.5625 14.648438 32.738281 16.054688 C 32.796875 16.542969 32.460938 16.984375 31.984375 17.046875 C 31.511719 17.101562 31.074219 16.765625 31.011719 16.28125 C 30.976562 16.023438 30.023438 15.394531 28.398438 15.394531 C 26.714844 15.394531 25.789062 16.058594 25.789062 16.28125 C 25.789062 16.285156 25.816406 16.835938 28.335938 17.152344 C 28.339844 17.152344 28.515625 17.171875 28.515625 17.171875 C 29.792969 17.335938 32.746094 17.703125 32.746094 19.820312 C 32.746094 21.335938 30.875 22.476562 28.394531 22.476562 Z M 28.394531 22.476562 " fill-opacity="1" fill-rule="nonzero"/><path fill="#000000" d="M 28.398438 24.246094 C 27.917969 24.246094 27.527344 23.851562 27.527344 23.363281 L 27.527344 12.742188 C 27.527344 12.253906 27.917969 11.855469 28.398438 11.855469 C 28.878906 11.855469 29.265625 12.253906 29.265625 12.742188 L 29.265625 23.363281 C 29.265625 23.851562 28.878906 24.246094 28.398438 24.246094 Z M 28.398438 24.246094 " fill-opacity="1" fill-rule="nonzero"/><path fill="#000000" d="M 38.828125 13.625 L 35.351562 13.625 C 34.871094 13.625 34.484375 13.230469 34.484375 12.742188 C 34.484375 12.253906 34.871094 11.855469 35.351562 11.855469 L 38.828125 11.855469 C 39.308594 11.855469 39.699219 12.253906 39.699219 12.742188 C 39.699219 13.230469 39.308594 13.625 38.828125 13.625 Z M 38.828125 13.625 " fill-opacity="1" fill-rule="nonzero"/><g clip-path="url(#id3)"><path fill="#000000" d="M 42.304688 27.789062 L 23.183594 27.789062 C 22.703125 27.789062 22.3125 27.390625 22.3125 26.902344 C 22.3125 26.414062 22.703125 26.015625 23.183594 26.015625 L 41.4375 26.015625 L 41.4375 10.085938 L 15.359375 10.085938 L 15.359375 18.050781 C 15.359375 18.539062 14.96875 18.9375 14.492188 18.9375 C 14.011719 18.9375 13.621094 18.539062 13.621094 18.050781 L 13.621094 9.199219 C 13.621094 8.710938 14.011719 8.316406 14.492188 8.316406 L 42.304688 8.316406 C 42.785156 8.316406 43.175781 8.710938 43.175781 9.199219 L 43.175781 26.902344 C 43.175781 27.390625 42.785156 27.789062 42.304688 27.789062 Z M 42.304688 27.789062 " fill-opacity="1" fill-rule="nonzero"/></g></svg>