<svg xmlns="http://www.w3.org/2000/svg" xmlns:xlink="http://www.w3.org/1999/xlink" width="60" zoomAndPan="magnify" viewBox="0 0 45 44.999999" height="60" preserveAspectRatio="xMidYMid meet" version="1.0"><defs><clipPath id="id1"><path d="M 39 14 L 44.980469 14 L 44.980469 17 L 39 17 Z M 39 14 " clip-rule="nonzero"/></clipPath><clipPath id="id2"><path d="M 38 9 L 44.980469 9 L 44.980469 12 L 38 12 Z M 38 9 " clip-rule="nonzero"/></clipPath><clipPath id="id3"><path d="M 38 18 L 44.980469 18 L 44.980469 22 L 38 22 Z M 38 18 " clip-rule="nonzero"/></clipPath><clipPath id="id4"><path d="M 0.730469 14 L 7 14 L 7 17 L 0.730469 17 Z M 0.730469 14 " clip-rule="nonzero"/></clipPath></defs><path fill="#040606" d="M 14.003906 5.414062 C 16.851562 2.863281 20.527344 1.6875 24.367188 2.113281 C 30.492188 2.785156 35.40625 7.730469 36.054688 13.859375 C 36.503906 18.101562 34.976562 22.1875 31.863281 25.058594 C 29.425781 27.3125 28.023438 30.480469 28.019531 33.75 L 17.695312 33.75 C 17.6875 30.46875 16.296875 27.308594 13.875 25.082031 C 11.144531 22.574219 9.582031 19.011719 9.582031 15.308594 C 9.582031 11.539062 11.191406 7.933594 14.003906 5.414062 Z M 30.230469 35.964844 C 30.230469 36.371094 29.898438 36.699219 29.492188 36.699219 L 16.21875 36.699219 C 15.8125 36.699219 15.480469 36.371094 15.480469 35.964844 C 15.480469 35.558594 15.8125 35.226562 16.21875 35.226562 L 29.492188 35.226562 C 29.898438 35.226562 30.230469 35.558594 30.230469 35.964844 Z M 28.019531 39.652344 L 17.695312 39.652344 C 17.289062 39.652344 16.957031 39.320312 16.957031 38.914062 C 16.957031 38.507812 17.289062 38.175781 17.695312 38.175781 L 28.019531 38.175781 C 28.425781 38.175781 28.757812 38.507812 28.757812 38.914062 C 28.757812 39.320312 28.425781 39.652344 28.019531 39.652344 Z M 22.855469 43.339844 C 21.484375 43.339844 20.339844 42.394531 20.011719 41.125 L 25.703125 41.125 C 25.371094 42.394531 24.226562 43.339844 22.855469 43.339844 Z M 12.875 26.167969 C 14.996094 28.117188 16.210938 30.878906 16.214844 33.75 C 14.996094 33.75 14.007812 34.742188 14.007812 35.964844 C 14.007812 36.984375 14.703125 37.835938 15.640625 38.09375 C 15.542969 38.347656 15.480469 38.621094 15.480469 38.914062 C 15.480469 40.136719 16.472656 41.125 17.695312 41.125 L 18.496094 41.125 C 18.851562 43.214844 20.667969 44.816406 22.855469 44.816406 C 25.046875 44.816406 26.859375 43.214844 27.214844 41.125 L 28.019531 41.125 C 29.238281 41.125 30.230469 40.136719 30.230469 38.914062 C 30.230469 38.621094 30.171875 38.347656 30.070312 38.089844 C 31.007812 37.835938 31.707031 36.984375 31.707031 35.964844 C 31.707031 34.742188 30.714844 33.75 29.496094 33.75 C 29.503906 30.886719 30.726562 28.117188 32.863281 26.144531 C 36.320312 22.953125 38.019531 18.417969 37.523438 13.707031 C 36.800781 6.886719 31.335938 1.398438 24.527344 0.644531 C 20.269531 0.175781 16.183594 1.480469 13.019531 4.3125 C 9.894531 7.113281 8.105469 11.121094 8.105469 15.308594 C 8.105469 19.425781 9.84375 23.382812 12.875 26.167969 " fill-opacity="1" fill-rule="nonzero"/><path fill="#040606" d="M 15.480469 11.617188 C 15.480469 11.210938 15.8125 10.882812 16.21875 10.882812 L 29.492188 10.882812 C 29.898438 10.882812 30.230469 11.210938 30.230469 11.617188 L 30.230469 14.976562 C 30.230469 15.308594 30.011719 15.59375 29.691406 15.683594 L 24.960938 16.976562 C 24.742188 16.429688 24.214844 16.046875 23.59375 16.046875 L 22.117188 16.046875 C 21.5 16.046875 20.96875 16.429688 20.75 16.976562 L 16.015625 15.679688 C 15.699219 15.59375 15.480469 15.308594 15.480469 14.976562 Z M 19.90625 8.667969 C 19.90625 8.261719 20.238281 7.929688 20.644531 7.929688 L 25.070312 7.929688 C 25.476562 7.929688 25.804688 8.261719 25.804688 8.667969 L 25.804688 9.40625 L 19.90625 9.40625 Z M 22.117188 18.996094 L 22.117188 17.519531 L 23.59375 17.519531 L 23.59375 18.996094 Z M 28.757812 21.945312 L 16.957031 21.945312 C 16.550781 21.945312 16.21875 21.617188 16.21875 21.210938 L 16.21875 17.265625 L 20.644531 18.472656 L 20.644531 18.996094 C 20.644531 19.808594 21.304688 20.472656 22.117188 20.472656 L 23.59375 20.472656 C 24.40625 20.472656 25.070312 19.808594 25.070312 18.996094 L 25.070312 18.472656 L 29.492188 17.265625 L 29.492188 21.210938 C 29.492188 21.617188 29.164062 21.945312 28.757812 21.945312 Z M 14.742188 16.617188 L 14.742188 21.210938 C 14.742188 22.429688 15.734375 23.421875 16.957031 23.421875 L 28.757812 23.421875 C 29.976562 23.421875 30.96875 22.429688 30.96875 21.210938 L 30.96875 16.617188 C 31.425781 16.210938 31.707031 15.617188 31.707031 14.976562 L 31.707031 11.617188 C 31.707031 10.398438 30.714844 9.40625 29.492188 9.40625 L 27.28125 9.40625 L 27.28125 8.667969 C 27.28125 7.445312 26.289062 6.457031 25.070312 6.457031 L 20.644531 6.457031 C 19.421875 6.457031 18.429688 7.445312 18.429688 8.667969 L 18.429688 9.40625 L 16.21875 9.40625 C 14.996094 9.40625 14.007812 10.398438 14.007812 11.617188 L 14.007812 14.976562 C 14.007812 15.621094 14.289062 16.210938 14.742188 16.617188 " fill-opacity="1" fill-rule="nonzero"/><g clip-path="url(#id1)"><path fill="#040606" d="M 44.242188 14.570312 L 39.820312 14.570312 C 39.414062 14.570312 39.082031 14.902344 39.082031 15.308594 C 39.082031 15.714844 39.414062 16.046875 39.820312 16.046875 L 44.242188 16.046875 C 44.648438 16.046875 44.980469 15.714844 44.980469 15.308594 C 44.980469 14.902344 44.648438 14.570312 44.242188 14.570312 " fill-opacity="1" fill-rule="nonzero"/></g><g clip-path="url(#id2)"><path fill="#040606" d="M 38.523438 11.082031 C 38.609375 11.410156 38.910156 11.628906 39.234375 11.628906 C 39.296875 11.628906 39.359375 11.617188 39.425781 11.601562 L 43.699219 10.449219 C 44.089844 10.34375 44.324219 9.9375 44.21875 9.546875 C 44.113281 9.152344 43.707031 8.917969 43.3125 9.027344 L 39.039062 10.179688 C 38.648438 10.285156 38.414062 10.6875 38.523438 11.082031 " fill-opacity="1" fill-rule="nonzero"/></g><path fill="#040606" d="M 37.519531 7.515625 C 37.648438 7.515625 37.773438 7.484375 37.890625 7.414062 L 41.71875 5.191406 C 42.070312 4.984375 42.1875 4.53125 41.980469 4.179688 C 41.777344 3.828125 41.324219 3.707031 40.972656 3.914062 L 37.148438 6.140625 C 36.796875 6.34375 36.675781 6.796875 36.882812 7.148438 C 37.019531 7.382812 37.265625 7.515625 37.519531 7.515625 " fill-opacity="1" fill-rule="nonzero"/><g clip-path="url(#id3)"><path fill="#040606" d="M 43.699219 20.164062 L 39.425781 19.011719 C 39.03125 18.902344 38.628906 19.136719 38.523438 19.53125 C 38.414062 19.925781 38.648438 20.332031 39.039062 20.4375 L 43.3125 21.589844 C 43.378906 21.605469 43.441406 21.617188 43.507812 21.617188 C 43.832031 21.617188 44.128906 21.398438 44.21875 21.066406 C 44.324219 20.675781 44.089844 20.269531 43.699219 20.164062 " fill-opacity="1" fill-rule="nonzero"/></g><path fill="#040606" d="M 40.972656 26.703125 C 41.089844 26.769531 41.21875 26.800781 41.34375 26.800781 C 41.597656 26.800781 41.84375 26.667969 41.980469 26.433594 C 42.1875 26.082031 42.070312 25.628906 41.71875 25.425781 L 37.890625 23.199219 C 37.535156 22.992188 37.085938 23.113281 36.882812 23.464844 C 36.675781 23.816406 36.796875 24.269531 37.148438 24.472656 L 40.972656 26.703125 " fill-opacity="1" fill-rule="nonzero"/><g clip-path="url(#id4)"><path fill="#040606" d="M 1.46875 16.046875 L 5.894531 16.046875 C 6.300781 16.046875 6.632812 15.714844 6.632812 15.308594 C 6.632812 14.902344 6.300781 14.570312 5.894531 14.570312 L 1.46875 14.570312 C 1.0625 14.570312 0.730469 14.902344 0.730469 15.308594 C 0.730469 15.714844 1.0625 16.046875 1.46875 16.046875 " fill-opacity="1" fill-rule="nonzero"/></g><path fill="#040606" d="M 2.011719 10.449219 L 6.285156 11.601562 C 6.351562 11.617188 6.414062 11.628906 6.480469 11.628906 C 6.804688 11.628906 7.101562 11.410156 7.191406 11.082031 C 7.296875 10.6875 7.0625 10.285156 6.671875 10.179688 L 2.398438 9.027344 C 2.003906 8.917969 1.597656 9.152344 1.496094 9.546875 C 1.386719 9.9375 1.621094 10.34375 2.011719 10.449219 " fill-opacity="1" fill-rule="nonzero"/><path fill="#040606" d="M 3.996094 5.191406 L 7.820312 7.414062 C 7.9375 7.484375 8.066406 7.515625 8.191406 7.515625 C 8.445312 7.515625 8.695312 7.382812 8.828125 7.148438 C 9.035156 6.796875 8.914062 6.34375 8.5625 6.140625 L 4.738281 3.914062 C 4.386719 3.707031 3.933594 3.828125 3.730469 4.179688 C 3.527344 4.53125 3.644531 4.984375 3.996094 5.191406 " fill-opacity="1" fill-rule="nonzero"/><path fill="#040606" d="M 6.285156 19.011719 L 2.011719 20.164062 C 1.621094 20.269531 1.386719 20.675781 1.496094 21.066406 C 1.585938 21.398438 1.878906 21.617188 2.207031 21.617188 C 2.269531 21.617188 2.332031 21.605469 2.398438 21.589844 L 6.671875 20.4375 C 7.0625 20.332031 7.296875 19.925781 7.191406 19.53125 C 7.082031 19.140625 6.679688 18.90625 6.285156 19.011719 " fill-opacity="1" fill-rule="nonzero"/><path fill="#040606" d="M 3.730469 26.433594 C 3.867188 26.667969 4.113281 26.800781 4.367188 26.800781 C 4.492188 26.800781 4.621094 26.769531 4.738281 26.703125 L 8.5625 24.472656 C 8.914062 24.269531 9.035156 23.816406 8.828125 23.464844 C 8.625 23.113281 8.175781 22.992188 7.820312 23.199219 L 3.996094 25.425781 C 3.644531 25.628906 3.527344 26.082031 3.730469 26.433594 " fill-opacity="1" fill-rule="nonzero"/></svg>