<svg xmlns="http://www.w3.org/2000/svg" xmlns:xlink="http://www.w3.org/1999/xlink" width="60" zoomAndPan="magnify" viewBox="0 0 45 44.999999" height="60" preserveAspectRatio="xMidYMid meet" version="1.0"><defs><clipPath id="id1"><path d="M 1.273438 1.273438 L 28 1.273438 L 28 34 L 1.273438 34 Z M 1.273438 1.273438 " clip-rule="nonzero"/></clipPath></defs><path fill="#000000" d="M 23.949219 12.3125 C 24.316406 12.3125 24.617188 12.011719 24.617188 11.644531 L 24.617188 6.308594 C 24.617188 5.945312 24.316406 5.644531 23.949219 5.644531 L 19.28125 5.644531 C 18.914062 5.644531 18.613281 5.945312 18.613281 6.308594 L 18.613281 11.644531 C 18.613281 12.011719 18.914062 12.3125 19.28125 12.3125 Z M 19.949219 6.976562 L 23.285156 6.976562 L 23.285156 10.980469 L 19.949219 10.980469 Z M 19.949219 6.976562 " fill-opacity="1" fill-rule="nonzero"/><path fill="#000000" d="M 5.277344 7.644531 L 15.28125 7.644531 C 15.648438 7.644531 15.949219 7.34375 15.949219 6.976562 C 15.949219 6.609375 15.648438 6.308594 15.28125 6.308594 L 5.277344 6.308594 C 4.910156 6.308594 4.609375 6.609375 4.609375 6.976562 C 4.609375 7.34375 4.910156 7.644531 5.277344 7.644531 Z M 5.277344 7.644531 " fill-opacity="1" fill-rule="nonzero"/><path fill="#000000" d="M 5.277344 11.644531 L 15.28125 11.644531 C 15.648438 11.644531 15.949219 11.34375 15.949219 10.980469 C 15.949219 10.613281 15.648438 10.3125 15.28125 10.3125 L 5.277344 10.3125 C 4.910156 10.3125 4.609375 10.613281 4.609375 10.980469 C 4.609375 11.34375 4.910156 11.644531 5.277344 11.644531 Z M 5.277344 11.644531 " fill-opacity="1" fill-rule="nonzero"/><path fill="#000000" d="M 5.277344 16.648438 L 23.949219 16.648438 C 24.316406 16.648438 24.617188 16.347656 24.617188 15.980469 C 24.617188 15.613281 24.316406 15.3125 23.949219 15.3125 L 5.277344 15.3125 C 4.910156 15.3125 4.609375 15.613281 4.609375 15.980469 C 4.609375 16.347656 4.910156 16.648438 5.277344 16.648438 Z M 5.277344 16.648438 " fill-opacity="1" fill-rule="nonzero"/><path fill="#000000" d="M 5.277344 20.648438 L 23.949219 20.648438 C 24.316406 20.648438 24.617188 20.347656 24.617188 19.980469 C 24.617188 19.617188 24.316406 19.316406 23.949219 19.316406 L 5.277344 19.316406 C 4.910156 19.316406 4.609375 19.617188 4.609375 19.980469 C 4.609375 20.347656 4.910156 20.648438 5.277344 20.648438 Z M 5.277344 20.648438 " fill-opacity="1" fill-rule="nonzero"/><path fill="#000000" d="M 10.8125 27.652344 C 10.746094 27.683594 10.679688 27.683594 10.613281 27.683594 C 10.480469 27.683594 10.34375 27.652344 10.179688 27.585938 C 10.144531 27.652344 10.144531 27.71875 10.113281 27.785156 C 10.078125 27.851562 10.078125 27.917969 10.078125 27.984375 C 10.179688 28.019531 10.277344 28.050781 10.34375 28.050781 C 10.410156 28.050781 10.511719 28.085938 10.644531 28.085938 C 10.777344 28.085938 10.878906 28.085938 10.980469 28.050781 C 11.078125 28.019531 11.144531 27.984375 11.210938 27.917969 C 11.277344 27.851562 11.3125 27.820312 11.34375 27.71875 C 11.378906 27.617188 11.378906 27.550781 11.378906 27.484375 C 11.378906 27.386719 11.378906 27.320312 11.34375 27.25 C 11.3125 27.183594 11.277344 27.152344 11.246094 27.085938 C 11.210938 27.019531 11.144531 27.019531 11.078125 26.984375 C 11.011719 26.953125 10.945312 26.917969 10.878906 26.886719 L 10.746094 26.851562 C 10.710938 26.816406 10.644531 26.816406 10.613281 26.785156 C 10.578125 26.75 10.546875 26.71875 10.546875 26.683594 C 10.546875 26.652344 10.546875 26.617188 10.578125 26.617188 C 10.578125 26.585938 10.613281 26.585938 10.613281 26.585938 C 10.644531 26.585938 10.644531 26.550781 10.679688 26.550781 C 10.710938 26.550781 10.746094 26.550781 10.746094 26.550781 C 10.84375 26.550781 10.910156 26.550781 10.980469 26.585938 C 11.046875 26.617188 11.078125 26.617188 11.144531 26.652344 C 11.179688 26.585938 11.210938 26.519531 11.210938 26.453125 C 11.246094 26.386719 11.246094 26.316406 11.246094 26.285156 C 11.144531 26.25 11.046875 26.21875 10.980469 26.21875 C 10.878906 26.183594 10.8125 26.183594 10.710938 26.183594 C 10.613281 26.183594 10.511719 26.183594 10.445312 26.21875 C 10.378906 26.25 10.277344 26.285156 10.246094 26.316406 C 10.179688 26.351562 10.144531 26.417969 10.113281 26.484375 C 10.078125 26.550781 10.078125 26.652344 10.078125 26.71875 C 10.078125 26.785156 10.078125 26.851562 10.113281 26.917969 C 10.144531 26.984375 10.144531 27.019531 10.210938 27.050781 C 10.246094 27.085938 10.277344 27.117188 10.34375 27.152344 C 10.410156 27.183594 10.445312 27.21875 10.511719 27.21875 L 10.644531 27.285156 C 10.679688 27.285156 10.679688 27.320312 10.710938 27.320312 C 10.746094 27.320312 10.746094 27.351562 10.777344 27.351562 C 10.8125 27.351562 10.8125 27.386719 10.8125 27.417969 C 10.8125 27.453125 10.8125 27.453125 10.8125 27.484375 C 10.910156 27.585938 10.878906 27.617188 10.8125 27.652344 Z M 10.8125 27.652344 " fill-opacity="1" fill-rule="nonzero"/><path fill="#000000" d="M 11.980469 26.183594 C 11.945312 26.183594 11.914062 26.183594 11.878906 26.183594 C 11.847656 26.183594 11.8125 26.183594 11.777344 26.183594 C 11.746094 26.183594 11.710938 26.183594 11.644531 26.183594 L 11.644531 27.25 C 11.644531 27.386719 11.644531 27.484375 11.679688 27.585938 C 11.710938 27.683594 11.746094 27.785156 11.777344 27.851562 C 11.847656 27.917969 11.914062 27.984375 12.011719 28.019531 C 12.113281 28.050781 12.210938 28.085938 12.378906 28.085938 C 12.546875 28.085938 12.644531 28.050781 12.746094 28.019531 C 12.847656 27.984375 12.914062 27.917969 12.980469 27.851562 C 13.046875 27.785156 13.078125 27.683594 13.078125 27.585938 C 13.078125 27.484375 13.113281 27.351562 13.113281 27.25 L 13.113281 26.183594 C 13.046875 26.183594 13.011719 26.183594 12.980469 26.183594 C 12.945312 26.183594 12.914062 26.183594 12.878906 26.183594 C 12.847656 26.183594 12.8125 26.183594 12.78125 26.183594 C 12.746094 26.183594 12.710938 26.183594 12.644531 26.183594 L 12.644531 27.183594 C 12.644531 27.285156 12.644531 27.351562 12.644531 27.417969 C 12.644531 27.484375 12.613281 27.519531 12.613281 27.550781 C 12.613281 27.585938 12.546875 27.652344 12.511719 27.652344 C 12.480469 27.652344 12.445312 27.683594 12.378906 27.683594 C 12.3125 27.683594 12.277344 27.683594 12.246094 27.652344 C 12.210938 27.652344 12.179688 27.617188 12.179688 27.585938 C 12.179688 27.550781 12.144531 27.484375 12.144531 27.453125 C 12.144531 27.386719 12.144531 27.320312 12.144531 27.21875 L 12.144531 26.21875 C 12.078125 26.183594 12.011719 26.183594 11.980469 26.183594 Z M 11.980469 26.183594 " fill-opacity="1" fill-rule="nonzero"/><path fill="#000000" d="M 14.582031 26.886719 C 14.613281 26.816406 14.648438 26.75 14.648438 26.652344 C 14.648438 26.550781 14.613281 26.484375 14.582031 26.417969 C 14.546875 26.351562 14.480469 26.285156 14.414062 26.25 C 14.347656 26.21875 14.28125 26.183594 14.179688 26.183594 C 14.078125 26.183594 14.011719 26.152344 13.914062 26.152344 C 13.8125 26.152344 13.714844 26.152344 13.648438 26.152344 C 13.578125 26.152344 13.480469 26.152344 13.414062 26.183594 L 13.414062 28.050781 C 13.511719 28.050781 13.578125 28.085938 13.648438 28.085938 C 13.714844 28.085938 13.8125 28.085938 13.914062 28.085938 C 14.046875 28.085938 14.148438 28.085938 14.246094 28.050781 C 14.347656 28.019531 14.445312 28.019531 14.511719 27.953125 C 14.582031 27.917969 14.648438 27.851562 14.679688 27.785156 C 14.714844 27.71875 14.746094 27.617188 14.746094 27.519531 C 14.746094 27.453125 14.746094 27.386719 14.714844 27.351562 C 14.679688 27.285156 14.679688 27.25 14.648438 27.21875 C 14.613281 27.183594 14.582031 27.152344 14.546875 27.117188 C 14.511719 27.085938 14.480469 27.085938 14.414062 27.050781 C 14.480469 27.019531 14.546875 26.953125 14.582031 26.886719 Z M 13.878906 26.519531 C 13.878906 26.519531 13.914062 26.519531 13.914062 26.519531 C 13.914062 26.519531 13.945312 26.519531 13.945312 26.519531 C 13.980469 26.519531 14.011719 26.519531 14.011719 26.519531 C 14.046875 26.519531 14.078125 26.519531 14.078125 26.550781 C 14.078125 26.585938 14.113281 26.585938 14.148438 26.617188 C 14.148438 26.652344 14.179688 26.683594 14.179688 26.71875 C 14.179688 26.785156 14.148438 26.851562 14.113281 26.886719 C 14.078125 26.917969 14.011719 26.917969 13.945312 26.917969 L 13.878906 26.917969 Z M 14.246094 27.617188 C 14.246094 27.652344 14.214844 27.683594 14.179688 27.683594 C 14.148438 27.683594 14.113281 27.71875 14.078125 27.71875 C 14.046875 27.71875 14.011719 27.71875 13.980469 27.71875 C 13.945312 27.71875 13.914062 27.71875 13.914062 27.71875 C 13.914062 27.71875 13.878906 27.71875 13.878906 27.71875 L 13.878906 27.285156 L 13.980469 27.285156 C 14.078125 27.285156 14.148438 27.285156 14.179688 27.320312 C 14.246094 27.351562 14.246094 27.417969 14.246094 27.484375 C 14.28125 27.550781 14.28125 27.585938 14.246094 27.617188 Z M 14.246094 27.617188 " fill-opacity="1" fill-rule="nonzero"/><path fill="#000000" d="M 16.480469 26.183594 C 16.449219 26.183594 16.414062 26.183594 16.382812 26.183594 C 16.347656 26.183594 16.3125 26.183594 16.28125 26.183594 L 15.878906 27.152344 L 15.515625 26.183594 C 15.480469 26.183594 15.445312 26.183594 15.414062 26.183594 C 15.378906 26.183594 15.347656 26.183594 15.3125 26.183594 C 15.28125 26.183594 15.246094 26.183594 15.179688 26.183594 C 15.148438 26.183594 15.082031 26.183594 15.046875 26.183594 L 14.980469 28.050781 C 15.046875 28.050781 15.148438 28.085938 15.179688 28.085938 C 15.246094 28.085938 15.3125 28.085938 15.378906 28.050781 L 15.414062 26.984375 L 15.679688 27.683594 C 15.714844 27.683594 15.746094 27.683594 15.78125 27.683594 C 15.8125 27.683594 15.847656 27.683594 15.847656 27.683594 C 15.847656 27.683594 15.914062 27.683594 15.949219 27.683594 C 15.980469 27.683594 16.015625 27.683594 16.046875 27.683594 L 16.347656 26.984375 L 16.382812 28.050781 C 16.480469 28.050781 16.546875 28.085938 16.613281 28.085938 C 16.679688 28.085938 16.714844 28.085938 16.746094 28.085938 C 16.78125 28.085938 16.8125 28.085938 16.847656 28.085938 L 16.746094 26.21875 C 16.714844 26.21875 16.679688 26.21875 16.648438 26.21875 C 16.613281 26.21875 16.546875 26.183594 16.480469 26.183594 Z M 16.480469 26.183594 " fill-opacity="1" fill-rule="nonzero"/><path fill="#000000" d="M 17.246094 26.183594 C 17.214844 26.183594 17.179688 26.183594 17.113281 26.183594 L 17.113281 28.050781 C 17.214844 28.050781 17.28125 28.085938 17.347656 28.085938 C 17.414062 28.085938 17.480469 28.085938 17.582031 28.050781 L 17.582031 26.183594 C 17.546875 26.183594 17.480469 26.183594 17.449219 26.183594 C 17.414062 26.183594 17.382812 26.183594 17.347656 26.183594 C 17.316406 26.183594 17.28125 26.183594 17.246094 26.183594 Z M 17.246094 26.183594 " fill-opacity="1" fill-rule="nonzero"/><path fill="#000000" d="M 18.480469 28.085938 C 18.546875 28.085938 18.613281 28.085938 18.714844 28.050781 L 18.714844 26.585938 L 19.148438 26.585938 C 19.148438 26.519531 19.183594 26.453125 19.183594 26.386719 C 19.183594 26.351562 19.183594 26.316406 19.183594 26.285156 C 19.183594 26.25 19.183594 26.21875 19.183594 26.183594 L 17.847656 26.183594 C 17.847656 26.25 17.816406 26.316406 17.816406 26.386719 C 17.816406 26.453125 17.816406 26.519531 17.847656 26.585938 L 18.28125 26.585938 L 18.28125 28.050781 C 18.347656 28.085938 18.414062 28.085938 18.480469 28.085938 Z M 18.480469 28.085938 " fill-opacity="1" fill-rule="nonzero"/><g clip-path="url(#id1)"><path fill="#000000" d="M 2.609375 33.988281 L 23.949219 33.988281 L 22.617188 32.652344 L 2.609375 32.652344 L 2.609375 2.640625 L 26.617188 2.640625 L 26.617188 26.484375 L 26.886719 26.75 C 26.917969 26.71875 26.917969 26.71875 26.953125 26.71875 C 27.285156 26.453125 27.617188 26.21875 27.984375 26.085938 L 27.984375 2.640625 C 27.984375 1.910156 27.386719 1.308594 26.652344 1.308594 L 2.609375 1.308594 C 1.875 1.308594 1.273438 1.910156 1.273438 2.640625 L 1.273438 32.652344 C 1.273438 33.386719 1.875 33.988281 2.609375 33.988281 Z M 2.609375 33.988281 " fill-opacity="1" fill-rule="nonzero"/></g><path fill="#000000" d="M 21.515625 25.785156 C 21.851562 25.484375 22.25 25.25 22.683594 25.117188 C 22.25 24.25 21.347656 23.683594 20.347656 23.683594 L 8.910156 23.683594 C 7.476562 23.683594 6.277344 24.851562 6.277344 26.316406 L 6.277344 27.71875 C 6.277344 29.152344 7.445312 30.351562 8.910156 30.351562 L 20.316406 30.351562 C 20.347656 30.351562 20.382812 30.351562 20.414062 30.351562 C 20.183594 29.953125 20.015625 29.484375 19.980469 29.019531 L 8.910156 29.019531 C 8.210938 29.019531 7.609375 28.453125 7.609375 27.71875 L 7.609375 26.316406 C 7.609375 25.617188 8.175781 25.019531 8.910156 25.019531 L 20.316406 25.019531 C 20.847656 24.984375 21.316406 25.316406 21.515625 25.785156 Z M 21.515625 25.785156 " fill-opacity="1" fill-rule="nonzero"/><path fill="#000000" d="M 27.753906 27.753906 L 27.320312 28.183594 C 27.152344 28.320312 27.050781 28.519531 26.953125 28.6875 L 25.019531 26.75 C 24.285156 26.019531 23.082031 26.050781 22.316406 26.816406 L 21.882812 27.25 C 21.515625 27.652344 21.28125 28.152344 21.28125 28.6875 C 21.28125 29.1875 21.484375 29.621094 21.816406 29.953125 L 26.683594 34.789062 L 26.550781 34.921875 C 26.152344 35.320312 25.953125 35.820312 25.953125 36.355469 C 25.953125 36.820312 26.117188 37.253906 26.453125 37.589844 L 32.1875 43.324219 C 32.488281 43.625 32.855469 43.792969 33.289062 43.792969 L 37.15625 43.992188 C 37.1875 43.992188 37.222656 43.992188 37.253906 43.992188 C 37.722656 43.992188 38.1875 43.792969 38.488281 43.457031 L 43.523438 38.421875 C 44.023438 37.921875 43.957031 37.15625 43.890625 36.820312 L 43.226562 32.621094 C 43.15625 32.253906 42.992188 31.921875 42.722656 31.652344 L 36.222656 25.152344 C 35.523438 24.449219 34.386719 24.449219 33.722656 25.117188 L 33.355469 25.484375 C 33.253906 25.585938 33.1875 25.683594 33.121094 25.785156 C 32.421875 25.183594 31.320312 25.285156 30.585938 26.019531 L 30.152344 26.453125 C 29.953125 26.652344 29.785156 26.917969 29.6875 27.183594 C 29.085938 26.984375 28.453125 27.152344 27.820312 27.683594 C 27.785156 27.71875 27.753906 27.71875 27.753906 27.753906 Z M 28.253906 29.121094 L 28.6875 28.6875 C 29.085938 28.351562 29.21875 28.351562 29.585938 28.6875 C 29.652344 28.753906 29.953125 29.050781 30.351562 29.453125 L 31.554688 30.652344 C 31.785156 30.886719 31.921875 31.019531 31.953125 31.085938 C 31.988281 31.121094 31.988281 31.121094 32.019531 31.152344 L 32.054688 31.1875 C 32.320312 31.421875 32.71875 31.386719 32.988281 31.121094 C 33.253906 30.851562 33.222656 30.453125 32.953125 30.1875 L 32.453125 29.6875 C 32.121094 29.351562 31.652344 28.886719 31.253906 28.484375 L 30.917969 28.152344 C 30.851562 28.085938 30.820312 27.984375 30.820312 27.886719 C 30.820312 27.71875 30.886719 27.550781 31.054688 27.386719 L 31.488281 26.953125 C 31.71875 26.71875 32.054688 26.652344 32.21875 26.816406 L 34.886719 29.484375 C 35.15625 29.753906 35.554688 29.753906 35.820312 29.484375 C 36.089844 29.21875 36.089844 28.820312 35.820312 28.550781 L 34.320312 27.050781 C 34.222656 26.953125 34.15625 26.816406 34.15625 26.683594 C 34.15625 26.585938 34.1875 26.519531 34.253906 26.453125 L 34.621094 26.085938 C 34.789062 25.917969 35.054688 25.953125 35.253906 26.117188 L 41.757812 32.621094 C 41.824219 32.6875 41.890625 32.789062 41.890625 32.855469 L 42.558594 37.054688 C 42.589844 37.289062 42.558594 37.488281 42.558594 37.488281 L 37.523438 42.523438 C 37.457031 42.625 37.324219 42.65625 37.222656 42.65625 L 33.355469 42.457031 C 33.253906 42.457031 33.1875 42.425781 33.121094 42.359375 L 27.351562 36.621094 C 27.25 36.523438 27.25 36.421875 27.25 36.355469 C 27.25 36.1875 27.320312 36.023438 27.453125 35.886719 L 27.886719 35.453125 C 28.019531 35.320312 28.183594 35.253906 28.351562 35.253906 C 28.484375 35.253906 28.617188 35.289062 28.6875 35.386719 L 31.6875 38.390625 C 31.953125 38.65625 32.355469 38.65625 32.621094 38.390625 C 32.886719 38.121094 32.886719 37.722656 32.621094 37.457031 L 29.621094 34.453125 C 29.121094 33.953125 28.386719 33.820312 27.71875 34.054688 L 22.714844 29.050781 C 22.617188 28.953125 22.582031 28.820312 22.582031 28.71875 C 22.582031 28.550781 22.648438 28.386719 22.785156 28.253906 L 23.21875 27.820312 C 23.449219 27.585938 23.816406 27.550781 24.015625 27.753906 L 29.351562 33.085938 C 29.621094 33.355469 30.019531 33.320312 30.285156 33.085938 C 30.554688 32.820312 30.519531 32.421875 30.285156 32.152344 L 28.050781 29.953125 C 27.984375 29.886719 27.953125 29.785156 27.953125 29.71875 C 28.019531 29.453125 28.117188 29.285156 28.253906 29.121094 Z M 28.253906 29.121094 " fill-opacity="1" fill-rule="nonzero"/></svg>