<svg xmlns="http://www.w3.org/2000/svg" xmlns:xlink="http://www.w3.org/1999/xlink" width="60" zoomAndPan="magnify" viewBox="0 0 45 44.999999" height="60" preserveAspectRatio="xMidYMid meet" version="1.0"><defs><clipPath id="id1"><path d="M 2.027344 1.0625 L 43.277344 1.0625 L 43.277344 43.8125 L 2.027344 43.8125 Z M 2.027344 1.0625 " clip-rule="nonzero"/></clipPath></defs><g clip-path="url(#id1)"><path fill="#000000" d="M 23.617188 1.046875 C 23.570312 1.050781 23.523438 1.054688 23.476562 1.0625 L 2.039062 1.0625 L 2.039062 43.8125 L 35.410156 43.8125 L 35.410156 37.382812 L 33.449219 38.921875 L 33.449219 41.867188 L 29.6875 41.867188 L 29.523438 42 L 29.523438 41.867188 L 4.003906 41.867188 L 4.003906 3.003906 L 22.652344 3.003906 L 22.652344 13.691406 L 33.449219 13.691406 L 33.449219 18.582031 L 35.410156 20.121094 L 35.410156 12.320312 L 24.410156 1.429688 C 24.355469 1.359375 24.296875 1.296875 24.226562 1.246094 L 24.039062 1.0625 L 23.785156 1.0625 C 23.730469 1.054688 23.675781 1.046875 23.617188 1.046875 Z M 24.613281 4.378906 L 32.058594 11.75 L 24.613281 11.75 Z M 9.890625 18.550781 L 9.890625 20.492188 L 27.558594 20.492188 L 27.558594 18.550781 Z M 31.484375 19.523438 L 31.484375 25.351562 L 24.613281 25.351562 L 24.613281 32.152344 L 31.484375 32.152344 L 31.484375 37.984375 L 43.261719 28.753906 Z M 33.449219 23.539062 L 40.101562 28.753906 L 33.449219 33.964844 L 33.449219 30.210938 L 26.578125 30.210938 L 26.578125 27.296875 L 33.449219 27.296875 Z M 9.890625 24.378906 L 9.890625 26.324219 L 22.652344 26.324219 L 22.652344 24.378906 Z M 9.890625 30.210938 L 9.890625 32.152344 L 22.652344 32.152344 L 22.652344 30.210938 Z M 9.890625 30.210938 " fill-opacity="1" fill-rule="nonzero"/></g></svg>