<svg xmlns="http://www.w3.org/2000/svg" xmlns:xlink="http://www.w3.org/1999/xlink" width="60" zoomAndPan="magnify" viewBox="0 0 45 44.999999" height="60" preserveAspectRatio="xMidYMid meet" version="1.0"><defs><clipPath id="id1"><path d="M 2.25 2.25 L 42.75 2.25 L 42.75 42.75 L 2.25 42.75 Z M 2.25 2.25 " clip-rule="nonzero"/></clipPath></defs><path fill="rgb(0%, 0%, 0%)" d="M 19.480469 22.941406 L 12.117188 22.941406 C 11.972656 22.941406 11.828125 22.96875 11.695312 23.027344 C 11.558594 23.082031 11.441406 23.160156 11.335938 23.265625 C 11.234375 23.367188 11.152344 23.488281 11.097656 23.625 C 11.039062 23.757812 11.011719 23.898438 11.011719 24.046875 C 11.011719 24.191406 11.039062 24.332031 11.097656 24.46875 C 11.152344 24.605469 11.234375 24.722656 11.335938 24.828125 C 11.441406 24.929688 11.558594 25.011719 11.695312 25.066406 C 11.828125 25.121094 11.972656 25.152344 12.117188 25.152344 L 19.480469 25.152344 C 19.628906 25.152344 19.769531 25.121094 19.902344 25.066406 C 20.039062 25.011719 20.160156 24.929688 20.261719 24.828125 C 20.367188 24.722656 20.445312 24.605469 20.5 24.46875 C 20.558594 24.332031 20.585938 24.191406 20.585938 24.046875 C 20.585938 23.898438 20.558594 23.757812 20.5 23.625 C 20.445312 23.488281 20.367188 23.367188 20.261719 23.265625 C 20.160156 23.160156 20.039062 23.082031 19.902344 23.027344 C 19.769531 22.96875 19.628906 22.941406 19.480469 22.941406 Z M 19.480469 22.941406 " fill-opacity="1" fill-rule="nonzero"/><path fill="rgb(0%, 0%, 0%)" d="M 19.480469 28.832031 L 12.117188 28.832031 C 11.972656 28.832031 11.828125 28.859375 11.695312 28.917969 C 11.558594 28.972656 11.441406 29.050781 11.335938 29.15625 C 11.234375 29.261719 11.152344 29.378906 11.097656 29.515625 C 11.039062 29.648438 11.011719 29.789062 11.011719 29.9375 C 11.011719 30.082031 11.039062 30.226562 11.097656 30.359375 C 11.152344 30.496094 11.234375 30.613281 11.335938 30.71875 C 11.441406 30.820312 11.558594 30.902344 11.695312 30.957031 C 11.828125 31.015625 11.972656 31.042969 12.117188 31.042969 L 19.480469 31.042969 C 19.628906 31.042969 19.769531 31.015625 19.902344 30.957031 C 20.039062 30.902344 20.160156 30.820312 20.261719 30.71875 C 20.367188 30.613281 20.445312 30.496094 20.5 30.359375 C 20.558594 30.226562 20.585938 30.082031 20.585938 29.9375 C 20.585938 29.789062 20.558594 29.648438 20.5 29.515625 C 20.445312 29.378906 20.367188 29.261719 20.261719 29.15625 C 20.160156 29.050781 20.039062 28.972656 19.902344 28.917969 C 19.769531 28.859375 19.628906 28.832031 19.480469 28.832031 Z M 19.480469 28.832031 " fill-opacity="1" fill-rule="nonzero"/><path fill="rgb(0%, 0%, 0%)" d="M 18.007812 34.722656 L 12.117188 34.722656 C 11.972656 34.722656 11.828125 34.75 11.695312 34.808594 C 11.558594 34.863281 11.441406 34.945312 11.335938 35.046875 C 11.234375 35.152344 11.152344 35.269531 11.097656 35.40625 C 11.039062 35.539062 11.011719 35.683594 11.011719 35.828125 C 11.011719 35.976562 11.039062 36.117188 11.097656 36.25 C 11.152344 36.386719 11.234375 36.503906 11.335938 36.609375 C 11.441406 36.710938 11.558594 36.792969 11.695312 36.847656 C 11.828125 36.90625 11.972656 36.933594 12.117188 36.933594 L 18.007812 36.933594 C 18.15625 36.933594 18.296875 36.90625 18.429688 36.847656 C 18.566406 36.792969 18.6875 36.710938 18.789062 36.609375 C 18.894531 36.503906 18.972656 36.386719 19.027344 36.25 C 19.085938 36.117188 19.113281 35.976562 19.113281 35.828125 C 19.113281 35.683594 19.085938 35.539062 19.027344 35.40625 C 18.972656 35.269531 18.894531 35.152344 18.789062 35.046875 C 18.6875 34.945312 18.566406 34.863281 18.429688 34.808594 C 18.296875 34.75 18.15625 34.722656 18.007812 34.722656 Z M 18.007812 34.722656 " fill-opacity="1" fill-rule="nonzero"/><path fill="rgb(0%, 0%, 0%)" d="M 16.1875 17.730469 C 16.324219 17.777344 16.46875 17.792969 16.613281 17.78125 C 16.757812 17.769531 16.898438 17.730469 17.027344 17.667969 C 17.15625 17.601562 17.269531 17.511719 17.367188 17.402344 C 17.464844 17.292969 17.535156 17.171875 17.582031 17.03125 L 18.007812 15.757812 L 18.433594 17.03125 C 18.480469 17.171875 18.554688 17.292969 18.648438 17.402344 C 18.746094 17.511719 18.859375 17.601562 18.988281 17.664062 C 19.121094 17.730469 19.257812 17.769531 19.402344 17.78125 C 19.550781 17.792969 19.691406 17.773438 19.832031 17.730469 C 19.96875 17.683594 20.09375 17.613281 20.203125 17.515625 C 20.316406 17.421875 20.402344 17.308594 20.46875 17.175781 C 20.535156 17.046875 20.574219 16.90625 20.582031 16.761719 C 20.59375 16.613281 20.574219 16.472656 20.53125 16.332031 L 19.054688 11.914062 C 18.976562 11.691406 18.84375 11.511719 18.652344 11.378906 C 18.457031 11.242188 18.242188 11.171875 18.007812 11.171875 C 17.773438 11.171875 17.558594 11.242188 17.367188 11.378906 C 17.171875 11.511719 17.039062 11.691406 16.960938 11.914062 L 15.488281 16.332031 C 15.441406 16.472656 15.421875 16.613281 15.433594 16.761719 C 15.445312 16.90625 15.480469 17.046875 15.546875 17.175781 C 15.613281 17.308594 15.699219 17.421875 15.8125 17.515625 C 15.921875 17.613281 16.046875 17.683594 16.1875 17.730469 Z M 16.1875 17.730469 " fill-opacity="1" fill-rule="nonzero"/><path fill="rgb(0%, 0%, 0%)" d="M 24.265625 16.683594 L 24.265625 13.367188 L 24.636719 13.367188 C 24.78125 13.367188 24.921875 13.339844 25.058594 13.285156 C 25.195312 13.230469 25.3125 13.148438 25.417969 13.046875 C 25.519531 12.941406 25.601562 12.824219 25.65625 12.6875 C 25.710938 12.550781 25.738281 12.410156 25.738281 12.265625 C 25.738281 12.117188 25.710938 11.976562 25.65625 11.84375 C 25.601562 11.707031 25.519531 11.585938 25.417969 11.484375 C 25.3125 11.378906 25.195312 11.300781 25.058594 11.242188 C 24.921875 11.1875 24.78125 11.160156 24.636719 11.160156 L 21.691406 11.160156 C 21.542969 11.160156 21.402344 11.1875 21.265625 11.242188 C 21.132812 11.300781 21.011719 11.378906 20.910156 11.484375 C 20.804688 11.585938 20.726562 11.707031 20.667969 11.84375 C 20.613281 11.976562 20.585938 12.117188 20.585938 12.265625 C 20.585938 12.410156 20.613281 12.550781 20.667969 12.6875 C 20.726562 12.824219 20.804688 12.941406 20.910156 13.046875 C 21.011719 13.148438 21.132812 13.230469 21.265625 13.285156 C 21.402344 13.339844 21.542969 13.367188 21.691406 13.367188 L 22.058594 13.367188 L 22.058594 16.683594 C 22.058594 16.828125 22.085938 16.96875 22.140625 17.105469 C 22.199219 17.242188 22.277344 17.359375 22.382812 17.464844 C 22.484375 17.566406 22.605469 17.648438 22.738281 17.703125 C 22.875 17.757812 23.015625 17.789062 23.164062 17.789062 C 23.308594 17.789062 23.449219 17.757812 23.585938 17.703125 C 23.722656 17.648438 23.839844 17.566406 23.945312 17.464844 C 24.046875 17.359375 24.128906 17.242188 24.183594 17.105469 C 24.238281 16.96875 24.265625 16.828125 24.265625 16.683594 Z M 24.265625 16.683594 " fill-opacity="1" fill-rule="nonzero"/><path fill="rgb(0%, 0%, 0%)" d="M 11.101562 17.117188 C 11.296875 17.527344 11.621094 17.75 12.074219 17.785156 C 12.316406 17.789062 12.539062 17.722656 12.742188 17.582031 C 12.941406 17.445312 13.082031 17.261719 13.164062 17.03125 L 14.636719 12.613281 C 14.683594 12.476562 14.703125 12.332031 14.691406 12.1875 C 14.683594 12.039062 14.644531 11.902344 14.578125 11.769531 C 14.511719 11.640625 14.425781 11.527344 14.3125 11.429688 C 14.203125 11.332031 14.078125 11.261719 13.941406 11.214844 C 13.800781 11.167969 13.65625 11.152344 13.511719 11.164062 C 13.367188 11.171875 13.226562 11.210938 13.097656 11.277344 C 12.964844 11.339844 12.851562 11.429688 12.753906 11.539062 C 12.660156 11.652344 12.589844 11.777344 12.542969 11.914062 L 12.117188 13.1875 L 11.691406 11.914062 C 11.648438 11.777344 11.574219 11.652344 11.480469 11.539062 C 11.382812 11.429688 11.269531 11.339844 11.140625 11.277344 C 11.007812 11.210938 10.867188 11.171875 10.722656 11.164062 C 10.578125 11.152344 10.433594 11.167969 10.296875 11.214844 C 10.15625 11.261719 10.03125 11.332031 9.921875 11.429688 C 9.808594 11.527344 9.722656 11.640625 9.65625 11.769531 C 9.589844 11.902344 9.550781 12.039062 9.542969 12.1875 C 9.53125 12.332031 9.550781 12.476562 9.597656 12.613281 L 11.070312 17.03125 C 11.078125 17.0625 11.089844 17.089844 11.101562 17.117188 Z M 11.101562 17.117188 " fill-opacity="1" fill-rule="nonzero"/><g clip-path="url(#id1)"><path fill="rgb(0%, 0%, 0%)" d="M 33.839844 20.0625 L 33.839844 6.269531 C 33.835938 6.007812 33.808594 5.75 33.753906 5.492188 C 33.699219 5.234375 33.617188 4.984375 33.515625 4.746094 C 33.410156 4.503906 33.285156 4.273438 33.136719 4.058594 C 32.988281 3.84375 32.820312 3.644531 32.632812 3.460938 C 32.441406 3.277344 32.238281 3.113281 32.019531 2.96875 C 31.800781 2.828125 31.566406 2.707031 31.324219 2.609375 C 31.078125 2.511719 30.828125 2.4375 30.570312 2.390625 C 30.3125 2.34375 30.050781 2.320312 29.789062 2.324219 L 6.226562 2.324219 C 5.964844 2.320312 5.703125 2.34375 5.445312 2.390625 C 5.1875 2.4375 4.9375 2.511719 4.691406 2.609375 C 4.449219 2.707031 4.21875 2.828125 3.996094 2.96875 C 3.777344 3.113281 3.574219 3.277344 3.386719 3.460938 C 3.199219 3.644531 3.027344 3.84375 2.878906 4.058594 C 2.730469 4.273438 2.605469 4.503906 2.5 4.746094 C 2.398438 4.984375 2.320312 5.234375 2.265625 5.492188 C 2.210938 5.75 2.179688 6.007812 2.175781 6.269531 L 2.175781 38.875 C 2.179688 39.140625 2.210938 39.398438 2.265625 39.65625 C 2.320312 39.914062 2.398438 40.160156 2.5 40.402344 C 2.605469 40.644531 2.730469 40.871094 2.878906 41.089844 C 3.027344 41.304688 3.199219 41.503906 3.386719 41.6875 C 3.574219 41.871094 3.777344 42.035156 3.996094 42.175781 C 4.21875 42.320312 4.449219 42.441406 4.691406 42.539062 C 4.9375 42.636719 5.1875 42.707031 5.445312 42.757812 C 5.703125 42.804688 5.964844 42.828125 6.226562 42.824219 L 29.789062 42.824219 C 30.234375 42.828125 30.671875 42.757812 31.09375 42.613281 C 31.515625 42.472656 31.90625 42.265625 32.261719 41.996094 C 32.613281 41.726562 32.917969 41.402344 33.164062 41.03125 C 33.410156 40.660156 33.59375 40.261719 33.707031 39.828125 C 34.3125 39.769531 34.910156 39.65625 35.492188 39.488281 C 36.078125 39.316406 36.644531 39.097656 37.1875 38.824219 C 37.734375 38.550781 38.246094 38.230469 38.734375 37.863281 C 39.21875 37.496094 39.667969 37.089844 40.078125 36.640625 C 40.488281 36.1875 40.855469 35.707031 41.175781 35.1875 C 41.5 34.671875 41.769531 34.128906 41.992188 33.5625 C 42.214844 32.996094 42.382812 32.414062 42.496094 31.816406 C 42.613281 31.21875 42.671875 30.613281 42.675781 30.003906 C 42.679688 29.394531 42.628906 28.792969 42.523438 28.191406 C 42.414062 27.59375 42.253906 27.007812 42.039062 26.4375 C 41.824219 25.867188 41.5625 25.324219 41.246094 24.800781 C 40.929688 24.28125 40.570312 23.792969 40.167969 23.335938 C 39.761719 22.882812 39.320312 22.46875 38.839844 22.09375 C 38.359375 21.71875 37.847656 21.394531 37.308594 21.113281 C 36.765625 20.832031 36.203125 20.605469 35.621094 20.429688 C 35.039062 20.25 34.445312 20.128906 33.839844 20.0625 Z M 29.789062 40.613281 L 6.226562 40.613281 C 5.988281 40.621094 5.761719 40.582031 5.539062 40.496094 C 5.316406 40.414062 5.121094 40.289062 4.945312 40.125 C 4.773438 39.964844 4.640625 39.773438 4.542969 39.558594 C 4.445312 39.339844 4.394531 39.113281 4.386719 38.875 L 4.386719 6.269531 C 4.394531 6.035156 4.445312 5.804688 4.542969 5.589844 C 4.640625 5.375 4.773438 5.183594 4.945312 5.019531 C 5.121094 4.859375 5.316406 4.734375 5.539062 4.648438 C 5.761719 4.566406 5.988281 4.527344 6.226562 4.53125 L 29.789062 4.53125 C 30.027344 4.527344 30.257812 4.566406 30.476562 4.648438 C 30.699219 4.734375 30.898438 4.859375 31.070312 5.019531 C 31.242188 5.183594 31.375 5.375 31.472656 5.589844 C 31.570312 5.804688 31.625 6.035156 31.632812 6.269531 L 31.632812 20.0625 C 31.035156 20.128906 30.449219 20.246094 29.875 20.421875 C 29.300781 20.59375 28.746094 20.816406 28.214844 21.085938 C 27.679688 21.359375 27.175781 21.679688 26.699219 22.042969 C 26.222656 22.40625 25.78125 22.808594 25.378906 23.253906 C 24.976562 23.699219 24.613281 24.175781 24.296875 24.683594 C 23.980469 25.191406 23.710938 25.726562 23.492188 26.28125 C 23.273438 26.839844 23.101562 27.414062 22.988281 28 C 22.871094 28.589844 22.808594 29.183594 22.796875 29.78125 C 22.789062 30.382812 22.835938 30.976562 22.933594 31.570312 C 23.03125 32.160156 23.183594 32.738281 23.386719 33.300781 C 23.589844 33.867188 23.839844 34.40625 24.144531 34.925781 C 24.445312 35.445312 24.789062 35.929688 25.179688 36.386719 C 25.570312 36.84375 25.996094 37.261719 26.460938 37.636719 C 26.925781 38.015625 27.421875 38.351562 27.949219 38.640625 C 28.472656 38.925781 29.019531 39.167969 29.589844 39.355469 C 30.15625 39.546875 30.738281 39.683594 31.332031 39.765625 C 31.164062 40.03125 30.945312 40.238281 30.667969 40.386719 C 30.394531 40.539062 30.101562 40.613281 29.789062 40.613281 Z M 32.734375 37.667969 C 32.226562 37.667969 31.726562 37.621094 31.226562 37.519531 C 30.730469 37.421875 30.246094 37.273438 29.777344 37.082031 C 29.308594 36.886719 28.863281 36.648438 28.441406 36.367188 C 28.019531 36.085938 27.628906 35.761719 27.269531 35.40625 C 26.910156 35.046875 26.589844 34.65625 26.308594 34.234375 C 26.023438 33.8125 25.785156 33.363281 25.59375 32.894531 C 25.398438 32.425781 25.25 31.945312 25.152344 31.445312 C 25.054688 30.949219 25.003906 30.445312 25.003906 29.9375 C 25.003906 29.429688 25.054688 28.925781 25.152344 28.429688 C 25.25 27.929688 25.398438 27.449219 25.59375 26.976562 C 25.785156 26.507812 26.023438 26.0625 26.308594 25.640625 C 26.589844 25.21875 26.910156 24.828125 27.269531 24.46875 C 27.628906 24.109375 28.019531 23.789062 28.441406 23.507812 C 28.863281 23.226562 29.308594 22.988281 29.777344 22.792969 C 30.246094 22.601562 30.730469 22.453125 31.226562 22.355469 C 31.726562 22.253906 32.226562 22.207031 32.734375 22.207031 C 33.242188 22.207031 33.746094 22.253906 34.242188 22.355469 C 34.742188 22.453125 35.226562 22.601562 35.695312 22.792969 C 36.164062 22.988281 36.609375 23.226562 37.03125 23.507812 C 37.453125 23.789062 37.84375 24.109375 38.203125 24.46875 C 38.5625 24.828125 38.882812 25.21875 39.164062 25.640625 C 39.445312 26.0625 39.683594 26.507812 39.878906 26.976562 C 40.074219 27.449219 40.21875 27.929688 40.320312 28.429688 C 40.417969 28.925781 40.46875 29.429688 40.46875 29.9375 C 40.464844 30.445312 40.417969 30.949219 40.316406 31.445312 C 40.21875 31.941406 40.070312 32.425781 39.875 32.894531 C 39.683594 33.363281 39.445312 33.808594 39.160156 34.230469 C 38.878906 34.652344 38.558594 35.042969 38.199219 35.402344 C 37.839844 35.761719 37.449219 36.082031 37.027344 36.363281 C 36.605469 36.644531 36.160156 36.882812 35.691406 37.078125 C 35.222656 37.273438 34.742188 37.417969 34.242188 37.519531 C 33.746094 37.617188 33.242188 37.667969 32.734375 37.667969 Z M 32.734375 37.667969 " fill-opacity="1" fill-rule="nonzero"/></g><path fill="rgb(0%, 0%, 0%)" d="M 30.894531 26.992188 C 30.894531 27.136719 30.867188 27.277344 30.808594 27.414062 C 30.753906 27.550781 30.675781 27.667969 30.570312 27.773438 C 30.46875 27.875 30.347656 27.957031 30.210938 28.011719 C 30.078125 28.066406 29.9375 28.097656 29.789062 28.097656 C 29.644531 28.097656 29.503906 28.066406 29.367188 28.011719 C 29.230469 27.957031 29.113281 27.875 29.007812 27.773438 C 28.90625 27.667969 28.824219 27.550781 28.769531 27.414062 C 28.714844 27.277344 28.683594 27.136719 28.683594 26.992188 C 28.683594 26.84375 28.714844 26.703125 28.769531 26.570312 C 28.824219 26.433594 28.90625 26.3125 29.007812 26.210938 C 29.113281 26.105469 29.230469 26.027344 29.367188 25.972656 C 29.503906 25.914062 29.644531 25.886719 29.789062 25.886719 C 29.9375 25.886719 30.078125 25.914062 30.210938 25.972656 C 30.347656 26.027344 30.46875 26.105469 30.570312 26.210938 C 30.675781 26.3125 30.753906 26.433594 30.808594 26.570312 C 30.867188 26.703125 30.894531 26.84375 30.894531 26.992188 Z M 30.894531 26.992188 " fill-opacity="1" fill-rule="nonzero"/><path fill="rgb(0%, 0%, 0%)" d="M 36.785156 32.882812 C 36.785156 33.027344 36.757812 33.171875 36.703125 33.304688 C 36.644531 33.441406 36.566406 33.558594 36.460938 33.664062 C 36.359375 33.765625 36.238281 33.847656 36.105469 33.902344 C 35.96875 33.960938 35.828125 33.988281 35.679688 33.988281 C 35.535156 33.988281 35.394531 33.960938 35.257812 33.902344 C 35.121094 33.847656 35.003906 33.765625 34.898438 33.664062 C 34.796875 33.558594 34.714844 33.441406 34.660156 33.304688 C 34.605469 33.171875 34.578125 33.027344 34.578125 32.882812 C 34.578125 32.734375 34.605469 32.59375 34.660156 32.460938 C 34.714844 32.324219 34.796875 32.207031 34.898438 32.101562 C 35.003906 32 35.121094 31.917969 35.257812 31.863281 C 35.394531 31.804688 35.535156 31.777344 35.679688 31.777344 C 35.828125 31.777344 35.96875 31.804688 36.105469 31.863281 C 36.238281 31.917969 36.359375 32 36.460938 32.101562 C 36.566406 32.207031 36.644531 32.324219 36.703125 32.460938 C 36.757812 32.59375 36.785156 32.734375 36.785156 32.882812 Z M 36.785156 32.882812 " fill-opacity="1" fill-rule="nonzero"/><path fill="rgb(0%, 0%, 0%)" d="M 34.898438 26.210938 L 29.007812 32.101562 C 28.90625 32.207031 28.828125 32.324219 28.769531 32.460938 C 28.714844 32.59375 28.6875 32.738281 28.6875 32.882812 C 28.6875 33.027344 28.714844 33.167969 28.769531 33.304688 C 28.828125 33.441406 28.90625 33.558594 29.007812 33.664062 C 29.230469 33.871094 29.488281 33.972656 29.789062 33.972656 C 30.089844 33.972656 30.351562 33.871094 30.570312 33.664062 L 36.460938 27.773438 C 36.5625 27.667969 36.636719 27.546875 36.691406 27.414062 C 36.742188 27.28125 36.769531 27.140625 36.765625 26.996094 C 36.765625 26.851562 36.734375 26.714844 36.679688 26.582031 C 36.625 26.449219 36.546875 26.332031 36.441406 26.230469 C 36.339844 26.128906 36.222656 26.046875 36.089844 25.992188 C 35.957031 25.9375 35.820312 25.90625 35.675781 25.90625 C 35.53125 25.90625 35.390625 25.929688 35.257812 25.984375 C 35.125 26.035156 35.003906 26.113281 34.898438 26.210938 Z M 34.898438 26.210938 " fill-opacity="1" fill-rule="nonzero"/></svg>